<svg xmlns="http://www.w3.org/2000/svg" width="277.617" height="43.544" viewBox="0 0 277.617 43.544"><path d="M32.525,32.033a1.018,1.018,0,0,1-.276-.75,1.041,1.041,0,0,1,.311-.748,1.436,1.436,0,0,1,.944-.4,3.812,3.812,0,0,0,2.615-1.152,4.073,4.073,0,1,0-5.76-5.76,3.808,3.808,0,0,0-1.152,2.615,1.4,1.4,0,0,1-.415.945,1.057,1.057,0,0,1-.749.311,1.016,1.016,0,0,1-.749-.311l-4.2-4.137a1.417,1.417,0,0,1,0-1.982L27.352,16.4a1.7,1.7,0,0,0,.5-1.209,1.715,1.715,0,0,0-.507-1.21,2.088,2.088,0,0,0-1.394-.6,3.123,3.123,0,0,1-2.166-.921,3.389,3.389,0,0,1,4.793-4.793A3.112,3.112,0,0,1,29.5,9.83a2.022,2.022,0,0,0,.6,1.394,1.705,1.705,0,0,0,2.411.02l.02-.02,4.252-4.252a1.374,1.374,0,0,1,.619-.356q-.334-.345-.686-.676a1.408,1.408,0,0,1-.314.5l-4.251,4.263a1.156,1.156,0,0,1-.749.311,1.013,1.013,0,0,1-.749-.322,1.376,1.376,0,0,1-.415-.944,3.814,3.814,0,0,0-1.152-2.615,4.073,4.073,0,0,0-5.76,5.76,3.871,3.871,0,0,0,2.615,1.152,1.379,1.379,0,0,1,.945.4,1.046,1.046,0,0,1,.311.749,1.082,1.082,0,0,1-.3.749L22.629,20.2a1.416,1.416,0,0,1-1.981,0L16.4,15.95a1.707,1.707,0,0,0-2.412-.02l-.02.02a2.029,2.029,0,0,0-.6,1.394,3.118,3.118,0,0,1-.922,2.167,3.389,3.389,0,0,1-4.792-4.793A3.111,3.111,0,0,1,9.818,13.8a2.038,2.038,0,0,0,1.394-.611,1.682,1.682,0,0,0,.03-2.378l-.03-.029L7.005,6.443a1.413,1.413,0,0,1-.272-.405q-.323.309-.634.632a1.38,1.38,0,0,1,.4.269L10.75,11.2a1.048,1.048,0,0,1,.312.749,1.147,1.147,0,0,1-.312.749,1.441,1.441,0,0,1-.945.4A3.787,3.787,0,0,0,7.19,14.254a4.074,4.074,0,0,0,5.761,5.762A3.785,3.785,0,0,0,14.1,17.4a1.443,1.443,0,0,1,.4-.945,1.062,1.062,0,0,1,1.5,0l4.251,4.251a1.4,1.4,0,0,1,.01,1.973.087.087,0,0,1-.01.008l-4.251,4.264A1.681,1.681,0,0,0,15.5,28.1a1.712,1.712,0,0,0,.507,1.152,2.091,2.091,0,0,0,1.394.611,3.129,3.129,0,0,1,2.178.92,3.4,3.4,0,0,1-4.8,4.793,3.216,3.216,0,0,1-.922-2.166,1.974,1.974,0,0,0-.6-1.393,1.7,1.7,0,0,0-1.152-.508,1.72,1.72,0,0,0-1.21.508L6.5,36.293a1.4,1.4,0,0,1-.622.348c.25.268.506.527.768.781A1.387,1.387,0,0,1,7,36.8a.047.047,0,0,1,.01-.01l4.251-4.264a1.156,1.156,0,0,1,.749-.311,1.045,1.045,0,0,1,.75.311,1.434,1.434,0,0,1,.415.957A3.837,3.837,0,0,0,14.325,36.1a4.074,4.074,0,1,0,5.761-5.762,3.856,3.856,0,0,0-2.616-1.152,1.382,1.382,0,0,1-.944-.4,1.059,1.059,0,0,1,0-1.5l4.2-4.24a1.394,1.394,0,0,1,1.971-.01.05.05,0,0,0,.011.01l4.217,4.2a1.694,1.694,0,0,0,2.419,0,2.052,2.052,0,0,0,.6-1.348,3.166,3.166,0,0,1,.933-2.107,3.387,3.387,0,0,1,4.828,4.734,3.163,3.163,0,0,1-2.167.922,2.078,2.078,0,0,0-1.394.6,1.756,1.756,0,0,0-.5,1.209,1.707,1.707,0,0,0,.5,1.211l4.263,4.262a1.412,1.412,0,0,1,.385.793c.286-.271.565-.553.836-.84a1.4,1.4,0,0,1-.852-.391Z" fill="none"/><path d="M32.145,32.47a1.7,1.7,0,0,1-.5-1.211,1.756,1.756,0,0,1,.5-1.209,2.083,2.083,0,0,1,1.394-.6,3.163,3.163,0,0,0,2.167-.922,3.387,3.387,0,0,0-4.828-4.734,3.17,3.17,0,0,0-.933,2.107,2.054,2.054,0,0,1-.6,1.348,1.694,1.694,0,0,1-2.419,0l-4.217-4.2-.011-.01a1.394,1.394,0,0,0-1.971.01l-4.2,4.24a1.059,1.059,0,0,0,0,1.5,1.377,1.377,0,0,0,.944.4,3.858,3.858,0,0,1,2.616,1.152A4.074,4.074,0,0,1,14.322,36.1a3.837,3.837,0,0,1-1.152-2.615,1.429,1.429,0,0,0-.415-.957,1.05,1.05,0,0,0-.75-.311,1.151,1.151,0,0,0-.749.311L7.005,36.79A.047.047,0,0,0,7,36.8a1.387,1.387,0,0,0-.351.623,21.7,21.7,0,0,0,15.128,6.121c.194,0,.386-.01.579-.014A4.061,4.061,0,0,1,29.092,39.4a3.8,3.8,0,0,1,1.129,2.439,21.813,21.813,0,0,0,6.572-4.32,1.412,1.412,0,0,0-.385-.793Z" fill="#45396b"/><path d="M10.888,32.021a1.72,1.72,0,0,1,1.21-.508,1.7,1.7,0,0,1,1.152.508,1.971,1.971,0,0,1,.6,1.393,3.21,3.21,0,0,0,.922,2.166,3.4,3.4,0,0,0,4.8-4.793,3.127,3.127,0,0,0-2.178-.92A2.091,2.091,0,0,1,16,29.256,1.716,1.716,0,0,1,15.5,28.1,1.677,1.677,0,0,1,16,26.952l4.251-4.264a.087.087,0,0,1,.01-.008,1.4,1.4,0,0,0-.01-1.973L16,16.456a1.062,1.062,0,0,0-1.5,0,1.443,1.443,0,0,0-.4.945,3.78,3.78,0,0,1-1.152,2.616,4.074,4.074,0,0,1-5.761-5.762A3.787,3.787,0,0,1,9.8,13.1a1.443,1.443,0,0,0,.945-.4,1.155,1.155,0,0,0,.312-.749,1.044,1.044,0,0,0-.312-.749L6.5,6.939a1.38,1.38,0,0,0-.4-.269A21.69,21.69,0,0,0,0,21.772c0,.163.009.323.012.483a3.967,3.967,0,0,1,3.756,1.09,3.985,3.985,0,0,1,.092,5.633,3.786,3.786,0,0,1-2.215,1.1,21.808,21.808,0,0,0,4.231,6.561,1.4,1.4,0,0,0,.622-.348Z" fill="#6aa242"/><path d="M11.21,10.775a.4.4,0,0,0,.03.029,1.682,1.682,0,0,1-.03,2.378,2.038,2.038,0,0,1-1.394.611,3.111,3.111,0,0,0-2.166.921,3.389,3.389,0,0,0,4.792,4.793,3.112,3.112,0,0,0,.922-2.167,2.029,2.029,0,0,1,.6-1.394l.02-.02a1.707,1.707,0,0,1,2.412.02L20.646,20.2a1.416,1.416,0,0,0,1.981,0l4.264-4.251a1.087,1.087,0,0,0,.3-.749,1.049,1.049,0,0,0-.311-.749,1.382,1.382,0,0,0-.945-.4,3.88,3.88,0,0,1-2.615-1.152,4.073,4.073,0,0,1,5.76-5.76,3.81,3.81,0,0,1,1.152,2.615,1.37,1.37,0,0,0,.415.944,1.009,1.009,0,0,0,.749.322,1.151,1.151,0,0,0,.749-.311L36.4,6.439a1.4,1.4,0,0,0,.314-.5A21.7,21.7,0,0,0,21.772,0c-.234,0-.465.01-.7.018a3.986,3.986,0,0,1-1.12,3.66,3.985,3.985,0,0,1-5.634.092,3.8,3.8,0,0,1-1.078-2.034,21.8,21.8,0,0,0-6.511,4.3A1.413,1.413,0,0,0,7,6.444Z" fill="#157aab"/><path d="M43.527,21.044a4.061,4.061,0,0,1-4.078-6.755,3.828,3.828,0,0,1,2.329-1.115A21.794,21.794,0,0,0,37.4,6.616a1.387,1.387,0,0,0-.619.356l-4.252,4.252-.02.02a1.7,1.7,0,0,1-2.411-.02,2.027,2.027,0,0,1-.6-1.394,3.121,3.121,0,0,0-.922-2.166,3.389,3.389,0,1,0-4.793,4.793,3.115,3.115,0,0,0,2.166.921,2.083,2.083,0,0,1,1.394.6,1.715,1.715,0,0,1,.507,1.21,1.689,1.689,0,0,1-.5,1.209L23.088,20.66a1.417,1.417,0,0,0,0,1.982l4.2,4.137a1.024,1.024,0,0,0,.749.311,1.053,1.053,0,0,0,.749-.311,1.4,1.4,0,0,0,.415-.945,3.812,3.812,0,0,1,1.152-2.615,4.073,4.073,0,1,1,5.76,5.76A3.812,3.812,0,0,1,33.5,30.131a1.439,1.439,0,0,0-.944.4,1.045,1.045,0,0,0-.311.748,1.014,1.014,0,0,0,.276.75L36.776,36.3a1.416,1.416,0,0,0,.852.391,21.692,21.692,0,0,0,5.917-14.913C43.545,21.528,43.535,21.286,43.527,21.044Z" fill="#c04845"/><path d="M54.98,40.142c-.231,0-.6-.148-.6-.438a5.875,5.875,0,0,1,.1-.771c.058-.623.127-1.256.162-1.879.1-2.5.334-5.033.334-7.521V20.822c-.83,1.06-1.556,1.983-2.051,2.536-.3.322-.529.506-.633.506a.717.717,0,0,1-.588-.287c-.7-.553-1.394-1.152-2.12-1.66-.138-.1-.4-.252-.426-.437s.323-.519.461-.622c.426-.4.853-.807,1.291-1.257a43.368,43.368,0,0,0,4.608-5.91,15.944,15.944,0,0,0,2.143-4.01c.069-.219.138-.587.4-.622a2.822,2.822,0,0,1,.726.4c.622.438,1.417,1.026,1.555,1.152l.46.3c.3,0,.588.069.888.069,2.108.138,4.228.138,6.267.138,3.168,0,6.406,0,9.586-.149h.864c.3,0,.5,0,.5.333s-.1,1.026-.138,1.544c-.2,4.032-.357,8.065-.461,12.12q-.1,4.691-.1,9.367v3.711c0,.369,0,.922-.427.922a6.845,6.845,0,0,1-.794-.1,73.582,73.582,0,0,0-7.639-.416,47.331,47.331,0,0,0-6.913.52,6.964,6.964,0,0,1-.829.08c-.553,0-.553-.277-.553-.854,0-.922.058-2.385.058-2.719,0-3.559,0-7.131-.092-10.691,0-3.928,0-7.857-.3-11.751v-.6c-.2.369-.427.738-.53.887s-.957,1.509-1.981,2.973V27.389c0,3.262.068,6.326.138,9.563v2.131a4.453,4.453,0,0,1,0,.693c0,.367-.392.4-.76.4Zm14.747-5.137c1.383,0,3.836,0,5.427.068,0-3.375.127-6.8.195-10.174s.128-6.8.23-10.29H63.943c.057,3.227.057,6.5.092,9.737,0,3.594.139,7.166.173,10.727,2.305,0,3.238-.068,5.519-.068m-4.227-2.8c0-1.279-.138-2.42-.173-3.709s-.161-2.5-.161-3.711c0-.254,0-.369.23-.369H66a17.522,17.522,0,0,0,2.074.115h.173V22a10.563,10.563,0,0,0-1.486.07,3.666,3.666,0,0,0-.968.082,3.407,3.407,0,0,1-.588.068c-.23,0-.3-.3-.3-.519V19.2c0-.172,0-.691.265-.691s.622.1.956.1h2.12v-.473c0-.7-.1-1.4-.1-2.1s.334-.473.76-.473h1.786c.2,0,.461,0,.565.184v.22c0,.253-.07.553-.07.841l-.091,1.762H72.47c.657,0,1.36-.172,2.016-.172.2,0,.173.218.173.4s-.139,1.832-.242,2.638c-.058.335,0,.7-.357.7A10,10,0,0,1,73.069,22c-.692,0-1.359-.068-2.017-.068v2.5h3.076c.162,0,.23.07.23.289,0,1.07-.2,2.6-.265,3.744-.1,1.406-.138,2.305-.208,3.535,0,.289,0,.877-.323.877s-.933-.068-1.393-.068c-.888,0-1.786-.082-2.708-.082-.726,0-1.555,0-2.615.082a7.169,7.169,0,0,1-1.026.068c-.265,0-.322-.588-.322-.736m5.946-2.307c0-.873.138-1.762.162-2.6-1.337.023-2.489.023-3.8.023v2.6h3.606" fill="#281f43"/><path d="M94.6,40.257c-.795-.334-.968-.449-1.625-.736-.426-.219-1.025-.369-1.06-.623s.392-.736.691-1.359a51.4,51.4,0,0,0,3.456-7.5c-1.024-.289-2.489-.738-3.813-1.152L91.238,30.95c-.772,1.51-1.555,3.121-2.454,4.609-.069.137-.357.84-.622.84a3.476,3.476,0,0,1-1.026-.4c-.76-.4-1.359-.7-1.762-.889s-.991-.369-.991-.656.668-.887.864-1.152a44.738,44.738,0,0,0,5.761-10.1H87.943a5.71,5.71,0,0,1-.795.08c-.333,0-.368-.184-.368-.449v-.91c-.069-2.719-.127-5.887-.392-8.756,0-.507-.208-1.061-.208-1.578,0-.288.1-.439.565-.439s.9.116,1.359.151h5.484c1.521,0,2.719,0,4.24-.081.3,0,.991-.07,1.325-.07s.588.185.553.439l-.322,3.353c-.172,2.569-.369,5.288-.4,7.823,0,.473-.23.473-.853.473H94.787A26.548,26.548,0,0,1,93.635,25.8c1.751.438,3.456.887,5.253,1.291.438.068,1.59.219,1.556.621a4.176,4.176,0,0,1-.22,1.268c-.622,1.8-1.083,3.227-1.82,5.139a45.827,45.827,0,0,1-2.3,5.4c-.092.219-.392.955-.691.99s-.461-.115-.887-.254m1.221-20.544c0-1.578.091-3.088.23-4.816H89.786c.069,1.625.069,3.2.2,4.816Zm7.074,4.333a27.352,27.352,0,0,1-1.44-3.814,6.424,6.424,0,0,1-.369-1.693c0-.623.634-.657.992-.772a16.655,16.655,0,0,1,1.958-.484,5.812,5.812,0,0,1,1.152-.138c.438,0,.5.4.5.875v1.544a22.551,22.551,0,0,1-.772,4.413c-.242.807-.438,1.359-.83,1.359s-.83-.84-1.06-1.289m2.937,15.5c-.76-.771-1.048-1.059-1.613-1.578-.3-.219-.7-.438-.7-.922s.968-.586,1.763-.955a3.866,3.866,0,0,0,1.843-1.5,6.592,6.592,0,0,0,.438-3.236V22.687c0-2.05-.068-2.453-.068-4.55a37.065,37.065,0,0,0-.2-4.228,7.629,7.629,0,0,0-.139-1.245,9.955,9.955,0,0,1-.161-1.071c0-.473.564-.4.864-.4h2.834c.53,0,.794,0,.794.4s-.126.99-.161,1.509c-.069.91-.1,1.866-.1,2.788v7.57c0,3.018.069,4.332.069,7.385,0,2.43.138,4.193-.5,5.76a7.347,7.347,0,0,1-2.742,3.158,2.684,2.684,0,0,1-1.325.518c-.265,0-.529-.369-.864-.7" fill="#281f43"/><path d="M169.122,39.994c-1.842,0-2.512-.1-4.389-.1-1.256,0-3.744,0-5,.068-.795,0-1.613.082-2.408.082-.23,0-.564,0-.564-.3V37.689c0-1.545-.1-3.135-.2-4.678-.07-1.094-.139-2.236-.23-3.342a4.369,4.369,0,0,0-.1-1.152,5.7,5.7,0,0,1-.094-.771c0-.322.162-.369.428-.369.494,0,.99.082,1.486.082h2.211l.438-.738c.393-.691.76-1.4.992-1.832h-1.4c-.334,0-.529,0-.529-.438v-.887c.068-1.291.137-2.57.16-3.9V14.634h-6.635c-.439,0-.865.218-1.291.218a.51.51,0,0,1-.533-.481c0-.024,0-.048,0-.072V11.626c0-.368,0-.691.428-.691a8.867,8.867,0,0,1,.92.1c.6,0,1.152.081,1.752.081h4.863a20.092,20.092,0,0,0,2.223-.081c.426,0,.818-.068,1.221-.068s.5,0,.5.438-.068.553-.068.852v2.12c0,2.3-.059,4.608,0,6.982,0,.957.1,1.912.1,2.869v.3a12.537,12.537,0,0,1,1.256.99c.232.186.5.336.5.658s-.264.447-.633.771-.5.369-.727.588h6.326c.586,0,1.486-.07,2.072-.07.336,0,.762,0,.762.543a16.259,16.259,0,0,1-.266,1.809c-.287,2.684-.5,5.4-.621,8.064A10.46,10.46,0,0,1,172,39.21c-.07.852-.2.955-.852.955s-1.361-.15-2.029-.15M152.659,25.154c-.127-.438-.369-1.025-.564-1.648a5.41,5.41,0,0,1-.23-.852c0-.369.334-.289.863-.438a26.083,26.083,0,0,0,5.52-2.167c.174-.081.461-.3.635-.3s.229.623.229.807c.068.669,0,.887.068,1.509a1.26,1.26,0,0,1-.068.7,2.651,2.651,0,0,1-.668.4c-.5.334-1.152.658-1.486.842s-2.016.99-3.006,1.439c-.162.068-.656.357-.889.322s-.3-.32-.4-.619m.4-5.76c-.264,0-.736-.1-.736-.52a4.086,4.086,0,0,1,.139-.691,14.243,14.243,0,0,1,.725-1.913c.23-.438.461-.772.635-.772a2.564,2.564,0,0,1,.887.369,13.313,13.313,0,0,1,2.477,1.947,1.972,1.972,0,0,1,.668,1.06c0,.265-.4.45-.828.52a9.748,9.748,0,0,1-2.016.184,10.99,10.99,0,0,1-1.951-.184m16.131,12.891c.068-.621.1-1.152.16-1.8h-9.781a15.407,15.407,0,0,0,.07,1.8Zm-.3,4.677a18,18,0,0,1,.139-1.957h-9.217a19.161,19.161,0,0,0,.068,1.957c2.973-.08,6.049,0,9.057,0m3.643-11.175a7.09,7.09,0,0,1,0-.922c.068-1.313.125-2.6.125-3.893V14.866c-2.3,0-4.332-.069-6.578,0-.428,0-.957.149-1.418.149s-.4-.184-.4-.518V11.743c0-.37,0-.656.439-.656s.588.068.922.068a14.624,14.624,0,0,0,1.75.1H174.4c.393,0,.818-.07,1.221-.07s.5,0,.5.4a7.819,7.819,0,0,1-.1.875v2.213c0,2.132-.059,4.955,0,7.12,0,1.258.174,2.5.174,3.756,0,.658-.207.658-.762.658h-2.189c-.32,0-.621,0-.691-.4m-6.981-.589c-.162-.438-.393-1.025-.588-1.646a4.281,4.281,0,0,1-.23-.934c0-.369.32-.287.852-.438a24.8,24.8,0,0,0,5.461-2.167,2.011,2.011,0,0,1,.658-.3c.2,0,.2.4.2.772a8.05,8.05,0,0,0,.1,1.543,1.235,1.235,0,0,1-.1.623,1.949,1.949,0,0,1-.553.482c-.531.336-1.232.656-1.521.807s-1.924.992-2.984,1.475a3.567,3.567,0,0,1-.852.322c-.266,0-.334-.322-.438-.621m.564-5.76c-.266,0-.727-.172-.727-.472a5.287,5.287,0,0,1,.127-.772,13.812,13.812,0,0,1,.736-1.879c.23-.471.461-.806.623-.806a2.626,2.626,0,0,1,.9.369,15.448,15.448,0,0,1,2.479,1.948,2.131,2.131,0,0,1,.656,1.071c0,.288-.393.438-.818.507a12.545,12.545,0,0,1-2.016.219,10.985,10.985,0,0,1-1.958-.185" fill="#281f43"/><path d="M186.163,29.853a1.361,1.361,0,0,1-.461-.586c-.2-.4-.3-.588-.531-1.152a1.3,1.3,0,0,1-.229-.588c0-.186.172-.186.3-.186h1.152c.75,0,1.486-.08,2.213-.115s1.484-.287,1.555-1.15c-2.154.184-4.3.334-6.453.449-.367,0-.828.1-1.254.139a2.934,2.934,0,0,1-.5,0c-.23,0-.2-.23-.23-.484l-.1-1.326c0-.287-.07-.541-.07-.656.07-.3.242-.219.566-.252h2.016c1.486,0,2.949-.082,4.436-.15a4.645,4.645,0,0,0-1.061-.438c-.1,0-.367-.115-.367-.266s.137-.184.334-.322a3.9,3.9,0,0,1,.76-.4c.266-.1.3-.229.564-.229a2.788,2.788,0,0,1,.564.148c.322.115.621.254.957.4a9.767,9.767,0,0,0,1.221-.736h-4.16c-.828,0-1.693.08-2.488.15-.393,0-.852.15-1.256.15-.23,0-.2-.15-.2-.438V20.741c0-.22,0-.473.2-.473s.727.1,1.094.1h9.828c.393,0,1.025,0,1.049.553a.912.912,0,0,1-.52.888c-.736.542-2.3,1.394-3.316,1.981.932-.08,1.855-.184,2.787-.3a6.131,6.131,0,0,0,1.152-.186,4.577,4.577,0,0,1,.529-.1c.2,0,.2.322.2.691v1.439c0,.369-.229.369-.563.4-1.061.148-2.178.219-3.271.322a2.941,2.941,0,0,1-1.613,3.053,9.116,9.116,0,0,1-4.172.852,1.886,1.886,0,0,1-.668-.08m-3.584-15.309V12.734c0-.335,0-.623.3-.623a7.828,7.828,0,0,1,.955.115c.555,0,1.152.1,1.682.1q3.814,0,7.641-.1a22.376,22.376,0,0,0,2.3-.08c.461,0,.936-.15,1.359-.15.2,0,.3,0,.3.3a9.2,9.2,0,0,1-.369,1.946c-.068.52-.068.807-.391.807h-.9c-2.176-.15-4.332-.15-6.508-.15-1.66,0-3.309,0-5,.115-.32,0-.621.069-.955.069s-.393-.1-.393-.473m.853,25.1V37.021c0-.52-.057-1.061.438-1.061s.76.068,1.152.068c.6,0,1.223.07,1.82.07h7.213V33.864c-1.152,0-2.088,0-3.537.1a16.653,16.653,0,0,0-2.307.148h-.459a.413.413,0,0,1-.426-.4.2.2,0,0,1,0-.035v-2.6c0-.334,0-.7.334-.7a6.385,6.385,0,0,1,.955.115c.854.068,1.684.1,2.512.1h2.813a12.085,12.085,0,0,0-.068-1.578,1.854,1.854,0,0,1-.07-.438c0-.438.334-.369.6-.369h2.477c.23,0,.564,0,.564.334,0,.184-.07.4-.07.588v1.463c1.521,0,2.939-.068,4.609-.186.322,0,.76-.068,1.152-.1a2.588,2.588,0,0,1,.668-.15c.254,0,.322.068.322.369,0,.115-.068.586-.162,1.152l-.193,1.729c0,.438-.07.506-.336.506s-1.152-.068-1.682-.068c-1.152-.07-2.848-.07-4.332-.07v2.236c2.707,0,5.023.08,7.928-.1a11.33,11.33,0,0,0,1.52-.184,4.384,4.384,0,0,1,.773-.115c.16,0,.266.07.266.3a11.1,11.1,0,0,1-.209,1.4c-.094.771-.23,1.613-.266,1.982s0,.7-.322.7-1.291-.182-1.889-.229a95.047,95.047,0,0,0-9.529-.357h-6.049c-.955,0-1.912.184-2.881.254a16.171,16.171,0,0,0-1.75.252,3.881,3.881,0,0,1-1.152.221c-.3,0-.4-.1-.4-.508m1.52-20.324c0-.957-.16-2.235-.264-3.191a1.564,1.564,0,0,1,0-.335c0-.218.092-.253.252-.253h10.149c.336,0,.357,0,.357.253a4.493,4.493,0,0,1-.092.553l-.1.738c-.07.587-.2,1.509-.266,2.131,0,.289.068.4-.3.4a13.68,13.68,0,0,1-1.82-.081h-5.738l-1.326.1h-.668c-.2,0-.229,0-.229-.4M192.684,18a8.591,8.591,0,0,1,.1-.921h-5.762l.07.921h5.553m-4.17-6.475c-.23-.081-.428-.219-.428-.484a4.962,4.962,0,0,1,.2-.772,5.3,5.3,0,0,1,.529-1.451c.172-.369.367-.772.529-.772a3.109,3.109,0,0,1,.99.369,13.524,13.524,0,0,1,2.777,1.4c.207.149.83.472.83.806s-.334.4-.863.553a16.131,16.131,0,0,1-3.307.473,4.45,4.45,0,0,1-1.256-.1M208.065,29.5a3.026,3.026,0,0,1-1.094-1.152,11.207,11.207,0,0,1-2.307-4.781,3.5,3.5,0,0,1-.266.473l-.758,1.289c-.207.3-.369.555-.5.555a1.24,1.24,0,0,1-.7-.439c-.494-.449-1.025-.922-1.613-1.4-.264.7-.6,1.439-.99,2.246-.207.369-.494,1.025-.727,1.4-.068.115-.24.438-.4.438-.334,0-.529-.174-.887-.4-.635-.322-1.152-.586-1.521-.771s-.633-.219-.633-.438.16-.219.369-.438a9.15,9.15,0,0,0,.621-.738,10.187,10.187,0,0,0,1.658-3.156l-.7-.484-1.082-.656c-.334-.115-.6-.219-.6-.472s.1-.231.23-.553a11.7,11.7,0,0,1,.6-1.072c.092-.185.3-.657.531-.657s.355.1.758.334.588.322.959.542c.068-.691.125-1.36.16-2.051h-.818a8.392,8.392,0,0,0-.969.115c-.322,0-.355-.264-.355-.553v-2.3c0-.288,0-.473.3-.473s.555.07.854.07h1.059l-.1-2.869-.125-1.983c0-.219.2-.369.529-.369h2.143c.3,0,.668,0,.668.369,0,.219-.068.438-.068.7-.068,1.359-.068,2.788-.1,4.182h3.779c.357,0,.727-.069,1.084-.069s.471,0,.471.369a4.623,4.623,0,0,1-.1.692c-.068.587-.137,1.151-.16,1.762a19.111,19.111,0,0,0,.391,5.439,6.179,6.179,0,0,0,2.639,3.916c.5.336,1.025.336,1.025.658s-.4.586-.76.922-.6.807-1.061,1.289c-.1.15-.391.877-.691.877s-.334-.139-.725-.4m-3.871-12.309h-2.051a32.943,32.943,0,0,1-.438,3.744c.771.518,1.359.921,1.531,1.072s.957.623,1.313.945a30.52,30.52,0,0,1-.355-5.761" fill="#281f43"/><path d="M119.454,23.484c-.426,0-.738.08-.738-.369v-.967c0-1.522.1-3.077.1-4.61V14.865c0-.587,0-.818.507-.818.967,0,2.143.081,3.145.081.7,0,20-.115,21.373-.184a11.634,11.634,0,0,1,1.279-.081c.564,0,.531.415.531.784v6.648c0,.633.1,1.233.1,1.452,0,.668-.334.75-.98.75h-2.2c-.438,0-.736,0-.736-.484v-1c0-1.268.068-1.684.068-2.938V17.322c-6.36,0-13.089.115-19.471.115v5.577c0,.564-.311.564-.911.564Zm5.76,16.658a8.044,8.044,0,0,1-.6-1c-.437-.668-.771-1.3-1.071-1.785-.172-.3-.645-.818-.575-1.152s.542-.3.875-.266a33.328,33.328,0,0,0,3.779-.1,9.924,9.924,0,0,0,3.618-.863,2.632,2.632,0,0,0,1.06-2.305,6.427,6.427,0,0,0,0-1.3c-1.647,0-3.283.078-5.023.078a29.783,29.783,0,0,0-3.215.186c-.333.07-.7.115-1.071.184a5.064,5.064,0,0,1-.6.115c-.473,0-.4-.633-.4-1.047V28.171c0-.484,0-.736.4-.736s.668.1,1,.1c.577,0,1.037.115,1.51.115H130.9a8.826,8.826,0,0,0-1.877-2c-.438-.3-.83-.416-.83-.67s.334-.482.53-.633.807-.564,1.3-.863a2.631,2.631,0,0,1,.737-.289,1.692,1.692,0,0,1,.968.484c.265.219.542.438.806.7a11.98,11.98,0,0,1,.934-.854,8.418,8.418,0,0,0,.911-.967h-5.428c-1,0-2,.115-3.042.219a3.631,3.631,0,0,1-.7.115c-.53,0-.438-.52-.438-.969v-2.12c0-.6.069-.783.438-.737a4.381,4.381,0,0,1,.668,0,59.618,59.618,0,0,0,6.256.1c1.4,0,2.845.081,4.287,0,.863,0,1.773-.1,2.637-.1.473,0,1,.1,1,.667a3.119,3.119,0,0,1-.831,1.82,34.426,34.426,0,0,1-3.284,3.71,11.982,11.982,0,0,1-1.545,1.416c.174.3.334.6.473.887h3.043c1,0,2.108-.1,3.146-.184a12.684,12.684,0,0,1,1.576-.186c.232,0,.439,0,.439.4a3.7,3.7,0,0,1-.219.8l-.438,2.674c-.07.367-.092.75-.4.783a10.49,10.49,0,0,1-1.232-.184c-.967-.15-2-.232-3.008-.3h-1.948c0,.4.07.818.07,1.221a10.962,10.962,0,0,1-.334,2.719,5.087,5.087,0,0,1-2.212,3.123,11.459,11.459,0,0,1-4.321,1.486,20.321,20.321,0,0,1-3.353.4.762.762,0,0,1-.53-.186" fill="#281f43"/><path d="M122.795,6.766a1.572,1.572,0,0,0-.623.23.8.8,0,0,1,.15.345.715.715,0,0,1-.608.806h-.256a1.422,1.422,0,0,0,0,.38,1.555,1.555,0,1,0,1.325-1.762" fill="#281f43"/><path d="M122.783,6.685a1.793,1.793,0,0,0-.656.242.845.845,0,0,1,.161.357.771.771,0,0,1-.645.864.9.9,0,0,1-.254,0,2.477,2.477,0,0,0,0,.4A1.636,1.636,0,1,0,122.783,6.7" fill="#281f43"/><path d="M138.822,6.04a5.842,5.842,0,0,0-11.211-1.314,5.841,5.841,0,1,0,.828,5.761,5.83,5.83,0,0,0,10.369-4.413m-15.23,6.3a4.079,4.079,0,1,1,3.455-4.618s0,.005,0,.009a4.09,4.09,0,0,1-3.456,4.609M133.636,10.9a4.079,4.079,0,1,1,3.455-4.618.02.02,0,0,0,0,.01,4.089,4.089,0,0,1-3.457,4.608" fill="#281f43"/><path d="M132.807,5.245a1.532,1.532,0,0,1,.692.058.841.841,0,0,0,0,.38.771.771,0,0,0,.864.646.838.838,0,0,0,.241-.082,1.4,1.4,0,0,1,.1.393,1.636,1.636,0,0,1-3.222.572c-.006-.037-.012-.075-.016-.113a1.648,1.648,0,0,1,1.394-1.854" fill="#281f43"/><path d="M142.209.763l5.749,3.514-8.526,7.512Z" fill="#c04845"/><path d="M235.7,20.741l.07,18.307-8.238.518.576-16.67c-2.787,1.842-6.164,3.939-7.178,4.607l-7.225-5.092C224.078,17.71,232.928,10.89,237.9,7.03l5.7,4.609c-5.979,4.7-8.248,6.336-10.818,8.064Z" fill="#281f43"/><path d="M245.393,34.347a133.025,133.025,0,0,0,11.521-13.019l-7.928.208-2.994-5.761,16.914-1.152v-7.2l7.373,1.394V14.1L275,13.793l2.615,6.913-7.3.208.068,17.582-7.7.932.1-15.414a143.2,143.2,0,0,1-9.779,13.607Z" fill="#281f43"/></svg>