<svg xmlns="http://www.w3.org/2000/svg" xmlns:xlink="http://www.w3.org/1999/xlink" width="81.916" height="65.771" viewBox="0 0 81.916 65.771"><defs><clipPath id="a"><rect width="81.797" height="65.651" fill="#ed7b27"/></clipPath></defs><g transform="translate(0.12)"><g transform="translate(0.63 4.899)"><path d="M35.8,70.265q-1.118,0-2.232-.01c-2.48-.023-4.993-.085-7.47-.184l-.227-.008a7.069,7.069,0,0,1-1.885-.242,5.75,5.75,0,0,0-1.716-.1c-.262.009-.533.019-.792.015l-21.216-.3L.25,64.928c0-.686.034-1.366.068-2.024.026-.484.052-.985.062-1.477l.029-1.4Q.476,56.9.541,53.778t.131-6.244l.066-3.122a10.486,10.486,0,0,0-.023-1.227,2.368,2.368,0,0,1,.048-.651c.01-.055.019-.106.024-.15,0-.163-.032-.9-.065-1.61-.073-1.6-.173-3.794-.162-5.067s.226-7.448.434-13.436c.14-4.025.272-7.826.343-10.131l.023-.748.748.021c1.406.039,2.811.072,4.175.1,2.083.039,4.18.064,6.233.075,2.068.011,4.165.008,6.233-.009.99-.008,2.01-.02,3.117-.037h.011l.767-.012c.053,0,.114,0,.178-.008a2.827,2.827,0,0,1,.693.022,5.34,5.34,0,0,0,.874.089c1.184.038,2.394.075,3.7.112l.877.026c16.991.513,20.245.468,20.672.4a.729.729,0,0,0-.546.656h0l1.5.111v0c-.063.837-.127,1.687-.193,2.545-.3,3.961-.613,8.056-.8,11.9L48.1,27.3c.191-3.861.5-7.967.806-11.938q.064-.84.127-1.669c-.446.01-1.071.012-1.86.007-1.467-.009-3.549-.045-6.187-.105-4.687-.107-9.853-.263-12.059-.33l-.875-.026c-1.309-.037-2.522-.074-3.707-.112a6.822,6.822,0,0,1-1.1-.114,1.789,1.789,0,0,0-.329,0c-.077,0-.156.009-.239.01l-.77.012h-.011c-1.11.017-2.133.029-3.127.037-2.074.018-4.178.021-6.253.009-2.059-.011-4.163-.036-6.253-.075-1.127-.021-2.281-.047-3.441-.078-.074,2.334-.194,5.772-.32,9.39-.208,5.977-.423,12.158-.433,13.4s.092,3.49.16,4.985c.067,1.47.074,1.692.059,1.825-.01.094-.026.184-.04.264a1.474,1.474,0,0,0-.032.249,11.861,11.861,0,0,1,.029,1.4l-.066,3.122q-.065,3.122-.131,6.244t-.131,6.245l-.029,1.4c-.011.516-.038,1.029-.064,1.525-.035.667-.068,1.3-.066,1.94l.01,3.038,19.741.275c.222,0,.463-.005.718-.014a6.893,6.893,0,0,1,2.2.161,5.841,5.841,0,0,0,1.506.18l.234.009c2.462.1,4.96.16,7.425.183,4.685.043,9.431-.051,14.12-.281-.215-8.69-.227-17.492-.036-26.177l1.5.033c-.2,8.9-.177,17.934.055,26.837l.019.73-.73.038C44.3,70.154,40.033,70.265,35.8,70.265Z" transform="translate(-1 -9.393)" fill="#ed7b27"/><path d="M15.983,31.435l23.234.773c.247.008.7-.079.8-.353.093-.259-.082-.428-.351-.437L16.43,30.645c-.247-.008-.7.079-.8.353-.093.259.082.428.351.437" transform="translate(-6.396 -16.22)" fill="#ed7b27"/><path d="M15.151,43.137l22.357.081a1.348,1.348,0,0,0,.861-.231c.116-.134.231-.26-.07-.261l-22.357-.08a1.344,1.344,0,0,0-.861.231c-.117.134-.231.259.07.26" transform="translate(-6.157 -20.654)" fill="#ed7b27"/><path d="M16,54.011l19.342.589c.489.015,1.285-.706.463-.731L16.466,53.28c-.489-.015-1.285.706-.463.731" transform="translate(-6.411 -24.583)" fill="#ed7b27"/><path d="M16.538,66.893l16.744.876a1.155,1.155,0,0,0,.861-.231c.125-.151.206-.343-.1-.359L17.3,66.3a1.155,1.155,0,0,0-.861.231c-.125.151-.2.344.1.359" transform="translate(-6.663 -29.393)" fill="#ed7b27"/><path d="M15.16,83.559q14.414.22,28.8,1.251c.264.019,1.388-.455.789-.5q-14.379-1.03-28.8-1.251a1.322,1.322,0,0,0-.861.231c-.118.137-.229.262.071.267" transform="translate(-6.16 -35.586)" fill="#ed7b27"/><path d="M11.761,13.645a3.072,3.072,0,0,1-2.267-3.408A2.366,2.366,0,0,1,9.883,9.19a1.6,1.6,0,0,1,.285-.317,1.24,1.24,0,0,1,.3-.177c.073-.026.079-.03.021-.009.041-.011.082-.022.124-.032-.15.03.17-.009.059,0a1.183,1.183,0,0,1,.363.03,1.389,1.389,0,0,1,.748.48c.231.274,1.394-.145,1.139-.448-.957-1.138-3-.7-3.931.237a3.172,3.172,0,0,0-.054,4,3.1,3.1,0,0,0,2.06,1.273A1.224,1.224,0,0,0,11.856,14c.192-.151.15-.318-.1-.354" transform="translate(-3.678 -7.868)" fill="#ed7b27"/><path d="M20.215,13.658a3.3,3.3,0,0,1-2.134-2.875,2.466,2.466,0,0,1,.544-1.83c.5-.54,1.322-.054,1.86.211a.92.92,0,0,0,.866-.1c.169-.113.361-.4.093-.528a3.905,3.905,0,0,0-2.573-.525A2.5,2.5,0,0,0,17.13,9.453a3.646,3.646,0,0,0,.537,3.665,3.717,3.717,0,0,0,1.817,1.255.946.946,0,0,0,.861-.231c.2-.2.121-.405-.13-.486" transform="translate(-6.857 -7.837)" fill="#ed7b27"/><path d="M29.441,13.457a3.288,3.288,0,0,1-1.461-3.222c.009-.044.062-.242.039-.165.03-.1.063-.195.1-.289s.077-.179.122-.265c.025-.047.051-.093.077-.139,0-.006.044-.07.013-.021s.021-.031.028-.039c.059-.081.12-.159.186-.235.028-.032.1-.1.025-.032.045-.043.093-.084.143-.122s.077-.055.115-.083c.079-.059-.072.029.053-.028.044-.02.09-.042.134-.064.083-.041-.107.033-.016.005.033-.011.065-.021.1-.031.059-.017.12-.032.18-.043-.132.026.068,0,.111-.008a1.278,1.278,0,0,1,.368.015,3.909,3.909,0,0,1,1.078.332.8.8,0,0,0,.862-.231.373.373,0,0,0-.164-.611,3.4,3.4,0,0,0-4,.5,3.435,3.435,0,0,0-.739,3.155,4.6,4.6,0,0,0,1.708,2.336c.446.338,1.5-.289.935-.718" transform="translate(-10.487 -7.769)" fill="#ed7b27"/><path d="M48.929,15a4.09,4.09,0,0,1-2.112-4.252A3.191,3.191,0,0,1,48.1,8.813a1.952,1.952,0,0,1,1.865-.238,1.313,1.313,0,0,0,.851-.156c.123-.061.4-.231.149-.317a4.466,4.466,0,0,0-5.155,2.245,4.13,4.13,0,0,0,1.966,5.068,1.081,1.081,0,0,0,.784-.069c.057-.02.55-.243.363-.346" transform="translate(-17.45 -7.825)" fill="#ed7b27"/><path d="M56.4,13.8a5.432,5.432,0,0,1-1.718-1.617,2.865,2.865,0,0,1-.516-2.08,2.071,2.071,0,0,1,.994-1.325c.009-.005.13-.058.175-.075-.084.032.139-.037.164-.042-.08.016.148-.015.175-.016-.016,0,.127.007.163.011a2.159,2.159,0,0,1,1.045.47.8.8,0,0,0,.813.035c.127-.056.545-.349.314-.53a3.131,3.131,0,0,0-2.29-.717,3.345,3.345,0,0,0-2.006.965,2.669,2.669,0,0,0-.814,1.676,3.6,3.6,0,0,0,.634,2.088A5.917,5.917,0,0,0,55.44,14.42a.905.905,0,0,0,.866-.1c.188-.124.342-.369.095-.521" transform="translate(-20.173 -7.816)" fill="#ed7b27"/><path d="M64.182,13.673a2.774,2.774,0,0,1-1.74-2.883A3.4,3.4,0,0,1,62.8,9.639a3.2,3.2,0,0,1,.167-.279,1.239,1.239,0,0,1,.169-.216c.033-.035.068-.07.1-.1.017-.015.112-.1.075-.067s.082-.052.1-.067c.078-.059-.066.031.055-.028s-.073.011.071-.026-.051-.007.057-.012c.026,0,.052-.005.078-.007.062,0-.076-.01.033,0,.071.008.1.006.117.009a2.56,2.56,0,0,1,.95.416.9.9,0,0,0,.866-.1c.192-.127.337-.368.093-.524a2.984,2.984,0,0,0-2.255-.492,2.677,2.677,0,0,0-1.573,1.034,3.449,3.449,0,0,0-.429,3.44,3.362,3.362,0,0,0,1.97,1.768.944.944,0,0,0,.861-.231c.2-.2.116-.4-.129-.481" transform="translate(-23.24 -7.886)" fill="#ed7b27"/><path d="M70.454,14.431a2.95,2.95,0,0,1-.916-3.459,3.007,3.007,0,0,1,.9-1.231.7.7,0,0,1,.111-.074c.006,0,.151-.1.072-.04.071-.026.073-.029.006-.008.037-.012.075-.022.113-.031-.118.026.074,0-.023,0a1.584,1.584,0,0,1,.795.259c.311.182,1.44-.286.978-.557a2.82,2.82,0,0,0-3.474.725,3.471,3.471,0,0,0-.846,3.1,3.234,3.234,0,0,0,1.148,1.776.875.875,0,0,0,.8-.011c.1-.042.547-.286.335-.449" transform="translate(-25.783 -8.211)" fill="#ed7b27"/><path d="M38.678,13.995a3.184,3.184,0,0,1-1.441-4,2.776,2.776,0,0,1,1.539-1.5.536.536,0,0,1,.658.108,3.251,3.251,0,0,1,.5,1.018c.143.351,1.341-.028,1.218-.326-.263-.646-.482-1.375-1.285-1.448A4.132,4.132,0,0,0,37.38,8.6a3.407,3.407,0,0,0-1.433,3.94,3.444,3.444,0,0,0,1.59,1.9.987.987,0,0,0,.794-.033c.066-.026.566-.291.347-.409" transform="translate(-13.845 -7.792)" fill="#ed7b27"/><path d="M79.021,15.418q.31,5.443.62,10.887c.02.348,1.243.11,1.218-.327q-.31-5.443-.62-10.887c-.02-.347-1.243-.11-1.218.327" transform="translate(-29.824 -10.413)" fill="#ed7b27"/><path d="M77.916,56.973c-.056,9.116.312,18.228.256,27.344.042-.083.083-.165.124-.248L76.162,85.8c-.528.429.68.4.969.17l1.36-1.1c.445-.361.9-.554.9-1.152.023-3-.015-5.993-.059-8.989-.088-6.026-.236-12.052-.2-18.08,0-.341-1.216-.125-1.218.327" transform="translate(-28.719 -25.765)" fill="#ed7b27"/></g><g transform="translate(0 0)"><g clip-path="url(#a)"><path d="M72.294,44.557C81.368,36.156,90.665,28,100.01,19.9q4-3.466,8.008-6.925c.211-.182-.19-.176-.281-.174a1.454,1.454,0,0,0-.817.284C97.564,21.174,88.2,29.252,79.014,37.529q-3.932,3.543-7.818,7.139c-.2.186.182.176.281.174a1.424,1.424,0,0,0,.817-.284" transform="translate(-26.282 -4.731)" fill="#ed7b27"/><path d="M124.954,8.178,118.423.854c-.306-.343-1.47.109-1.126.495l6.531,7.325c.306.343,1.47-.108,1.126-.495" transform="translate(-43.312 -0.27)" fill="#ed7b27"/><path d="M59.585,32.038c10.235-8.013,19.895-16.749,29.68-25.3,2.356-2.058,4.666-4.167,7.019-6.228.218-.19.093-.393-.129-.479a.964.964,0,0,0-.861.231C86,8.407,76.815,16.677,67.368,24.643c-2.813,2.372-5.657,4.706-8.555,6.975-.649.508.365.739.772.421" transform="translate(-21.65 0)" fill="#ed7b27"/><path d="M67.1,58.556a21.6,21.6,0,0,1,.943-4.254c.025-.074-.028-.1-.1-.11a23.285,23.285,0,0,0-4.994-.53l.2.119,1.26-2.561c.194-.393.934-1.343.256-1.592a3.5,3.5,0,0,0-1.1-.081q-.608-.009-1.216.006-1.368.035-2.729.19c-.211.023-.692.084-.817.282s.108.187.279.167c.763-.086,1.528-.146,2.3-.17q.565-.018,1.129-.013a3.341,3.341,0,0,1,1.056.039c.359.148.086.516-.034.759l-.552,1.12-1.024,2.08c-.056.114.141.119.2.119a22.285,22.285,0,0,1,4.785.513l-.1-.111a22.075,22.075,0,0,0-.963,4.353c-.013.112,1.178.02,1.218-.327" transform="translate(-21.713 -18.304)" fill="#ed7b27"/><path d="M62.92,58.4l-13.751,4,.661.119q3.565-6.293,7-12.656c.113-.209-1.029-.127-1.206.2q-3.438,6.363-7,12.656c-.142.25.626.129.661.119l13.75-4c.115-.033.622-.182.551-.381s-.545-.091-.668-.055" transform="translate(-17.958 -18.376)" fill="#ed7b27"/><path d="M56.514,65.5a4.585,4.585,0,0,0-1.964-2.829.84.84,0,0,0-.87.087c-.191.146-.334.41-.079.577.114.074.225.154.331.239l.079.065c.057.048-.074-.068.022.02.05.046.1.092.148.141a4.3,4.3,0,0,1,.51.611q.11.161.206.33c.017.03.033.06.049.09s-.014-.031.016.033.058.123.085.185a4.218,4.218,0,0,1,.248.778c.061.279.5.277.711.215.225-.067.571-.252.508-.542" transform="translate(-19.752 -23.122)" fill="#ed7b27"/><path d="M72.538,39.848c8.8-7.632,17.388-15.5,26.029-23.311q3.739-3.379,7.5-6.734c.214-.19-.189-.221-.293-.22a1.351,1.351,0,0,0-.814.3C96.262,17.629,87.7,25.528,79,33.271q-3.764,3.349-7.569,6.653c-.218.189.191.221.293.22a1.361,1.361,0,0,0,.814-.3" transform="translate(-26.367 -3.54)" fill="#ed7b27"/><path d="M67.829,33.911c4-3.763,8.3-7.159,12.587-10.584l13.7-10.948,7.7-6.158c.493-.395-.711-.26-.943-.074C91.727,13.459,82.492,20.675,73.435,28.1c-2.3,1.887-4.549,3.834-6.716,5.874-.21.2.183.236.3.236a1.288,1.288,0,0,0,.813-.3" transform="translate(-24.627 -2.204)" fill="#ed7b27"/></g></g></g></svg>