<svg xmlns="http://www.w3.org/2000/svg" xmlns:xlink="http://www.w3.org/1999/xlink" width="243.979" height="44.997" viewBox="0 0 243.979 44.997"><defs><clipPath id="a"><rect width="39.79" height="35.998" fill="#fff"/></clipPath></defs><g transform="translate(-604.807 -1103.766)"><path d="M23.481,1.348q-.269,1.049-.471,2.017t-.516,2.1q1.39-.2,4.842-.484t5.156-.545q1.7-.262,3.362-.383a2,2,0,0,1,1.636.807q.56.766-1.009,1.049-3.407.766-7.823,1.412T21.285,8.446q-2.959.484-6.5.928a3.024,3.024,0,0,1-2.869-1.291q-.941-1.452.9-1.573a22.912,22.912,0,0,0,2.623-.081q1.5-.121,3.34-.363a8.872,8.872,0,0,0,1.345-3.953q-1.121.242-2.062.4T16.04,2.88a2.233,2.233,0,0,1-1.748-.323,2.517,2.517,0,0,1-1.076-1.371q-.179-.847.807-.968,1.7-.2,3.3-.5t3.026-.625a9.789,9.789,0,0,0,0-1.9,1.009,1.009,0,0,1,.224-.645q.224-.282,1.076-.282a2.176,2.176,0,0,1,1.21.666,6.64,6.64,0,0,1,.717,1.513q.717-.081,1.883-.262t3.093-.666a1.7,1.7,0,0,1,1.21-.04,1.374,1.374,0,0,1,.762,1.089,1.368,1.368,0,0,1-.493,1.049A19.351,19.351,0,0,1,26.889.622Q25.051,1.065,23.481,1.348ZM8.822-3.493a10.421,10.421,0,0,0,3.5.524,2.626,2.626,0,0,0,1.5-.746,4.218,4.218,0,0,0,.852-1.271,4.062,4.062,0,0,0,.336-1.25q-1.255.4-1.905.605T8.6-4.259a2.106,2.106,0,0,1-1.614.081,3.272,3.272,0,0,1-.941-.565Q4.742-6.356,7.074-6.6q2.376-.524,7.263-1.936l-.852-.524q-2.2-1.25-.09-2.42a5.079,5.079,0,0,0,2.376-1.654,6.382,6.382,0,0,0-1.636.282A11.889,11.889,0,0,0,12-12q-1.121.565-1.973,1.089a2.4,2.4,0,0,1-1.816.424A1.85,1.85,0,0,1,7.208-11.3a1.411,1.411,0,0,1-.224-1.109,15.4,15.4,0,0,1,2.981-1.513,22.231,22.231,0,0,1,4.192-1.311,7.443,7.443,0,0,1,2.824-.2,1.854,1.854,0,0,1,1.412.928,2.114,2.114,0,0,1,.291,1.452,2.972,2.972,0,0,1-.807,1.492,8.946,8.946,0,0,1-1.569,1.331q.359.282.628.484l.269.242.179.363q2.242-.565,3.676-.968a1.162,1.162,0,0,1,.986.4q.224.363-.628,1.452a12.636,12.636,0,0,1-3.766,1.291,2.658,2.658,0,0,1,0,1.371,12.824,12.824,0,0,1-.717,2.017,4.271,4.271,0,0,1-1.39,1.855A7.435,7.435,0,0,1,14.2-.911a4.336,4.336,0,0,1-1.816.242,7.127,7.127,0,0,1-2.309-.787A1.889,1.889,0,0,1,8.822-3.493Zm.09-18.393a36.117,36.117,0,0,1,3.609-.968q2.174-.484,3.743-.807a7.656,7.656,0,0,1,2.152-.242,2.052,2.052,0,0,1,1.524.787,1.522,1.522,0,0,1,.4,1.472,11.868,11.868,0,0,1-1.524,2.581q.359,1.049.112,1.432A1.986,1.986,0,0,1,17.743-17a25.877,25.877,0,0,1-3.183.867q-1.659.343-3.5.787a2.742,2.742,0,0,1-1.614-.161A2.52,2.52,0,0,1,7.791-16.6,9.093,9.093,0,0,1,6.6-19.122a10.484,10.484,0,0,1-.56-2.44.9.9,0,0,1,.762-.585,3.127,3.127,0,0,1,1.009.04Q8.284-22.006,8.912-21.885Zm8.249.282q-1.3.323-2.869.666a19.522,19.522,0,0,0-2.959.887q-1.39.545-2.421,1.029a4.929,4.929,0,0,0,.807,1.492q1.345-.2,2.8-.524a31.785,31.785,0,0,0,3.25-.928,4.8,4.8,0,0,0,.986-1.392A5.331,5.331,0,0,0,17.16-21.6ZM.977-23.216a40.8,40.8,0,0,1,5.492-1.734q2.847-.686,4.909-1.291.045-1.17.09-2.057a3.089,3.089,0,0,1,0-1.049q.09-.807.762-.887H12.5a2.376,2.376,0,0,1,.986.2,2.041,2.041,0,0,1,.9,1.936q-.134.686-.224,1.613.583-.04,2.331-.323t3.183-.4a10.492,10.492,0,0,1,2.152-.02,3.687,3.687,0,0,1,1.345.464,1.009,1.009,0,0,1,.605,1.17,1.208,1.208,0,0,1-1.1,1.049,1.845,1.845,0,0,1-1.143-.04A5.606,5.606,0,0,0,20.3-24.87a25.125,25.125,0,0,0-4.057.4,65.921,65.921,0,0,0-7.375,1.533A51.459,51.459,0,0,0,3.4-21.28a2.733,2.733,0,0,1-1.457-.04,1.351,1.351,0,0,1-.65-.686A4.09,4.09,0,0,1,.977-23.216Zm28.916,1.492q.628-2.42.986-3.469a20.932,20.932,0,0,0,.672-2.622,3.372,3.372,0,0,1,2.309.565q.695.605.2,2.017-.538,1.25-1.076,2.581a6.166,6.166,0,0,1,1.3-.323q.628-.081,1.3-.2a3.844,3.844,0,0,1,2.376.524q.717.484.672,2.017v.323q-.628,2.9-1.121,4.739a33.881,33.881,0,0,0-.807,4.074,7.378,7.378,0,0,0,.134,3.449.933.933,0,0,0,1.21.605,13.259,13.259,0,0,0,3.205-1.533q1.726-1.089,2.892-1.9a1.614,1.614,0,0,1,.583,1.331A3.846,3.846,0,0,1,43.79-7.97a9.336,9.336,0,0,1-2.309,1.815,6.294,6.294,0,0,1-2.712.968,3.4,3.4,0,0,1-3.317-.847,5.131,5.131,0,0,1-1.659-4.195q.538-3.993.941-5.808a25.164,25.164,0,0,0,.538-2.823q.09-.807.179-1.694a7.617,7.617,0,0,0-3.362.807q-.359,1.17-.986,3.025t-1.883,4.6A27.321,27.321,0,0,0,31.91-8.9a1.01,1.01,0,0,1-.2,1.089.778.778,0,0,1-.874.323A3.772,3.772,0,0,1,29.78-7.95a10.241,10.241,0,0,1-1.636-1.432q-.807,1.654-2.242,4.84a4.435,4.435,0,0,1-1.5-.1.9.9,0,0,1-.807-.887,1.841,1.841,0,0,1,.291-1.15,31,31,0,0,0,2.152-5.042,6.382,6.382,0,0,0-1.255-1.089,4.38,4.38,0,0,1-.134-.524,1.188,1.188,0,0,1,.134-.726.93.93,0,0,1,.9-.524,10.26,10.26,0,0,1,1.21.081l.269.04.134-.242q.538-1.25.762-1.936.269-.807.583-2.017-1.121.605-1.95,1.008a12.043,12.043,0,0,0-1.636.968,2.877,2.877,0,0,1-1.793.141,2.679,2.679,0,0,1-1.524-1.311.871.871,0,0,1,.336-.787,10.89,10.89,0,0,1,1.188-.625Q25.633-20.191,29.892-21.724ZM71.54.541Q70.6-.145,69.657-.871a5.332,5.332,0,0,1-1.21-1.654A1.421,1.421,0,0,1,68.716-3.9a1.4,1.4,0,0,1,.807-.081,4,4,0,0,1,.852.282,3.343,3.343,0,0,1,.964.726A7.057,7.057,0,0,0,73.154-1.8,14.741,14.741,0,0,0,77.5-4.057a63.457,63.457,0,0,0,5.29-3.912A1.863,1.863,0,0,1,84.541-6.6a1.106,1.106,0,0,1-.448,1.492q-1.928,1.25-4.707,2.8A18.8,18.8,0,0,1,75.261-.427a20.5,20.5,0,0,0,2.712,1.936q2.085,1.331,5.4,3.469a4.844,4.844,0,0,1,1.479,1.573A1.047,1.047,0,0,1,84.72,7.8a1.7,1.7,0,0,1-1.39.282,2.217,2.217,0,0,1-1.21-.726q-2.107-1.412-5-3.408t-3.878-2.6q-.538.484-3.586,2.561a39.446,39.446,0,0,1-4.483,2.763,10.445,10.445,0,0,1-2.242.847,2.978,2.978,0,0,1-3.542-1.936,15.817,15.817,0,0,1-.717-4.4q-.09-2.5.045-6.736-1.614.484-3.452,1.21a28,28,0,0,0-3.093,1.412,2.63,2.63,0,0,1-1.166-.121,2.34,2.34,0,0,1-.986-.807,3.9,3.9,0,0,1-.4-1.331A41.75,41.75,0,0,1,54.863-7.3q2.959-.988,5.693-1.795-.224-3.953-.247-9.3t-.022-8.369q.314-.968.874-.988a2.1,2.1,0,0,1,.986.182A10.7,10.7,0,0,1,63.6-26.6q6.769-1.17,12.642-1.815,1.255.081,1.569.484a2.434,2.434,0,0,1,.4,1.23q.09.827-.852.908a39.441,39.441,0,0,0-4.954.424,80.626,80.626,0,0,0-8.585,1.634,4.8,4.8,0,0,0-.359,1.553,14.163,14.163,0,0,0,0,1.593,30.938,30.938,0,0,1,3.273-.807q2.331-.484,6.007-1.008a1.477,1.477,0,0,1,1.054-.02,2.045,2.045,0,0,1,.695.847,1.539,1.539,0,0,1,.09,1.351,10.427,10.427,0,0,1-1.479.282,36.657,36.657,0,0,0-4.842.807,31.693,31.693,0,0,0-5.021,1.452,6.49,6.49,0,0,0,.045,2.662q2.2-.565,4.505-1.008t5-1.008a2.385,2.385,0,0,1,1.3-.04,1.058,1.058,0,0,1,.807.686,6.391,6.391,0,0,0,.314.645l.179.4q-.807.2-1.973.484-1.793.484-4.483,1.17A30.85,30.85,0,0,0,63.381-12q.045.484.09,1.109A10.12,10.12,0,0,0,63.6-9.785q2.331-.363,6.411-1.17,4.214-.807,11.432-1.855a1.542,1.542,0,0,1,1.367.444,1.917,1.917,0,0,1,.471,1.331,2.082,2.082,0,0,1-.941.968,4.283,4.283,0,0,1-1.435.02,32.376,32.376,0,0,0-5.38.545q-4.349.645-7.778,1.452T62.439-6.76a17.865,17.865,0,0,0-.785,4.517Q61.5.38,61.565,2.074a4.924,4.924,0,0,0,.785,2.7A16.614,16.614,0,0,0,67.191,3Q69.433,1.751,71.54.541Zm45.234-16.658a4.436,4.436,0,0,0-1.838-.363q-1.031,0-5.156.565a35.578,35.578,0,0,0-6.254,1.291,32.089,32.089,0,0,0-3.7,1.492,5.553,5.553,0,0,1-.919.363,2.038,2.038,0,0,1-.785.081q-.359-.04-.874-.686a3.541,3.541,0,0,1-.628-1.008q-.112-.363.381-.968,2.286-.887,5.29-1.734a50.392,50.392,0,0,1,6.523-1.351q3.519-.5,5.537-.585a5.271,5.271,0,0,1,2.488.242,11.694,11.694,0,0,1,2.309,1.25,2.4,2.4,0,0,1,.583,2.339,18.276,18.276,0,0,1-2.174,3.63,43.545,43.545,0,0,1-4.124,5q-2.309,2.42-3.586,3.852T107.584-.064a4.983,4.983,0,0,1-.74.827,2.369,2.369,0,0,1-1.166.524,1.911,1.911,0,0,1-1.323-.182A1.318,1.318,0,0,1,103.594.3a1.519,1.519,0,0,1,.09-.887,1.872,1.872,0,0,1,.583-.766q2.331-2.38,3.631-3.691t3.34-3.549q2.04-2.239,3.3-3.691a16.061,16.061,0,0,0,1.748-2.319A3.173,3.173,0,0,0,116.774-16.117Zm6.725-.161q-.135.323-.874.222a1.658,1.658,0,0,1-1.143-.625,10.034,10.034,0,0,1-.695-2.783q-.2-1.654-.56-3.428-.179-.887.157-1.21a1.559,1.559,0,0,1,.874-.4h.09a2.114,2.114,0,0,1,1.166.484,2.531,2.531,0,0,1,.9,1.654q.179,2.7.157,4.175T123.5-16.279Zm4.662-1.452q-.314-3.106-.448-4.195t-.269-1.775a1.651,1.651,0,0,1,1.031-.766h.224a1.143,1.143,0,0,1,.717.242,7.088,7.088,0,0,1,.941,1.17,46.234,46.234,0,0,1,.493,5.486q-.134.928-.628,1.008a1.912,1.912,0,0,1-1.143-.242A1.874,1.874,0,0,1,128.161-17.731Zm28.826,3.348a40.074,40.074,0,0,0-4.08.061,18.4,18.4,0,0,0-4.954.908,15.54,15.54,0,0,0-3.071,1.291,4.761,4.761,0,0,1-1.3.424,1.992,1.992,0,0,1-1.233-.2,1.712,1.712,0,0,1-.852-.908,5.452,5.452,0,0,1-.336-1.129q1.39-1.049,6.276-2.158a39.924,39.924,0,0,1,9.549-1.029,4.528,4.528,0,0,1,1.748.444,2.1,2.1,0,0,1,1.143,1.23,4.683,4.683,0,0,1,.291,1.553,19.607,19.607,0,0,1-.628,4.981q-.628,2.4-1.143,4.114t-.829,2.7A4.52,4.52,0,0,1,156.4-.266a2.9,2.9,0,0,1-1.569.545,1.464,1.464,0,0,1-1.166-.746,6.518,6.518,0,0,0,.538-1.371,24.22,24.22,0,0,0-3.654.686q-2.712.645-7.15,1.775a3.873,3.873,0,0,1-1.95-.1,3.4,3.4,0,0,1-1.636-1.029q-.448-.605-1.188-1.573a7.912,7.912,0,0,1-1.188-2.3,31.428,31.428,0,0,1-.516-7q.157-3.207.291-4.477t.224-2.44a.836.836,0,0,1,.538-.726,1.1,1.1,0,0,1,.314-.04,3.529,3.529,0,0,1,1.031.2,2.171,2.171,0,0,1,1.21.867,1.553,1.553,0,0,1,.179,1.15q-.4,2.218-.695,4.88a23.569,23.569,0,0,0-.134,4.477,19.712,19.712,0,0,0,.628,3.529,5.126,5.126,0,0,0,.874,2.077q1.345-.363,4.483-.968T151.742-3.9q2.735-.444,3.362-.565a57.2,57.2,0,0,0,1.681-7.038A8.841,8.841,0,0,0,156.987-14.383Zm32.5-5q-1.076.242-2.735.585a19.671,19.671,0,0,0-3.362,1.029,7.1,7.1,0,0,0-2.107,1.109,6.43,6.43,0,0,1-1.255.948,4.829,4.829,0,0,0-2.914,1.553,26.875,26.875,0,0,0-2.017,2.3,9.792,9.792,0,0,0-1.121,1.835,1.16,1.16,0,0,1-1.121.061,3,3,0,0,1-.762-.625.836.836,0,0,1-.179-.827q.135-.464.269-.908a50.1,50.1,0,0,1,4.035-5.607q2.869-3.59,4.752-5.607a1.183,1.183,0,0,1,1.569-.323,4.647,4.647,0,0,1,1.054.887,1.258,1.258,0,0,1,.247,1.412q-.269.565-.448,1.049,2.6-.766,4.752-1.291a5.356,5.356,0,0,1,2.219-.02,4.7,4.7,0,0,1,2.085,1.674,3.734,3.734,0,0,1,0,2.783q-2.2,5.082-3.833,8.289t-3.43,6.212q-1.793,3-3.945,6.837a8.791,8.791,0,0,1-.785,1.654q-.291.4-1.009.2A2.205,2.205,0,0,1,178.259,5a1.878,1.878,0,0,1-.291-1.553q1.166-2.138,3.25-5.647t4.3-7.563a47.852,47.852,0,0,0,3-6.252A20.011,20.011,0,0,0,189.489-19.384Zm7.038-1.533q-.269.686-.762.625a1.359,1.359,0,0,1-.762-.3,3.954,3.954,0,0,1-.9-1.815q-.045-2.7,0-5.082a2.775,2.775,0,0,1,2.017.2,1.577,1.577,0,0,1,.986,1.492A37.185,37.185,0,0,1,196.527-20.917Zm6.635-5.445q-.045,1.855-.224,3.67a.816.816,0,0,1-.65.605.921.921,0,0,1-.9-.242,1.584,1.584,0,0,1-.471-.928q-.4-2.38-.516-2.965t-.247-1.15a.738.738,0,0,1,.359-.645h.224a4.536,4.536,0,0,1,1.21.282A1.681,1.681,0,0,1,203.162-26.362Z" transform="translate(622.261 1134)" fill="#fff"/><g transform="translate(808.996 1111.002)"><g clip-path="url(#a)"><path d="M61.322,12.959Q48.1,24.529,35.4,36.677c-.842.806-2.125-.473-1.281-1.281q12.7-12.145,25.921-23.717c.874-.765,2.16.511,1.281,1.281" transform="translate(-21.826 -4.999)" fill="#fff"/><path d="M48.24,35.289a27.811,27.811,0,0,0-3.591-4.858H45.93Q32.118,42.644,17.918,54.407c-.891.738-2.179-.536-1.281-1.281q14.2-11.761,28.012-23.976a.92.92,0,0,1,1.281,0A30.006,30.006,0,0,1,49.8,34.375a.906.906,0,0,1-1.564.914" transform="translate(-10.533 -28.891)" fill="#fff"/><path d="M54.294,17.718Q42.464,29.906,29.548,40.961c-.881.754-2.168-.521-1.281-1.281q12.9-11.044,24.746-23.242c.813-.838,2.093.444,1.281,1.281" transform="translate(-18.037 -10.933)" fill="#fff"/><path d="M52.623,28.328Q40.374,40.009,27.1,50.533c-.9.717-2.194-.557-1.281-1.281q13.264-10.515,25.525-22.2c.843-.8,2.126.474,1.281,1.281" transform="translate(-16.448 -24.261)" fill="#fff"/><path d="M25.36,14.985a2.908,2.908,0,0,1-2,.74.916.916,0,0,1-.873-1.146c.395-1.474-1.527-1.086-2.247-1.687a3.007,3.007,0,0,1-.612-2.986c.219-1.143,1.965-.659,1.746.482a1.818,1.818,0,0,0-.05.926c.143.283.227.192.562.233a2.662,2.662,0,0,1,1.456.615,2.825,2.825,0,0,1,.89,2.9l-.873-1.146a.854.854,0,0,0,.722-.21c.895-.732,2.184.542,1.281,1.281" transform="translate(-12.577 16.986)" fill="#fff"/><path d="M9.295,7.97a46.989,46.989,0,0,0-8.131,2.312A.91.91,0,0,1,.05,9.168,49.946,49.946,0,0,1,4.619.415c.638-.969,2.207-.063,1.564.914A47.6,47.6,0,0,0,1.8,9.649L.682,8.535A47.02,47.02,0,0,1,8.813,6.224c1.139-.216,1.627,1.529.482,1.746" transform="translate(0 25.671)" fill="#fff"/><path d="M5.687,6.563C5.66,6.531,5.63,6.5,5.6,6.471q-.111-.1.038.018a.665.665,0,0,0-.189-.118c-.2-.105.122.014-.048-.017-.059-.011-.339-.05-.071-.025a.925.925,0,0,1-.906-.906.915.915,0,0,1,.906-.906,2.451,2.451,0,0,1,1.638.765A.905.905,0,1,1,5.687,6.563" transform="translate(-2.853 27.571)" fill="#fff"/></g></g><path d="M1.382,23.38c.132-3.217-.185-6.442-.119-9.659A71.685,71.685,0,0,1,1.847,4.2C2.073,2.736,2.978.046,4.942.662,6.73,1.223,7.5,2.974,7.775,4.672a32.731,32.731,0,0,1,.117,4.852c.019,1.582-.014,3.172.027,4.753s-.025,3.172-.073,4.75-.019,3.176-.114,4.764c-.1,1.687-.067,3.4-.288,5.083-.114.863-.356,1.925-1.435,1.966a2.928,2.928,0,0,1-2.659-1.52c-.605-1.307-.386-3.11-.505-4.515-.136-1.6-.067-3.2-.154-4.8a88.854,88.854,0,0,1,.146-9.763,8.145,8.145,0,0,1,.374-2.606c.3-.744.776-1.29,1.689-1.03a2.071,2.071,0,0,1,1.276.934c.9,1.459.621,3.353.631,4.987.023,3.744-.1,7.461-.211,11.2-.006.229,1.242.056,1.253-.336.112-3.909.272-7.8.206-11.712-.027-1.611.272-3.613-.942-4.913a3.4,3.4,0,0,0-4.353-.1c-1.313,1.114-1.135,3.257-1.244,4.8-.135,1.931-.179,3.9-.121,5.834.056,1.858,0,3.712.087,5.57a45.881,45.881,0,0,0,.391,5.819,2.838,2.838,0,0,0,1.1,1.993,3.742,3.742,0,0,0,2.381.709c1.716-.051,3.058-.83,3.316-2.6.268-1.842.22-3.733.343-5.585.121-1.833.084-3.683.111-5.519.054-3.748.088-7.493.032-11.239-.025-1.739-.1-3.91-1.446-5.214A3.928,3.928,0,0,0,3.384.3C1.395,1.187.763,3.127.52,5.132S.141,9.1.049,11.1C-.143,15.3.3,19.513.129,23.716c-.009.224,1.237.058,1.253-.336" transform="matrix(0.951, -0.309, 0.309, 0.951, 604.807, 1118.908)" fill="#fff"/></g></svg>