<svg xmlns="http://www.w3.org/2000/svg" xmlns:xlink="http://www.w3.org/1999/xlink" width="159.606" height="26.358" viewBox="0 0 159.606 26.358"><defs><clipPath id="a"><rect width="22.795" height="20.622" fill="#fff"/></clipPath></defs><g transform="translate(-605.351 -1103.766)"><path d="M14.15-9.687q-.157.682-.276,1.312t-.3,1.365q.814-.131,2.834-.315t3.018-.354q1-.171,1.968-.249a1.136,1.136,0,0,1,.958.525q.328.5-.59.682-1.994.5-4.579.918t-4.317.735q-1.732.315-3.805.6A1.7,1.7,0,0,1,7.38-5.3q-.551-.945.525-1.023A12.073,12.073,0,0,0,9.44-6.38q.879-.079,1.955-.236a6.2,6.2,0,0,0,.787-2.572q-.656.157-1.207.262T9.794-8.69A1.2,1.2,0,0,1,8.77-8.9a1.624,1.624,0,0,1-.63-.892q-.1-.551.472-.63,1-.131,1.929-.328t1.771-.407a7.075,7.075,0,0,0,0-1.233.7.7,0,0,1,.131-.42q.131-.184.63-.184a1.25,1.25,0,0,1,.709.433,4.541,4.541,0,0,1,.42.984q.42-.052,1.1-.171t1.811-.433a.9.9,0,0,1,.709-.026.9.9,0,0,1,.446.709.933.933,0,0,1-.289.682,10.538,10.538,0,0,1-1.837.656Q15.069-9.871,14.15-9.687ZM5.569-12.836a5.534,5.534,0,0,0,2.047.341,1.487,1.487,0,0,0,.879-.485,2.782,2.782,0,0,0,.5-.827,2.879,2.879,0,0,0,.2-.814q-.735.262-1.115.394t-2.637.892a1.12,1.12,0,0,1-.945.052,1.885,1.885,0,0,1-.551-.367q-.761-1.05.6-1.207Q5.936-15.2,8.8-16.116l-.5-.341q-1.286-.814-.052-1.575a3.012,3.012,0,0,0,1.391-1.076,3.4,3.4,0,0,0-.958.184,6.566,6.566,0,0,0-1.246.551q-.656.367-1.155.709a1.3,1.3,0,0,1-1.063.276,1.112,1.112,0,0,1-.59-.525,1,1,0,0,1-.131-.722,8.727,8.727,0,0,1,1.745-.984,12.081,12.081,0,0,1,2.454-.853,3.933,3.933,0,0,1,1.653-.131,1.088,1.088,0,0,1,.827.6,1.5,1.5,0,0,1,.171.945,2.01,2.01,0,0,1-.472.971,5.426,5.426,0,0,1-.918.866q.21.184.367.315l.157.157.1.236q1.312-.367,2.152-.63a.652.652,0,0,1,.577.262q.131.236-.367.945a6.93,6.93,0,0,1-2.2.84,1.916,1.916,0,0,1,0,.892,8.981,8.981,0,0,1-.42,1.312,2.767,2.767,0,0,1-.814,1.207,4.281,4.281,0,0,1-.787.525A2.3,2.3,0,0,1,7.655-11,3.89,3.89,0,0,1,6.3-11.511,1.249,1.249,0,0,1,5.569-12.836ZM5.621-24.8a19.482,19.482,0,0,1,2.112-.63q1.273-.315,2.191-.525a4.052,4.052,0,0,1,1.26-.157,1.167,1.167,0,0,1,.892.512,1.068,1.068,0,0,1,.236.958,7.961,7.961,0,0,1-.892,1.679,1.315,1.315,0,0,1,.066.932,1.137,1.137,0,0,1-.7.407,13.965,13.965,0,0,1-1.863.564q-.971.223-2.047.512a1.457,1.457,0,0,1-.945-.1,1.473,1.473,0,0,1-.971-.709A6.225,6.225,0,0,1,4.27-23a7.475,7.475,0,0,1-.328-1.588.535.535,0,0,1,.446-.381,1.65,1.65,0,0,1,.59.026Q5.254-24.881,5.621-24.8Zm4.829.184q-.761.21-1.679.433a10.587,10.587,0,0,0-1.732.577q-.814.354-1.417.669a3.334,3.334,0,0,0,.472.971q.787-.131,1.64-.341a17.186,17.186,0,0,0,1.9-.6,3.148,3.148,0,0,0,.577-.905A3.748,3.748,0,0,0,10.45-24.619ZM.977-25.668A22.187,22.187,0,0,1,4.191-26.8q1.666-.446,2.874-.84.026-.761.052-1.338a2.231,2.231,0,0,1,0-.682q.052-.525.446-.577h.157A1.273,1.273,0,0,1,8.3-30.1a1.385,1.385,0,0,1,.525,1.26q-.079.446-.131,1.05.341-.026,1.365-.21t1.863-.262a5.529,5.529,0,0,1,1.26-.013,2.018,2.018,0,0,1,.787.3.674.674,0,0,1,.354.761.748.748,0,0,1-.643.682.978.978,0,0,1-.669-.026,3.007,3.007,0,0,0-.722-.184,13.275,13.275,0,0,0-2.375.262,35.228,35.228,0,0,0-4.317,1,27.933,27.933,0,0,0-3.2,1.076,1.447,1.447,0,0,1-.853-.026.846.846,0,0,1-.381-.446A2.9,2.9,0,0,1,.977-25.668ZM17.9-24.7q.367-1.575.577-2.257a14.864,14.864,0,0,0,.394-1.706,1.828,1.828,0,0,1,1.351.367q.407.394.118,1.312-.315.814-.63,1.679a3.316,3.316,0,0,1,.761-.21q.367-.052.761-.131a2.073,2.073,0,0,1,1.391.341,1.533,1.533,0,0,1,.394,1.312v.21q-.367,1.889-.656,3.083a24.23,24.23,0,0,0-.472,2.65A5.318,5.318,0,0,0,21.97-15.8a.537.537,0,0,0,.709.394,7.445,7.445,0,0,0,1.876-1q1.01-.709,1.693-1.233a1.109,1.109,0,0,1,.341.866,2.579,2.579,0,0,1-.551,1.023,5.6,5.6,0,0,1-1.351,1.181,3.45,3.45,0,0,1-1.588.63,1.855,1.855,0,0,1-1.942-.551,3.54,3.54,0,0,1-.971-2.729q.315-2.6.551-3.779a18.01,18.01,0,0,0,.315-1.837q.052-.525.1-1.1a4.1,4.1,0,0,0-1.968.525q-.21.761-.577,1.968t-1.1,2.992a17.444,17.444,0,0,0,1.575,2.1.713.713,0,0,1-.118.709q-.249.315-.512.21a2.1,2.1,0,0,1-.617-.3,6.226,6.226,0,0,1-.958-.932q-.472,1.076-1.312,3.149a2.343,2.343,0,0,1-.879-.066.566.566,0,0,1-.472-.577,1.3,1.3,0,0,1,.171-.748,21.422,21.422,0,0,0,1.26-3.28,3.879,3.879,0,0,0-.735-.709,3.112,3.112,0,0,1-.079-.341.847.847,0,0,1,.079-.472.539.539,0,0,1,.525-.341,5.413,5.413,0,0,1,.709.052l.157.026.079-.157q.315-.814.446-1.26.157-.525.341-1.312-.656.394-1.142.656a6.932,6.932,0,0,0-.958.63,1.527,1.527,0,0,1-1.05.092,1.622,1.622,0,0,1-.892-.853.6.6,0,0,1,.2-.512,6.188,6.188,0,0,1,.7-.407Q15.41-23.7,17.9-24.7ZM42.282-10.212q-.551-.446-1.1-.918a3.478,3.478,0,0,1-.709-1.076,1,1,0,0,1,.157-.892.741.741,0,0,1,.472-.052,2.182,2.182,0,0,1,.5.184,1.987,1.987,0,0,1,.564.472,4.12,4.12,0,0,0,1.063.761,8.332,8.332,0,0,0,2.545-1.47,37.687,37.687,0,0,0,3.1-2.545,1.12,1.12,0,0,1,1.023.892.763.763,0,0,1-.262.971q-1.128.814-2.755,1.824a10.491,10.491,0,0,1-2.414,1.22,12.132,12.132,0,0,0,1.588,1.26q1.22.866,3.162,2.257A3.043,3.043,0,0,1,50.075-6.3.741.741,0,0,1,50-5.488a.917.917,0,0,1-.814.184,1.281,1.281,0,0,1-.709-.472Q47.241-6.7,45.549-7.994t-2.27-1.693q-.315.315-2.1,1.666a22.8,22.8,0,0,1-2.624,1.8,5.74,5.74,0,0,1-1.312.551,1.725,1.725,0,0,1-2.073-1.26,11.34,11.34,0,0,1-.42-2.86q-.052-1.627.026-4.382-.945.315-2.021.787a15.664,15.664,0,0,0-1.811.918,1.394,1.394,0,0,1-.682-.079,1.414,1.414,0,0,1-.577-.525,2.752,2.752,0,0,1-.236-.866,23.1,23.1,0,0,1,3.07-1.378q1.732-.643,3.333-1.168-.131-2.572-.144-6.049t-.013-5.445q.184-.63.512-.643a1.122,1.122,0,0,1,.577.118,6.245,6.245,0,0,1,.853.63q3.963-.761,7.4-1.181.735.052.918.315a1.7,1.7,0,0,1,.236.8.482.482,0,0,1-.5.59,20.824,20.824,0,0,0-2.9.276,42.986,42.986,0,0,0-5.025,1.063,3.414,3.414,0,0,0-.21,1.01,10.24,10.24,0,0,0,0,1.037,16.636,16.636,0,0,1,1.916-.525q1.365-.315,3.516-.656a.784.784,0,0,1,.617-.013,1.3,1.3,0,0,1,.407.551,1.1,1.1,0,0,1,.052.879,5.558,5.558,0,0,1-.866.184,19.487,19.487,0,0,0-2.834.525,17.163,17.163,0,0,0-2.939.945,4.682,4.682,0,0,0,.026,1.732q1.286-.367,2.637-.656t2.926-.656a1.262,1.262,0,0,1,.761-.026.644.644,0,0,1,.472.446,4.371,4.371,0,0,0,.184.42l.1.262q-.472.131-1.155.315-1.05.315-2.624.761a16.773,16.773,0,0,0-3.254,1.1q.026.315.052.722t.079.722q1.365-.236,3.753-.761,2.467-.525,6.692-1.207a.85.85,0,0,1,.8.289,1.334,1.334,0,0,1,.276.866,1.3,1.3,0,0,1-.551.63,2.26,2.26,0,0,1-.84.013,17.109,17.109,0,0,0-3.149.354q-2.545.42-4.553.945t-3.11.84a12.8,12.8,0,0,0-.459,2.939q-.092,1.706-.052,2.808A3.465,3.465,0,0,0,36.9-7.456a9.128,9.128,0,0,0,2.834-1.155Q41.048-9.424,42.282-10.212ZM68.76-21.05a2.374,2.374,0,0,0-1.076-.236,28.793,28.793,0,0,0-3.018.367,19.028,19.028,0,0,0-3.661.84,17.75,17.75,0,0,0-2.165.971,3.064,3.064,0,0,1-.538.236,1.079,1.079,0,0,1-.459.052q-.21-.026-.512-.446a2.364,2.364,0,0,1-.367-.656.8.8,0,0,1,.223-.63,32.159,32.159,0,0,1,3.1-1.128,26.935,26.935,0,0,1,3.818-.879,30.531,30.531,0,0,1,3.241-.381,2.8,2.8,0,0,1,1.456.157,6.655,6.655,0,0,1,1.351.814,1.684,1.684,0,0,1,.341,1.522,12.257,12.257,0,0,1-1.273,2.362A27.919,27.919,0,0,1,66.8-14.83q-1.351,1.575-2.1,2.506T63.38-10.605a3.155,3.155,0,0,1-.433.538,1.328,1.328,0,0,1-.682.341,1.02,1.02,0,0,1-.774-.118.831.831,0,0,1-.446-.525,1.091,1.091,0,0,1,.052-.577,1.214,1.214,0,0,1,.341-.5q1.365-1.548,2.126-2.4t1.955-2.309q1.194-1.456,1.929-2.4a10.445,10.445,0,0,0,1.023-1.509A2.229,2.229,0,0,0,68.76-21.05Zm3.936-.1q-.079.21-.512.144a.95.95,0,0,1-.669-.407,7.125,7.125,0,0,1-.407-1.811q-.118-1.076-.328-2.231a.924.924,0,0,1,.092-.787.876.876,0,0,1,.512-.262h.052a1.172,1.172,0,0,1,.682.315,1.7,1.7,0,0,1,.525,1.076q.1,1.758.092,2.716T72.7-21.155Zm2.729-.945q-.184-2.021-.262-2.729t-.157-1.155a.978.978,0,0,1,.6-.5h.131a.627.627,0,0,1,.42.157,4.551,4.551,0,0,1,.551.761A33.358,33.358,0,0,1,77-21.994q-.079.6-.367.656a1.026,1.026,0,0,1-.669-.157A1.168,1.168,0,0,1,75.425-22.1ZM92.3-19.921a21.109,21.109,0,0,0-2.388.039,9.815,9.815,0,0,0-2.9.59,8.642,8.642,0,0,0-1.8.84,2.594,2.594,0,0,1-.761.276,1.065,1.065,0,0,1-.722-.131,1.075,1.075,0,0,1-.5-.59,3.85,3.85,0,0,1-.2-.735,10.576,10.576,0,0,1,3.674-1.4,21.128,21.128,0,0,1,5.59-.669,2.44,2.44,0,0,1,1.023.289,1.324,1.324,0,0,1,.669.8,3.351,3.351,0,0,1,.171,1.01,14.1,14.1,0,0,1-.367,3.241q-.367,1.561-.669,2.677t-.485,1.758a3,3,0,0,1-.682,1.194,1.587,1.587,0,0,1-.918.354.852.852,0,0,1-.682-.485,4.534,4.534,0,0,0,.315-.892,12.9,12.9,0,0,0-2.139.446q-1.588.42-4.186,1.155a2.049,2.049,0,0,1-1.142-.066,1.974,1.974,0,0,1-.958-.669q-.262-.394-.7-1.023a5.373,5.373,0,0,1-.7-1.5,22.68,22.68,0,0,1-.3-4.553q.092-2.086.171-2.913t.131-1.588a.54.54,0,0,1,.315-.472.582.582,0,0,1,.184-.026,1.884,1.884,0,0,1,.6.131,1.29,1.29,0,0,1,.709.564,1.108,1.108,0,0,1,.1.748q-.236,1.443-.407,3.175a17.032,17.032,0,0,0-.079,2.913,14.124,14.124,0,0,0,.367,2.3,3.526,3.526,0,0,0,.512,1.351q.787-.236,2.624-.63t3.438-.682q1.6-.289,1.968-.367a40.737,40.737,0,0,0,.984-4.579A6.38,6.38,0,0,0,92.3-19.921Zm19.026-3.254q-.63.157-1.6.381a10.677,10.677,0,0,0-1.968.669,4.049,4.049,0,0,0-1.233.722,3.837,3.837,0,0,1-.735.617,2.75,2.75,0,0,0-1.706,1.01,17.079,17.079,0,0,0-1.181,1.5,6.539,6.539,0,0,0-.656,1.194.62.62,0,0,1-.656.039,1.807,1.807,0,0,1-.446-.407.59.59,0,0,1-.1-.538q.079-.3.157-.59a32.784,32.784,0,0,1,2.362-3.648q1.68-2.336,2.782-3.648a.65.65,0,0,1,.918-.21,2.811,2.811,0,0,1,.617.577.887.887,0,0,1,.144.918q-.157.367-.262.682,1.522-.5,2.782-.84a2.828,2.828,0,0,1,1.3-.013,2.809,2.809,0,0,1,1.22,1.089,2.681,2.681,0,0,1,0,1.811q-1.286,3.307-2.244,5.393t-2.008,4.041q-1.05,1.955-2.309,4.448a6.012,6.012,0,0,1-.459,1.076q-.171.262-.59.131a1.3,1.3,0,0,1-.7-.538,1.333,1.333,0,0,1-.171-1.01q.682-1.391,1.9-3.674T109-16.917a32.79,32.79,0,0,0,1.758-4.068A14.165,14.165,0,0,0,111.325-23.175Zm4.12-1q-.157.446-.446.407a.755.755,0,0,1-.446-.2,2.694,2.694,0,0,1-.525-1.181q-.026-1.758,0-3.307a1.478,1.478,0,0,1,1.181.131,1.035,1.035,0,0,1,.577.971A26.772,26.772,0,0,1,115.445-24.172Zm3.884-3.543q-.026,1.207-.131,2.388a.5.5,0,0,1-.381.394.5.5,0,0,1-.525-.157,1.075,1.075,0,0,1-.276-.6q-.236-1.548-.3-1.929t-.144-.748a.492.492,0,0,1,.21-.42h.131a2.431,2.431,0,0,1,.709.184A1.065,1.065,0,0,1,119.328-27.715Z" transform="translate(622.261 1134)" fill="#fff"/><g transform="translate(742.162 1108.157)"><g clip-path="url(#a)"><path d="M49.585,12.312Q42.011,18.94,34.736,25.9c-.482.462-1.217-.271-.734-.734q7.273-6.958,14.849-13.587c.5-.438,1.237.293.734.734" transform="translate(-26.959 -7.752)" fill="#fff"/><path d="M34.612,32.556a15.932,15.932,0,0,0-2.057-2.783h.734q-7.913,7-16.048,13.735c-.51.423-1.248-.307-.734-.734q8.134-6.738,16.048-13.735a.527.527,0,0,1,.734,0,17.19,17.19,0,0,1,2.219,2.993.519.519,0,0,1-.9.524" transform="translate(-13.01 -28.891)" fill="#fff"/><path d="M43.05,17.055Q36.273,24.037,28.873,30.37c-.5.432-1.242-.3-.734-.734q7.393-6.327,14.177-13.315c.466-.48,1.2.254.734.734" transform="translate(-22.279 -13.168)" fill="#fff"/><path d="M41.041,27.672q-7.018,6.692-14.623,12.721c-.518.411-1.257-.319-.734-.734q7.6-6.024,14.623-12.721c.483-.461,1.218.272.734.734" transform="translate(-20.317 -25.342)" fill="#fff"/><path d="M22.858,12.537a1.666,1.666,0,0,1-1.147.424.525.525,0,0,1-.5-.657c.226-.845-.875-.622-1.287-.967a1.723,1.723,0,0,1-.351-1.71c.125-.655,1.126-.378,1,.276a1.041,1.041,0,0,0-.029.53c.082.162.13.11.322.134a1.525,1.525,0,0,1,.834.352,1.619,1.619,0,0,1,.51,1.661l-.5-.657a.489.489,0,0,0,.413-.12c.513-.419,1.251.31.734.734" transform="translate(-15.535 5.779)" fill="#fff"/><path d="M5.325,4.566A26.919,26.919,0,0,0,.667,5.891a.521.521,0,0,1-.638-.638A28.613,28.613,0,0,1,2.646.238c.365-.555,1.264-.036.9.524A27.272,27.272,0,0,0,1.029,5.528L.391,4.89A26.937,26.937,0,0,1,5.049,3.566c.653-.123.932.876.276,1" transform="translate(0 14.706)" fill="#fff"/><path d="M5.147,5.688c-.016-.018-.033-.036-.05-.053q-.063-.056.022.011a.381.381,0,0,0-.108-.068c-.114-.06.07.008-.027-.01-.034-.007-.194-.029-.041-.014a.53.53,0,0,1-.519-.519.524.524,0,0,1,.519-.519,1.4,1.4,0,0,1,.938.438.519.519,0,1,1-.734.734" transform="translate(-3.524 13.867)" fill="#fff"/></g></g><path d="M.929,15.71C1.017,13.548.8,11.381.849,9.22a48.166,48.166,0,0,1,.392-6.4C1.393,1.838,2,.031,3.321.445a3.092,3.092,0,0,1,1.9,2.694A21.992,21.992,0,0,1,5.3,6.4c.013,1.063-.009,2.131.018,3.194s-.017,2.132-.049,3.192-.013,2.134-.077,3.2C5.127,17.12,5.15,18.273,5,19.4c-.077.58-.239,1.293-.964,1.321A1.967,1.967,0,0,1,2.251,19.7a9.414,9.414,0,0,1-.339-3.033c-.091-1.074-.045-2.152-.1-3.226a59.7,59.7,0,0,1,.1-6.56A5.473,5.473,0,0,1,2.157,5.13c.2-.5.522-.867,1.135-.692a1.391,1.391,0,0,1,.857.627c.605.98.417,2.253.424,3.351.016,2.515-.07,5.013-.142,7.526,0,.154.834.037.842-.226.075-2.626.183-5.239.139-7.869-.018-1.083.183-2.428-.633-3.3a2.281,2.281,0,0,0-2.925-.068c-.882.749-.763,2.189-.836,3.227C.928,9,.9,10.325.937,11.624c.037,1.248,0,2.494.058,3.742a30.828,30.828,0,0,0,.263,3.91,1.907,1.907,0,0,0,.737,1.339,2.515,2.515,0,0,0,1.6.476,2.049,2.049,0,0,0,2.228-1.746c.18-1.237.148-2.508.23-3.753s.057-2.475.075-3.708c.036-2.518.059-5.035.021-7.552-.017-1.169-.068-2.627-.972-3.5A2.639,2.639,0,0,0,2.274.2,3.664,3.664,0,0,0,.35,3.449C.188,4.787.095,6.111.033,7.455-.1,10.283.2,13.111.087,15.935c-.006.151.831.039.842-.226" transform="matrix(0.951, -0.309, 0.309, 0.951, 605.351, 1110.063)" fill="#fff"/></g></svg>