<svg xmlns="http://www.w3.org/2000/svg" xmlns:xlink="http://www.w3.org/1999/xlink" width="257" height="257" viewBox="0 0 257 257"><defs><clipPath id="a"><rect width="257" height="257" fill="none"/></clipPath></defs><g opacity="0.5" clip-path="url(#a)"><g transform="translate(-955 -837)"><circle cx="2.5" cy="2.5" r="2.5" transform="translate(955 837)" fill="#ed7b27"/></g><g transform="translate(-934 -837)"><circle cx="2.5" cy="2.5" r="2.5" transform="translate(955 837)" fill="#ed7b27"/></g><g transform="translate(-913 -837)"><circle cx="2.5" cy="2.5" r="2.5" transform="translate(955 837)" fill="#ed7b27"/></g><g transform="translate(-892 -837)"><circle cx="2.5" cy="2.5" r="2.5" transform="translate(955 837)" fill="#ed7b27"/></g><g transform="translate(-871 -837)"><circle cx="2.5" cy="2.5" r="2.5" transform="translate(955 837)" fill="#ed7b27"/></g><g transform="translate(-850 -837)"><circle cx="2.5" cy="2.5" r="2.5" transform="translate(955 837)" fill="#ed7b27"/></g><g transform="translate(-829 -837)"><circle cx="2.5" cy="2.5" r="2.5" transform="translate(955 837)" fill="#ed7b27"/></g><g transform="translate(-808 -837)"><circle cx="2.5" cy="2.5" r="2.5" transform="translate(955 837)" fill="#ed7b27"/></g><g transform="translate(-787 -837)"><circle cx="2.5" cy="2.5" r="2.5" transform="translate(955 837)" fill="#ed7b27"/></g><g transform="translate(-766 -837)"><circle cx="2.5" cy="2.5" r="2.5" transform="translate(955 837)" fill="#ed7b27"/></g><g transform="translate(-745 -837)"><circle cx="2.5" cy="2.5" r="2.5" transform="translate(955 837)" fill="#ed7b27"/></g><g transform="translate(-724 -837)"><circle cx="2.5" cy="2.5" r="2.5" transform="translate(955 837)" fill="#ed7b27"/></g><g transform="translate(-703 -837)"><circle cx="2.5" cy="2.5" r="2.5" transform="translate(955 837)" fill="#ed7b27"/></g><g transform="translate(-955 -816)"><circle cx="2.5" cy="2.5" r="2.5" transform="translate(955 837)" fill="#ed7b27"/></g><g transform="translate(-934 -816)"><circle cx="2.5" cy="2.5" r="2.5" transform="translate(955 837)" fill="#ed7b27"/></g><g transform="translate(-913 -816)"><circle cx="2.5" cy="2.5" r="2.5" transform="translate(955 837)" fill="#ed7b27"/></g><g transform="translate(-892 -816)"><circle cx="2.5" cy="2.5" r="2.5" transform="translate(955 837)" fill="#ed7b27"/></g><g transform="translate(-871 -816)"><circle cx="2.5" cy="2.5" r="2.5" transform="translate(955 837)" fill="#ed7b27"/></g><g transform="translate(-850 -816)"><circle cx="2.5" cy="2.5" r="2.5" transform="translate(955 837)" fill="#ed7b27"/></g><g transform="translate(-829 -816)"><circle cx="2.5" cy="2.5" r="2.5" transform="translate(955 837)" fill="#ed7b27"/></g><g transform="translate(-808 -816)"><circle cx="2.5" cy="2.5" r="2.5" transform="translate(955 837)" fill="#ed7b27"/></g><g transform="translate(-787 -816)"><circle cx="2.5" cy="2.5" r="2.5" transform="translate(955 837)" fill="#ed7b27"/></g><g transform="translate(-766 -816)"><circle cx="2.5" cy="2.5" r="2.5" transform="translate(955 837)" fill="#ed7b27"/></g><g transform="translate(-745 -816)"><circle cx="2.5" cy="2.5" r="2.5" transform="translate(955 837)" fill="#ed7b27"/></g><g transform="translate(-724 -816)"><circle cx="2.5" cy="2.5" r="2.5" transform="translate(955 837)" fill="#ed7b27"/></g><g transform="translate(-703 -816)"><circle cx="2.5" cy="2.5" r="2.5" transform="translate(955 837)" fill="#ed7b27"/></g><g transform="translate(-955 -795)"><circle cx="2.5" cy="2.5" r="2.5" transform="translate(955 837)" fill="#ed7b27"/></g><g transform="translate(-934 -795)"><circle cx="2.5" cy="2.5" r="2.5" transform="translate(955 837)" fill="#ed7b27"/></g><g transform="translate(-913 -795)"><circle cx="2.5" cy="2.5" r="2.5" transform="translate(955 837)" fill="#ed7b27"/></g><g transform="translate(-892 -795)"><circle cx="2.5" cy="2.5" r="2.5" transform="translate(955 837)" fill="#ed7b27"/></g><g transform="translate(-871 -795)"><circle cx="2.5" cy="2.5" r="2.5" transform="translate(955 837)" fill="#ed7b27"/></g><g transform="translate(-850 -795)"><circle cx="2.5" cy="2.5" r="2.5" transform="translate(955 837)" fill="#ed7b27"/></g><g transform="translate(-829 -795)"><circle cx="2.5" cy="2.5" r="2.5" transform="translate(955 837)" fill="#ed7b27"/></g><g transform="translate(-808 -795)"><circle cx="2.5" cy="2.5" r="2.5" transform="translate(955 837)" fill="#ed7b27"/></g><g transform="translate(-787 -795)"><circle cx="2.5" cy="2.5" r="2.5" transform="translate(955 837)" fill="#ed7b27"/></g><g transform="translate(-766 -795)"><circle cx="2.5" cy="2.5" r="2.5" transform="translate(955 837)" fill="#ed7b27"/></g><g transform="translate(-745 -795)"><circle cx="2.5" cy="2.5" r="2.5" transform="translate(955 837)" fill="#ed7b27"/></g><g transform="translate(-724 -795)"><circle cx="2.5" cy="2.5" r="2.5" transform="translate(955 837)" fill="#ed7b27"/></g><g transform="translate(-703 -795)"><circle cx="2.5" cy="2.5" r="2.5" transform="translate(955 837)" fill="#ed7b27"/></g><g transform="translate(-955 -774)"><circle cx="2.5" cy="2.5" r="2.5" transform="translate(955 837)" fill="#ed7b27"/></g><g transform="translate(-934 -774)"><circle cx="2.5" cy="2.5" r="2.5" transform="translate(955 837)" fill="#ed7b27"/></g><g transform="translate(-913 -774)"><circle cx="2.5" cy="2.5" r="2.5" transform="translate(955 837)" fill="#ed7b27"/></g><g transform="translate(-892 -774)"><circle cx="2.5" cy="2.5" r="2.5" transform="translate(955 837)" fill="#ed7b27"/></g><g transform="translate(-871 -774)"><circle cx="2.5" cy="2.5" r="2.5" transform="translate(955 837)" fill="#ed7b27"/></g><g transform="translate(-850 -774)"><circle cx="2.5" cy="2.5" r="2.5" transform="translate(955 837)" fill="#ed7b27"/></g><g transform="translate(-829 -774)"><circle cx="2.5" cy="2.5" r="2.5" transform="translate(955 837)" fill="#ed7b27"/></g><g transform="translate(-808 -774)"><circle cx="2.5" cy="2.5" r="2.5" transform="translate(955 837)" fill="#ed7b27"/></g><g transform="translate(-787 -774)"><circle cx="2.5" cy="2.5" r="2.5" transform="translate(955 837)" fill="#ed7b27"/></g><g transform="translate(-766 -774)"><circle cx="2.5" cy="2.5" r="2.5" transform="translate(955 837)" fill="#ed7b27"/></g><g transform="translate(-745 -774)"><circle cx="2.5" cy="2.5" r="2.5" transform="translate(955 837)" fill="#ed7b27"/></g><g transform="translate(-724 -774)"><circle cx="2.5" cy="2.5" r="2.5" transform="translate(955 837)" fill="#ed7b27"/></g><g transform="translate(-703 -774)"><circle cx="2.5" cy="2.5" r="2.5" transform="translate(955 837)" fill="#ed7b27"/></g><g transform="translate(-955 -753)"><circle cx="2.5" cy="2.5" r="2.5" transform="translate(955 837)" fill="#ed7b27"/></g><g transform="translate(-934 -753)"><circle cx="2.5" cy="2.5" r="2.5" transform="translate(955 837)" fill="#ed7b27"/></g><g transform="translate(-913 -753)"><circle cx="2.5" cy="2.5" r="2.5" transform="translate(955 837)" fill="#ed7b27"/></g><g transform="translate(-892 -753)"><circle cx="2.5" cy="2.5" r="2.5" transform="translate(955 837)" fill="#ed7b27"/></g><g transform="translate(-871 -753)"><circle cx="2.5" cy="2.5" r="2.5" transform="translate(955 837)" fill="#ed7b27"/></g><g transform="translate(-850 -753)"><circle cx="2.5" cy="2.5" r="2.5" transform="translate(955 837)" fill="#ed7b27"/></g><g transform="translate(-829 -753)"><circle cx="2.5" cy="2.5" r="2.5" transform="translate(955 837)" fill="#ed7b27"/></g><g transform="translate(-808 -753)"><circle cx="2.5" cy="2.5" r="2.5" transform="translate(955 837)" fill="#ed7b27"/></g><g transform="translate(-787 -753)"><circle cx="2.5" cy="2.5" r="2.5" transform="translate(955 837)" fill="#ed7b27"/></g><g transform="translate(-766 -753)"><circle cx="2.5" cy="2.5" r="2.5" transform="translate(955 837)" fill="#ed7b27"/></g><g transform="translate(-745 -753)"><circle cx="2.5" cy="2.5" r="2.5" transform="translate(955 837)" fill="#ed7b27"/></g><g transform="translate(-724 -753)"><circle cx="2.5" cy="2.5" r="2.5" transform="translate(955 837)" fill="#ed7b27"/></g><g transform="translate(-703 -753)"><circle cx="2.5" cy="2.5" r="2.5" transform="translate(955 837)" fill="#ed7b27"/></g><g transform="translate(-955 -732)"><circle cx="2.5" cy="2.5" r="2.5" transform="translate(955 837)" fill="#ed7b27"/></g><g transform="translate(-934 -732)"><circle cx="2.5" cy="2.5" r="2.5" transform="translate(955 837)" fill="#ed7b27"/></g><g transform="translate(-913 -732)"><circle cx="2.5" cy="2.5" r="2.5" transform="translate(955 837)" fill="#ed7b27"/></g><g transform="translate(-892 -732)"><circle cx="2.5" cy="2.5" r="2.5" transform="translate(955 837)" fill="#ed7b27"/></g><g transform="translate(-871 -732)"><circle cx="2.5" cy="2.5" r="2.5" transform="translate(955 837)" fill="#ed7b27"/></g><g transform="translate(-850 -732)"><circle cx="2.5" cy="2.5" r="2.5" transform="translate(955 837)" fill="#ed7b27"/></g><g transform="translate(-829 -732)"><circle cx="2.5" cy="2.5" r="2.5" transform="translate(955 837)" fill="#ed7b27"/></g><g transform="translate(-808 -732)"><circle cx="2.5" cy="2.5" r="2.5" transform="translate(955 837)" fill="#ed7b27"/></g><g transform="translate(-787 -732)"><circle cx="2.5" cy="2.5" r="2.5" transform="translate(955 837)" fill="#ed7b27"/></g><g transform="translate(-766 -732)"><circle cx="2.5" cy="2.5" r="2.5" transform="translate(955 837)" fill="#ed7b27"/></g><g transform="translate(-745 -732)"><circle cx="2.5" cy="2.5" r="2.5" transform="translate(955 837)" fill="#ed7b27"/></g><g transform="translate(-724 -732)"><circle cx="2.5" cy="2.5" r="2.5" transform="translate(955 837)" fill="#ed7b27"/></g><g transform="translate(-703 -732)"><circle cx="2.5" cy="2.5" r="2.5" transform="translate(955 837)" fill="#ed7b27"/></g><g transform="translate(-955 -711)"><circle cx="2.5" cy="2.5" r="2.5" transform="translate(955 837)" fill="#ed7b27"/></g><g transform="translate(-934 -711)"><circle cx="2.5" cy="2.5" r="2.5" transform="translate(955 837)" fill="#ed7b27"/></g><g transform="translate(-913 -711)"><circle cx="2.5" cy="2.5" r="2.5" transform="translate(955 837)" fill="#ed7b27"/></g><g transform="translate(-892 -711)"><circle cx="2.5" cy="2.5" r="2.5" transform="translate(955 837)" fill="#ed7b27"/></g><g transform="translate(-871 -711)"><circle cx="2.5" cy="2.5" r="2.5" transform="translate(955 837)" fill="#ed7b27"/></g><g transform="translate(-850 -711)"><circle cx="2.5" cy="2.5" r="2.5" transform="translate(955 837)" fill="#ed7b27"/></g><g transform="translate(-829 -711)"><circle cx="2.5" cy="2.5" r="2.5" transform="translate(955 837)" fill="#ed7b27"/></g><g transform="translate(-808 -711)"><circle cx="2.5" cy="2.5" r="2.5" transform="translate(955 837)" fill="#ed7b27"/></g><g transform="translate(-787 -711)"><circle cx="2.5" cy="2.5" r="2.5" transform="translate(955 837)" fill="#ed7b27"/></g><g transform="translate(-766 -711)"><circle cx="2.5" cy="2.5" r="2.5" transform="translate(955 837)" fill="#ed7b27"/></g><g transform="translate(-745 -711)"><circle cx="2.5" cy="2.5" r="2.5" transform="translate(955 837)" fill="#ed7b27"/></g><g transform="translate(-724 -711)"><circle cx="2.5" cy="2.5" r="2.5" transform="translate(955 837)" fill="#ed7b27"/></g><g transform="translate(-703 -711)"><circle cx="2.5" cy="2.5" r="2.5" transform="translate(955 837)" fill="#ed7b27"/></g><g transform="translate(-955 -690)"><circle cx="2.5" cy="2.5" r="2.5" transform="translate(955 837)" fill="#ed7b27"/></g><g transform="translate(-934 -690)"><circle cx="2.5" cy="2.5" r="2.5" transform="translate(955 837)" fill="#ed7b27"/></g><g transform="translate(-913 -690)"><circle cx="2.5" cy="2.5" r="2.5" transform="translate(955 837)" fill="#ed7b27"/></g><g transform="translate(-892 -690)"><circle cx="2.5" cy="2.5" r="2.5" transform="translate(955 837)" fill="#ed7b27"/></g><g transform="translate(-871 -690)"><circle cx="2.5" cy="2.5" r="2.5" transform="translate(955 837)" fill="#ed7b27"/></g><g transform="translate(-850 -690)"><circle cx="2.5" cy="2.5" r="2.5" transform="translate(955 837)" fill="#ed7b27"/></g><g transform="translate(-829 -690)"><circle cx="2.5" cy="2.5" r="2.5" transform="translate(955 837)" fill="#ed7b27"/></g><g transform="translate(-808 -690)"><circle cx="2.5" cy="2.5" r="2.5" transform="translate(955 837)" fill="#ed7b27"/></g><g transform="translate(-787 -690)"><circle cx="2.5" cy="2.5" r="2.5" transform="translate(955 837)" fill="#ed7b27"/></g><g transform="translate(-766 -690)"><circle cx="2.5" cy="2.5" r="2.5" transform="translate(955 837)" fill="#ed7b27"/></g><g transform="translate(-745 -690)"><circle cx="2.5" cy="2.5" r="2.5" transform="translate(955 837)" fill="#ed7b27"/></g><g transform="translate(-724 -690)"><circle cx="2.5" cy="2.5" r="2.5" transform="translate(955 837)" fill="#ed7b27"/></g><g transform="translate(-703 -690)"><circle cx="2.5" cy="2.5" r="2.5" transform="translate(955 837)" fill="#ed7b27"/></g><g transform="translate(-955 -669)"><circle cx="2.5" cy="2.5" r="2.5" transform="translate(955 837)" fill="#ed7b27"/></g><g transform="translate(-934 -669)"><circle cx="2.5" cy="2.5" r="2.5" transform="translate(955 837)" fill="#ed7b27"/></g><g transform="translate(-913 -669)"><circle cx="2.5" cy="2.5" r="2.5" transform="translate(955 837)" fill="#ed7b27"/></g><g transform="translate(-892 -669)"><circle cx="2.5" cy="2.5" r="2.5" transform="translate(955 837)" fill="#ed7b27"/></g><g transform="translate(-871 -669)"><circle cx="2.5" cy="2.5" r="2.5" transform="translate(955 837)" fill="#ed7b27"/></g><g transform="translate(-850 -669)"><circle cx="2.5" cy="2.5" r="2.5" transform="translate(955 837)" fill="#ed7b27"/></g><g transform="translate(-829 -669)"><circle cx="2.5" cy="2.5" r="2.5" transform="translate(955 837)" fill="#ed7b27"/></g><g transform="translate(-808 -669)"><circle cx="2.5" cy="2.5" r="2.5" transform="translate(955 837)" fill="#ed7b27"/></g><g transform="translate(-787 -669)"><circle cx="2.5" cy="2.5" r="2.5" transform="translate(955 837)" fill="#ed7b27"/></g><g transform="translate(-766 -669)"><circle cx="2.5" cy="2.5" r="2.5" transform="translate(955 837)" fill="#ed7b27"/></g><g transform="translate(-745 -669)"><circle cx="2.5" cy="2.5" r="2.5" transform="translate(955 837)" fill="#ed7b27"/></g><g transform="translate(-724 -669)"><circle cx="2.5" cy="2.5" r="2.5" transform="translate(955 837)" fill="#ed7b27"/></g><g transform="translate(-703 -669)"><circle cx="2.5" cy="2.5" r="2.5" transform="translate(955 837)" fill="#ed7b27"/></g><g transform="translate(-955 -648)"><circle cx="2.5" cy="2.5" r="2.5" transform="translate(955 837)" fill="#ed7b27"/></g><g transform="translate(-934 -648)"><circle cx="2.5" cy="2.5" r="2.5" transform="translate(955 837)" fill="#ed7b27"/></g><g transform="translate(-913 -648)"><circle cx="2.5" cy="2.5" r="2.5" transform="translate(955 837)" fill="#ed7b27"/></g><g transform="translate(-892 -648)"><circle cx="2.5" cy="2.5" r="2.5" transform="translate(955 837)" fill="#ed7b27"/></g><g transform="translate(-871 -648)"><circle cx="2.5" cy="2.5" r="2.5" transform="translate(955 837)" fill="#ed7b27"/></g><g transform="translate(-850 -648)"><circle cx="2.5" cy="2.5" r="2.5" transform="translate(955 837)" fill="#ed7b27"/></g><g transform="translate(-829 -648)"><circle cx="2.5" cy="2.5" r="2.5" transform="translate(955 837)" fill="#ed7b27"/></g><g transform="translate(-808 -648)"><circle cx="2.5" cy="2.5" r="2.5" transform="translate(955 837)" fill="#ed7b27"/></g><g transform="translate(-787 -648)"><circle cx="2.5" cy="2.5" r="2.5" transform="translate(955 837)" fill="#ed7b27"/></g><g transform="translate(-766 -648)"><circle cx="2.5" cy="2.5" r="2.5" transform="translate(955 837)" fill="#ed7b27"/></g><g transform="translate(-745 -648)"><circle cx="2.5" cy="2.5" r="2.5" transform="translate(955 837)" fill="#ed7b27"/></g><g transform="translate(-724 -648)"><circle cx="2.5" cy="2.5" r="2.5" transform="translate(955 837)" fill="#ed7b27"/></g><g transform="translate(-703 -648)"><circle cx="2.5" cy="2.5" r="2.5" transform="translate(955 837)" fill="#ed7b27"/></g><g transform="translate(-955 -627)"><circle cx="2.5" cy="2.5" r="2.5" transform="translate(955 837)" fill="#ed7b27"/></g><g transform="translate(-934 -627)"><circle cx="2.5" cy="2.5" r="2.5" transform="translate(955 837)" fill="#ed7b27"/></g><g transform="translate(-913 -627)"><circle cx="2.5" cy="2.5" r="2.5" transform="translate(955 837)" fill="#ed7b27"/></g><g transform="translate(-892 -627)"><circle cx="2.5" cy="2.5" r="2.5" transform="translate(955 837)" fill="#ed7b27"/></g><g transform="translate(-871 -627)"><circle cx="2.5" cy="2.5" r="2.5" transform="translate(955 837)" fill="#ed7b27"/></g><g transform="translate(-850 -627)"><circle cx="2.5" cy="2.5" r="2.5" transform="translate(955 837)" fill="#ed7b27"/></g><g transform="translate(-829 -627)"><circle cx="2.5" cy="2.5" r="2.5" transform="translate(955 837)" fill="#ed7b27"/></g><g transform="translate(-808 -627)"><circle cx="2.5" cy="2.5" r="2.5" transform="translate(955 837)" fill="#ed7b27"/></g><g transform="translate(-787 -627)"><circle cx="2.5" cy="2.5" r="2.5" transform="translate(955 837)" fill="#ed7b27"/></g><g transform="translate(-766 -627)"><circle cx="2.5" cy="2.5" r="2.5" transform="translate(955 837)" fill="#ed7b27"/></g><g transform="translate(-745 -627)"><circle cx="2.5" cy="2.5" r="2.5" transform="translate(955 837)" fill="#ed7b27"/></g><g transform="translate(-724 -627)"><circle cx="2.5" cy="2.5" r="2.5" transform="translate(955 837)" fill="#ed7b27"/></g><g transform="translate(-703 -627)"><circle cx="2.5" cy="2.5" r="2.5" transform="translate(955 837)" fill="#ed7b27"/></g><g transform="translate(-955 -606)"><circle cx="2.5" cy="2.5" r="2.5" transform="translate(955 837)" fill="#ed7b27"/></g><g transform="translate(-934 -606)"><circle cx="2.5" cy="2.5" r="2.5" transform="translate(955 837)" fill="#ed7b27"/></g><g transform="translate(-913 -606)"><circle cx="2.5" cy="2.5" r="2.5" transform="translate(955 837)" fill="#ed7b27"/></g><g transform="translate(-892 -606)"><circle cx="2.5" cy="2.5" r="2.5" transform="translate(955 837)" fill="#ed7b27"/></g><g transform="translate(-871 -606)"><circle cx="2.5" cy="2.5" r="2.5" transform="translate(955 837)" fill="#ed7b27"/></g><g transform="translate(-850 -606)"><circle cx="2.5" cy="2.5" r="2.5" transform="translate(955 837)" fill="#ed7b27"/></g><g transform="translate(-829 -606)"><circle cx="2.5" cy="2.5" r="2.5" transform="translate(955 837)" fill="#ed7b27"/></g><g transform="translate(-808 -606)"><circle cx="2.5" cy="2.5" r="2.5" transform="translate(955 837)" fill="#ed7b27"/></g><g transform="translate(-787 -606)"><circle cx="2.5" cy="2.5" r="2.5" transform="translate(955 837)" fill="#ed7b27"/></g><g transform="translate(-766 -606)"><circle cx="2.5" cy="2.5" r="2.5" transform="translate(955 837)" fill="#ed7b27"/></g><g transform="translate(-745 -606)"><circle cx="2.5" cy="2.5" r="2.5" transform="translate(955 837)" fill="#ed7b27"/></g><g transform="translate(-724 -606)"><circle cx="2.5" cy="2.5" r="2.5" transform="translate(955 837)" fill="#ed7b27"/></g><g transform="translate(-703 -606)"><circle cx="2.5" cy="2.5" r="2.5" transform="translate(955 837)" fill="#ed7b27"/></g><g transform="translate(-955 -585)"><circle cx="2.5" cy="2.5" r="2.5" transform="translate(955 837)" fill="#ed7b27"/></g><g transform="translate(-934 -585)"><circle cx="2.5" cy="2.5" r="2.5" transform="translate(955 837)" fill="#ed7b27"/></g><g transform="translate(-913 -585)"><circle cx="2.5" cy="2.5" r="2.5" transform="translate(955 837)" fill="#ed7b27"/></g><g transform="translate(-892 -585)"><circle cx="2.5" cy="2.5" r="2.5" transform="translate(955 837)" fill="#ed7b27"/></g><g transform="translate(-871 -585)"><circle cx="2.5" cy="2.5" r="2.5" transform="translate(955 837)" fill="#ed7b27"/></g><g transform="translate(-850 -585)"><circle cx="2.5" cy="2.5" r="2.5" transform="translate(955 837)" fill="#ed7b27"/></g><g transform="translate(-829 -585)"><circle cx="2.5" cy="2.5" r="2.5" transform="translate(955 837)" fill="#ed7b27"/></g><g transform="translate(-808 -585)"><circle cx="2.5" cy="2.5" r="2.5" transform="translate(955 837)" fill="#ed7b27"/></g><g transform="translate(-787 -585)"><circle cx="2.5" cy="2.5" r="2.5" transform="translate(955 837)" fill="#ed7b27"/></g><g transform="translate(-766 -585)"><circle cx="2.5" cy="2.5" r="2.5" transform="translate(955 837)" fill="#ed7b27"/></g><g transform="translate(-745 -585)"><circle cx="2.5" cy="2.5" r="2.5" transform="translate(955 837)" fill="#ed7b27"/></g><g transform="translate(-724 -585)"><circle cx="2.5" cy="2.5" r="2.5" transform="translate(955 837)" fill="#ed7b27"/></g><g transform="translate(-703 -585)"><circle cx="2.5" cy="2.5" r="2.5" transform="translate(955 837)" fill="#ed7b27"/></g></g></svg>