<svg xmlns="http://www.w3.org/2000/svg" xmlns:xlink="http://www.w3.org/1999/xlink" width="173" height="173" viewBox="0 0 173 173"><defs><clipPath id="a"><rect width="173" height="173" fill="none"/></clipPath></defs><g opacity="0.5" clip-path="url(#a)"><g transform="translate(-955 -837)"><circle cx="2.5" cy="2.5" r="2.5" transform="translate(955 837)" fill="#ed7b27"/></g><g transform="translate(-934 -837)"><circle cx="2.5" cy="2.5" r="2.5" transform="translate(955 837)" fill="#ed7b27"/></g><g transform="translate(-913 -837)"><circle cx="2.5" cy="2.5" r="2.5" transform="translate(955 837)" fill="#ed7b27"/></g><g transform="translate(-892 -837)"><circle cx="2.5" cy="2.5" r="2.5" transform="translate(955 837)" fill="#ed7b27"/></g><g transform="translate(-871 -837)"><circle cx="2.5" cy="2.5" r="2.5" transform="translate(955 837)" fill="#ed7b27"/></g><g transform="translate(-850 -837)"><circle cx="2.5" cy="2.5" r="2.5" transform="translate(955 837)" fill="#ed7b27"/></g><g transform="translate(-829 -837)"><circle cx="2.5" cy="2.5" r="2.5" transform="translate(955 837)" fill="#ed7b27"/></g><g transform="translate(-808 -837)"><circle cx="2.5" cy="2.5" r="2.5" transform="translate(955 837)" fill="#ed7b27"/></g><g transform="translate(-787 -837)"><circle cx="2.5" cy="2.5" r="2.5" transform="translate(955 837)" fill="#ed7b27"/></g><g transform="translate(-955 -816)"><circle cx="2.5" cy="2.5" r="2.5" transform="translate(955 837)" fill="#ed7b27"/></g><g transform="translate(-934 -816)"><circle cx="2.5" cy="2.5" r="2.5" transform="translate(955 837)" fill="#ed7b27"/></g><g transform="translate(-913 -816)"><circle cx="2.5" cy="2.5" r="2.5" transform="translate(955 837)" fill="#ed7b27"/></g><g transform="translate(-892 -816)"><circle cx="2.5" cy="2.5" r="2.5" transform="translate(955 837)" fill="#ed7b27"/></g><g transform="translate(-871 -816)"><circle cx="2.5" cy="2.5" r="2.5" transform="translate(955 837)" fill="#ed7b27"/></g><g transform="translate(-850 -816)"><circle cx="2.5" cy="2.5" r="2.5" transform="translate(955 837)" fill="#ed7b27"/></g><g transform="translate(-829 -816)"><circle cx="2.5" cy="2.5" r="2.5" transform="translate(955 837)" fill="#ed7b27"/></g><g transform="translate(-808 -816)"><circle cx="2.5" cy="2.5" r="2.5" transform="translate(955 837)" fill="#ed7b27"/></g><g transform="translate(-787 -816)"><circle cx="2.5" cy="2.5" r="2.5" transform="translate(955 837)" fill="#ed7b27"/></g><g transform="translate(-955 -795)"><circle cx="2.5" cy="2.5" r="2.5" transform="translate(955 837)" fill="#ed7b27"/></g><g transform="translate(-934 -795)"><circle cx="2.5" cy="2.5" r="2.5" transform="translate(955 837)" fill="#ed7b27"/></g><g transform="translate(-913 -795)"><circle cx="2.5" cy="2.5" r="2.5" transform="translate(955 837)" fill="#ed7b27"/></g><g transform="translate(-892 -795)"><circle cx="2.5" cy="2.5" r="2.5" transform="translate(955 837)" fill="#ed7b27"/></g><g transform="translate(-871 -795)"><circle cx="2.5" cy="2.5" r="2.5" transform="translate(955 837)" fill="#ed7b27"/></g><g transform="translate(-850 -795)"><circle cx="2.5" cy="2.5" r="2.5" transform="translate(955 837)" fill="#ed7b27"/></g><g transform="translate(-829 -795)"><circle cx="2.5" cy="2.5" r="2.5" transform="translate(955 837)" fill="#ed7b27"/></g><g transform="translate(-808 -795)"><circle cx="2.5" cy="2.5" r="2.5" transform="translate(955 837)" fill="#ed7b27"/></g><g transform="translate(-787 -795)"><circle cx="2.5" cy="2.5" r="2.5" transform="translate(955 837)" fill="#ed7b27"/></g><g transform="translate(-955 -774)"><circle cx="2.5" cy="2.5" r="2.5" transform="translate(955 837)" fill="#ed7b27"/></g><g transform="translate(-934 -774)"><circle cx="2.5" cy="2.5" r="2.5" transform="translate(955 837)" fill="#ed7b27"/></g><g transform="translate(-913 -774)"><circle cx="2.5" cy="2.5" r="2.5" transform="translate(955 837)" fill="#ed7b27"/></g><g transform="translate(-892 -774)"><circle cx="2.5" cy="2.5" r="2.5" transform="translate(955 837)" fill="#ed7b27"/></g><g transform="translate(-871 -774)"><circle cx="2.5" cy="2.5" r="2.5" transform="translate(955 837)" fill="#ed7b27"/></g><g transform="translate(-850 -774)"><circle cx="2.5" cy="2.5" r="2.5" transform="translate(955 837)" fill="#ed7b27"/></g><g transform="translate(-829 -774)"><circle cx="2.5" cy="2.5" r="2.5" transform="translate(955 837)" fill="#ed7b27"/></g><g transform="translate(-808 -774)"><circle cx="2.5" cy="2.5" r="2.5" transform="translate(955 837)" fill="#ed7b27"/></g><g transform="translate(-787 -774)"><circle cx="2.5" cy="2.5" r="2.5" transform="translate(955 837)" fill="#ed7b27"/></g><g transform="translate(-955 -753)"><circle cx="2.5" cy="2.5" r="2.5" transform="translate(955 837)" fill="#ed7b27"/></g><g transform="translate(-934 -753)"><circle cx="2.5" cy="2.5" r="2.5" transform="translate(955 837)" fill="#ed7b27"/></g><g transform="translate(-913 -753)"><circle cx="2.5" cy="2.5" r="2.5" transform="translate(955 837)" fill="#ed7b27"/></g><g transform="translate(-892 -753)"><circle cx="2.5" cy="2.5" r="2.5" transform="translate(955 837)" fill="#ed7b27"/></g><g transform="translate(-871 -753)"><circle cx="2.5" cy="2.5" r="2.5" transform="translate(955 837)" fill="#ed7b27"/></g><g transform="translate(-850 -753)"><circle cx="2.5" cy="2.5" r="2.5" transform="translate(955 837)" fill="#ed7b27"/></g><g transform="translate(-829 -753)"><circle cx="2.5" cy="2.5" r="2.5" transform="translate(955 837)" fill="#ed7b27"/></g><g transform="translate(-808 -753)"><circle cx="2.5" cy="2.5" r="2.5" transform="translate(955 837)" fill="#ed7b27"/></g><g transform="translate(-787 -753)"><circle cx="2.5" cy="2.5" r="2.5" transform="translate(955 837)" fill="#ed7b27"/></g><g transform="translate(-955 -732)"><circle cx="2.5" cy="2.5" r="2.5" transform="translate(955 837)" fill="#ed7b27"/></g><g transform="translate(-934 -732)"><circle cx="2.5" cy="2.5" r="2.5" transform="translate(955 837)" fill="#ed7b27"/></g><g transform="translate(-913 -732)"><circle cx="2.5" cy="2.5" r="2.5" transform="translate(955 837)" fill="#ed7b27"/></g><g transform="translate(-892 -732)"><circle cx="2.5" cy="2.5" r="2.5" transform="translate(955 837)" fill="#ed7b27"/></g><g transform="translate(-871 -732)"><circle cx="2.5" cy="2.5" r="2.5" transform="translate(955 837)" fill="#ed7b27"/></g><g transform="translate(-850 -732)"><circle cx="2.5" cy="2.5" r="2.5" transform="translate(955 837)" fill="#ed7b27"/></g><g transform="translate(-829 -732)"><circle cx="2.5" cy="2.5" r="2.5" transform="translate(955 837)" fill="#ed7b27"/></g><g transform="translate(-808 -732)"><circle cx="2.5" cy="2.5" r="2.5" transform="translate(955 837)" fill="#ed7b27"/></g><g transform="translate(-787 -732)"><circle cx="2.5" cy="2.5" r="2.5" transform="translate(955 837)" fill="#ed7b27"/></g><g transform="translate(-955 -711)"><circle cx="2.5" cy="2.5" r="2.5" transform="translate(955 837)" fill="#ed7b27"/></g><g transform="translate(-934 -711)"><circle cx="2.5" cy="2.5" r="2.5" transform="translate(955 837)" fill="#ed7b27"/></g><g transform="translate(-913 -711)"><circle cx="2.5" cy="2.5" r="2.5" transform="translate(955 837)" fill="#ed7b27"/></g><g transform="translate(-892 -711)"><circle cx="2.5" cy="2.5" r="2.5" transform="translate(955 837)" fill="#ed7b27"/></g><g transform="translate(-871 -711)"><circle cx="2.5" cy="2.5" r="2.5" transform="translate(955 837)" fill="#ed7b27"/></g><g transform="translate(-850 -711)"><circle cx="2.5" cy="2.5" r="2.5" transform="translate(955 837)" fill="#ed7b27"/></g><g transform="translate(-829 -711)"><circle cx="2.5" cy="2.5" r="2.5" transform="translate(955 837)" fill="#ed7b27"/></g><g transform="translate(-808 -711)"><circle cx="2.5" cy="2.5" r="2.5" transform="translate(955 837)" fill="#ed7b27"/></g><g transform="translate(-787 -711)"><circle cx="2.5" cy="2.5" r="2.5" transform="translate(955 837)" fill="#ed7b27"/></g><g transform="translate(-955 -690)"><circle cx="2.5" cy="2.5" r="2.5" transform="translate(955 837)" fill="#ed7b27"/></g><g transform="translate(-934 -690)"><circle cx="2.5" cy="2.5" r="2.5" transform="translate(955 837)" fill="#ed7b27"/></g><g transform="translate(-913 -690)"><circle cx="2.5" cy="2.5" r="2.5" transform="translate(955 837)" fill="#ed7b27"/></g><g transform="translate(-892 -690)"><circle cx="2.5" cy="2.5" r="2.5" transform="translate(955 837)" fill="#ed7b27"/></g><g transform="translate(-871 -690)"><circle cx="2.5" cy="2.5" r="2.5" transform="translate(955 837)" fill="#ed7b27"/></g><g transform="translate(-850 -690)"><circle cx="2.5" cy="2.5" r="2.5" transform="translate(955 837)" fill="#ed7b27"/></g><g transform="translate(-829 -690)"><circle cx="2.5" cy="2.5" r="2.5" transform="translate(955 837)" fill="#ed7b27"/></g><g transform="translate(-808 -690)"><circle cx="2.5" cy="2.5" r="2.5" transform="translate(955 837)" fill="#ed7b27"/></g><g transform="translate(-787 -690)"><circle cx="2.5" cy="2.5" r="2.5" transform="translate(955 837)" fill="#ed7b27"/></g><g transform="translate(-955 -669)"><circle cx="2.5" cy="2.5" r="2.5" transform="translate(955 837)" fill="#ed7b27"/></g><g transform="translate(-934 -669)"><circle cx="2.5" cy="2.5" r="2.5" transform="translate(955 837)" fill="#ed7b27"/></g><g transform="translate(-913 -669)"><circle cx="2.5" cy="2.5" r="2.5" transform="translate(955 837)" fill="#ed7b27"/></g><g transform="translate(-892 -669)"><circle cx="2.5" cy="2.5" r="2.5" transform="translate(955 837)" fill="#ed7b27"/></g><g transform="translate(-871 -669)"><circle cx="2.5" cy="2.5" r="2.5" transform="translate(955 837)" fill="#ed7b27"/></g><g transform="translate(-850 -669)"><circle cx="2.5" cy="2.5" r="2.5" transform="translate(955 837)" fill="#ed7b27"/></g><g transform="translate(-829 -669)"><circle cx="2.5" cy="2.5" r="2.5" transform="translate(955 837)" fill="#ed7b27"/></g><g transform="translate(-808 -669)"><circle cx="2.5" cy="2.5" r="2.5" transform="translate(955 837)" fill="#ed7b27"/></g><g transform="translate(-787 -669)"><circle cx="2.5" cy="2.5" r="2.5" transform="translate(955 837)" fill="#ed7b27"/></g></g></svg>