<svg xmlns="http://www.w3.org/2000/svg" width="398.034" height="39.938" viewBox="0 0 398.034 39.938"><g transform="translate(-111 304.375)"><path d="M10.969,5.344a1.987,1.987,0,0,1-1.2-.25q-.547-.313-.2-1.125.469-.906,1.078-2.25t1.672-3.562q-.969.375-1.656.656a11.889,11.889,0,0,0-1.531.781.967.967,0,0,1-.734.156,1.46,1.46,0,0,1-.578-.469,2,2,0,0,1-.375-1.125A8.56,8.56,0,0,1,9.563-2.953q1.406-.547,3.844-1.3.781-1.813,1.063-2.562-1.188.344-2.125.625a1.547,1.547,0,0,1-.891.094q-.359-.094-.578-.656a1.9,1.9,0,0,1-.156-.562,2.586,2.586,0,0,1-.062-.562q.687-.187,1.719-.406,1.094-.25,2.813-.656.219-.687.344-1.156.125-.531.188-.719a17.837,17.837,0,0,0-3.406.625,1.79,1.79,0,0,1-.984.172.915.915,0,0,1-.594-.562,2.21,2.21,0,0,1-.25-.828q-.016-.344.406-.484a20.693,20.693,0,0,1,2.25-.437q1.828-.3,2.828-.391a4.33,4.33,0,0,0,.125-1.2,1.192,1.192,0,0,1,.25-.859,1.632,1.632,0,0,1,1.016.078,1.127,1.127,0,0,1,.688.672,2.707,2.707,0,0,1,.172.938q.563,0,1.313-.031a3.186,3.186,0,0,1,1.063.094l.125.063a.751.751,0,0,1,.578.7,1.118,1.118,0,0,1-.266.953H19.625A15.03,15.03,0,0,0,18-11.187q-.219.969-.5,1.844a6.392,6.392,0,0,1,.844-.172q.375-.047.766-.078a1.061,1.061,0,0,1,.609.094,1.444,1.444,0,0,1,.438.438.582.582,0,0,1,.125.625.954.954,0,0,1-.594.531A16.667,16.667,0,0,0,18-7.578a5.009,5.009,0,0,1-1.094.172q-.75,1.563-1.187,2.625.5-.187,2.234-.594t4.578-1a1.041,1.041,0,0,1,1.344.719.953.953,0,0,1-.234.734,1.291,1.291,0,0,1-.734.391q-2.25.375-3.391.609a13.111,13.111,0,0,0-2.234.672Q19-1.312,20.672.609a25.124,25.124,0,0,0,3.109,3.078,1.609,1.609,0,0,1,.031.938,1.163,1.163,0,0,1-1,.469,2.514,2.514,0,0,1-1-.5q-1.687-1.781-3.156-3.516T16.438-1.594a8.219,8.219,0,0,1-.875-1.219l-.75.156q-1.219,2.5-1.922,4.094T11.7,3.922Q11.219,4.813,10.969,5.344ZM7.281-16.75q1.531-.437,2.328-.672t6.3-1.328q-.25-2.25-.5-4.687a2.7,2.7,0,0,1,.844-.156q1.063,0,1.313,1.281.094,1.5.156,3.438.781-.125,3.109-.25a29.1,29.1,0,0,1,5.359.281,5.224,5.224,0,0,1,1.25.5,2.21,2.21,0,0,1,.875.875l.094.188a2.028,2.028,0,0,1-.141,1.234,6.3,6.3,0,0,1-.672,1.172,15.057,15.057,0,0,1-2.047,2.266,5.973,5.973,0,0,1-1.437,1.031,1.439,1.439,0,0,1-1-.016q-.547-.187-.547-.562a24.606,24.606,0,0,0,2.156-2.5q.563-.719.906-1.25a4.849,4.849,0,0,0,.469-.937,8.958,8.958,0,0,0-3.453-.609,22.015,22.015,0,0,0-5.687.406q-2.891.578-5.031,1.156a11.7,11.7,0,0,0-2.766.984,2.994,2.994,0,0,1-1.906.281,20.061,20.061,0,0,0,.078,2.359,5.2,5.2,0,0,0,.344,1.672l.484.969a.89.89,0,0,1-.937.594,1.407,1.407,0,0,1-.984-.609,4.274,4.274,0,0,1-.578-1.484,11.813,11.813,0,0,1-.25-2.3q-.031-1.328-.047-3.141t.078-3.031q.188-1.594,1.438-.656a1.094,1.094,0,0,1,.563.484,1,1,0,0,1,.172.672q-.047.313-.109.594Q7.344-17.562,7.281-16.75Zm45.094,2.906a13.892,13.892,0,0,1,.188-1.656,12.178,12.178,0,0,0-1.391.453,5.83,5.83,0,0,1-1.109.328,1.846,1.846,0,0,1-1.031-1.656,15.151,15.151,0,0,1,1.891-.656,9.677,9.677,0,0,0,1.641-.594q.063-1,.031-1.969a4.172,4.172,0,0,0-1.406.328q-.719.3-1.437.609a1.142,1.142,0,0,1-1.656-.375q-.719-1.031.531-1.5,1.719-.5,2.719-.8a4.61,4.61,0,0,0,1.188-.453,1.726,1.726,0,0,0,.109-1.078,1.46,1.46,0,0,1,.484-1.266,1.906,1.906,0,0,1,1.625,1.844q1.313-.219,2.125-.375a1.272,1.272,0,0,1,1.563.531A1.846,1.846,0,0,1,58.563-21a1.382,1.382,0,0,1-.906.375,23.818,23.818,0,0,0-2.937.531q-.094,1.094-.094,2.063a8.749,8.749,0,0,0,1.438-.125l1.313-.219a1.156,1.156,0,0,1,.781.094.939.939,0,0,1,.531.609,3.234,3.234,0,0,1,.125.922q-2.25.344-4.281.75a7.958,7.958,0,0,0-.156,1.875l.219-.031q1.563-.344,3.031-.562,1.594-.25,4.25-.719a1.1,1.1,0,0,1,1.313.781q.594,1.094-.719,1.156a23.169,23.169,0,0,0-3.672.438q-1.391.312-3.656.656a23.53,23.53,0,0,0-4.234,1.031q-1.687.594-3.312,1.25-.281.094-.562.219Q45.937-10,45.625-11.5a28.515,28.515,0,0,1,3-1.219Q50.406-13.344,52.375-13.844ZM52.063-9.25q1.375-.469,2.25-.687t3.313-.781a1.747,1.747,0,0,1,1.3.266,1.318,1.318,0,0,1,.641,1.109q-.219,2.531-.469,4.625t-.5,3.781Q58.563.125,57.656.25A2.2,2.2,0,0,1,56.563.031Q54,.813,51.844,1.406a1.426,1.426,0,0,1-1.5-.562,5.047,5.047,0,0,1-.531-1.906,34.112,34.112,0,0,1-.187-4.2q0-2.828.125-4.7a1.117,1.117,0,0,1,1.016-.344A2.377,2.377,0,0,1,52.063-9.25Zm4.875,6.344q-2.844.625-5.406,1.219a1.069,1.069,0,0,0,.109.609,4.431,4.431,0,0,1,.234.516,7.724,7.724,0,0,0,1.469-.25q1.062-.25,2.109-.453a3.409,3.409,0,0,0,1.281-.406.667.667,0,0,0,.2-.594A3.252,3.252,0,0,1,56.938-2.906ZM57.656-9q-1.375.281-2.406.547t-1.844.516a10.9,10.9,0,0,1-1.719.375q-.094.719-.156,1.375Q55-6.906,57.594-7.625A5.294,5.294,0,0,0,57.656-9Zm-.375,3.219q-1.5.188-3.078.547T51.281-4.5q.063.5.125,1.375,1.469-.469,2.672-.75t3.047-.562Q57.25-5.281,57.281-5.781ZM62.594,4.781q-.219,1.063-1.125.656-1.031-.625-1.844-1.2a13.652,13.652,0,0,0-1.812-1.078,7.059,7.059,0,0,1-1.031-1.062.872.872,0,0,1,.063-.859A.829.829,0,0,1,57.5.891a1.569,1.569,0,0,1,.813.2q1.531,1.094,2.609,1.828a6.839,6.839,0,0,1,1.516,1.3A1.442,1.442,0,0,1,62.594,4.781Zm-12.469.906q1.156-1.875,2.438-3.594a.877.877,0,0,1,.719-.25,2.538,2.538,0,0,1,.781.313.9.9,0,0,1,.219,1.375q-1.188,1.438-2.437,2.813a.907.907,0,0,1-1.016.109A1.791,1.791,0,0,1,50.125,5.688Zm-7-14.719a9.49,9.49,0,0,0-.922.563q-.453.312-.953.625-.063.75-.094,1.438-.469,6.969-.5,7.594a13.188,13.188,0,0,0,.156,2.125.854.854,0,0,1-.219.547.905.905,0,0,1-.531.328,1.273,1.273,0,0,1-1-.469A3.65,3.65,0,0,1,38.75,2.25q.156-3.281.406-7.531l.031-.281q-.031-.719-.094-1.406a11.467,11.467,0,0,0-1.281.5q-.687.313-2.719.969a1.335,1.335,0,0,1-1.75-.719,2.737,2.737,0,0,1-.25-.641.839.839,0,0,1,.078-.656A1.593,1.593,0,0,1,33.594-8q1.719-1.812,2.688-2.719a14.644,14.644,0,0,0,1.438-1.5q-1.406-.625-3-1.281a1.8,1.8,0,0,1-.75-1.062,1.157,1.157,0,0,1,.406-1.344q1.938-1.719,3.406-3.172t2.438-2.547a4.564,4.564,0,0,1,.938.344q1.031.719.656,1.438-1.625,1.406-2.734,2.438t-1.719,1.625a6.587,6.587,0,0,0-.8.875,2.336,2.336,0,0,0,1.125.7,6.1,6.1,0,0,0,1.594.391q1.375-1.344,2.625-2.375a3.18,3.18,0,0,1,.578-.453.583.583,0,0,1,.7.078,2.091,2.091,0,0,1,.875,1.188q.125.375-.016.516a1.784,1.784,0,0,1-.453.3A12.434,12.434,0,0,0,41.828-13.2a8.473,8.473,0,0,0-1.2,1.234,2.205,2.205,0,0,1-.781.672A7.211,7.211,0,0,0,38.5-10.219q-.813.781-2,2.188,1.219-.375,1.469-.484t1.016-.391q.766-.281,1.547-.641T42-10.281q.094-.469.219-1,.219-.875.969-.5a8.257,8.257,0,0,1,1.156,1.125q.594.687,1.156,1.344l.25.25q.438.469.781.813a.815.815,0,0,1,.094,1.125.851.851,0,0,1-1.187.156,4.581,4.581,0,0,1-1.062-.781l-.344-.344Q43.625-8.5,43.125-9.031ZM37.75-2.562q-1.031,1.344-1.547,2A40.138,40.138,0,0,0,34.031,3a1.292,1.292,0,0,1-.953-.281,1.4,1.4,0,0,1-.453-.844A6.937,6.937,0,0,1,33.281.156,35.35,35.35,0,0,1,35.5-3.156l.125-.187a.765.765,0,0,1,.75-.469h.25a1.428,1.428,0,0,1,.75.375Q37.969-3,37.75-2.562Zm9.063-.312q-.063.656-.391.828t-1.266-.2a29.614,29.614,0,0,1-2.812-1.531,1.782,1.782,0,0,1-.172-1.2q.109-.734.766-.547a23.8,23.8,0,0,1,2.969,1.813A4.4,4.4,0,0,1,46.813-2.875ZM78.375-13.312a19.176,19.176,0,0,1-1.391,4,19.743,19.743,0,0,1-2.156,3.547,11.042,11.042,0,0,1-3.016,2.7,9.045,9.045,0,0,1-1.719.813,1.7,1.7,0,0,1-1.062.031,3.271,3.271,0,0,1-1.016-.609A3.4,3.4,0,0,1,67.125-4a4.273,4.273,0,0,1-.281-1.781,8.767,8.767,0,0,1,.672-2.7,9.051,9.051,0,0,1,2.031-3.094,12.73,12.73,0,0,1,2.875-2.25A15.775,15.775,0,0,1,76.5-15.25a1.7,1.7,0,0,1,.844-.25h.188a7.1,7.1,0,0,1,.8.188q.3.094.641.219a4.941,4.941,0,0,1,1.563.609A7.685,7.685,0,0,1,82-13.25a5.041,5.041,0,0,1,1.188,2.531A10.181,10.181,0,0,1,83.2-6.859a20.412,20.412,0,0,1-.766,3.281,13.9,13.9,0,0,1-1.031,2.234,3.133,3.133,0,0,1-.359.563.806.806,0,0,1-.453.219,1.12,1.12,0,0,1-.7-.156,1.562,1.562,0,0,1-.641-.5A1.644,1.644,0,0,1,79-1.844a.674.674,0,0,1,.156-.594,6.6,6.6,0,0,0,.7-.859,9.841,9.841,0,0,0,.7-1.828,16.624,16.624,0,0,0,.656-2.906,9.132,9.132,0,0,0,.063-2.344,5.2,5.2,0,0,0-.3-1.422,1.926,1.926,0,0,0-.609-.8,3.044,3.044,0,0,0-.953-.484A5.969,5.969,0,0,0,78.375-13.312ZM68.688-4.219a2.112,2.112,0,0,0,1.781-.406A12.829,12.829,0,0,0,73.156-7.2a13.964,13.964,0,0,0,1.906-3.234,19.54,19.54,0,0,0,.969-2.75,13.7,13.7,0,0,0-2.781,1.25,9.058,9.058,0,0,0-2.891,2.469,8.244,8.244,0,0,0-1.516,2.859A5.639,5.639,0,0,0,68.688-4.219Zm26.344-13q-.781.781-2.469,2.5A14.933,14.933,0,0,1,90.2-12.641a3.338,3.338,0,0,1-.937.406q-.3.047-.391-.547a2.123,2.123,0,0,1,.719-1.531q1.625-1.75,3.234-3.625t2.438-2.75q.828-.875,1.547-1.687a.972.972,0,0,1,.656-.281.832.832,0,0,1,.375.094,1.419,1.419,0,0,1,1,1.219.826.826,0,0,1-.531.938q-1.125.938-2.156,1.938l.688.375a2.2,2.2,0,0,1,.219,1.625q-.187,2.094-.25,3.094.875-.281,1.25-.422t.906-.3a1.134,1.134,0,0,1,1.281.375,2.081,2.081,0,0,1,.219.875q-.031.375-.25.469a1.167,1.167,0,0,1-.562.063,20.2,20.2,0,0,0-2.969.938q-.281,2.344-.5,4.344,2.188,1.25,4.125,2.469a.858.858,0,0,1,0,.781q-.187.344-.828.234a5.052,5.052,0,0,1-1.391-.484,11.752,11.752,0,0,0-2.125-.906q-.219,2.219-.234,3.844T95.719,1.25q0,.719.031,2.156.125.969-.844.875A1.238,1.238,0,0,1,93.688,2.75q.062-3.313.188-4.781.125-1.438.281-3.656l.031-.219q-.156.156-.437.469-.437.531-1.219,1.594Q91.344-2.187,90.188-.187A.85.85,0,0,1,89.063.25a1.014,1.014,0,0,1-.719-1.156,14.1,14.1,0,0,1,1.469-2.25q1.313-1.781,3.156-4.875a1.6,1.6,0,0,1,1.375-.812,5.691,5.691,0,0,0,.281-1.75,18.811,18.811,0,0,0-1.844.813,31.971,31.971,0,0,0-3.219,1.813,1.438,1.438,0,0,1-1.75,0q-1.063-1,.313-1.656,2.063-1.125,3.719-1.828t3-1.3q.094-2.187.156-2.953A12.313,12.313,0,0,0,95.031-17.219Zm8.75,13.5a4.2,4.2,0,0,1-1.937-.906,4.927,4.927,0,0,1-1.531-2.187,9.213,9.213,0,0,1-.437-2.156,5.089,5.089,0,0,1-.031-.562,1.8,1.8,0,0,1,1.188-.094,1.727,1.727,0,0,1,.344.156,1.476,1.476,0,0,1,.844,1.344,6.417,6.417,0,0,0,.438,1.531,1.979,1.979,0,0,0,1.156,1.156,1.8,1.8,0,0,1,.406.844A1.313,1.313,0,0,1,103.781-3.719Zm8.156-15.906a4.431,4.431,0,0,1,1.219.234,1.178,1.178,0,0,1,.781.813,1.554,1.554,0,0,1-.031,1.109q-.094.25-.187.531-.656,1.656-2.062,4.563Q110-9,108.906-7.156a19.739,19.739,0,0,0,2.5,5.781,12.63,12.63,0,0,0,2.109,2.7,1.968,1.968,0,0,0,1.2.328,5,5,0,0,0,1.188-2.031q.406-1.25.563-1.969a1.233,1.233,0,0,1,.8,1.266,10.862,10.862,0,0,1-.125,2.141,5.047,5.047,0,0,1-.8,2.063,1.139,1.139,0,0,1-.844.594,4.586,4.586,0,0,1-2.281-.5,12.066,12.066,0,0,1-3.562-4.125,37.9,37.9,0,0,1-1.937-4.187,39.537,39.537,0,0,0-2.422,4.5q-1.328,2.813-1.984,4.406A1.168,1.168,0,0,1,102.2,3.7a1.751,1.751,0,0,1-.641-.891q1.094-2.469,2.344-5.047t1.813-3.672q.563-1.094.813-1.687-.437-1.563-.906-3.125-.156-.562-.344-1.344-.406-1.563-.906-4.125a.53.53,0,0,1,.438-.437,1.939,1.939,0,0,1,.906.031q.531.125.906,1.344.25,1.219.438,2.156.125.594.219,1.094.25,1.219.469,2.188a40.414,40.414,0,0,0,2.156-3.844q.406-.844.719-1.5a18.274,18.274,0,0,0,.813-1.937A8.408,8.408,0,0,0,111.938-19.625Zm1.719,7.094a2.733,2.733,0,0,1,1.406.406,1.653,1.653,0,0,1,.813,1.25q.531,1.844,1.125,3.719.062.437.125,1a1.045,1.045,0,0,1-1.375-.031,1.845,1.845,0,0,1-.5-.625q-.937-2.625-1.812-5.125A1.161,1.161,0,0,1,113.656-12.531Zm-6.312-5.875q-.844-1.312-1.562-2.656a.768.768,0,0,1,.156-1.219,2.349,2.349,0,0,1,2.031,1.563q.5,1.125,1.031,2.531.062.469-.516.547T107.344-18.406Zm37.406.625q-.781-.062-2.266-.125a21.968,21.968,0,0,0-3.391.156,52.948,52.948,0,0,0-5.609,1.094,27.366,27.366,0,0,0-6.391,2.281q-1.094.625-1.719.094a9.274,9.274,0,0,0-.109,2.234,9.849,9.849,0,0,0,.266,1.859,1.075,1.075,0,0,1-1.312.188,3.393,3.393,0,0,1-.687-1.906,28.832,28.832,0,0,1-.141-3.609,17.336,17.336,0,0,1,.422-3.359q.375-.281,1.125.078a1.039,1.039,0,0,1,.688,1.078,3.91,3.91,0,0,0-.141.766q-.016.3-.047.8,1.344-.5,3.281-1.2a49.881,49.881,0,0,1,5-1.453,6.415,6.415,0,0,0,.391-2.031q.016-.969-.031-1.594T134-23.469a.709.709,0,0,1,.406-.594.62.62,0,0,1,.281-.062.894.894,0,0,1,.469.156,2.352,2.352,0,0,1,.75,1.688,26.955,26.955,0,0,1-.062,3.188q2.375-.344,4.688-.469a42.927,42.927,0,0,1,4.313-.031,2.827,2.827,0,0,1,1.375.438,2.266,2.266,0,0,1,.844,1.25,1.2,1.2,0,0,1-.281,1.281q-1.188,1.125-2.328,2.156t-1.719,1.484a6.77,6.77,0,0,1-1.141.734,1.541,1.541,0,0,1-.562-.422.561.561,0,0,1-.078-.609,1.262,1.262,0,0,1,.328-.5q.75-.75,1.313-1.375.563-.562.969-1A8.293,8.293,0,0,0,144.75-17.781ZM133.313-7.75q-1.969,1.813-4,3.906-.719.75-1.469,1.406a1.256,1.256,0,0,1-.766.344.91.91,0,0,1-.75-.312,1.886,1.886,0,0,1-.453-.75q2.75-2.594,5.156-5.312.219-.25.406-.469a14.725,14.725,0,0,1-1.406-.7,4.571,4.571,0,0,1-.937-.672,1.191,1.191,0,0,1-.219-1.031.983.983,0,0,1,.094-.656.524.524,0,0,1,.594-.219,12.765,12.765,0,0,1,1.844.891,11.376,11.376,0,0,0,1.594.8l.875-1.062q-1.281-1.625-2.625-3.219-.031-.25.406-.562a1.2,1.2,0,0,1,1-.187,1.619,1.619,0,0,1,1.094.719,13.557,13.557,0,0,1,1.188,1.969q.687-.875,1.406-1.687a1.314,1.314,0,0,1,1.344.906,1.175,1.175,0,0,1-.406,1.344q-.25.25-.469.5-1.188,1.281-2.312,2.563,2.344,1.5,4.469,2.656A34.329,34.329,0,0,0,144.5-4.312a4.371,4.371,0,0,0,.156-.922,1.62,1.62,0,0,1,.438-.953,3,3,0,0,1,.828,1.125q.422.844.953,2.031a.855.855,0,0,1-.219.938.932.932,0,0,1-1,.094q-2.344-.937-5.094-2.125t-4.578-2.2Q134.156-7.344,133.313-7.75Zm6.906,9.188A2.658,2.658,0,0,1,138.438,2.7q-1.469.484-4.672,1.609a37.994,37.994,0,0,1-4.984,1.469,1.894,1.894,0,0,1-2.312-1.094.865.865,0,0,1,.031-.812q1.031-2.563,2.188-5.125a14.911,14.911,0,0,0,.656-1.687A1.884,1.884,0,0,1,131-2.062a.749.749,0,0,1,.094.688,5.017,5.017,0,0,1-.312.688,15.628,15.628,0,0,0-2.062,4.406,12.05,12.05,0,0,0,2.2-.391,13.985,13.985,0,0,0,2.047-.734.969.969,0,0,1-.2-.656,2.381,2.381,0,0,1,.141-.719,12.565,12.565,0,0,0,.469-2.672,14.554,14.554,0,0,0,0-1.922l-.125-1.437a2.027,2.027,0,0,1,1.281.078q.469.234.656,1.266a8.66,8.66,0,0,1,.031,2.2q-.125,1.109-.5,3.359A40.82,40.82,0,0,0,139.594.375a6.979,6.979,0,0,1-.484-.969,6.46,6.46,0,0,1-.359-1.156.7.7,0,0,1,.422-.75.928.928,0,0,1,.859.125,4.524,4.524,0,0,1,.844,1.188q1.406,3.031,2.469,5.219a1.839,1.839,0,0,1,.188.469,1.225,1.225,0,0,1,.016.516.468.468,0,0,1-.391.359.844.844,0,0,1-.812-.187,16.156,16.156,0,0,1-1.312-1.969Q140.375,1.75,140.219,1.438ZM123.938-8.125a1.519,1.519,0,0,1,1.313.594,1.016,1.016,0,0,1,.094,1.313l-.812,1.5q-.656,1.188-1.281,2.438a1.135,1.135,0,0,0-.281.688.8.8,0,0,0,.281.688.881.881,0,0,1-1.062.781,1.1,1.1,0,0,1-1.062-.719,1.587,1.587,0,0,1-.062-1.437q.156-.281.344-.625.344-.719.813-1.687Q122.906-6.062,123.938-8.125Zm20.219,1a1.031,1.031,0,0,1-1.25-.25q-.937-1-1.844-2.031a4.25,4.25,0,0,1-.656-1.562q0-.937.875-.594a1.926,1.926,0,0,1,.75.531q.938,1.188,1.813,2.406A1.64,1.64,0,0,1,144.156-7.125Z" transform="translate(170.6 -271)" fill="#ed7b27"/><path d="M12.844-7a13.135,13.135,0,0,1,1.5,1.25,12.128,12.128,0,0,1,1,1.125A1.138,1.138,0,0,1,15-3.562a.882.882,0,0,1-.891-.031q-.328-.25-1.062-.734a19.438,19.438,0,0,1-1.609-1.2q-.687.75-1.266,1.422A7.332,7.332,0,0,0,9.063-2.156Q8.688-1,9.469-.625a5.508,5.508,0,0,0,2.516.2,19.173,19.173,0,0,0,3.734-.7q.594-.313.938,0a1.385,1.385,0,0,1,.406.922A1.123,1.123,0,0,1,16.656.813a3.736,3.736,0,0,1-1.375.375,19.639,19.639,0,0,1-2.812.484A6.41,6.41,0,0,1,9.25,1.281,3.635,3.635,0,0,1,7-2.562a6.565,6.565,0,0,1,.875-2.109A12.052,12.052,0,0,1,9.656-6.781,4.484,4.484,0,0,1,7.938-8.406a3.116,3.116,0,0,1-.375-2.031,18.54,18.54,0,0,1,.906-2.875q-2,.563-2.969.875a15.756,15.756,0,0,0-1.875.75,1.7,1.7,0,0,1-1.031-.578,1.32,1.32,0,0,1-.375-.766.77.77,0,0,1,.375-.594A6.273,6.273,0,0,1,4.219-14.3q1.25-.391,2.813-.766,1.031-.25,2.281-.531.687-1.844.781-2.187.125-.406.469-1.406a.473.473,0,0,1,.375-.187.859.859,0,0,1,.438.156,1.743,1.743,0,0,1,.625.625q.125.281.25.547a2.978,2.978,0,0,1-.281,1.484q-.094.25-.187.469,1.281-.25,2.625-.469,2-.313,3.375-.406a1.047,1.047,0,0,1,.906.609,2.458,2.458,0,0,1,.219.953q0,.438-.719.5a10.087,10.087,0,0,0-2.125-.031q-1.219.094-2.687.344-1,.188-2.531.594-.438.969-1.25,3.188a1.843,1.843,0,0,0,.016,1.2,4.081,4.081,0,0,0,1.484,1.172q.625-.531,1.766-1.391a14.728,14.728,0,0,1,2.266-1.422.689.689,0,0,1,.625-.062,1.057,1.057,0,0,1,.438.5,2.39,2.39,0,0,1,.219.938.685.685,0,0,1-.5.75q-.937.469-1.391.7A9.72,9.72,0,0,0,12.844-7Zm19.188-3.875q.125-1.469.188-2.672t.125-1.641q.031-.531.328-.516a1.73,1.73,0,0,1,.766.313,1.5,1.5,0,0,1,.641.813,2.283,2.283,0,0,1,.109,1.016q-.063.844-.219,2.313.563-.156.906-.234t1.281-.359q.188-2,.25-2.844a4.053,4.053,0,0,1,.078-.875q.078-.344.5-.328a1.565,1.565,0,0,1,.953.531,1.332,1.332,0,0,1,.375,1.3q-.031.781-.125,1.906,1.094-.187,2.063-.344.125-1.656.281-3.094a1.257,1.257,0,0,1,1.688.844,8.83,8.83,0,0,1,.156,2.094q.406-.063.781-.094,1.031-.125,1.844-.187.031-.5.094-.906a2.475,2.475,0,0,1,.031-.406q.063-.531.125-1.031a3.063,3.063,0,0,1,.219-.937,1.034,1.034,0,0,1,.844-.016.988.988,0,0,1,.594.578,1.5,1.5,0,0,1,.313.563,1.8,1.8,0,0,1,.031,1,7.064,7.064,0,0,0-.062,1.125A12.562,12.562,0,0,0,49.531-13a1.371,1.371,0,0,1,1.5,1,1.241,1.241,0,0,1-.125,1,1.182,1.182,0,0,1-.719.188,20.593,20.593,0,0,0-2.094-.312,4.888,4.888,0,0,0-1.125,0A12.885,12.885,0,0,1,46-8.344a11.951,11.951,0,0,1-1.594,2.438A17.128,17.128,0,0,1,46.688-6a1.3,1.3,0,0,1,1.469,1.281q-.031.844-.812.844-.75-.156-1.437-.25a69.089,69.089,0,0,0-8,.844q-4.594.719-5.719,1.469a1.292,1.292,0,0,1-1.219.016,1.218,1.218,0,0,1-.719-1.109.786.786,0,0,1,.625-.875,13.917,13.917,0,0,1,2.313-.687,15.538,15.538,0,0,1-.844-1.969q-.25-1.125-.406-2.187a6.38,6.38,0,0,0-1.047.406,5.67,5.67,0,0,0-1.109.656,1.782,1.782,0,0,1-.687.344,1.159,1.159,0,0,1-.766-.078,1,1,0,0,1-.547-.547q-.625-1,.5-1.531,1.281-.531,2.359-.922A9.955,9.955,0,0,0,32.031-10.875Zm-3.75-2.094q.062-.75.2-2.078a23.25,23.25,0,0,1,.563-3.047q.422-1.719,1.016-3.812a2.04,2.04,0,0,1,.719-1.187,4.421,4.421,0,0,1,.781.141,1.516,1.516,0,0,1,.656.344,4,4,0,0,1,.375.391q.094.219-.344,1.188a24.143,24.143,0,0,0-.906,2.406q4.125-1,6.344-1.312t8.25-.687a11,11,0,0,1,2.188.094,2.063,2.063,0,0,1,.875.188,1.811,1.811,0,0,1,.828.8,1.135,1.135,0,0,1,.047.953q-.25.719-.594.75t-.781.063a1.041,1.041,0,0,1-.781-.266q-.344-.3-.656-.578a6.33,6.33,0,0,0-2.391-.2,43.508,43.508,0,0,0-4.75.438q-2.828.391-4.953.859a9.469,9.469,0,0,0-2.672.844,3.237,3.237,0,0,1-.828.453,1.477,1.477,0,0,1-.75-.047,27.911,27.911,0,0,0-.844,4.719,1.191,1.191,0,0,1-1-.141A1.545,1.545,0,0,1,28.281-12.969ZM30.063-.812a2.617,2.617,0,0,1,.922.391.931.931,0,0,1,.438.859,1.79,1.79,0,0,1-.453,1.094Q29.656,3.344,29,4.406a1.264,1.264,0,0,1-.422.641.628.628,0,0,1-.641.109,1.553,1.553,0,0,1-1.031-1.375,2.25,2.25,0,0,1,.125-.469q.781-1.469,2.313-3.781A1.779,1.779,0,0,1,30.063-.812Zm7.469.375a23.227,23.227,0,0,1,3,3.25,1.257,1.257,0,0,1,.125,1.469,2.229,2.229,0,0,1-1.906-.812q-.937-1.063-1.906-2.031a2.9,2.9,0,0,1-.609-.859.85.85,0,0,1,.25-.953A.7.7,0,0,1,37.531-.437Zm4.844-1.281a2.407,2.407,0,0,1,1.156-.031.887.887,0,0,1,.719.781,28.981,28.981,0,0,1,1.125,3.281,1.721,1.721,0,0,1-.062.656.5.5,0,0,1-.3.375.893.893,0,0,1-.531-.047,1.033,1.033,0,0,1-.516-.359q-.813-1.781-1.594-3.656A2.024,2.024,0,0,1,42.375-1.719Zm7.219-.594a10.739,10.739,0,0,1,1.844,3.594q.312.594-.344.969a1.03,1.03,0,0,1-1.125-.281Q49.281.719,48.656-.406a2.522,2.522,0,0,1-.125-1.219A1.489,1.489,0,0,1,49-2.266.537.537,0,0,1,49.594-2.312ZM37.938-10.125a2.29,2.29,0,0,0-.094.438,9.972,9.972,0,0,0-.156,1.031q-.094.938-.312,2.063a.619.619,0,0,1-.5.625,1.13,1.13,0,0,1-.781-.312,4.545,4.545,0,0,1-.375-1.594q.031-.281.063-.625.094-.594.156-1.406a20.915,20.915,0,0,0-2.125.75,7.268,7.268,0,0,0,.094,1.75q.031.188.063.406a8.452,8.452,0,0,0,.75,2.219q4-.688,7.438-1.031a26.96,26.96,0,0,0,1.766-2.672,6.64,6.64,0,0,0,.8-2.547,13.2,13.2,0,0,0-2.625.188q-.219.844-.469,2.188t-.344,2a1.115,1.115,0,0,1-.406.719,1.7,1.7,0,0,1-.812-.219A1.228,1.228,0,0,1,39.813-7a6.614,6.614,0,0,1-.031-1.469q.125-.594.2-1.141a4.436,4.436,0,0,0,.047-.953q-.5.094-.969.188A8.911,8.911,0,0,0,37.938-10.125Zm42.625-12.25a1.672,1.672,0,0,1,.625-.125,1.925,1.925,0,0,1,.813.188,1.245,1.245,0,0,1,.75,1.125q-.031.437-.031.875Q82.594-18.531,82.5-17q-.156,2.75-.25,4.781-.156,3.125-.125,3.406,1.406-.344,2.031-.469.437-.25,1.25.469.688,1-.5,1.313-.906.219-2.844.625l-.375,4.031q-.156,1.719-.266,3.328a12.886,12.886,0,0,0-.016,2.3.976.976,0,0,1-1.781.719,1.471,1.471,0,0,1-.375-1.562,6.135,6.135,0,0,0,.3-1.656q.141-1.375.281-3.047T80-6.156a17.454,17.454,0,0,0-2.2.75Q76.844-5,75.453-4.25a5.079,5.079,0,0,0-1.859,1.469,2.392,2.392,0,0,1-.547.453.736.736,0,0,1-.734.016A3.548,3.548,0,0,1,71.188-3.75a1.7,1.7,0,0,1,.438-.781q1.438-.75,3.313-1.609t5.25-2.2q.094-.813.188-3.469.094-1.687.188-4.062.062-1.375.125-2.969Q80.656-20.594,80.563-22.375Zm-6.281,5.531a.8.8,0,0,1,.531-.7q.531-.266,1.406.516a5.1,5.1,0,0,1,1.25,1.844,6.147,6.147,0,0,1,.313.938,1.546,1.546,0,0,1,0,.875,1.21,1.21,0,0,1-.781.25l-.5-.406q-.25-.219-.594-.562A7.417,7.417,0,0,1,74.719-15.7,4.18,4.18,0,0,1,74.281-16.844Zm-.937,5.625a25.969,25.969,0,0,1,2.625,1.344.8.8,0,0,1,.531.656q.188.875-.75.875-1.094-.25-2.187-.562A1.615,1.615,0,0,1,72.5-10.094Q72.125-11.219,73.344-11.219ZM65.406-7.875a3.693,3.693,0,0,0,.063.719,1.786,1.786,0,0,0,.281.813,18.945,18.945,0,0,0,1.813,1.375,3.54,3.54,0,0,0,1.531.531.773.773,0,0,1,.719,1.031.861.861,0,0,1-1.094.719A7.785,7.785,0,0,1,67.3-3.125q-.672-.281-2.109-.969-.094.75-.141,3.078t-.234,4.047a1.448,1.448,0,0,1-.109.688.671.671,0,0,1-.578.406,1.335,1.335,0,0,1-.906-.359,1.142,1.142,0,0,1-.406-.891q.063-1.438.156-2.172t.188-2.625Q63.25-3.813,63.25-5q-.656.969-1.516,2.2T59.531.344a1.979,1.979,0,0,1-.609.641.614.614,0,0,1-.781-.031,2.806,2.806,0,0,1-.609-.609A5.234,5.234,0,0,1,58.234-1q.578-.875,1.641-2.5l.438-.687q.781-1.219,1.344-2.187.75-1.25,1.344-2.156a3.229,3.229,0,0,0,.438-1.312,25.639,25.639,0,0,0-4.531,2.063,2.5,2.5,0,0,1-.766.375A1.23,1.23,0,0,1,57.25-7.5a1.564,1.564,0,0,1-.75-.812.642.642,0,0,1,.047-.609,1.314,1.314,0,0,1,.484-.391q1.437-.687,2.125-.937t1.719-.594q-2.187-2.469-2.812-3.344a8.74,8.74,0,0,1-.8-1.328.947.947,0,0,1,.016-.734q.188-.406.953-.406a1.4,1.4,0,0,1,1.234.813A7.428,7.428,0,0,0,60.5-13.812a17.39,17.39,0,0,0,2.031,2.156,6.147,6.147,0,0,1,.938-.312q.5-6.25.75-9.469.125-.469.453-.422a2.9,2.9,0,0,1,.813.281,1.234,1.234,0,0,1,.656.75,2.211,2.211,0,0,1,.078,1.078,30.165,30.165,0,0,0-.484,3.781q-.172,2.281-.234,3.313.906-.281,1.859-.594a20.378,20.378,0,0,1,2.141-.562,1.5,1.5,0,0,1,1.125.313q.125.375.25.656a1.282,1.282,0,0,1,.094.641.529.529,0,0,1-.344.484,13.117,13.117,0,0,0-2.3.266,22.617,22.617,0,0,0-2.859.734,9.571,9.571,0,0,1,.594.906.876.876,0,0,1-.125.984A3.884,3.884,0,0,0,65.406-7.875Zm4.406-12.719a.791.791,0,0,1,1.281.063q.844,1.031.469,1.219-1.813,3.031-2.422,3.922t-.922,1.266a.715.715,0,0,1-.7.156.89.89,0,0,1-.469-.359q-.141-.234.266-1.359Q69.594-20.313,69.813-20.594Zm37.594,2.156q1.594-.406,3.281-.812a4.116,4.116,0,0,1,1.125.031,1.048,1.048,0,0,1,.656.563,1.309,1.309,0,0,1,.094.844.771.771,0,0,1-.469.563,1.847,1.847,0,0,1-.625.125,34.807,34.807,0,0,0-4.281.875q.031.406-.125,2.781.156.312.313.594a3.073,3.073,0,0,0,.938,1.031,11.591,11.591,0,0,1,1.141.891,21.151,21.151,0,0,0,2.766,1.75,18.818,18.818,0,0,0,4.938,1.922,2.336,2.336,0,0,1,.938.531.862.862,0,0,1,.219,1.188.713.713,0,0,1-1,.281,30.374,30.374,0,0,1-3.719-1.391A31.423,31.423,0,0,1,110.109-8.5q-1.641-1-3.3-2.25a11.925,11.925,0,0,0-.172,1.7q-.016.766-.156,1.906a16.916,16.916,0,0,0-.078,2.7q1.375-.219,2.672-.375a17.6,17.6,0,0,1,2.547-.125,2.538,2.538,0,0,1,1.125.406.7.7,0,0,1,.219.719q-.156.5-.422.563a5.077,5.077,0,0,1-.984.063,12.572,12.572,0,0,0-3,.359q-1.219.328-2.469.7-.125,3.25-.312,6.5a.984.984,0,0,1-1.375.219,1.088,1.088,0,0,1-.437-1.312q.094-1.938.172-3.047a6.729,6.729,0,0,0,.016-1.391q-.375.125-1.094.344a1.018,1.018,0,0,1-1.078.063,1.411,1.411,0,0,1-.641-.969A.81.81,0,0,1,102-2.844q1.156-.469,2.344-.844.219-1.531.313-3.094t.156-3.187a14.574,14.574,0,0,0-2.375,2.578q-1.344,1.766-3.375,4.609a1.011,1.011,0,0,1-1.406.313.9.9,0,0,1-.187-1.5q2.25-3.156,3.969-5.5a8.791,8.791,0,0,0,.563-.75q1.937-2.562,3.063-4a2.645,2.645,0,0,0,.219-1.719q-1.969.594-3.109,1.031A15.392,15.392,0,0,0,100-13.875a1.031,1.031,0,0,1-.937.109,2.084,2.084,0,0,1-.844-.531,1.5,1.5,0,0,1-.406-.891A.779.779,0,0,1,98.5-16q3.031-.812,4.625-1.3t2.344-.8a7.288,7.288,0,0,0-.047-1.609q-.109-.7-.234-1.422a1.821,1.821,0,0,1,0-.672.853.853,0,0,1,.375-.547,1.485,1.485,0,0,1,.406-.062,1.189,1.189,0,0,1,.906.406,2.18,2.18,0,0,1,.563,1.781Q107.438-19.344,107.406-18.437ZM89.313-5.375a.7.7,0,0,1-.906.5.94.94,0,0,1-.812-.844,2.342,2.342,0,0,1,.219-1.219,29.972,29.972,0,0,1,1.578-3.078q.953-1.641,2.563-4.094t3.734-5.672a1.338,1.338,0,0,1,.531-.578.743.743,0,0,1,.813.016,1.237,1.237,0,0,1,.719,1.375,2.476,2.476,0,0,1-.5,1.031q-.906,1.219-1.578,2.063a10,10,0,0,0-1.2,1.969,1.475,1.475,0,0,1,.719,1.063q-.562,4.375-.937,7.531-.094.781-.187,1.5a15.088,15.088,0,0,0,.031,5.156,2.039,2.039,0,0,1,.125.844q-.219.594-1.062.438a1.6,1.6,0,0,1-1.094-1.531,34.313,34.313,0,0,1,.063-5.031q.219-2.844.438-4.625.25-1.812.344-3.375a17.3,17.3,0,0,0-1.344,2.078q-.531.984-1.266,2.078A6.429,6.429,0,0,0,89.313-5.375Zm38.75-7q.719-.187,1.375-.344a.917.917,0,0,1,1.094.25q.813.656-.156,1.281-1.125.406-2.469.844a17.724,17.724,0,0,0-.125,2.219q.406-.125,1.484-.469t2.859-.719a1.061,1.061,0,0,1,1,.063l.188.125a1.377,1.377,0,0,1,.5,1.188q-.063.75-.25,2.047T133-2.8a21.775,21.775,0,0,1-.953,3.313,7.383,7.383,0,0,1-1.578,2.547,1.469,1.469,0,0,1-1.687.594,2.43,2.43,0,0,1-.922-.578,4.128,4.128,0,0,1-.594-.719q-.2-.328.453-.391a1.653,1.653,0,0,0,1.969-.937,8.747,8.747,0,0,0,1.375-3.125q-1.156-.813-2.031-1.5a2.156,2.156,0,0,1-.562-.687,1.085,1.085,0,0,1,.063-.875q.281-.5.875-.187a3.179,3.179,0,0,1,.813.781q.438.375,1.188.969a9.318,9.318,0,0,0,.313-3.875,17.891,17.891,0,0,0-2.469.656q-.5.156-1.094.406a28.814,28.814,0,0,0-3.781,2.063,2.291,2.291,0,0,1-1.281.3,3.043,3.043,0,0,1-1.344-.859,12.541,12.541,0,0,1-.672-2.7,25.135,25.135,0,0,1-.016-5.187q.25-3.484.5-5.516a24.647,24.647,0,0,1,.406-2.609,2.889,2.889,0,0,1,.375-.891.444.444,0,0,1,.594-.156,3.2,3.2,0,0,1,.75.453q.375.3.359.531a2.753,2.753,0,0,1-.078.484q-.094.5-.156.844.5-.062,2.281-.531t4.781-1.25a1.244,1.244,0,0,1,1.531.438,1.055,1.055,0,0,1,.313,1,1.146,1.146,0,0,1-.391.25q-.234.094-.922.281-.687.125-2.844.625-.063,1.313-.031,2.313a11.053,11.053,0,0,0,1.25-.25,1.246,1.246,0,0,1,1.344.563q.563.781-.344,1.063a10.516,10.516,0,0,1-1.047.125,5.864,5.864,0,0,0-1.484.406,5.63,5.63,0,0,0-.187,1.234Zm-1.812-1.656q-.906.563-2.125,1.313a4.891,4.891,0,0,1-.844-.156q-.25-.187-.531-.375a12.406,12.406,0,0,0,0,2.781q1.313-.469,2.781-1.094l.531-.156A5.028,5.028,0,0,0,126.25-14.031Zm.313-2.062q-.031-.906,0-2.187-1.625.5-3.219,1.031a9.17,9.17,0,0,0-.5,2.906A31.367,31.367,0,0,1,126.563-16.094Zm-3.875,6.75q.031.656.094,1.7a3.306,3.306,0,0,0,.406,1.578,22.714,22.714,0,0,0,2.531-1.125l.156-2.406a9.607,9.607,0,0,0-.891.469,2.071,2.071,0,0,1-.781.281,1.405,1.405,0,0,1-.781-.094A4.732,4.732,0,0,1,122.688-9.344Zm19.375-2.719a3.461,3.461,0,0,1,.156,1.375q2.063-.406,2.906-.516t1.5-.172a2.089,2.089,0,0,1,1.188,1.125,1.093,1.093,0,0,1-.312,1.375q-1.219,1.563-1.781,2.25.094,1-1.469,1.406a20.659,20.659,0,0,0-2.062.719,6.439,6.439,0,0,0,1.359,2.594A15.269,15.269,0,0,0,145.969.734q1.188.984,1.438,1.234a.964.964,0,0,1,.109.859q-.141.516-.734.328a6.9,6.9,0,0,1-1.859-1.281,16.427,16.427,0,0,1-2.562-2.8q-1.234-1.672-1.766-2.516A32.36,32.36,0,0,1,139.031.188q-1.125,2.313-1.562,3.219a1.138,1.138,0,0,1-.469.578.656.656,0,0,1-.781.016,1.129,1.129,0,0,1-.437-1.719,25.2,25.2,0,0,0,1.672-2.8,12.461,12.461,0,0,0,1.2-2.922q-.781.031-1.469.094a1.326,1.326,0,0,1-.75-.75q-.5-.969-.859-1.875t-.828-2.312a.942.942,0,0,1-.016-.734.9.9,0,0,1,.5-.547.836.836,0,0,1,.813.141,3.68,3.68,0,0,0,.984.453q.938-.312,1.875-.672a12.32,12.32,0,0,0,1.281-.547,11.787,11.787,0,0,0,.25-1.687,17,17,0,0,0-2.75.906,1.2,1.2,0,0,1-.969-.25,1.874,1.874,0,0,1-.406-.844.7.7,0,0,1,.438-.812q.844-.219,2.813-.625.75-.156,1.406-.281Q142-14,142.688-14.156a6.979,6.979,0,0,1,1.938-.187,2.73,2.73,0,0,1,.984.453.719.719,0,0,1,.266.891.828.828,0,0,1-.781.469,9.324,9.324,0,0,0-2.094.2Q142.406-12.156,142.063-12.062ZM145.469-9.5q-.75.063-1.781.25a8.1,8.1,0,0,0-1.812.531,12.041,12.041,0,0,1-.594,2.688A8.552,8.552,0,0,0,144-7,10.434,10.434,0,0,0,145.469-9.5Zm-8.531,2.656q.156.5.625,1.875a6.136,6.136,0,0,0,1.781-.625,11.911,11.911,0,0,0,.688-2.687A14.523,14.523,0,0,0,136.938-6.844Zm4.156-12.75q-1.094,1.281-3.125,3.875a33.654,33.654,0,0,0-2.687,3.781q-.625,1.156-1.094,2.063a1.39,1.39,0,0,1-1.031-.281.889.889,0,0,1-.328-.641,6.052,6.052,0,0,1,.547-1.453,39.649,39.649,0,0,1,3.422-5.016,56.616,56.616,0,0,1,3.984-4.953.972.972,0,0,1,.656-.281,1.18,1.18,0,0,1,.375.063,1.187,1.187,0,0,1,.656.578,1.872,1.872,0,0,1-.062,1.047q1.656,1.625,4,3.875,2.344,2.219,3.125,3.125a5.092,5.092,0,0,1,.969,1.375.675.675,0,0,1-.219.969.678.678,0,0,1-.969-.156q-.281-.312-1.3-1.484a33.526,33.526,0,0,0-2.734-2.734,3.408,3.408,0,0,1-.281-.25q-1.5-1.375-2.281-2.031Q141.906-18.844,141.094-19.594ZM119.5,1.031a19.493,19.493,0,0,1,.906-2.969l.313-.75a.462.462,0,0,1,.516-.375,2.5,2.5,0,0,1,.766.188.734.734,0,0,1,.375,1.031q-.313.719-.609,1.5a7.912,7.912,0,0,0-.422,1.563q-.094.344-.2.672a.338.338,0,0,1-.422.266,1.141,1.141,0,0,1-.891-.328A1.278,1.278,0,0,1,119.5,1.031Zm4.906-4.156a12.531,12.531,0,0,1,1.25,1.234,9.653,9.653,0,0,1,.969,1.234q.219.344.359.609a.542.542,0,0,1-.016.547.655.655,0,0,1-.625.266,1.039,1.039,0,0,1-.625-.3,16.563,16.563,0,0,1-2.312-2.437.8.8,0,0,1,.063-.75A1.636,1.636,0,0,1,124.406-3.125Zm4.75,2.531a8.786,8.786,0,0,1-.969-.187,4.471,4.471,0,0,1-1.781-1.969.8.8,0,0,1,.188-1.094.846.846,0,0,1,.969-.094,9.78,9.78,0,0,0,1.25,1.594,2.062,2.062,0,0,1,.531.8A.918.918,0,0,1,129.156-.594Zm35.938-12.625a1.676,1.676,0,0,0-1.031-.125q-.594.094-2.5.594a25.225,25.225,0,0,0-2.719.828,11.346,11.346,0,0,0-1.2.547,2.061,2.061,0,0,1-.891.25,1.548,1.548,0,0,1-1.031-.578,1.921,1.921,0,0,1-.609-.969.637.637,0,0,1,.359-.641A42.147,42.147,0,0,1,160.25-14.5a49.284,49.284,0,0,1,5.094-.844,1.516,1.516,0,0,1,1.234.375,4.841,4.841,0,0,1,.8,1.016,1.666,1.666,0,0,1,.094,1.391,24.438,24.438,0,0,1-1.594,2.094,31.558,31.558,0,0,0-2.312,3.281q-1.344,2.125-1.75,2.906a1.312,1.312,0,0,0-.094,1.313,3.172,3.172,0,0,0,1.328,1.047,6.719,6.719,0,0,0,1.234.547,13.315,13.315,0,0,0,1.563-.062.921.921,0,0,1,.484.281.9.9,0,0,1,.234.547,1.372,1.372,0,0,1-.141.7,1.12,1.12,0,0,1-.609.563,1.368,1.368,0,0,1-1.281.172A10.793,10.793,0,0,1,162.859.3a8.5,8.5,0,0,1-1.641-.922A5.888,5.888,0,0,1,159.813-2a3.862,3.862,0,0,1-.625-1.234,2.985,2.985,0,0,1,.406-1.547q1.625-2.656,3.156-4.922T165.094-13.219Zm5.5-2.219q-.281.719-.625.828a.553.553,0,0,1-.625-.234,4.612,4.612,0,0,1-.906-1.094q-.5-1.094-.906-2.219a.767.767,0,0,1,.125-.969q.594-.469,1.031-.156a1.983,1.983,0,0,1,.594.594Q169.969-16.875,170.594-15.437Zm2.094-1.219a18.934,18.934,0,0,1-.469-2.375.753.753,0,0,1,.281-.906.62.62,0,0,1,.281-.062,1.823,1.823,0,0,1,.938.375,3.746,3.746,0,0,1,.563,1.484,6.742,6.742,0,0,1,.031,1.953.72.72,0,0,1-.547.594.714.714,0,0,1-.7-.187A1.552,1.552,0,0,1,172.688-16.656Z" transform="translate(320.6 -271)" fill="#252525"/><path d="M8.781-13.125a1.461,1.461,0,0,1-1.516-.062,2.269,2.269,0,0,1-.7-.969,1.579,1.579,0,0,1-.109-.859q.078-.328.547-.453h.938a26.77,26.77,0,0,1,5.031.375,11.34,11.34,0,0,1,2.688.75,2.254,2.254,0,0,1,.859.8,1.541,1.541,0,0,1,.313.813.953.953,0,0,1-.172.516q-.156.219-.687.156-.719-.187-1.766-.516a14.079,14.079,0,0,0-2.656-.5A13.176,13.176,0,0,0,8.781-13.125ZM7.375-.625a2.129,2.129,0,0,1-1.109-.984A1.627,1.627,0,0,1,6-2.781q.125-.469.938-.344a21.417,21.417,0,0,0,4.578.281A19.165,19.165,0,0,0,15.391-3.3l2.063-.531Q18.125-4,18.5-4.062a.834.834,0,0,1,.25.813,1.937,1.937,0,0,1-.406.688,3.515,3.515,0,0,1-.953.719,11.206,11.206,0,0,1-2.562.875A17.323,17.323,0,0,1,11.2-.437,24.677,24.677,0,0,1,7.375-.625ZM38.25-13.312a19.176,19.176,0,0,1-1.391,4A19.743,19.743,0,0,1,34.7-5.766a11.042,11.042,0,0,1-3.016,2.7,9.045,9.045,0,0,1-1.719.813,1.7,1.7,0,0,1-1.062.031,3.271,3.271,0,0,1-1.016-.609A3.4,3.4,0,0,1,27-4a4.273,4.273,0,0,1-.281-1.781,8.767,8.767,0,0,1,.672-2.7,9.051,9.051,0,0,1,2.031-3.094,12.73,12.73,0,0,1,2.875-2.25,15.775,15.775,0,0,1,4.078-1.422,1.7,1.7,0,0,1,.844-.25h.188a7.1,7.1,0,0,1,.8.188q.3.094.641.219a4.941,4.941,0,0,1,1.563.609,7.685,7.685,0,0,1,1.469,1.234,5.04,5.04,0,0,1,1.188,2.531,10.181,10.181,0,0,1,.016,3.859,20.412,20.412,0,0,1-.766,3.281,13.9,13.9,0,0,1-1.031,2.234,3.133,3.133,0,0,1-.359.563.806.806,0,0,1-.453.219,1.12,1.12,0,0,1-.7-.156,1.562,1.562,0,0,1-.641-.5,1.644,1.644,0,0,1-.25-.625.674.674,0,0,1,.156-.594,6.6,6.6,0,0,0,.7-.859,9.841,9.841,0,0,0,.7-1.828,16.624,16.624,0,0,0,.656-2.906,9.133,9.133,0,0,0,.063-2.344,5.2,5.2,0,0,0-.3-1.422,1.927,1.927,0,0,0-.609-.8,3.044,3.044,0,0,0-.953-.484A5.969,5.969,0,0,0,38.25-13.312ZM28.563-4.219a2.112,2.112,0,0,0,1.781-.406A12.83,12.83,0,0,0,33.031-7.2a13.964,13.964,0,0,0,1.906-3.234,19.54,19.54,0,0,0,.969-2.75,13.7,13.7,0,0,0-2.781,1.25,9.058,9.058,0,0,0-2.891,2.469,8.244,8.244,0,0,0-1.516,2.859A5.639,5.639,0,0,0,28.563-4.219Z" transform="translate(124.6 -271)" fill="#252525"/><path d="M8.906-6.937a1.915,1.915,0,0,1-2.5-1.344,4.9,4.9,0,0,1-.125-2.062,1.241,1.241,0,0,1,.813-.937,2.963,2.963,0,0,1,.719-.094,2.235,2.235,0,0,1,1.438.531,2.549,2.549,0,0,1,.969,1.969,5.663,5.663,0,0,1-.344,1.219A1.118,1.118,0,0,1,8.906-6.937Zm30.531,0a1.915,1.915,0,0,1-2.5-1.344,4.9,4.9,0,0,1-.125-2.062,1.241,1.241,0,0,1,.813-.937,2.963,2.963,0,0,1,.719-.094,2.235,2.235,0,0,1,1.438.531,2.549,2.549,0,0,1,.969,1.969,5.663,5.663,0,0,1-.344,1.219A1.118,1.118,0,0,1,39.438-6.937Z" transform="translate(179.6 -293)" fill="#ed7b27"/><path d="M8.906-6.937a1.915,1.915,0,0,1-2.5-1.344,4.9,4.9,0,0,1-.125-2.062,1.241,1.241,0,0,1,.813-.937,2.963,2.963,0,0,1,.719-.094,2.235,2.235,0,0,1,1.438.531,2.549,2.549,0,0,1,.969,1.969,5.663,5.663,0,0,1-.344,1.219A1.118,1.118,0,0,1,8.906-6.937Zm30.531,0a1.915,1.915,0,0,1-2.5-1.344,4.9,4.9,0,0,1-.125-2.062,1.241,1.241,0,0,1,.813-.937,2.963,2.963,0,0,1,.719-.094,2.235,2.235,0,0,1,1.438.531,2.549,2.549,0,0,1,.969,1.969,5.663,5.663,0,0,1-.344,1.219A1.118,1.118,0,0,1,39.438-6.937Z" transform="translate(266.6 -293)" fill="#ed7b27"/><path d="M.823,7.049a1.31,1.31,0,0,1,.055-.656Q1.507,4.15,2.122,2.5T4.57-3.33Q6.4-7.5,7.373-9.594t1.833-3.87a21.012,21.012,0,0,0,1.244-3.063,1.092,1.092,0,0,1,.246-.6.492.492,0,0,1,.383-.191.8.8,0,0,1,.191.027,1.118,1.118,0,0,1,.957,1.285,2.288,2.288,0,0,1-.219.52Q10.97-13.9,8.057-7.857A112.414,112.414,0,0,0,2.874,4.889a2.624,2.624,0,0,0-.205,1.231,2.514,2.514,0,0,1,.014.78,1.859,1.859,0,0,1-.356.7.61.61,0,0,1-.533.219,1.056,1.056,0,0,1-.615-.3A1.156,1.156,0,0,1,.823,7.049Z" transform="translate(496.795 -274.597)" fill="#ed7b27"/><path d="M12.22,7.049a1.31,1.31,0,0,0-.055-.656q-.629-2.243-1.244-3.9T8.473-3.33Q6.641-7.5,5.67-9.594t-1.833-3.87a21.012,21.012,0,0,1-1.244-3.063,1.092,1.092,0,0,0-.246-.6.492.492,0,0,0-.383-.191.8.8,0,0,0-.191.027,1.118,1.118,0,0,0-.957,1.285,2.288,2.288,0,0,0,.219.52Q2.073-13.9,4.986-7.857A112.414,112.414,0,0,1,10.169,4.889a2.624,2.624,0,0,1,.205,1.231,2.514,2.514,0,0,0-.014.78,1.859,1.859,0,0,0,.356.7.61.61,0,0,0,.533.219,1.056,1.056,0,0,0,.615-.3A1.156,1.156,0,0,0,12.22,7.049Z" transform="translate(110.195 -274.597)" fill="#ed7b27"/></g></svg>