<svg xmlns="http://www.w3.org/2000/svg" xmlns:xlink="http://www.w3.org/1999/xlink" width="443.826" height="187.935" viewBox="0 0 443.826 187.935"><defs><clipPath id="a"><rect width="111.638" height="109.287" fill="none"/></clipPath></defs><g transform="translate(-935.174 -134.251)"><g transform="matrix(0.966, 0.259, -0.259, 0.966, 1271.166, 134.251)"><g transform="translate(0 0)" clip-path="url(#a)"><path d="M49.655,4.466c.2.264-.031.036.235.235-.087.8,0,.758-.705.94v.235h.705V5.641l.705-.47V4.7l.705-.47c.349-.358.558-.851.94-1.175V2.82c1.273.356,1.688,1.761,3.055,2.115.145.57.248.517.47.94.264.2.036-.031.235.235h.235V5.406h.705a.936.936,0,0,1-.47.47c.141.469-.032.2.235.47v.235h.47V6.346l.94-.705-.235-.705c.239.181.231.289.47.47.247-.307.449-.233.705-.47.736-.684,1.109-1.427,2.115-1.88.2-.264-.031-.036.235-.235a2.318,2.318,0,0,0,.94.94v.47h.47a2.6,2.6,0,0,0,.705,1.175h.235v.47l1.41,1.175v.47L66.577,8.7v.47l1.41,1.175v.47l1.175.94v.47H69.4l.47.705.47.235v.47l.94.705v.47l.47.235v.235l.47.235v.47l.705.47v.47l.705.47v.47l.47.235v.47l.47.235.235.705h.235l.235.94.47.235.235.94h.235l.235.94h.235v.705h.235v.47h.235v.705h.235v.47h.235l.705,2.585,5.641.235v.235l.705-.235v.235h1.175V28.2l2.35.47c.141-.469-.032-.2.235-.47l.235.47h-.235v.235c1.147.13,1.67.608,2.82.705l-.235-.705.705-.47c.2.264-.031.036.235.235-.257.485-.393.414-.47,1.175l.94.235.235-.47h.47v.47h-.47v.235a5.018,5.018,0,0,1,1.88.705h.235v-.705h.235l.235.47h-.235v.47h.705c.179-.639.056-.535.705-.705v-.47h.47a2.294,2.294,0,0,0-.235.94,2.29,2.29,0,0,1-.94.235c.5.585,1.5.678,2.35.94v.235l.94-.235c-.266.263,0,.1-.47.235v.235h.705V32.9l.94.235v.235h.705v.235l.94.235v.235h.705v.235h.47v.235h.705v.235h.47v.235h1.41c-.675.509.9.852,1.41.94v-.47h.47c.235-.875.49-.637.94-1.175l-3.525-1.175v.47h-.235l.235-.705-8.7-3.525v.47c-.694-.264-.261.037-.235-.705H95.25v-.235l-.705-.235v-4.23H94.31v-.47h-.235v-.235h.235V22.093l-.47.235c.224-.422.335-.366.47-.94-.3-.2-.136-.32-.47-.47v.235h-.235v-.47h.47V18.8l-.705.235a2.04,2.04,0,0,1,.235-.94h.235v-.235h-.235c0-.592.24-1.253.235-2.115a10.8,10.8,0,0,0-2.115.235c-.179.639-.056.535-.705.705v-.705l-1.88.235v.235H88.9l-1.175-.47-.235.705h-.235v-.705h.47v-.94l-.47.235c.2-.265-.031-.036.235-.235V13.867l-.47.235.235-1.175h-.235l-.235-2.115c-.264-.2-.036.031-.235-.235l-5.406,1.175v.235h-.47v.235l-.705-.235v.235h-.705v.235H78.093v.235h-.705v.235h-.94v.235h-.94V13.4l-1.645.235v.235h-.705l-2.35-3.29-1.175-.94v-.47H69.4l-.47-.705-.705-.47v-.47l-1.175-.94v-.47l-1.41-1.175v-.47l-1.175-.94V3.29l-.47-.235v-.47l-.705-.47V1.88l-.47-.235v-.47c-.3-.412-.848-.6-1.175-1.175-.848.234-1.281.906-1.88,1.41v.235h-.47l-.235.47A8.2,8.2,0,0,1,56.941,3.76c-.2.264.031.036-.235.235l-1.175-1.41h-.47L53.416.705h-.47L52.475,0h-.47L50.83,1.645l-.47.235v.47l-.47.235V2.82l-.94.705-.235,1.41H48.48v.705c.544-.318.72-.8,1.175-1.175M106.3,34.784c.263.266.1,0,.235.47H106.3Zm-8.931-4c.263.266.1,0,.235.47h-.235Zm-6.816-1.88c-.264.2-.036-.031-.235.235H90.08l.235-.705a2.173,2.173,0,0,1-.47-.47l.94.47-.235.47m4.23.94v-.47h.47l-.235.705-.94.235v-.47Zm-1.175-7.286c.469.141.2-.032.47.235H93.84c-.2.264.031.036-.235.235ZM80.679,12.926h1.175v-.235h.94l.235-.47,3.29-.235a6.872,6.872,0,0,0-.235,1.645h.47l-.235,1.175h.235v.94h.47v.235c-.285,0-.394.654-.235.94h.235c.141.469-.032.2.235.47v-.235h.235v.235H88.9l-.235-.705H88.9v.47H90.08c.141-.469-.032-.2.235-.47v.47a3.938,3.938,0,0,0,2.115-.705.936.936,0,0,0,.47.47l.235,6.346h.47c-.323,1.881-.054,2.724,0,5.171L92.9,28.2v.47h-.235v-.235s-.888.013-.47-.235h.47v-.235l-1.175-.235V27.5h-.705v-.235H90.08v-.235h-.94a24.984,24.984,0,0,0-9.4-1.41,5.494,5.494,0,0,0-.47-1.88h-.235v-.705H78.8v-.47h-.235v-.705h-.235l-.47-1.41h-.235l-.235-.94-.47-.235-.235-.94-.47-.235v-.47l-.47-.235v-.47l-.705-.47v-.47l-.47-.235v-.47c-.1-.149-.313-.171-.47-.47l6.581-1.88M65.872,7.286h.47V6.581h.235v.705h-.235v.235h-.47Z" transform="translate(-1.005 0)" fill="#ce1d05" fill-rule="evenodd"/><path d="M48.47,5.035V4.8H48c.266.263,0,.1.47.235" transform="translate(-0.995 -0.099)" fill="#ce1d05" fill-rule="evenodd"/><path d="M47.749,5.99c.02.343-.285.325-.47.47a1.272,1.272,0,0,0,.94.47c-.152.556-.066.441-.47.705v.47c.264-.2.036.031.235-.235a2.15,2.15,0,0,0,.94-1.41c-.088,0-1.286.049-.94-.235h.235l-.235-.705c-.469.141-.2-.032-.47.235h-.235c-.19.381.307.219.47.235" transform="translate(-0.979 -0.114)" fill="#ce1d05" fill-rule="evenodd"/><path d="M44.64,10h.705v.235A2.981,2.981,0,0,0,46.52,10l.235-.705h-.47v.47h-.47c-.083-.566-.254-1.144.235-1.645V7.88a3.4,3.4,0,0,1,1.175.705h-.47v.47l.705-.235V7.41H47.7V7.175c-.025-.074-.772-.391-.705-.705A.54.54,0,0,0,47.225,6l-.94.705V7.41c-.755.2-.83.6-1.41.94-.147.817-.273.649,0,1.41-.264.2-.036-.031-.235.235" transform="translate(-0.925 -0.124)" fill="#ce1d05" fill-rule="evenodd"/><path d="M55.556,11.47,53.91,9.59c-.438-.326-.339.1-.705-.47h-.47L51.56,10.53h-.235V11l-.94.705v.705c-.469.141-.2-.032-.47.235H49.68v.235h1.175l.235-.47,1.175-.94V11H52.5c.324-.35.122-.3.705-.47l1.41,1.175.47.705h.47c.412.3.6.848,1.175,1.175.2.264-.031.036.235.235.465-.708.212-.1.705-.47l1.41-1.645c.645-.469.93-.266,1.175-1.175h.47v-.47h.705a.936.936,0,0,1-.47.47l1.175,1.41h.235v.47h.235l.47.705.705.47v.47l1.175.94v.47l1.175.94v.47l.94.705v.47l.94.705v.47l.705.47v.47l.705.47v.47l.47.235v.47l.47.235.235.705h.235v.47h.235v.47H71.3v.47h.235v.47h.235v.47h.235v.47h.235v.705a11.459,11.459,0,0,1,1.41,4.466l.47-.235h.235v.235h-.47v.94h.235a4.52,4.52,0,0,0,.235,1.645l4.23-.235v-.705c.469-.141.2.032.47-.235h.235v-.235c-.9.024-.981-.047-1.175.705h-.235v-.705h-.47v.705l-.705.235c.141-.469-.032-.2.235-.47v-.235H75.768l-.235.47h-.94v.235h-.235c.135-.254.418-.382.47-.47v-.47h.235l-1.175-4.936h-.235v-.47h-.235v-.705h-.235v-.47h-.235v-.705h-.235l-.235-.94h-.235l-.235-.94-.47-.235-.235-.94-.47-.235v-.47l-.705-.47v-.47l-.47-.235v-.47l-.94-.705v-.47l-.705-.47v-.47l-.94-.705v-.47L65.9,15v-.47l-1.175-.94v-.47l-1.41-1.175-.235-.705h-.47c-.245-.911-.986-1.375-1.41-2.115h-.705v.235c-.125.1-.373-.068-.235.235h.235v.235h-.705l-.47.705h-.47L57.2,12.41a2.511,2.511,0,0,1-1.175-.705V11.47Z" transform="translate(-1.029 -0.189)" fill="#ce1d05" fill-rule="evenodd"/><path d="M45.12,10.32v.47h.235c-.141-.469.032-.2-.235-.47" transform="translate(-0.935 -0.214)" fill="#ce1d05" fill-rule="evenodd"/><path d="M30.705,13.855H30.47a3.12,3.12,0,0,1,.94-.705v-.94h1.645v.235a1.77,1.77,0,0,0,.47-.705c.264-.2.036.031.235-.235a3.49,3.49,0,0,0-2.35-.235V10.8h-.705v.47h.47v.235H30.94l.235.94c-.239-.181-.231-.289-.47-.47l-.235.705c.165.248.319-.086.235.235H30.47v.47h-.235A2.023,2.023,0,0,0,30,14.56h.705Z" transform="translate(-0.622 -0.224)" fill="#ce1d05" fill-rule="evenodd"/><rect width="0.705" height="0.235" transform="translate(43.48 10.576)" fill="#ce1d05"/><path d="M44.63,12.225c-.152-.556-.067-.441-.47-.705v.94H44.4c.2-.265-.031-.036.235-.235" transform="translate(-0.915 -0.239)" fill="#ce1d05" fill-rule="evenodd"/><path d="M35.5,11.76H34.32v.94l1.175-.235Z" transform="translate(-0.711 -0.244)" fill="#ce1d05" fill-rule="evenodd"/><path d="M37.915,12.48v.705H37.68v.235c.966-.087,1.079-.464.235-.94" transform="translate(-0.781 -0.259)" fill="#ce1d05" fill-rule="evenodd"/><path d="M41.985,12.48h-.47c-.141.469.032.2-.235.47v1.175h.235a10.745,10.745,0,0,1,.47-1.645" transform="translate(-0.855 -0.259)" fill="#ce1d05" fill-rule="evenodd"/><path d="M37.2,12.72v.235c-.264.2-.036-.031-.235.235h.47c-.141-.469.032-.2-.235-.47" transform="translate(-0.766 -0.264)" fill="#ce1d05" fill-rule="evenodd"/><path d="M36.47,13.2V12.96H36c.266.263,0,.1.47.235" transform="translate(-0.746 -0.269)" fill="#ce1d05" fill-rule="evenodd"/><path d="M40.06,13.665v.47h.705V13.2L39.59,12.96c-.152.556-.067.441-.47.705V13.9c.42.214.735-.163.94-.235" transform="translate(-0.811 -0.269)" fill="#ce1d05" fill-rule="evenodd"/><path d="M42.715,13.435V13.2H42.48v.705h.47c-.141-.469.032-.2-.235-.47" transform="translate(-0.88 -0.274)" fill="#ce1d05" fill-rule="evenodd"/><path d="M42.72,22.371h.235v.235h.235v-.235c.505-.343.6-.949.705-1.645H44.6a1.865,1.865,0,0,1,.47-.94h.235l.235-.705.47-.235v-.47l.47-.235v-.235l.705-.47v-.47l.94-.705v-.47l.94-.705v-.94h.47V13.91l-.705-.47c-.312.649-.757.9-.94,1.645h-.47l-.235.705-.94.705v.47l-.94.705v.47l-.47.235v.235l-.47.235v.47l-.47.235c-.431.636-.545,1.222-1.175,1.645a1.9,1.9,0,0,1,.235.94H42.72Z" transform="translate(-0.885 -0.279)" fill="#ce1d05" fill-rule="evenodd"/><rect width="0.235" height="0.705" transform="translate(30.318 13.397)" fill="#ce1d05"/><path d="M39.82,15.105h.47V14.4a2.719,2.719,0,0,0-1.175,1.41H38.88v.235c.679-.17.78-.253.94-.94" transform="translate(-0.806 -0.298)" fill="#ce1d05" fill-rule="evenodd"/><path d="M40.8,16.045h.235c.2.264-.031.036.235.235l.235-.705h.47c.145-.57.248-.517.47-.94-.264-.2-.036.031-.235-.235h-.705v.235H41.27v.705H40.8Z" transform="translate(-0.845 -0.298)" fill="#ce1d05" fill-rule="evenodd"/><path d="M30,15.35h.235v-.235l-.47-.235v.705H30Z" transform="translate(-0.617 -0.308)" fill="#ce1d05" fill-rule="evenodd"/><path d="M30.72,14.88v.47h.235c-.141-.469.032-.2-.235-.47" transform="translate(-0.637 -0.308)" fill="#ce1d05" fill-rule="evenodd"/><path d="M29.035,17.72h1.41v-.94h.235v-.235h-.235c-.223-.574-.076-.146,0-.705H29.74v.235c-.5.412-.141.467-.94.705v.705c.264.2.036-.031.235.235" transform="translate(-0.597 -0.328)" fill="#ce1d05" fill-rule="evenodd"/><path d="M22.045,28.771a3.679,3.679,0,0,1,1.41.235v.47h.705c-.141-.469.032-.2-.235-.47v-.235l.705.235.235-.47h.47V28.3h.235l-.235.47h.705l.235-.705h.235c.329-.369-.434-.194-.47-.235V27.6l.705-.235V27.6h.235c.22-.13.083-.422.47-.47v.235h.47v-.705h.94a2.843,2.843,0,0,1-.47.94h-.235l.235.47c-.57-.145-.517-.248-.94-.47-.2.264.031.036-.235.235l.235.47,2.115-.235.235-1.41s-.914-.033-.47-.235c.057-.327.222.1.235-.235l-3.055.235-.235.47-.705-.235s-.016.161-.47.235v.47c-.428-.38-1.053-.1-1.41,0L24.4,17.255h1.41v.235a3.263,3.263,0,0,0,2.585-.705V16.55h-.94v-.235h-.235l.235.94-.705-.235v-.705h-.235v.235a8.391,8.391,0,0,0-3.055-.47l-.235,4h-.235v3.29H22.75v3.29c.012.057.319.074.235.47H22.75v.235h.235V27.6l.47-.235.235.47c-.036.33-.033-.028-.235.235-.292.368,0-.052-.47,0V28.3c-.127-.017-.973.136-.705-.235h.235v-.235l-1.41.235c.181.239.289.231.47.47-.469-.141-.2.032-.47-.235H20.87v.94H20.4v.47a1.731,1.731,0,0,0,1.645-.94m3.525-1.645h.235v.94h-.235v-.235h-.235l.235-.705m-1.41.705.705-.235c.2.264-.031.036.235.235-.2.264.031.036-.235.235V28.3H24.16Z" transform="translate(-0.423 -0.333)" fill="#ce1d05" fill-rule="evenodd"/><path d="M35.75,21.956v-.235a4.924,4.924,0,0,0,.94-.705h.235v-.47h.47v.94h.235l.235-.705.47-.235v-.47h.235l-.235-.94.47-.235v-.47h.235l.47-.705h.47v-.47c.57-.145.517-.248.94-.47v-.47a2.294,2.294,0,0,0-.94-.235c-.1.315-.1.537-.235.235l-.705.235c-.028.79.01.86-.47,1.175v.235c-.514-.349-.54-.092-1.175,0v.47h.94v.235l-.705.235c-.265,1-.54.794-1.175.705a4.97,4.97,0,0,0,.235.94h-.235c-.292.368,0-.052-.47,0v.235a1.428,1.428,0,0,0-.705,1.175Zm3.525-5.171c.263.266.1,0,.235.47h-.235Z" transform="translate(-0.731 -0.333)" fill="#ce1d05" fill-rule="evenodd"/><path d="M92.16,16.32v.47H92.4c-.141-.469.032-.2-.235-.47" transform="translate(-1.91 -0.338)" fill="#ce1d05" fill-rule="evenodd"/><path d="M37.2,18.95h.235c-.141-.469.032-.2-.235-.47Z" transform="translate(-0.771 -0.383)" fill="#ce1d05" fill-rule="evenodd"/><path d="M35.04,22.08v.47h.235c-.141-.469.032-.2-.235-.47" transform="translate(-0.726 -0.458)" fill="#ce1d05" fill-rule="evenodd"/><path d="M34.56,23.725v.47a1.767,1.767,0,0,0,.94-.235v-.235h1.175V23.49h.235l-.235-1.175c-.263.266-.1,0-.235.47h-.235V22.08H35.97v.94c-.819.131-.44.237-1.175,0l-.235.47H34.8v.235Z" transform="translate(-0.716 -0.458)" fill="#ce1d05" fill-rule="evenodd"/><path d="M42.46,22.785V22.08h-.235c-.152.556-.066.441-.47.705-.141.469.032.2-.235.47.266.263,0,.1.47.235.152-.556.067-.441.47-.705" transform="translate(-0.86 -0.458)" fill="#ce1d05" fill-rule="evenodd"/><path d="M41.04,24.23v.705h.235l.47-.94h.47V23.76h-.94c-.141.469.032.2-.235.47" transform="translate(-0.85 -0.492)" fill="#ce1d05" fill-rule="evenodd"/><path d="M36.235,24.71v-.235c.264-.2.036.031.235-.235H36c.141.469-.032.2.235.47" transform="translate(-0.746 -0.502)" fill="#ce1d05" fill-rule="evenodd"/><path d="M31.885,26.125c-.141.469.032.2-.235.47v-.47H30.24v.235h.235l-.235.47h.235a1.861,1.861,0,0,1,.47.94c-.263.266-.1,0-.235.47h1.175c.06-.014.076-.3.47-.235v.235h.47l-.235-.94c.935-.253,1.14-.974,1.88-1.41l.235.47H34.47v.705L34,26.83v.47h-.47c-.152.556-.066.441-.47.705v.235c1.225-.3.735-.472,2.115-.235a5.082,5.082,0,0,1,.47-1.645h-.47v-.47h.705v-.47c-.612.551-.608-.087-.94,0,0,0-.047.178-.47.235.152-.556.067-.441.47-.705a1.272,1.272,0,0,0-.94-.47,8.621,8.621,0,0,1-.705,1.88l-1.41-.235" transform="translate(-0.627 -0.507)" fill="#ce1d05" fill-rule="evenodd"/><path d="M40.075,26.375v.705H39.84v.47c.422-.224.365-.335.94-.47v-.47h.47l.47-1.41h-.47c-.324,1.2-.78.6-1.175,1.175" transform="translate(-0.826 -0.522)" fill="#ce1d05" fill-rule="evenodd"/><path d="M49.071,33.234h-.235l-.235.47A52.153,52.153,0,0,1,42.96,37.23c-.016,1.1.048,1.441.94,1.645.184.125,0,.308.47.235v-.235a11.07,11.07,0,0,0,3.76-2.115h.235c-.141.469.032.2-.235.47a2.055,2.055,0,0,0,.47,1.645H59.647c1.97,0,4.113.195,5.406-.47a4.519,4.519,0,0,0-.235-1.645l4,2.35c.928-.031,1.077-.116,1.41-.705.248-.3.074-.767,0-1.41l-1.41-.47-.235-.47-.94-.235-.235-.47h-.47l-.235-.47h-.47l-.47-.705h-.47l-.47-.705h-.47L64.112,33a3.868,3.868,0,0,0-1.645-.94v-.47c-1.39-.4-1.165-1.886-3.055-1.175.017-.127-.136-.973.235-.705.269.195-.1.249.235.235v-.47a2.349,2.349,0,0,1-.47-.47l-.705.235V29h-.235l.235-.705c-.58-.268-1.768-1.3-2.82-.94v.235l-.94.235-1.88,2.115H52.6v.235l-.705.47-.705.94h-.47l-.94,1.175h-.47l-.235.47m.47,2.35h.47l.235-.47h.235l.235-.47h.47l.705-.94c1.342-.965,3.416-2.352,4.23-3.76,1.577.191,1.939,1.26,2.82,2.115h.235l.235.47h.47l.94,1.175h.47l.705.94h.47l.235.47h.235l.235.47h.47v.235a1.846,1.846,0,0,0,.94.47v.47a51.056,51.056,0,0,0-7.991-.235,50.818,50.818,0,0,0-7.991.235v-.47a1.869,1.869,0,0,0,.94-.47Z" transform="translate(-0.89 -0.565)" fill="#ce1d05" fill-rule="evenodd"/><path d="M39.6,27.84v.47h.235c-.141-.469.032-.2-.235-.47" transform="translate(-0.821 -0.577)" fill="#ce1d05" fill-rule="evenodd"/><path d="M39.631,29.955l.47-.235a13.162,13.162,0,0,0,.47-1.88c-.469.141-.2-.032-.47.235h-.235V29.25h-.235v.235l-.705-.235c-.092,1.836-.64,2.208-.705,3.76-2.209-.983-5.019-.574-7.756-.47-.179.639-.056.535-.705.705v.235c1.239.06,2.071.331,2.35-.705l.94-.235v.705h-.235v.235c2.008-.033,1.3-.589,2.585-.94v.705h-.235v.235c.928.015,1.47.012,1.88-.47.316.1.535.091.235.235l.235.47h1.645c.067-.813.43-1.4,0-1.88,0,0,.033-.914.235-.47.327.057-.1.222.235.235L39.4,30.425h.235Z" transform="translate(-0.617 -0.577)" fill="#ce1d05" fill-rule="evenodd"/><path d="M19.2,30.92v.47c.253-.133.386-.421.47-.47h.705v-.235H20.14l.235-.705-.47-.235.235-.705H19.2c.266.263,0,.1.47.235,0,0-.033.914-.235.47-.327-.057.1-.222-.235-.235l.235,1.41Z" transform="translate(-0.398 -0.602)" fill="#ce1d05" fill-rule="evenodd"/><path d="M18.465,30.455H18.23c-.152.556-.066.441-.47.705.2.264-.031.036.235.235v.235l.94-.235c-.111-.642-.294-1.343.235-1.88V29.28c-.469.141-.2-.032-.47.235h-.235v.235H18.7v.235l-.47-.235v.235H18c-.141.241.4.226.47.47" transform="translate(-0.368 -0.607)" fill="#ce1d05" fill-rule="evenodd"/><path d="M14.635,31.405h.705a3.487,3.487,0,0,1,.235,1.41h.235a2.787,2.787,0,0,0,.235-1.175,4.87,4.87,0,0,0,1.175-.47v-.235h.235c.107-.3-.486-.292.235-.94V29.76h-.47c-.3.434-.226-.075-.47.235l.235.705H16.75v.235a7.381,7.381,0,0,0-2.35,0v.94h.235Z" transform="translate(-0.298 -0.617)" fill="#ce1d05" fill-rule="evenodd"/><path d="M13.915,31.67v-.235c.265-.2.036.031.235-.235h-.47c.141.469-.032.2.235.47" transform="translate(-0.283 -0.647)" fill="#ce1d05" fill-rule="evenodd"/><path d="M17.157,66.694c.263-.266.1,0,.235-.47-.446-.268-.973-1.293-1.645-1.175v.235h-.235v-.94h-.705v-.705h-.235c-.141-.469.032-.2-.235-.47L14.1,64.344h-.47L14.1,62.7c-.639-.407-.735-1.026-1.175-1.645l-.705-.47v-.47l-.47-.235v-.47l-.47-.235V58.7l-.47-.235V58l-.47-.235-.235-.705H9.871v-.47l-.47-.235-.235-.94-.47-.235v-.47l-.47-.235-.235-.94-.47-.235-.235-.94-.47-.235-.235-.94-.47-.235-.235-.705H5.641l-.235-.94-.47-.235-.235-.94-.47-.235v-.47l-.47-.235v-.47c-.338-.581-.773-.813-.94-1.645l.705-.235V44.6H4v-.235l.94-.235.235-.47.94-.235.235-.47h.47v-.235h.47c.13-.083.184-.32.47-.47C7.3,40.287,5.71,38.743,5.641,36.611l2.82-.94v-.235h.705V35.2l1.175-.235V34.73h.47V34.5h.705l.47-.705h1.175v-.235l.94-.235c.093-.732.335-.651-.235-1.175V31.91l-.705.235V31.44h-.235v.705h-.235v-.47h-.47v.705c-.437-.283-.051-.348-.235-.47h-.235c-.195.421-.6.408-1.175.47l.235.705h-.705V32.85H9.4c.4.378.1.479-.235.705v.235c-.494-.287-.592-.577-1.41-.235v.235l-.94.235v.235H6.111V34.5h-.47v.235l-2.82.94L4.23,39.2h.235c.344.766.1,1.11.705,1.645-.178,1.459-.746.837-1.645,1.41l-.235.47-.94.235-.235.47h-.47c-.577.336-.811.785-1.645.94a4.709,4.709,0,0,0,.705,1.645l.47.235.235.94.47.235.235.94.47.235.235.94.47.235.235.705H3.76l.235.94.47.235.235.94.47.235v.47l.47.235.235.94.47.235v.47h.235v.47l.47.235.235.705h.235l.235.94.47.235v.47l.47.235c.635.952.944,2.188,1.88,2.82l-.235.705h-.235v.47H9.871v.47l-.47.235v.47l-.47.235-.235.94-.47.235-.235.705H7.756l-.235.94-.47.235-.235.94-.47.235v.47H6.111l-.235.705c1.928.457,2.959,2.191,4.936,2.585a11.093,11.093,0,0,1-1.645,4l-.235,1.175H8.7c.327,1.137.505.527,1.41.94v.235h.47v.235h.47v.235l1.175.235v.235h.705v.235h.47v.235H14.1v.235h.47v.235h.94v.235c.531.255.525.024.94.47h.235l-.235-.94h.235V79.62h-.705c-.318-.095.1-.222-.235-.235v.235h-.235v-.47l-5.406-2.115,2.115-5.406-.705-.235-.235-.47-.94-.235-.235-.47h-.47v-.235h-.47l-.235-.47h-.47v-.235c-.524-.32-.324.1-.705-.47-.263-.266-.1,0-.235-.47h.235v-.47l.47-.235v-.47h.235v-.47l.47-.235.235-.94.47-.235.235-.94.47-.235a4.364,4.364,0,0,0,.705-1.645h.235l.705.94h.235v.47l.47.235v.47c.227.243.235-.235.235-.235l.705.235-.235.705.94.705v.235l.94-.235v.47h-.47a3.134,3.134,0,0,0,1.175,1.175c.2.264-.031.036.235.235V67.4a1.1,1.1,0,0,0,.94-.705M12.691,32.85c.469.141.2-.032.47.235h-.235c-.2.264.031.036-.235.235ZM8.931,34.5c.469-.141.2.032.47-.235h.235l-.235.47h-.47Zm6.111,30.789c-.469-.141-.2.032-.47-.235h.235c.2-.265-.031-.036.235-.235Zm.705.47h.47v.47h-.47Z" transform="translate(0 -0.651)" fill="#ce1d05" fill-rule="evenodd"/><path d="M90.961,64.833h.47l.705-.94h.47l1.175-1.41h.47v-.235l.47-.235v-.47l1.41-1.175V59.9l.705-.47v-.47l.705-.47v-.47l.47-.235.235-.705h.235v-.47l.705-.47.235-.94.47-.235v-.47l.47-.235v-.47l.47-.235v-.47h.235v-.47l.47-.235v-.47l.47-.235.235-.94.47-.235.235-.94.47-.235v-.47l.47-.235v-.47c.339-.584.76-.815.94-1.645l-1.41-.47-.235-.47-.94-.235-.235-.47-.94-.235v-.235l-.705-.235c.255-1.991,1.7-3.142,1.88-5.171l-2.585-.94V37.8l-1.175-.235v-.235h-.47V37.1h-.705v-.235h-.47V36.63h-.705v-.235l-2.585-.94v.47h-.235v-.47c-.42-.118-2.2-1.127-2.585-.94v.235h-.47l.235-.47h-.47v.47h-.705v-.94a16.217,16.217,0,0,1-2.35-.705l-1.175.235v-.47h-.94v-.235h-.94l.235.47H83.44v-.47H82.265V32.4c-1.563-.061-1.87-.163-2.35.94H79.68v.235h1.88v-.235l.47.235v-.235l.705-.235v.47h.94v-.235h.235l.235.47h1.645v.235c.407.149.62.109.94.235v-.47h.47c.141.469-.032.2.235.47v.235h.94v.235h.47v.235l2.115.47v.235l.705-.235.47.705,1.41.235v.235h.47v.235h.705V37.1h.47v.235H95.9v.235l.94.235v.235l1.175.235v.235h.705v.235h.47v.235c.778.347,1.053.067,1.645.705h.235v.235h-.235v.47H100.6v.47h-.235c-.464,1.072-.609,2.6-1.41,3.29.781,1.306,3.205,1.681,4.23,2.82h.235v.235h-.235c-.186.829-.6,1.06-.94,1.645v.47l-.47.235-.235.94-.47.235v.47l-.47.235-.235.94-.47.235v.47l-.47.235-.235.94h-.235l-.235.705-.47.235v.47h-.235l-.235.705-.47.235v.47l-.705.47v.47l-.47.235v.47l-.94.705v.47l-1.41,1.175-1.645,1.88h-.47l-.705.94h-.47l-.47.705-4.23,2.35.47,1.41H86.5v.705h.235l.235.94H87.2l.235,1.41a21.132,21.132,0,0,1,1.645,8.7l.94-.235a19.164,19.164,0,0,0-.47-5.641h-.235v-.94h-.235l-.47-2.35h-.235c-.435-1.1-.352-2.087-1.175-2.82.2-1.359.479-.891,1.41-1.41v-.235h.47l.235-.47h.47l.235-.47h.47l.47-.705M80.855,33.1l.235-.47h.235c.211.1-.452.46-.47.47" transform="translate(-1.651 -0.671)" fill="#ce1d05" fill-rule="evenodd"/><path d="M29.92,32.875V32.64c-.994.023-1.222.116-1.41.94-.694-.264-.261.037-.235-.705h-.47v.705c-.954.247-.6.6-1.645.235v.705c.652-.241,1.438-.212,1.88-.705h1.645V33.58H29.45c.092-.58.111-.438.47-.705" transform="translate(-0.542 -0.676)" fill="#ce1d05" fill-rule="evenodd"/><path d="M18.751,61.573l1.41,1.645h.47l.94,1.175h.47l.47.705h.47l.47.705,3.055,1.645a9.225,9.225,0,0,1-.705,1.88h-.235l-.235,1.41H25.1v.47h-.235v.94h-.235v.705h-.235v.94h-.235v.94h-.235v.94h-.235v.705h.235l-.235,1.175h-.235V78.73h.235c.067-.154.183-.848.235-.94l.705-.47V76.145h.235V75.2H25.1v-.94h.235v-.94h.235v-.94H25.8l.235-1.41,1.88-4a33.272,33.272,0,0,1-5.876-3.525l-.94-1.175h-.47l-.235-.47-1.41-1.175v-.47l-.94-.705v-.47l-.705-.47v-.47l-.705-.47v-.47l-.47-.235-.235-.705H15.7V55.7l-.47-.235v-.47l-.47-.235v-.47l-.47-.235-.235-.705h-.235l-.235-.94-.47-.235V51.7l-.47-.235-.235-.94-.47-.235-.235-.94-.47-.235a4.52,4.52,0,0,1-.705-1.645c-.263-.266-.1,0-.235-.47.468-.26.958-.685,1.41-.94h.47l.235-.47.94-.235v-.235a2.71,2.71,0,0,1,1.175-.47c-.255-2.017-1.7-3.177-1.88-5.171l2.82-.94v-.235l1.175-.235v-.235h.47V37.6h.705v-.235l.94-.235V36.9l1.41-.235v-.235l1.175-.235v-.235a2.07,2.07,0,0,1,1.175-.235l-.235-.705.47.235v.235c.074.023,2.027-.647,2.585-.705v-.705H25.1V33.84h-.705v.705l-1.175-.235c-.141.469.032.2-.235.47-.2.264.031.036-.235.235v-.47a2.877,2.877,0,0,0-1.645.705s-1.448.228-.705.235h.235v.235a1.74,1.74,0,0,0-1.41,0v.235h-.47v.235h-.705v.235h-.705v.235h-.47V36.9h-.705v.235H15.7v.235L11.23,39.011l2.115,5.171c-.9.213-1.017.592-1.645.94l-.94.235-.235.47-.94.235V46.3l-.705.235c.069.529.022.617.235.94H9.35v.47h.235v.47l.47.235.235.94.47.235v.47l.47.235.235.94.47.235.235.94.47.235v.47l.47.235.235.94h.235l.235.705.47.235v.47l.47.235v.47h.235l.235.705.47.235v.47l.705.47v.47l.705.47v.47l.94.705v.47Zm5.876,12.691.235-.47H25.1c.211.1-.452.46-.47.47" transform="translate(-0.184 -0.701)" fill="#ce1d05" fill-rule="evenodd"/><path d="M112.382,43.976l-.235-.47-1.41-.47-.235-.47-.94-.235V42.1a2.642,2.642,0,0,0-1.175-.47l.705-1.88h.235c.3-.653-.061-.7.47-1.175a1.75,1.75,0,0,0-.705-.47v-.235c.42-.214.735.163.94.235.141-.469-.032-.2.235-.47v-.47l-.705.235.235-.94h.47c.141.469-.032.2.235.47.141-.469-.032-.2.235-.47V35.75H110.5v-.235l-1.175-.235-.235.705h-.47c-.075.528-.021.615-.235.94h-.235v.47h-.235v.47h-.235l-.235.94h-.235v.705h-.235v.47h-.235l-.235,1.175h-.235v.47h-.235l-.235.705,4.936,2.82a3.8,3.8,0,0,1-.705,1.88l-.47.235-.235.94-.47.235v.47h-.235v.47l-.47.235-.235.705h-.235l-.235.94-.47.235-.235.94-.47.235v.47h-.235v.47l-.47.235-.235.705H105.1l-.235.94-.47.235-.235.705h-.235l-.235.94h-.235l-.235.705-.47.235v.47l-.47.235v.47l-.705.47v.47l-.47.235v.47l-.705.47v.47l-.705.47v.47l-.94.705v.47L97.106,65.6l-.235.47H96.4l-.94,1.175h-.47l-.705.94h-.47l-.235.47-.94.47a18.623,18.623,0,0,0,1.175,3.76v1.175a24.192,24.192,0,0,1,.705,7.521,2.482,2.482,0,0,1,.94.235,4.728,4.728,0,0,0,.705-1.645h.47l-.47-6.111a21.662,21.662,0,0,1-1.175-4.23,2.524,2.524,0,0,0,1.175-.705v-.235h.47v-.235l.705-.47.235-.47h.47l.47-.705,1.88-1.645v-.47l.94-.705v-.47l.705-.47v-.47l.705-.47v-.47l.47-.235c.43-.634.543-1.227,1.175-1.645.141-.469-.032-.2.235-.47l.235.705h.235v.47l.47.235v.47l.47.235.235.94.47.235v.47l.47.235.235.94.47.235.235.94.47.235c.531.8.7,1.743,1.41,2.35.264.694-.037.261.705.235v.235l-.705.235v.235h-.47l-.235.47-.94.235-.235.47h-.47v.235h-.47v.235a5.615,5.615,0,0,0-1.645.94h-.235l.235.705h.235v.47h.235v.705h.235l.705,2.115.47.235v.94h.235v.235h-.235c-.179.639-.056.535-.705.705v-.47h-.235c.027.485-.808.31-1.175.47v.235l-.94.235v.235h-.705v.235h-.47c-.786.416-.325.62-1.645.705v.705h-.235v-.235H101.1v.235h-.235l.235.47h-.235v.235c1.422-.3,2.406-1.144,3.76-1.41v-.47c.222.387.845.028,1.41,0-.266-.263,0-.1-.47-.235v-.235l.94.235v-.235h.705V78.29l.94-.235V77.82h.705v-.235c.116-.107.376.066.235-.235h-.235v-.47h-.235v-.705h-.235V75.7h-.235c-.321-.651-.168-1.18-.705-1.645v-.235l-.47.235c.351-.966.148-1.067-.235-1.88a9.308,9.308,0,0,0,2.585-1.645h.235v-.705c.928.015,1.47.012,1.88-.47h.235s-.033-.914-.235-.47v.235h-.235l.235-.705h-.235v-.47l-.47-.235-.235-.94-.705-.47v-.47h-.235v-.47h-.235v-.47l-.47-.235-.235-.94-.47-.235v-.47l-.47-.235-.235-.94-.47-.235v-.47l-.47-.235-1.175-2.115H105.1l.235-.705h.235v-.47l.47-.235V56.9l.47-.235V56.2l.47-.235v-.47h.235v-.47l.47-.235.235-.94.47-.235.235-.94.47-.235v-.47l.47-.235.235-.94.47-.235v-.47h.235v-.47l.47-.235.235-.705h.235v-.47h.235v-.47l.47-.235v-.47h.235v-.47l.47-.235v-.47h.235c.321-.526-.1-.321.47-.705v-.705c-.145-.265-.91-.3-1.175-.47M96.4,78.525c-.469-.141-.2.032-.47-.235.469.141.2-.032.47.235m-.235-.47c-.469-.141-.2.032-.47-.235.469.141.2-.032.47.235m-.705.47c.107.1.591.18.47.47H95.7c-.191-.429-.06.2-.47,0l.235-.47m-.235.94c.263.266.1,0,.235.47h-.235Z" transform="translate(-1.92 -0.731)" fill="#ce1d05" fill-rule="evenodd"/><path d="M48.7,42a4.527,4.527,0,0,1-.705.705v2.35c0,1.821-.23,6.741.235,7.286v.235c.132.147.446-.653.47-.705h.705a1.812,1.812,0,0,1-.47.705v.235l.705-.235v.235H60.22c1.924,0,3.912.177,5.171-.47.011-2.56.467-8.2-.235-10.106-.469-.141-.2.032-.47-.235H50.114l.235.705c-.764-.613-.087-.7-1.645-.705m1.175,2.35h.235v.94h-.235Zm0,2.585c-.469-.141-.2.032-.47-.235.469.141.2-.032.47.235m-.705.47v.235c.442-.025.137-.139.235-.47h.235c-.163.64-.318.532-.47,1.175-.639-.179-.535-.056-.705-.705l.705-.235M48.7,46.7,48.939,46h.235c.149.436-.137.334-.235.47V46.7Zm.94-1.175c-.469-.141-.2.032-.47-.235h-.235v-.235h.705Zm-.705-2.35v.705H48.7l-.235-.705ZM48.7,45.29c-.469-.141-.2.032-.47-.235.469.141.2-.032.47.235m0,.47c-.469-.141-.2.032-.47-.235.469.141.2-.032.47.235m3.29,5.876h-.47v-.47h.47Zm.47,0v-.47c.263.266.1,0,.235.47Zm-.235-9.166c-.469-.141-.2.032-.47-.235.469.141.2-.032.47.235m-1.645.705c.819.131.44.237,1.175,0-.354.54-.783.5-1.175.94h-.235l.235-.94m-.235,1.175H63.041v6.111H54.58a24.151,24.151,0,0,1-3.76,0c-.2.264.031.036-.235.235l-.235.705h.235v.47h-.235V51.4l-.94.235c.179-.639.056-.535.705-.705a5.406,5.406,0,0,1,.235-1.367c-.313,0-.627-.278-.94-.278-.163.64-.318.532-.47,1.175-.469-.141-.2.032-.47-.235h-.235c-.032-.362.63-.552.705-.705v-.47h.705v-.235l.705-.235Z" transform="translate(-0.993 -0.87)" fill="#ce1d05" fill-rule="evenodd"/><path d="M69.518,75.457c1.219-.061,1.017-.406,1.645-.94-.107-.854-.2-.78-.705-1.175v-.235h-.705v-.235h-.47v-.235h-.47V72.4h-.47v-.235h-.47v-.235H67.4V71.7h-.47v-.235h-.47l-.235-.47h-.47l-.235-.47h-.47l-.235-.47h-.47l-.235-.47c-.691-.47-.956-.432-1.41-1.175-.264-.2-.036.031-.235-.235a13.439,13.439,0,0,0,3.76-4.23,2.669,2.669,0,0,0-.235-2.35v-.47L62.7,59.24H62v-.235h-.47V58.77l-1.645-.235V58.3c-1.528.1-1.239.522-1.88,1.41l-.94.705v.47l-1.175.94v.47l-2.82,2.585v.235a3.161,3.161,0,0,1-.705-1.175H50.246V58.065h-.235c-.3-.375-.128-.32-.705-.47-.266-.263,0-.1-.47-.235a3.12,3.12,0,0,1-.94.705v5.876h-4l-.235.705H43.43c-.141.457.1.547.235.705l.235.705h4v2.115h-.235l-.235.94-.47.235-.235.94-.47.235v.47h-.235l-.235.705-.47.235v.47l-.705.47v.47l-.94.705v.47l-.705.47v.94H43.2l.235.705h1.41l2.82-4H47.9v8.7c0,1.566-.4,2.693.94,3.055.266.263,0,.1.47.235a3.12,3.12,0,0,1,.94-.705V71.932c.654.388.8.961,1.645,1.175-.152.556-.066.441-.47.705-.052,3.078,1.7,1.3,3.055.94-.018,2.552-.443,6.464.47,8.226h6.816a13.383,13.383,0,0,0,3.76-.235v.47c.469-.141.2.032.47-.235h.94v-.235h-.47v-.705c.4.268.327.143.47.705h.235V81.568l-.47.235v-.47l.47-.235-.235-1.175-.94.235c.152-.556.066-.441.47-.705v-.235c.363-.179.406.469.47.705h.235v-4H66.7v-.235h.47v-1.41a11.022,11.022,0,0,0,1.175.47v.235l.705-.235v.47c.469.141.2-.032.47.235m-4.7-.94h.47v-.705h-.235v-.47l.705.47c-.145.57-.248.517-.47.94h-.47ZM62.7,71.7l.705.235v.235l.705.235s.033.914.235.47a.835.835,0,0,1,.13-.087c-.009-.067-.113-.139.1-.148-.138.181-.074.133-.1.148,0,.034-.017.068-.13.087-.141.469.032.2-.235.47v-.47H62.467v.235a1.841,1.841,0,0,1-.94.235v-.47H60.352c-.067.024-.082.428-.47.47l-.235-.47h-1.88c.34-1.231,2.15-1.707,2.82-2.82,1.018.286.8.739,1.41,1.175h.47l.235.47m1.88,2.115c-.2.264.031.036-.235.235-.141.469.032.2-.235.47v.235h-.235l.235-.94Zm-2.115.235v-.705c.02.006.828-.077.47.235H62.7c.253.416.159.312.705.47-.179.639-.056.535-.705.705l.235-.705Zm-.47.94-.705-.235v-.47a1.579,1.579,0,0,1,.705.705m-2.115-.235h-.47v-.47h.47Zm0-13.867,3.29,1.175V62.3l.705.47c-.139,1.367-1.843,3.211-2.82,3.76-.878.567-2.286-2.283-3.055-2.82.173-1.3,1.32-1.866,1.88-2.82m-3.76,10.106h-.47l-.47.705h-.47l-.235.47c-.423.275-.524.007-.94.47h-.47V72.4c.295,0,.38-.639.235-.94l-3.055-2.82v-2.35h1.645c.091.759.213.686.47,1.175,2.115-.055,2.443-1.339,3.76-2.115.2-.264-.031-.036.235-.235a8.988,8.988,0,0,0,2.585,3.055c-.256.969-.714.907-1.41,1.41l-.705.94h-.47l-.235.47m8.461,11.046h-.235v-.47h.235Zm.94-.705h-.235l-.235-.94c.386.237.926.511.47.94m0-1.645c-.2.264.031.036-.235.235v-.47c.469.141.2-.032.47.235Zm0-1.175v.235c-.3-.194-.258-.2-.47-.47h-.235v2.585H56.827V74.987c2.464.02,3.506.366,5.641,0,.4-.069.4.218.47.235a3.9,3.9,0,0,0,1.88-.235v2.585c.57.145.517.248.94.47-.141.469.032.2-.235.47m.235-2.115c-.469-.141-.2.032-.47-.235h-.235c-.076-.065.522-.415.705-.705h.235l-.235.94m.705.47c-.264.2-.036-.031-.235.235h-.235V76.4l.705-.235-.235.705m0-1.88v.235h-.235v-.47c.639.179.535.056.705.705-.3-.2-.136-.32-.47-.47m1.41-1.175h-.235v-.235l-.705.235.235-.705c.148.1.815.432.705.705" transform="translate(-0.89 -1.189)" fill="#ce1d05" fill-rule="evenodd"/><path d="M20.555,71.435V71.2h.235v.47h.235l.235-1.645H21.5c-.539-.653-1.428-.9-1.88-1.645-.57.145-.517.248-.94.47-.239-.689-.253-.481,0-1.175-.264-.2-.036.031-.235-.235a1.328,1.328,0,0,0-1.175,1.175H16.56c.2.265-.031.036.235.235v.235H17.5c.152.589.122.386.47.705v.235h.47c.166.116.152.309.47.47v.94h-.235l.235,1.41a2.482,2.482,0,0,0,.94-.235c.233-.6-.04-.733.705-1.175m-.47-2.115h.235v.705h-.235Zm-1.175-.235c.469.141.2-.032.47.235-.469-.141-.2.032-.47-.235m.47,2.115v-.47c.263.266.1,0,.235.47Z" transform="translate(-0.343 -1.397)" fill="#ce1d05" fill-rule="evenodd"/><rect width="0.235" height="0.705" transform="translate(20.212 70.273)" fill="#ce1d05"/><path d="M18.45,81.176v.235h-.705a31.3,31.3,0,0,0-.235,4.23l.94.235v-.235h.235v.235c.4.268.327.143.47.705h.47c-.033-.841-.227-1.579,0-1.88v-.235c-.954.263-.51.572-1.645.705l.47-1.88-.47-.235v.235h-.235c.111-.511.15-.666.47-.94v-.235c.42-.214.735.163.94.235l-.235-1.41h.47V80h-.47c-.323-.331.417-.227.47-.235l-.235-.47h.235v-.47h.235v-1.41l-.705.235v-.47h.705l.235-1.88H20.1a.42.42,0,0,0-.235-.47,2.024,2.024,0,0,1,.705-1.41v-.94c-.422.224-.366.335-.94.47-.145.57-.248.517-.47.94-.556-.152-.441-.066-.705-.47-.512.528-.949,4-.94,5.171.469-.141.2.032.47-.235h.235a.936.936,0,0,1-.47.47v.235h.705a.932.932,0,0,1-.47.47V80h-.235v-.94H17.51v1.645c-.469.141-.2-.032-.47.235h.94l.235-.47h.47v.705Zm.705-5.641c.2.264-.031.036.235.235v.235h-.47c.141-.469-.032-.2.235-.47m-.94-.705V74.6l.705-.235v.47Z" transform="translate(-0.353 -1.502)" fill="#ce1d05" fill-rule="evenodd"/><rect width="0.47" height="0.47" transform="translate(18.097 71.448)" fill="#ce1d05"/><path d="M39.037,97.762v-.235l-7.286,1.645L30.811,94a25.647,25.647,0,0,1-5.171.47V94h-.235V90.946H25.17l-.235-7.286h-.47l.235-.94h.235l-.235-.705c-.469-.141-.2.032-.47-.235H24v-.235H24.7v-.94h.235L24.7,79.9h.235v-.94c-.265.2-.036-.031-.235.235-.437.282-.5.658-.94.94.01,5.451.439,9.484.94,15.512.807.007,3.852-.13,4.23-.47h.94v.235a22.5,22.5,0,0,1,1.175,4.936L38.567,98.7c.322-.213,0-.628.235-.94Z" transform="translate(-0.492 -1.636)" fill="#ce1d05" fill-rule="evenodd"/><path d="M100.56,80.88c.266.263,0,.1.47.235V80.88Z" transform="translate(-2.084 -1.676)" fill="#ce1d05" fill-rule="evenodd"/><path d="M96.67,82.3c-.119.957-.5,1.052-.94,1.645H95.5l.235.47H95.5v.47c-.067.11-.327.2-.47.47h-.47v1.175H94.32c.266.263,0,.1.47.235V86.3H95.5V85.59H96.67c-.243-.717-.037-1.072,0-2.115a2.24,2.24,0,0,0,.94-.47V82.77l2.115-.235a4.134,4.134,0,0,1-.47-1.175,7.245,7.245,0,0,1-2.585.94" transform="translate(-1.954 -1.686)" fill="#ce1d05" fill-rule="evenodd"/><path d="M89.2,83.01a2.749,2.749,0,0,1-.47-.47h.47V81.6H88.5v.705h-.235V83.48l.47-.235a5.61,5.61,0,0,0-.47,2.585h.47v.705l-.47.235v-.235h-.235l.235,2.35a23.735,23.735,0,0,0-.705,5.641,17.535,17.535,0,0,1-5.171-.47L81.21,99.227l-9.871-2.35v-.235l-3.055-.705V95.7l-2.115-.47V95H65.7v-.235h-.705v-.235h-.47l-.235-.47-.94-.235-.235-.47-.94-.235v-.235l-.705-.235-.235-.47h-.47l-.47-.705A11.1,11.1,0,0,1,57,88.651a1.943,1.943,0,0,0-.94.47v.235h-.47l-.235.47-.94.705-.235.47h-.47l-.47.705h-.47l-.47.705h-.47l-.235.47h-.47l-.235.47-.94.235-.235.47-.94.235v.235l-.94.235V95h-.705v.235h-.47v.235h-.705V95.7h-.705v.235h-.705v.235H43.84v.235H42.9v.235l-2.585.47v.94H40.08v.235l4-.94v-.235l2.35-.47v-.235l1.175-.235v-.235l.94-.235v-.235h.47v-.235L50.186,95v-.235l.705-.235.235-.47.94-.235.235-.47h.47l.47-.705h.47l.47-.705h.47l1.175-1.41.705-.235v-.235a4.293,4.293,0,0,1,1.645,1.175v.235l.705.235.47.705h.47l.235.47h.47l.47.705.94.235.235.47.705.235v.235l.94.235v.235l1.41.47v.235h.705v.235h.47v.235l10.811,3.055h.94V99.7h1.175v.235c.765.254,1.345,0,1.88.47h.705v-.235a22.505,22.505,0,0,0,1.175-4.936l5.406.47c.027-2.952.757-5.428,0-7.286h.47l-.235-1.41h.47V85.6h-.235l.235-.47h-.235c-.067-.513.577-1.345.235-2.115" transform="translate(-0.831 -1.691)" fill="#ce1d05" fill-rule="evenodd"/><rect width="0.705" height="0.235" transform="translate(98.241 80.144)" fill="#ce1d05"/><path d="M94.8,83.75v-.235c.264-.2.036.031.235-.235h-.47c.141.469-.032.2.235.47" transform="translate(-1.959 -1.726)" fill="#ce1d05" fill-rule="evenodd"/><rect width="0.235" height="0.705" transform="translate(93.071 81.789)" fill="#ce1d05"/><path d="M96.23,87.105h.235V86.4H96.23c-.266.263,0,.1-.47.235.181.239.289.231.47.47" transform="translate(-1.984 -1.79)" fill="#ce1d05" fill-rule="evenodd"/><path d="M93.914,87.59c-.141-.469.032-.2-.235-.47l-.235.705c-.469.141-.2-.032-.47.235-.471.527,0,1.524-.235,2.35H92.5v2.82s-.2.017-.235.47v2.585h-.235l-.235,4.23-5.876-.705-1.175,5.876-11.986-2.82v.235a2.414,2.414,0,0,1-.94.47c.152-.556.066-.441.47-.705v-.235c-.994-.208-1.827-.393-2.35.47h-.47l.705-.94c-.762-.262-.59-.151-1.41,0v-.47c-.469-.141-.2.032-.47-.235h-.94a.932.932,0,0,0,.47.47v.235h-.235v.235h-.235v-.705h-.47v-.705a5,5,0,0,1-.94-.235v.235H65.71l-.235-.47H64.77v-.235c-.657.085-.706-.016-.94.47v.47H63.6v.235l-.47-.235v.235h-.47v.47l.47-.235.235.47a14.525,14.525,0,0,0,1.88.47v.235a4.95,4.95,0,0,1,.94-.235v.47l1.41.235v.235l.47-.235-2.35,2.82-.705.47v.47l-1.41,1.175v.47l-.94.705v.235H62.42c-.462-.71-.214-.1-.705-.47l-1.41-1.645h-.47l-1.175-1.41h-.705l-.235.47h-.47l-1.41,1.645h-.47l-1.175,1.41h-.47a5.225,5.225,0,0,0-.94-1.41l-.47-.235v-.47l-.705-.47-.47-.705H50.9v-.47l-1.175-.94-.235-.705-.47-.235c-.7-.7-.092-.772-1.175-.47l.47-.705-.47-.235V102.4c.641-.479.628.428.94-.705h.47v-.705a2.5,2.5,0,0,0,.94-.235v.47h-.47v.47a2.106,2.106,0,0,0,1.41-.47l.235-.705.705.235.235-.705.705.235v-.235h.47v-.235c-.443-.155-.266.171-.47-.235l.705-.235c.046.01.077.362.47.235v-.235h.47l.235-.47h.47l.235-.47.94-.235V98.4h.235v-.235h.47c-.266.263,0,.1-.47.235a1.906,1.906,0,0,0,1.175.705v.235h.235v-.47l.94.47c-.266.263,0,.1-.47.235.43.52,1.2.674,1.645,1.175.907-.089,1.232-.377,1.41-1.175h.47c-.252.907-.7.738-.94,1.645.511.111.666.15.94.47l1.175-1.41c.271-.192.178.184.235.235h.235v-.235c.264-.2.036.031.235-.235l-2.585-.94v-.235h-.47v-.235h-.47l-.235-.47h-.47L59.6,97.7l-1.41-.47-.47-.705h-.47l-.235-.47-.94-.47c-.4.638-1.018.748-1.645,1.175l-.235.47h-.47l-.235.47-.94.235-.235.47-.94.235-.235.47h-.47a4.688,4.688,0,0,1-2.35.94.936.936,0,0,0,.47.47c-.141.469.032.2-.235.47v.235h-.705c.152-.556.067-.441.47-.705v-.235a12.275,12.275,0,0,0-3.29,1.175h-.47c-.268.2.235.235.235.235l-.235.705h-.47v-.705h-.705v.235l-.705.235v-.235h-.235l-.235.47-2.35.235c-2.381.821-5.377,1.308-7.756,2.115h-.94v.235H29.986v.235c-.765.255-1.343,0-1.88.47h-.235a21.221,21.221,0,0,0-.705-2.35v-1.175h-.235c-.269-.867.066-1.524-.47-2.115-.434-.31-3.684.22-4.936.235v.47c-.57-.145-.517-.248-.94-.47l-.235-5.641h-.235c-.244-.88.262-2.018-.235-2.585v-2.82c-.6.5-.53.773-1.41,1.175l-.235-.705H18l.235,7.051h.235l.235,5.876c2.292-.032,4.342-.615,6.111-.47v-.705h.235l.235.705c-.106.164-.383.134-.235.705a16.862,16.862,0,0,1,.94,4.466H26.7l-.235.705,16.922-4v-.235h.705v-.235h.705l.235-.47h1.41c.024-.008-.049-.154.47-.235a5.3,5.3,0,0,0,.94,1.41l.47.235.235.705.94.705v.47l1.41,1.175v.47l1.175.94v.47l1.41,1.175v.47c1.556-.213,3.31-2.729,4.7-3.525v-.235h.235l1.41,1.645h.47l.235.47a4.634,4.634,0,0,0,1.88,1.41c.266.263,0,.1.47.235l1.41-1.88.705-.47v-.47l.705-.47v-.47l.47-.235-.235-.47.47.235v-.235l1.175-.94v-.47l.47-.235-.235-.47h.705c.1-.061.212-.331.47-.47v-.235c.514.349.54.092,1.175,0v.47c.511-.111.666-.15.94-.47h.47a.936.936,0,0,1-.47.47v.235l1.645.235v.235h.94v.235h.94v.235l2.115.235v.235h.94v.235h.94v.235h.94v.235h.94v.235h.94v.235h1.175v.235h.94v.235c.763.26,1.338,0,1.88.47h.705V107.8h.235v-1.175a12.847,12.847,0,0,0,.94-4.23c.264-.2.036.031.235-.235l6.111.47.235-4.23h.235V95.346h.235c.3-1.087-.393-2.8.235-3.525V89.235l-.47.235c.139-.3.08-.589.235-.94.638.53.46-.253.47-.94ZM64.77,101.927v.235H64.3l.705-1.175c.469.141.2-.032.47.235-.355.225-.4.459-.705.705m-4.936-3.055c.263.266.1,0,.235.47h-.235Zm-1.175-.705.47.235v.235h-.235v.235H58.66Zm-4-.47c.539.495.347.412.235.94-.264.2-.036-.031-.235.235h-.235a2.981,2.981,0,0,1,.235-1.175m-2.35,1.88c-.469-.141-.2.032-.47-.235.469.141.2-.032.47.235m-1.88.94s-.072.035-.47-.47c.063.057.643.242.47.47M19.175,90.88v-.235c-.264-.2-.036.031-.235-.235h.47c-.141.469.032.2-.235.47m1.175,11.281v-.47c.263.266.1,0,.235.47Zm2.82-.94c-.265.2-.036-.031-.235.235H22.7v-.705l.705-.235-.235.705m3.055,4.466.235-.47H26.7c.211.1-.452.46-.47.47m20.447-3.29c-.469.141-.2-.032-.47.235h-.235l1.175-1.645h.235c.079.229-.581,1.16-.705,1.41m21.622.47c.469.141.2-.032.47.235-.469-.141-.2.032-.47-.235m3.055.705v-.235c-.265-.2-.036.031-.235-.235h.47c-.141.469.032.2-.235.47m1.88,0c.469.141.2-.032.47.235-.469-.141-.2.032-.47-.235" transform="translate(-0.373 -1.805)" fill="#ce1d05" fill-rule="evenodd"/><path d="M19.165,89.005c.152-.556.067-.441.47-.705V87.6c-.245.56-1.657-.166-2.115-.235.141.469-.032.2.235.47v1.645c.605-.321.4-.433,1.41-.47" transform="translate(-0.363 -1.81)" fill="#ce1d05" fill-rule="evenodd"/></g></g><path d="M13.721-20.508a2.283,2.283,0,0,1-2.368-.1,3.546,3.546,0,0,1-1.1-1.514,2.468,2.468,0,0,1-.171-1.343q.122-.513.854-.708H12.4a41.827,41.827,0,0,1,7.861.586,17.718,17.718,0,0,1,4.2,1.172,3.522,3.522,0,0,1,1.343,1.245,2.408,2.408,0,0,1,.488,1.27,1.489,1.489,0,0,1-.269.806q-.244.342-1.074.244-1.123-.293-2.759-.806a22,22,0,0,0-4.15-.781A20.587,20.587,0,0,0,13.721-20.508ZM11.523-.977A3.326,3.326,0,0,1,9.79-2.515a2.542,2.542,0,0,1-.415-1.831q.2-.732,1.465-.537a33.464,33.464,0,0,0,7.153.439,29.946,29.946,0,0,0,6.055-.708q2.173-.562,3.223-.83t1.636-.366a1.3,1.3,0,0,1,.391,1.27A3.027,3.027,0,0,1,28.662-4a5.492,5.492,0,0,1-1.489,1.123,17.51,17.51,0,0,1-4,1.367,27.066,27.066,0,0,1-5.664.83A38.557,38.557,0,0,1,11.523-.977ZM58.447-17.285q2.637-1.9,4.761-3.345t3.833-2.563a1.866,1.866,0,0,1,2.344-.1,3.761,3.761,0,0,1,1.1,1.221,2.6,2.6,0,0,1,.317,1.611,61.361,61.361,0,0,0-.415,6.274,19.3,19.3,0,0,0,.391,5.176,9.069,9.069,0,0,0,.879,2.271,1.7,1.7,0,0,0,1.05.781,5.287,5.287,0,0,0,2.539-.415A44.306,44.306,0,0,0,79.712-8.13a19.267,19.267,0,0,1,3.394-1.294,1.2,1.2,0,0,1,.049,1.1,12.337,12.337,0,0,1-.83,1.172,10.051,10.051,0,0,1-2.466,1.929,17.515,17.515,0,0,1-4.224,1.88,4.985,4.985,0,0,1-4.053-.269,7.953,7.953,0,0,1-3.149-4.2A16.947,16.947,0,0,1,67.261-14.5q.073-3.564.024-4.2a2.79,2.79,0,0,0-.244-1.025,30.454,30.454,0,0,0-3.662,2.344q-2,1.465-5.371,4.395-.342,3.223-.366,5.347t-.024,4.272q0,2.148.1,4.443a2.486,2.486,0,0,1-.073,1.147q-.171.562-1.367.415a1.591,1.591,0,0,1-1.489-1.172q-.1-.635-.2-3.491t.244-7.983a32.371,32.371,0,0,0-3.2,3.394q-1.587,1.929-3.442,4.028a1.23,1.23,0,0,1-2.1.244,2.629,2.629,0,0,1-1.123-3.223q.781-2.979,1.953-6.836.391-1.416-.2-1.562-.586-.049-1.2-.122a2.718,2.718,0,0,1-1.147-.415,2.984,2.984,0,0,1-.879-1,4.529,4.529,0,0,1-.391-.952q-.049-.342.659-.708a3.942,3.942,0,0,1,2-.293,6.125,6.125,0,0,1,3.052,1.343,3.372,3.372,0,0,1,1.416,2.905q-.049,1.782-.2,3.589,1.074-1.074,2.417-2.515t2.808-3.1q.439-6.885.757-9.814t.61-5.859q.1-1.562.1-2.344,0-.586.439-.635h.1a3.889,3.889,0,0,1,1.123.244,2.1,2.1,0,0,1,1.221,1.074,2.315,2.315,0,0,1,.2,1.611q-.635,5.469-.977,8.862T58.447-17.285ZM98.535-3.564a3.48,3.48,0,0,0,2.612-.317,9.53,9.53,0,0,0,2.515-2.393,24.455,24.455,0,0,0,2.734-4.614,27.219,27.219,0,0,0,1.563-3.687,1.689,1.689,0,0,0-.2-1.392,13.249,13.249,0,0,0-3.418.342,32.98,32.98,0,0,0-6.055,2.1Q96.582-10.4,95.532-7.935a20.973,20.973,0,0,0-1.44,4.907,1.366,1.366,0,0,1-1.05.488,1.945,1.945,0,0,1-1.172-.415,2.177,2.177,0,0,1-.781-1.025,1.847,1.847,0,0,1,.073-1.343q.879-2.148,1.27-3.271a27.359,27.359,0,0,1,1.221-2.832,21.227,21.227,0,0,0-2.1,1.416,1.572,1.572,0,0,1-1.66.342,2.475,2.475,0,0,1-.879-1,5.576,5.576,0,0,1-.391-1q-.049-.342.537-.879a15.846,15.846,0,0,1,2.783-1.685q2.2-1.147,3.516-1.685,1.27-2.539,1.929-4.077t2.026-4.614a1.1,1.1,0,0,1,.9-.415,2.752,2.752,0,0,1,1.123.342,2.841,2.841,0,0,1,.952.757,1.219,1.219,0,0,1,.2,1.074,2.71,2.71,0,0,1-.439,1.025q-.488.928-1.2,2.222t-1.294,2.319a36.245,36.245,0,0,1,4.59-1.343,11.287,11.287,0,0,1,3.857-.073,3.014,3.014,0,0,1,1.855.781,4.13,4.13,0,0,1,1.074,1.611,3.667,3.667,0,0,1,.049,2.148,23.044,23.044,0,0,1-2.075,5.444,24.6,24.6,0,0,1-3.394,5.1,11.211,11.211,0,0,1-2.783,2.539,3.866,3.866,0,0,1-1.123.781,1.666,1.666,0,0,1-1.367,0A3.733,3.733,0,0,1,99-1.66,3.383,3.383,0,0,1,98.535-3.564Zm17.334-16.064q4.15,2.734,7.471,4.956a24.047,24.047,0,0,1,4.15,3.2,1.084,1.084,0,0,1,.439.635.929.929,0,0,1-.366.854,1.312,1.312,0,0,1-1.245.317q-2.246-1.318-4.663-2.808t-6.519-4.37a3.384,3.384,0,0,1-1.05-1,2.7,2.7,0,0,1-.513-1.392q-.049-.732.22-.952a.935.935,0,0,1,.879-.024A4.787,4.787,0,0,1,115.869-19.629Zm4.053-7.324a14.786,14.786,0,0,0,1.538,3.931q1.1,1.978,2.075,2.124a1.5,1.5,0,0,1,.781.464,1.549,1.549,0,0,1,.415.708,1.038,1.038,0,0,1-.342.83,1.456,1.456,0,0,1-1.025.537,1.459,1.459,0,0,1-1.05-.293q-.928-.781-1.733-1.489a7.526,7.526,0,0,1-1.514-1.953,19.91,19.91,0,0,1-1.343-2.979q-.635-1.733-1.416-3.394,0-1.025.488-1.123a2.517,2.517,0,0,1,1.318.22,2.533,2.533,0,0,1,1.27,1A3.444,3.444,0,0,1,119.922-26.953Zm3.906-2.93q.2-.586,1.27-.586h.2a1.875,1.875,0,0,1,1.709.83,6.244,6.244,0,0,1,.684,2.026,16.559,16.559,0,0,0,.513,2.1,6.814,6.814,0,0,1,.317,1.831,1.166,1.166,0,0,1-1.147.22,2.1,2.1,0,0,1-1.294-1.025,13.364,13.364,0,0,1-1.147-2.637A23.472,23.472,0,0,0,123.828-29.883Zm30.908.635q1.123.1,1.318.415t.513.928q.317.61-.366,1.538a14.919,14.919,0,0,0-2.49,1.831q-1.563,1.343-4.834,4.663a3.1,3.1,0,0,1,.952,1.1,9.926,9.926,0,0,1,0,3.125q-.22,2.612-.732,6.616t-.757,6.665a8.442,8.442,0,0,0,.244,3.784q.391,1.563-.635,2.026a1.791,1.791,0,0,1-2.051-.464,9.4,9.4,0,0,1-.732-2.393,22.025,22.025,0,0,1,.146-4.834q.732-6.543,1.05-9.424t.464-3.809q-2.734,2.539-4.663,4.565a47.78,47.78,0,0,0-3.3,3.809q-1.367,1.782-1.9,2.368a4.039,4.039,0,0,0-.61.83,6.009,6.009,0,0,0-.366,1.27q0,1.27-1.318,1.27a1.862,1.862,0,0,1-1.611-.977,2.763,2.763,0,0,1,.024-2.075,17.943,17.943,0,0,1,2.686-4.175q2.271-2.93,5.151-5.981t5.811-6.055q2.93-3,4.785-4.565A11.22,11.22,0,0,1,154.736-29.248Zm30.713.928q-2.734,5.42-4.687,9.4T177.1-11.548q-1.709,3.394-3.271,6.958a31.98,31.98,0,0,0-2.051,5.859q0,.537-.024,1.245a1.074,1.074,0,0,1-.61,1,2.154,2.154,0,0,1-1.489.073,1.646,1.646,0,0,1-1.221-1,3.753,3.753,0,0,1-.024-2.148q.439-1.318.928-2.759t1.9-4.492q1.416-3.052,3.784-7.959T178.638-22a37.6,37.6,0,0,0,2-4.3q.757-1.978,1.1-3.1a1.141,1.141,0,0,1,.732-.977,1.815,1.815,0,0,1,.439-.049,2.048,2.048,0,0,1,.83.2,3.087,3.087,0,0,1,1.05.684A3.5,3.5,0,0,1,185.449-28.32Zm35.742,6.738a14.2,14.2,0,0,0-3.1.635q-2.271.635-5.518,1.9a39.482,39.482,0,0,0-4.956,2.246,18.976,18.976,0,0,0-.928,4.785,14.478,14.478,0,0,0,.244,3.711,10.781,10.781,0,0,0,.781,2.441,2.651,2.651,0,0,0,2.441,1.465,8.335,8.335,0,0,0,2.344-.342q1.172-.342,4.736-1.685t4.834-1.831a1.081,1.081,0,0,1,1.514.293,2.424,2.424,0,0,1,.488,1.221q.1.732-1.025,1.123-2.93,1.416-5.42,2.368a45.415,45.415,0,0,1-4.736,1.538,7.885,7.885,0,0,1-3.638-.171,7.6,7.6,0,0,1-3-1.538,6.093,6.093,0,0,1-1.66-2.661,17.807,17.807,0,0,1-.684-4.468,26.32,26.32,0,0,1,.146-4.932,16.38,16.38,0,0,0-4.785,2.686,3.519,3.519,0,0,1-1.025.684,1.045,1.045,0,0,1-1.147-.1,2.47,2.47,0,0,1-.781-1.025,5.335,5.335,0,0,1-.366-1.27,32.453,32.453,0,0,1,4.663-2.881q2.417-1.221,4.419-2.148.439-1.367.854-2.637t1.147-3.394q.732-2.124.977-2.612a2.73,2.73,0,0,1,1.025-.244,1.815,1.815,0,0,1,.439.049,1.559,1.559,0,0,1,.9.806,3.328,3.328,0,0,1,.122,1.929q-.879,2.1-1.855,4.541,1.416-.439,3.784-1.221t4.98-1.538a26.47,26.47,0,0,1,4.468-.952,2.775,2.775,0,0,1,3.125,2.2,7.094,7.094,0,0,1-.928,2.808,17.2,17.2,0,0,1-2.979,3.833,37.137,37.137,0,0,1-3.955,3.564,7.565,7.565,0,0,1-3.076,1.611,1.392,1.392,0,0,1-.928.073,1.114,1.114,0,0,1-.732-.562,3.186,3.186,0,0,1-.342-.928,2.459,2.459,0,0,1,.977-.806,14.745,14.745,0,0,0,2.441-1.9,30.8,30.8,0,0,0,3.247-3.3A30.612,30.612,0,0,0,221.191-21.582Zm42.09,5.908q-5.273,2.93-9.3,5.444a57.867,57.867,0,0,0-6.787,4.858q-2.759,2.344-5.444,4.834a2.589,2.589,0,0,1-1.587.781,1.869,1.869,0,0,1-1.587-.586,2.393,2.393,0,0,1-.854-.977,1.22,1.22,0,0,1,.049-1.245,2.825,2.825,0,0,1,.9-.952q3.418-2.539,7.056-5.151t7.178-4.663a55.812,55.812,0,0,1,6.152-3.149,32.027,32.027,0,0,1,3.931-1.44.977.977,0,0,1,1,.244.845.845,0,0,1,.122.977A2.473,2.473,0,0,1,263.281-15.674Zm-27.148-9.863q2.2.879,3.271,1.44a48.73,48.73,0,0,1,4.395,2.954,2.606,2.606,0,0,1,.757,2.271q-.269,1-.684.9a3.346,3.346,0,0,1-.854-.342,36,36,0,0,0-3.369-2.1,20.671,20.671,0,0,0-2.588-1.123,2.514,2.514,0,0,1-1.929-1.44,4.283,4.283,0,0,1-.488-1.562,1.478,1.478,0,0,1,.317-.806q.146-.244.684-.244A2.484,2.484,0,0,1,236.133-25.537Zm46.973-4.639q-.244,2.246-.659,4.785t-.757,5.054q-.342,2.515-.537,3.735a7.92,7.92,0,0,0,2,.293q2.832-.049,5.322-.2t4.688-.1q1.416.391,1.489,1a6.167,6.167,0,0,1-.073,1.587,27.3,27.3,0,0,1-4.59.635q-2.832.2-4.565.317t-2.417.22a5.3,5.3,0,0,1-2.148-.391,13.976,13.976,0,0,0-.708,3.687q-.171,2.222-.244,4.932a56.62,56.62,0,0,0,.146,5.688,37.761,37.761,0,0,0,.659,5.029q-1.9.391-2.588-.2a3,3,0,0,1-.83-1.782q-.2-1.2-.366-4.541a81.964,81.964,0,0,1,.391-10.059q.562-6.714,1.294-11.5t.977-6.4a29.633,29.633,0,0,0,.293-3.711q.1-.928.732-.928a2.963,2.963,0,0,1,1.611.854A2.127,2.127,0,0,1,283.105-30.176ZM320.85-20.8a29.962,29.962,0,0,1-2.173,6.25,30.849,30.849,0,0,1-3.369,5.542A17.253,17.253,0,0,1,310.6-4.785a14.132,14.132,0,0,1-2.686,1.27,2.653,2.653,0,0,1-1.66.049,5.111,5.111,0,0,1-1.587-.952,5.307,5.307,0,0,1-1.392-1.831,6.676,6.676,0,0,1-.439-2.783,13.7,13.7,0,0,1,1.05-4.224,14.143,14.143,0,0,1,3.174-4.834,19.891,19.891,0,0,1,4.492-3.516,24.649,24.649,0,0,1,6.372-2.222,2.658,2.658,0,0,1,1.318-.391h.293a11.1,11.1,0,0,1,1.245.293q.464.146,1,.342a7.721,7.721,0,0,1,2.441.952,12.008,12.008,0,0,1,2.295,1.929,7.876,7.876,0,0,1,1.855,3.955,15.907,15.907,0,0,1,.024,6.03,31.894,31.894,0,0,1-1.2,5.127A21.719,21.719,0,0,1,325.586-2.1a4.9,4.9,0,0,1-.562.879,1.259,1.259,0,0,1-.708.342,1.749,1.749,0,0,1-1.1-.244,2.441,2.441,0,0,1-1-.781,2.569,2.569,0,0,1-.391-.977,1.053,1.053,0,0,1,.244-.928,10.309,10.309,0,0,0,1.1-1.343,15.376,15.376,0,0,0,1.1-2.856,25.976,25.976,0,0,0,1.025-4.541,14.269,14.269,0,0,0,.1-3.662,8.122,8.122,0,0,0-.464-2.222,3.01,3.01,0,0,0-.952-1.245,4.756,4.756,0,0,0-1.489-.757A9.327,9.327,0,0,0,320.85-20.8ZM305.713-6.592a3.3,3.3,0,0,0,2.783-.635,20.046,20.046,0,0,0,4.2-4.028,21.818,21.818,0,0,0,2.979-5.054,30.532,30.532,0,0,0,1.514-4.3,21.4,21.4,0,0,0-4.346,1.953,14.153,14.153,0,0,0-4.517,3.857,12.881,12.881,0,0,0-2.368,4.468A8.811,8.811,0,0,0,305.713-6.592Z" transform="matrix(0.996, -0.087, 0.087, 0.996, 928.835, 241.755)" fill="#252525"/><path d="M38.75-45.469q-.7.859-5,5.781t-11.211,13.4q-6.914,8.477-9.1,11.641a44.8,44.8,0,0,0-2.812,4.414,10.932,10.932,0,0,0-.547,1.563,9.888,9.888,0,0,0-.391,1.328,2.886,2.886,0,0,1-3.437.859L5.7-6.641q-2.578-2.031-.937-4.57t4.492-6.328Q12.109-21.328,20.9-31.875T34.531-48.594q2.109-2.344,4.453-5.469a3.237,3.237,0,0,1,1.484-1.719,1.55,1.55,0,0,1,.7-.156,2.078,2.078,0,0,1,1.25.469,2.96,2.96,0,0,1,1.523,1.875,3.179,3.179,0,0,1-.352,2.5,7.784,7.784,0,0,1-1.25,1.367,1.3,1.3,0,0,0-.469.977q5.859,5.391,12.344,10.625,1.484,1.172,2.891,2.344,5.078,4.062,10.391,8.125,6.8,5.156,8.359,6.016a9.321,9.321,0,0,1,1.953,2.109,2.7,2.7,0,0,1-.234,3.2,2.394,2.394,0,0,1-3.125-.312q-2.5-2.031-5.273-4.336t-7.227-5.664q-4.141-3.281-8.828-6.875l-.469-.312q-4.844-3.828-8.164-6.641T38.75-45.469Zm14.844,20A2.307,2.307,0,0,1,50.469-24.3a29.552,29.552,0,0,0-6.133,0A51.781,51.781,0,0,0,36.953-23.2q-1.641.391-3.047.781-1.484.469-2.734.938A4.119,4.119,0,0,1,25.938-23.2q-1.406-2.344,1.406-3.2,9.063-1.406,18.047-2.656l2.656-.312a7.361,7.361,0,0,1,2.617,0A2.717,2.717,0,0,1,52.7-27.891,8.911,8.911,0,0,1,53.594-25.469ZM33.516,5.391a2.516,2.516,0,0,1-3.672.391A16.463,16.463,0,0,1,27.188.664a34.964,34.964,0,0,1-1.836-7.812q-.508-4.18-.82-6.211a3.074,3.074,0,0,1,.547-1.523q.469-.664,2.344-.273t2.148,1.25a4.053,4.053,0,0,1,.2,1.641,61.993,61.993,0,0,1,12.109-3.75,47.389,47.389,0,0,1,10.859-1.172,19.839,19.839,0,0,1,2.383.547,2.4,2.4,0,0,1,1.758,1.523,4.458,4.458,0,0,1,.234,2.148,22.62,22.62,0,0,1-1.953,5.391Q53.75-4.766,52.891-3.125a5.46,5.46,0,0,1,1.328-.156,4.78,4.78,0,0,1,1.875.547q1.172.547,1.25,3.2-2.266.7-3.984,1.25Q47.5,3.359,38.984,5.625a3.613,3.613,0,0,1-3.594-1.406,10.574,10.574,0,0,1-.7-2.461Q34.609.938,36.016.625,41.875-.547,46.875-1.953A15.637,15.637,0,0,0,49.922-7.07a21.456,21.456,0,0,0,1.719-5.352,30.213,30.213,0,0,0-5,.352,42.413,42.413,0,0,0-7.3,1.758q-4.1,1.328-6.836,2.422a2.071,2.071,0,0,1-2.734-.625A26.153,26.153,0,0,0,31.289-.352Q32.5,2.578,32.773,3.2A21.993,21.993,0,0,1,33.516,5.391Zm86.172-15.859Q112.5-3.047,110.859-1.8a8.632,8.632,0,0,1-1.641-.7,2.267,2.267,0,0,1-1.133-1.406,2.075,2.075,0,0,1,.2-1.719,4.823,4.823,0,0,1,1.328-1.406q6.641-6.25,12.383-11.953t7.07-7.344q-1.016-.781-1.953-1.562a17.047,17.047,0,0,1-1.25-1.406l-.391-.547a4.487,4.487,0,0,1-.586-1.836,1.951,1.951,0,0,1,.664-1.758,1.634,1.634,0,0,1,1.836-.469q.9.391,1.758.859a8.975,8.975,0,0,0,1.25,1.172,22.943,22.943,0,0,0,2.188,1.484,33.24,33.24,0,0,0,5.7-5.469l.938-1.094a54.98,54.98,0,0,0,3.75-5.781,31.723,31.723,0,0,0-11.328,1.953,25.629,25.629,0,0,0-6.953,3.555,19.694,19.694,0,0,1-4.531,2.734q-1.641.586-2.3.078a9.262,9.262,0,0,1-1.289-1.211,11.08,11.08,0,0,1-.586-1.445,1.831,1.831,0,0,1,.156-1.562,3.174,3.174,0,0,1,1.055-1.133Q121.8-44.219,125-47.031a27.507,27.507,0,0,0,4.375-4.531,1.9,1.9,0,0,1,3.2-.078,3.583,3.583,0,0,1,1.523,1.523,3.164,3.164,0,0,1,.313,2.07,5.5,5.5,0,0,1-.664,1.875q1.953-.234,4.766-.625t6.406-1.172a3.593,3.593,0,0,1,4.3,1.563,3.885,3.885,0,0,1,.469,3.359,4.329,4.329,0,0,1-.625,1.328,57.685,57.685,0,0,1-4.492,5.82q-2.617,3.008-4.687,5.43a24.512,24.512,0,0,0-2.617,3.438,35.107,35.107,0,0,0,5.547,3.867q4.609,2.852,8.4,5.234t5.273,3.164a2.69,2.69,0,0,1,1.406,1.328,2.273,2.273,0,0,1-.156,3.281,2.075,2.075,0,0,1-2.969,0q-2.734-1.641-7.031-4.453t-8.672-5.508q-4.375-2.7-5.625-3.477-4.219,3.906-10.234,10a9.2,9.2,0,0,1,2.734,1.953q4.844-1.328,8.867-2.07a49.076,49.076,0,0,1,7.93-.82,7.216,7.216,0,0,1,3.086.43,5.4,5.4,0,0,1,2.734,1.914,3.655,3.655,0,0,1,.664,2.969,67.3,67.3,0,0,1-1.992,8.047,51.4,51.4,0,0,1-2.07,5.547q.625,3.125-.664,3.633a23.419,23.419,0,0,1-3.4.977,40.075,40.075,0,0,0-7.93,1.367q-5.664,1.367-6.484.781t-1.758-1.289A17.681,17.681,0,0,1,122.7,5.82,24.322,24.322,0,0,1,121.25-.234q-.469-3.672-1.094-8.359A12.338,12.338,0,0,0,119.688-10.469Zm7.266,15.859a26.368,26.368,0,0,0,6.016-.273A40.657,40.657,0,0,0,140,3.516a38.977,38.977,0,0,0,2.148-6.445q.742-3.164,1.289-6.6a31.423,31.423,0,0,0-6.406.469,27,27,0,0,0-5.273,1.484q-2.3.938-3.281,1.445a3.547,3.547,0,0,1-2.617.039,23.34,23.34,0,0,0-.2,5.859A22.052,22.052,0,0,0,126.953,5.391ZM115-18.281q-.156.938-.312,1.836a1.339,1.339,0,0,1-1.094,1.133,5.852,5.852,0,0,1-2.656-.2A37.779,37.779,0,0,1,106.8-16.8q-.7-.313-1.406-.7a19.707,19.707,0,0,1-2.734-1.562q-.156,1.562-.312,3.281-.234,3.125-.547,7.109-.469,6.094-.781,14.3a4.146,4.146,0,0,1-.586,2.3,1.587,1.587,0,0,1-1.68.742,3.236,3.236,0,0,1-2.891-3.047q.7-7.656,1.328-14.3.234-2.266.469-4.375.313-4.063.547-7.344A49.811,49.811,0,0,0,94.141-15.7Q91.8-12.734,88.359-7.734L87.266-6.016A7.7,7.7,0,0,1,85-4.375,9.956,9.956,0,0,1,83.672-5l-.781-.312a2.321,2.321,0,0,1-1.172-2.031q3.437-4.844,8.047-11.211T97.5-30.234a7.269,7.269,0,0,0,2.266-2.422,21.861,21.861,0,0,1,.469-3.906q-3.281.859-6.523,1.836a51.277,51.277,0,0,0-5.9,2.148,3.66,3.66,0,0,1-3.984-1.25q-2.188-2.344,1.094-3.516,4.375-1.563,8.438-2.617t6.953-1.68a32.829,32.829,0,0,0,.469-4.766q.078-2.578-.078-5.312a3.5,3.5,0,0,1,0-1.8,1.474,1.474,0,0,1,1.406-1.094,3.544,3.544,0,0,1,2.422,1.094,3.769,3.769,0,0,1,1.094,3.2q-.156,2.969-.156,7.188,2.344-.547,5.078-1.094a4.776,4.776,0,0,1,2.461-.312,2.154,2.154,0,0,1,1.875,1.523,11.629,11.629,0,0,1,.664,2.773,13.714,13.714,0,0,0-2.109.313q-3.047.547-8.281,1.875-.937,6.172-1.25,9.219a34.379,34.379,0,0,0-.234,4.766q1.484,1.094,3.906,2.656A20.669,20.669,0,0,0,110-20.156,43.062,43.062,0,0,0,115-18.281Zm72.422,31.641a4.968,4.968,0,0,1-3.008-.625q-1.367-.781-.508-2.812,1.172-2.266,2.7-5.625t4.18-8.906q-2.422.938-4.141,1.641a29.723,29.723,0,0,0-3.828,1.953,2.417,2.417,0,0,1-1.836.391A3.651,3.651,0,0,1,179.531-1.8a4.988,4.988,0,0,1-.937-2.812,21.4,21.4,0,0,1,5.313-2.773q3.516-1.367,9.609-3.242,1.953-4.531,2.656-6.406-2.969.859-5.312,1.563a3.866,3.866,0,0,1-2.227.234q-.9-.234-1.445-1.641a4.742,4.742,0,0,1-.391-1.406,6.465,6.465,0,0,1-.156-1.406q1.719-.469,4.3-1.016,2.734-.625,7.031-1.641.547-1.719.859-2.891.312-1.328.469-1.8a44.594,44.594,0,0,0-8.516,1.563,4.474,4.474,0,0,1-2.461.43,2.288,2.288,0,0,1-1.484-1.406,5.524,5.524,0,0,1-.625-2.07q-.039-.859,1.016-1.211a51.732,51.732,0,0,1,5.625-1.094q4.57-.742,7.07-.977a10.825,10.825,0,0,0,.313-3.008,2.98,2.98,0,0,1,.625-2.148,4.079,4.079,0,0,1,2.539.2,2.817,2.817,0,0,1,1.719,1.68,6.768,6.768,0,0,1,.43,2.344q1.406,0,3.281-.078a7.966,7.966,0,0,1,2.656.234l.313.156a1.877,1.877,0,0,1,1.445,1.758,2.8,2.8,0,0,1-.664,2.383h-3.516a37.574,37.574,0,0,0-4.062.313q-.547,2.422-1.25,4.609a15.98,15.98,0,0,1,2.109-.43q.938-.117,1.914-.2a2.652,2.652,0,0,1,1.523.234,3.61,3.61,0,0,1,1.094,1.094,1.455,1.455,0,0,1,.313,1.563,2.385,2.385,0,0,1-1.484,1.328,41.667,41.667,0,0,0-4.219.82,12.522,12.522,0,0,1-2.734.43q-1.875,3.906-2.969,6.563,1.25-.469,5.586-1.484t11.445-2.5a2.6,2.6,0,0,1,3.359,1.8A2.382,2.382,0,0,1,219.1-12.3a3.226,3.226,0,0,1-1.836.977q-5.625.938-8.477,1.523a32.777,32.777,0,0,0-5.586,1.68q4.3,4.844,8.477,9.648a62.811,62.811,0,0,0,7.773,7.7,4.024,4.024,0,0,1,.078,2.344,2.908,2.908,0,0,1-2.5,1.172,6.286,6.286,0,0,1-2.5-1.25q-4.219-4.453-7.891-8.789t-5.547-6.68a20.546,20.546,0,0,1-2.187-3.047l-1.875.391q-3.047,6.25-4.8,10.234T189.258,9.8Q188.047,12.031,187.422,13.359ZM178.2-41.875q3.828-1.094,5.82-1.68t15.742-3.32q-.625-5.625-1.25-11.719a6.749,6.749,0,0,1,2.109-.391q2.656,0,3.281,3.2.234,3.75.391,8.594,1.953-.312,7.773-.625a72.747,72.747,0,0,1,13.4.7,13.06,13.06,0,0,1,3.125,1.25,5.524,5.524,0,0,1,2.188,2.188l.234.469a5.07,5.07,0,0,1-.352,3.086,15.74,15.74,0,0,1-1.68,2.93,37.642,37.642,0,0,1-5.117,5.664,14.933,14.933,0,0,1-3.594,2.578,3.6,3.6,0,0,1-2.5-.039q-1.367-.469-1.367-1.406a61.516,61.516,0,0,0,5.391-6.25q1.406-1.8,2.266-3.125a12.121,12.121,0,0,0,1.172-2.344q-1.641-1.094-8.633-1.523a55.038,55.038,0,0,0-14.219,1.016q-7.227,1.445-12.578,2.891a29.238,29.238,0,0,0-6.914,2.461,7.485,7.485,0,0,1-4.766.7,50.153,50.153,0,0,0,.2,5.9,13.006,13.006,0,0,0,.859,4.18l1.211,2.422a2.225,2.225,0,0,1-2.344,1.484,3.517,3.517,0,0,1-2.461-1.523,10.684,10.684,0,0,1-1.445-3.711,29.532,29.532,0,0,1-.625-5.742q-.078-3.32-.117-7.852t.2-7.578q.469-3.984,3.594-1.641a2.735,2.735,0,0,1,1.406,1.211,2.509,2.509,0,0,1,.43,1.68q-.117.781-.273,1.484Q178.359-43.906,178.2-41.875Zm112.734,7.266a34.736,34.736,0,0,1,.469-4.141,30.446,30.446,0,0,0-3.477,1.133,14.574,14.574,0,0,1-2.773.82q-2.266-1.016-2.578-4.141a37.879,37.879,0,0,1,4.727-1.641,24.193,24.193,0,0,0,4.1-1.484q.156-2.5.078-4.922a10.429,10.429,0,0,0-3.516.82q-1.8.742-3.594,1.523-2.344,1.406-4.141-.937-1.8-2.578,1.328-3.75,4.3-1.25,6.8-1.992a11.526,11.526,0,0,0,2.969-1.133,4.315,4.315,0,0,0,.273-2.7,3.65,3.65,0,0,1,1.211-3.164,4.765,4.765,0,0,1,4.063,4.609q3.281-.547,5.313-.937a3.181,3.181,0,0,1,3.906,1.328,4.616,4.616,0,0,1,.313,2.813,3.456,3.456,0,0,1-2.266.938,59.544,59.544,0,0,0-7.344,1.328q-.234,2.734-.234,5.156a21.872,21.872,0,0,0,3.594-.312l3.281-.547a2.891,2.891,0,0,1,1.953.234,2.346,2.346,0,0,1,1.328,1.523,8.085,8.085,0,0,1,.313,2.3q-5.625.859-10.7,1.875a19.893,19.893,0,0,0-.391,4.688l.547-.078q3.906-.859,7.578-1.406,3.984-.625,10.625-1.8a2.758,2.758,0,0,1,3.281,1.953q1.484,2.734-1.8,2.891a57.923,57.923,0,0,0-9.18,1.094q-3.477.781-9.141,1.641a58.826,58.826,0,0,0-10.586,2.578q-4.219,1.484-8.281,3.125-.7.234-1.406.547-2.734-.234-3.516-3.984a71.287,71.287,0,0,1,7.5-3.047Q286.016-33.359,290.938-34.609Zm-.781,11.484q3.437-1.172,5.625-1.719t8.281-1.953a4.368,4.368,0,0,1,3.242.664,3.294,3.294,0,0,1,1.6,2.773q-.547,6.328-1.172,11.563t-1.25,9.453Q306.406.313,304.141.625a5.512,5.512,0,0,1-2.734-.547Q295,2.031,289.609,3.516a3.565,3.565,0,0,1-3.75-1.406,12.618,12.618,0,0,1-1.328-4.766,85.28,85.28,0,0,1-.469-10.508q0-7.07.313-11.758a2.792,2.792,0,0,1,2.539-.859Q288.359-25.547,290.156-23.125ZM302.344-7.266Q295.234-5.7,288.828-4.219A2.672,2.672,0,0,0,289.1-2.7a11.077,11.077,0,0,1,.586,1.289,19.311,19.311,0,0,0,3.672-.625q2.656-.625,5.273-1.133a8.523,8.523,0,0,0,3.2-1.016,1.668,1.668,0,0,0,.508-1.484A8.128,8.128,0,0,1,302.344-7.266Zm1.8-15.234q-3.437.7-6.016,1.367t-4.609,1.289a27.256,27.256,0,0,1-4.3.938q-.234,1.8-.391,3.438,8.672-1.8,15.156-3.594A13.235,13.235,0,0,0,304.141-22.5Zm-.937,8.047q-3.75.469-7.7,1.367t-7.3,1.836q.156,1.25.313,3.438,3.672-1.172,6.68-1.875t7.617-1.406Q303.125-13.2,303.2-14.453Zm13.281,26.406q-.547,2.656-2.812,1.641-2.578-1.563-4.609-3.008a34.13,34.13,0,0,0-4.531-2.7,17.646,17.646,0,0,1-2.578-2.656,2.181,2.181,0,0,1,.156-2.148,2.073,2.073,0,0,1,1.641-.859,3.923,3.923,0,0,1,2.031.508q3.828,2.734,6.523,4.57a17.1,17.1,0,0,1,3.789,3.242A3.606,3.606,0,0,1,316.484,11.953Zm-31.172,2.266q2.891-4.687,6.094-8.984a2.193,2.193,0,0,1,1.8-.625,6.344,6.344,0,0,1,1.953.781q1.875,1.328.547,3.438-2.969,3.594-6.094,7.031a2.269,2.269,0,0,1-2.539.273A4.478,4.478,0,0,1,285.313,14.219Zm-17.5-36.8a23.726,23.726,0,0,0-2.3,1.406q-1.133.781-2.383,1.563-.156,1.875-.234,3.594-1.172,17.422-1.25,18.984a32.968,32.968,0,0,0,.391,5.313,2.135,2.135,0,0,1-.547,1.367,2.263,2.263,0,0,1-1.328.82,3.182,3.182,0,0,1-2.5-1.172,9.126,9.126,0,0,1-.781-3.672q.391-8.2,1.016-18.828l.078-.7q-.078-1.8-.234-3.516a28.665,28.665,0,0,0-3.2,1.25q-1.719.781-6.8,2.422a3.337,3.337,0,0,1-4.375-1.8,6.842,6.842,0,0,1-.625-1.6,2.1,2.1,0,0,1,.2-1.641A3.983,3.983,0,0,1,243.984-20q4.3-4.531,6.719-6.8a36.611,36.611,0,0,0,3.594-3.75q-3.516-1.562-7.5-3.2a4.5,4.5,0,0,1-1.875-2.656,2.893,2.893,0,0,1,1.016-3.359q4.844-4.3,8.516-7.93t6.094-6.367a11.41,11.41,0,0,1,2.344.859q2.578,1.8,1.641,3.594-4.063,3.516-6.836,6.094t-4.3,4.063a16.468,16.468,0,0,0-1.992,2.188,5.84,5.84,0,0,0,2.813,1.758,15.248,15.248,0,0,0,3.984.977q3.437-3.359,6.563-5.937a7.949,7.949,0,0,1,1.445-1.133,1.457,1.457,0,0,1,1.758.2,5.227,5.227,0,0,1,2.188,2.969q.313.938-.039,1.289a4.459,4.459,0,0,1-1.133.742,31.085,31.085,0,0,0-4.414,3.4,21.183,21.183,0,0,0-3.008,3.086,5.513,5.513,0,0,1-1.953,1.68,18.028,18.028,0,0,0-3.359,2.7q-2.031,1.953-5,5.469,3.047-.937,3.672-1.211t2.539-.977q1.914-.7,3.867-1.6T265-25.7q.234-1.172.547-2.5.547-2.188,2.422-1.25a20.643,20.643,0,0,1,2.891,2.813q1.484,1.719,2.891,3.359l.625.625q1.094,1.172,1.953,2.031a2.038,2.038,0,0,1,.234,2.813,2.128,2.128,0,0,1-2.969.391,11.451,11.451,0,0,1-2.656-1.953l-.859-.859Q269.062-21.25,267.813-22.578ZM254.375-6.406q-2.578,3.359-3.867,5a100.345,100.345,0,0,0-5.43,8.906,3.229,3.229,0,0,1-2.383-.7,3.5,3.5,0,0,1-1.133-2.109A17.344,17.344,0,0,1,243.2.391a88.375,88.375,0,0,1,5.547-8.281l.313-.469a1.912,1.912,0,0,1,1.875-1.172h.625a3.569,3.569,0,0,1,1.875.938Q254.922-7.5,254.375-6.406Zm22.656-.781q-.156,1.641-.977,2.07t-3.164-.508a74.039,74.039,0,0,1-7.031-3.828,4.455,4.455,0,0,1-.43-3.008q.273-1.836,1.914-1.367A59.489,59.489,0,0,1,274.766-9.3,11,11,0,0,1,277.031-7.187Z" transform="matrix(0.996, -0.087, 0.087, 0.996, 985.57, 306.2)" fill="#252525"/></g></svg>