<svg xmlns="http://www.w3.org/2000/svg" xmlns:xlink="http://www.w3.org/1999/xlink" width="311.003" height="131.481" viewBox="0 0 311.003 131.481"><defs><clipPath id="a"><rect width="88" height="86" fill="none"/></clipPath></defs><g transform="translate(-34.758 -421.631)"><g transform="matrix(0.966, 0.259, -0.259, 0.966, 260.759, 421.631)"><g transform="translate(0 0)" clip-path="url(#a)"><path d="M49.406,3.514c.158.208-.025.029.185.185-.069.626,0,.6-.556.74v.185h.556V4.439l.556-.37V3.7l.556-.37c.275-.282.44-.67.741-.925V2.219c1,.281,1.331,1.386,2.408,1.665.114.448.2.407.371.74.208.158.029-.025.185.185h.185V4.254h.556a.737.737,0,0,1-.371.37c.111.369-.025.159.185.37v.185h.371V4.994l.741-.555-.185-.555c.188.143.182.227.371.37.195-.242.354-.183.556-.37.58-.538.874-1.123,1.667-1.48.158-.208-.025-.029.185-.185a1.825,1.825,0,0,0,.741.74v.37h.371a2.048,2.048,0,0,0,.556.925h.185v.37l1.112.925v.37l1.112.925v.37l1.112.925v.37l.926.74v.37h.185l.371.555.371.185v.37l.741.555v.37l.371.185v.185l.371.185v.37l.556.37v.37l.556.37v.37l.371.185v.37l.371.185.185.555h.185l.185.74.371.185.185.74h.185l.185.74h.185v.555H70.9v.37h.185v.555h.185v.37h.185l.556,2.034,4.446.185v.185l.556-.185v.185h.926v.185l1.853.37c.111-.369-.025-.16.185-.37l.185.37h-.185v.185c.9.1,1.316.479,2.223.555l-.185-.555.556-.37c.158.208-.025.029.185.185-.2.381-.31.326-.371.925l.741.185.185-.37h.371v.37h-.371v.185a3.96,3.96,0,0,1,1.482.555h.185v-.555h.185l.185.37h-.185v.37h.556c.141-.5.044-.421.556-.555v-.37h.371a1.8,1.8,0,0,0-.185.74,1.807,1.807,0,0,1-.741.185c.392.46,1.18.533,1.853.74v.185l.741-.185c-.21.207,0,.079-.371.185v.185H88.5v.185l.741.185v.185h.556v.185l.741.185v.185h.556V27h.371v.185h.556v.185h.371v.185H93.5c-.532.4.713.67,1.112.74v-.37h.371c.185-.689.386-.5.741-.925l-2.779-.925v.37h-.185l.185-.555-6.855-2.774v.37c-.547-.208-.206.029-.185-.555h-.556v-.185l-.556-.185V19.234h-.185v-.37h-.185V18.68h.185V17.385l-.371.185c.177-.332.264-.288.371-.74-.233-.154-.107-.252-.371-.37v.185h-.185v-.37h.371V14.8l-.556.185a1.6,1.6,0,0,1,.185-.74h.185v-.185h-.185c0-.466.189-.986.185-1.665a8.524,8.524,0,0,0-1.667.185c-.141.5-.044.421-.556.555v-.555l-1.482.185v.185h-.185l-.926-.37-.185.555h-.185v-.555h.371v-.74l-.371.185c.158-.209-.025-.029.185-.185v-.925l-.371.185.185-.925h-.185l-.185-1.665c-.208-.158-.029.025-.185-.185l-4.261.925v.185h-.371v.185l-.556-.185v.185h-.556V9.8h-.926v.185h-.556v.185h-.741v.185h-.741v.185l-1.3.185v.185h-.556L66.08,8.323l-.926-.74v-.37h-.185L64.6,6.658l-.556-.37v-.37l-.926-.74v-.37L62,3.884v-.37l-.926-.74V2.589L60.707,2.4v-.37l-.556-.37V1.48l-.371-.185V.925C59.546.6,59.113.456,58.855,0c-.668.184-1.01.713-1.482,1.11v.185H57l-.185.37a6.463,6.463,0,0,1-1.667,1.295c-.158.208.025.029-.185.185l-.926-1.11h-.371l-1.3-1.48H52L51.629,0h-.371l-.926,1.295-.371.185v.37l-.371.185v.185l-.741.555-.185,1.11H48.48v.555c.429-.25.567-.628.926-.925M94.055,27.372c.208.21.079,0,.185.37h-.185Zm-7.04-3.144c.208.21.079,0,.185.37h-.185Zm-5.373-1.48c-.208.158-.029-.025-.185.185h-.185l.185-.555a1.711,1.711,0,0,1-.371-.37l.741.37-.185.37m3.335.74v-.37h.371l-.185.555-.741.185v-.37Zm-.926-5.733c.37.111.16-.025.371.185h-.185c-.158.208.025.029-.185.185ZM73.861,10.172h.926V9.987h.741l.185-.37,2.594-.185a5.4,5.4,0,0,0-.185,1.295h.371l-.185.925h.185v.74h.371v.185c-.225,0-.31.515-.185.74h.185c.111.369-.025.159.185.37V13.5h.185v.185h1.112l-.185-.555h.185v.37h.926c.111-.369-.025-.16.185-.37v.37a3.108,3.108,0,0,0,1.667-.555.737.737,0,0,0,.371.37l.185,4.994h.371a18.5,18.5,0,0,0,0,4.069l-.556-.185v.37h-.185v-.185s-.7.01-.371-.185h.371v-.185l-.926-.185v-.185h-.556v-.185h-.556v-.185h-.741a19.725,19.725,0,0,0-7.411-1.11,4.318,4.318,0,0,0-.371-1.48h-.185v-.555h-.185v-.37h-.185V17.2h-.185l-.371-1.11h-.185l-.185-.74-.371-.185-.185-.74-.371-.185v-.37l-.371-.185v-.37l-.556-.37v-.37l-.371-.185v-.37c-.078-.117-.247-.135-.371-.37l5.187-1.48M62.189,5.733h.371V5.178h.185v.555H62.56v.185h-.371Z" transform="translate(-11.057 0)" fill="#ce1d05" fill-rule="evenodd"/><path d="M48.371,4.985V4.8H48c.21.207,0,.079.371.185" transform="translate(-10.947 -1.101)" fill="#ce1d05" fill-rule="evenodd"/><path d="M47.641,5.89c.015.27-.225.256-.371.37a1,1,0,0,0,.741.37c-.12.438-.052.347-.371.555v.37c.208-.158.029.025.185-.185a1.692,1.692,0,0,0,.741-1.11c-.069,0-1.014.039-.741-.185h.185l-.185-.555c-.37.111-.159-.025-.371.185H47.27c-.15.3.242.173.371.185" transform="translate(-10.773 -1.266)" fill="#ce1d05" fill-rule="evenodd"/><path d="M44.64,9.144H45.2v.185a2.353,2.353,0,0,0,.926-.185l.185-.555h-.371v.37h-.371c-.066-.445-.2-.9.185-1.295V7.48a2.681,2.681,0,0,1,.926.555h-.371V8.4l.556-.185V7.11h.185V6.925c-.02-.059-.608-.307-.556-.555A.425.425,0,0,0,46.678,6l-.741.555V7.11c-.6.16-.655.474-1.112.74-.116.643-.215.511,0,1.11-.208.158-.029-.025-.185.185" transform="translate(-10.181 -1.376)" fill="#ce1d05" fill-rule="evenodd"/><path d="M54.312,10.969l-1.3-1.48c-.345-.257-.267.082-.556-.37h-.371l-.926,1.11h-.185v.37l-.741.555v.555c-.37.111-.16-.025-.371.185H49.68v.185h.926l.185-.37.926-.74V10.6H51.9c.256-.275.1-.239.556-.37l1.112.925.371.555h.371c.325.235.469.667.926.925.158.208-.025.029.185.185.367-.557.167-.082.556-.37l1.112-1.295c.509-.369.733-.21.926-.925h.371V9.86h.556a.737.737,0,0,1-.371.37l.926,1.11h.185v.37h.185l.371.555.556.37V13l.926.74v.37l.926.74v.37l.741.555v.37l.741.555v.37l.556.37v.37l.556.37v.37l.371.185v.37l.371.185.185.555h.185v.37h.185v.37h.185v.37h.185v.37h.185v.37h.185v.37h.185v.555a9.007,9.007,0,0,1,1.112,3.514l.371-.185h.185v.185h-.371v.74h.185a3.551,3.551,0,0,0,.185,1.295l3.335-.185V27.43c.37-.111.16.025.371-.185h.185V27.06c-.708.018-.773-.037-.926.555h-.185V27.06h-.371v.555l-.556.185c.111-.369-.025-.16.185-.37v-.185h-.926l-.185.37h-.741V27.8h-.185c.107-.2.33-.3.371-.37v-.37h.185l-.926-3.884h-.185v-.37h-.185v-.555h-.185v-.37h-.185v-.555h-.185l-.185-.74h-.185l-.185-.74-.371-.185-.185-.74-.371-.185v-.37L65.8,18v-.37l-.371-.185v-.37l-.741-.555v-.37l-.556-.37v-.37l-.741-.555v-.37l-.926-.74v-.37l-.926-.74v-.37l-1.112-.925-.185-.555h-.371c-.193-.717-.777-1.082-1.112-1.665H58.2V9.3c-.1.078-.294-.053-.185.185H58.2v.185h-.556l-.371.555h-.371l-1.3,1.48a1.98,1.98,0,0,1-.926-.555v-.185Z" transform="translate(-11.331 -2.092)" fill="#ce1d05" fill-rule="evenodd"/><path d="M45.12,10.32v.37h.185c-.111-.369.025-.16-.185-.37" transform="translate(-10.291 -2.367)" fill="#ce1d05" fill-rule="evenodd"/><path d="M30.556,13.2h-.185a2.459,2.459,0,0,1,.741-.555v-.74h1.3v.185a1.393,1.393,0,0,0,.371-.555c.208-.158.029.025.185-.185a2.756,2.756,0,0,0-1.853-.185V10.8h-.556v.37h.371v.185h-.185l.185.74c-.188-.143-.182-.227-.371-.37l-.185.555c.13.195.252-.068.185.185h-.185v.37h-.185a1.589,1.589,0,0,0-.185.925h.556Z" transform="translate(-6.842 -2.477)" fill="#ce1d05" fill-rule="evenodd"/><rect width="0.556" height="0.185" transform="translate(34.274 8.323)" fill="#ce1d05"/><path d="M44.531,12.075c-.12-.438-.052-.347-.371-.555v.74h.185c.158-.209-.025-.029.185-.185" transform="translate(-10.072 -2.643)" fill="#ce1d05" fill-rule="evenodd"/><path d="M35.246,11.76H34.32v.74l.926-.185Z" transform="translate(-7.827 -2.698)" fill="#ce1d05" fill-rule="evenodd"/><path d="M37.865,12.48v.555H37.68v.185c.761-.069.851-.365.185-.74" transform="translate(-8.594 -2.863)" fill="#ce1d05" fill-rule="evenodd"/><path d="M41.836,12.48h-.371c-.111.369.025.16-.185.37v.925h.185a8.444,8.444,0,0,1,.371-1.295" transform="translate(-9.415 -2.863)" fill="#ce1d05" fill-rule="evenodd"/><path d="M37.145,12.72V12.9c-.208.158-.029-.025-.185.185h.371c-.111-.369.025-.16-.185-.37" transform="translate(-8.429 -2.918)" fill="#ce1d05" fill-rule="evenodd"/><path d="M36.371,13.145V12.96H36c.21.207,0,.079.371.185" transform="translate(-8.211 -2.973)" fill="#ce1d05" fill-rule="evenodd"/><path d="M39.861,13.515v.37h.556v-.74l-.926-.185c-.12.438-.052.347-.371.555V13.7c.331.169.58-.128.741-.185" transform="translate(-8.922 -2.973)" fill="#ce1d05" fill-rule="evenodd"/><path d="M42.665,13.385V13.2H42.48v.555h.371c-.111-.369.025-.16-.185-.37" transform="translate(-9.688 -3.028)" fill="#ce1d05" fill-rule="evenodd"/><path d="M42.72,20.468h.185v.185h.185v-.185c.4-.27.475-.747.556-1.295H44.2a1.467,1.467,0,0,1,.371-.74h.185l.185-.555.371-.185v-.37l.371-.185v-.185l.556-.37v-.37l.741-.555v-.37l.741-.555v-.74h.371V13.81l-.556-.37c-.246.511-.6.711-.741,1.295h-.371l-.185.555-.741.555v.37l-.741.555v.37l-.371.185v.185l-.371.185v.37l-.371.185c-.34.5-.43.962-.926,1.295a1.5,1.5,0,0,1,.185.74H42.72Z" transform="translate(-9.743 -3.083)" fill="#ce1d05" fill-rule="evenodd"/><rect width="0.185" height="0.555" transform="translate(23.899 10.542)" fill="#ce1d05"/><path d="M39.621,14.955h.371V14.4a2.14,2.14,0,0,0-.926,1.11H38.88v.185c.535-.134.614-.2.741-.74" transform="translate(-8.867 -3.303)" fill="#ce1d05" fill-rule="evenodd"/><path d="M40.8,15.695h.185c.158.208-.025.029.185.185l.185-.555h.371c.114-.448.2-.407.371-.74-.208-.158-.029.025-.185-.185h-.556v.185h-.185v.555H40.8Z" transform="translate(-9.305 -3.303)" fill="#ce1d05" fill-rule="evenodd"/><path d="M29.945,15.25h.185v-.185l-.371-.185v.555h.185Z" transform="translate(-6.787 -3.413)" fill="#ce1d05" fill-rule="evenodd"/><path d="M30.72,14.88v.37h.185c-.111-.369.025-.16-.185-.37" transform="translate(-7.006 -3.413)" fill="#ce1d05" fill-rule="evenodd"/><path d="M28.985,17.32H30.1v-.74h.185v-.185H30.1c-.176-.452-.06-.115,0-.555h-.556v.185c-.394.324-.111.368-.741.555v.555c.208.158.029-.025.185.185" transform="translate(-6.568 -3.634)" fill="#ce1d05" fill-rule="evenodd"/><path d="M21.7,26.067a2.9,2.9,0,0,1,1.112.185v.37h.556c-.111-.369.025-.16-.185-.37v-.185l.556.185.185-.37h.371V25.7h.185l-.185.37h.556l.185-.555h.185c.259-.291-.342-.153-.371-.185v-.185l.556-.185v.185h.185c.174-.1.066-.332.371-.37v.185h.371V24.4h.741a2.235,2.235,0,0,1-.371.74h-.185l.185.37c-.449-.114-.408-.195-.741-.37-.158.208.025.029-.185.185l.185.37,1.667-.185.185-1.11s-.72-.026-.371-.185c.045-.257.175.076.185-.185l-2.408.185-.185.37-.556-.185s-.012.126-.371.185v.37c-.337-.3-.83-.076-1.112,0L23.549,17h1.112v.185a2.575,2.575,0,0,0,2.038-.555V16.45h-.741v-.185h-.185l.185.74L25.4,16.82v-.555h-.185v.185a6.624,6.624,0,0,0-2.408-.37l-.185,3.144h-.185v2.589h-.185V24.4c.009.045.252.059.185.37h-.185v.185h.185v.185l.371-.185.185.37c-.029.26-.026-.022-.185.185-.23.29,0-.041-.371,0V25.7c-.1-.013-.767.107-.556-.185h.185v-.185l-1.112.185c.143.188.228.182.371.37-.37-.111-.16.025-.371-.185h-.185v.74H20.4v.37a1.365,1.365,0,0,0,1.3-.74m2.779-1.295h.185v.74h-.185v-.185h-.185l.185-.555m-1.112.555.556-.185c.158.208-.025.029.185.185-.158.208.025.029-.185.185V25.7h-.556Z" transform="translate(-4.653 -3.689)" fill="#ce1d05" fill-rule="evenodd"/><path d="M35.651,20.7v-.185a3.881,3.881,0,0,0,.741-.555h.185v-.37h.371v.74h.185l.185-.555.371-.185v-.37h.185l-.185-.74.371-.185v-.37h.185l.371-.555h.371V17c.449-.114.408-.195.741-.37v-.37a1.811,1.811,0,0,0-.741-.185c-.08.248-.076.422-.185.185l-.556.185c-.022.622.008.677-.371.925v.185c-.405-.274-.425-.072-.926,0v.37h.741v.185l-.556.185c-.209.785-.425.625-.926.555a3.9,3.9,0,0,0,.185.74h-.185c-.23.29,0-.041-.371,0v.185a1.123,1.123,0,0,0-.556.925Zm2.779-4.069c.208.21.079,0,.185.37h-.185Z" transform="translate(-8.046 -3.689)" fill="#ce1d05" fill-rule="evenodd"/><path d="M92.16,16.32v.37h.185c-.111-.369.025-.16-.185-.37" transform="translate(-21.019 -3.744)" fill="#ce1d05" fill-rule="evenodd"/><path d="M37.2,18.85h.185c-.111-.369.025-.16-.185-.37Z" transform="translate(-8.484 -4.239)" fill="#ce1d05" fill-rule="evenodd"/><path d="M35.04,22.08v.37h.185c-.111-.369.025-.16-.185-.37" transform="translate(-7.992 -5.065)" fill="#ce1d05" fill-rule="evenodd"/><path d="M34.56,23.375v.37a1.4,1.4,0,0,0,.741-.185v-.185h.926V23.19h.185l-.185-.925c-.208.21-.079,0-.185.37h-.185V22.08h-.185v.74c-.645.1-.347.186-.926,0l-.185.37h.185v.185Z" transform="translate(-7.882 -5.065)" fill="#ce1d05" fill-rule="evenodd"/><path d="M42.261,22.635V22.08h-.185c-.12.438-.052.347-.371.555-.111.369.025.159-.185.37.21.207,0,.079.371.185.12-.438.052-.347.371-.555" transform="translate(-9.469 -5.065)" fill="#ce1d05" fill-rule="evenodd"/><path d="M41.04,24.13v.555h.185l.371-.74h.371V23.76h-.741c-.111.369.025.16-.185.37" transform="translate(-9.36 -5.45)" fill="#ce1d05" fill-rule="evenodd"/><path d="M36.185,24.61v-.185c.208-.158.029.025.185-.185H36c.111.369-.025.16.185.37" transform="translate(-8.211 -5.56)" fill="#ce1d05" fill-rule="evenodd"/><path d="M31.537,25.775c-.111.369.025.159-.185.37v-.37H30.24v.185h.185l-.185.37h.185a1.464,1.464,0,0,1,.371.74c-.208.21-.079,0-.185.37h.926c.047-.011.06-.238.371-.185v.185h.371l-.185-.74c.737-.2.9-.767,1.482-1.11l.185.37h-.185v.555l-.371-.185v.37h-.371c-.12.438-.052.347-.371.555v.185c.966-.237.58-.371,1.667-.185A3.994,3.994,0,0,1,34.5,25.96h-.371v-.37h.556v-.37c-.482.434-.479-.069-.741,0,0,0-.037.14-.371.185.12-.438.052-.347.371-.555a1,1,0,0,0-.741-.37,6.777,6.777,0,0,1-.556,1.48l-1.112-.185" transform="translate(-6.897 -5.615)" fill="#ce1d05" fill-rule="evenodd"/><path d="M40.025,26.125v.555H39.84v.37c.333-.176.288-.264.741-.37v-.37h.371l.371-1.11h-.371c-.256.947-.615.472-.926.925" transform="translate(-9.086 -5.781)" fill="#ce1d05" fill-rule="evenodd"/><path d="M47.776,31.966h-.185l-.185.37A41.121,41.121,0,0,1,42.96,35.11c-.012.868.038,1.134.741,1.295.145.1,0,.243.371.185V36.4a8.73,8.73,0,0,0,2.964-1.665h.185c-.111.369.025.159-.185.37a1.615,1.615,0,0,0,.371,1.295h8.707c1.553,0,3.242.153,4.261-.37a3.551,3.551,0,0,0-.185-1.295l3.149,1.849c.732-.025.849-.091,1.112-.555.2-.233.059-.6,0-1.11l-1.112-.37-.185-.37L62.412,34l-.185-.37h-.371l-.185-.37H61.3l-.371-.555H60.56l-.371-.555h-.371l-.185-.37a3.05,3.05,0,0,0-1.3-.74v-.37c-1.1-.317-.919-1.484-2.408-.925.013-.1-.107-.766.185-.555.212.153-.076.2.185.185v-.37a1.85,1.85,0,0,1-.371-.37l-.556.185v-.185h-.185l.185-.555c-.457-.211-1.393-1.024-2.223-.74v.185l-.741.185-1.482,1.665h-.371v.185l-.556.37-.556.74h-.371l-.741.925h-.371l-.185.37m.371,1.849h.371l.185-.37h.185l.185-.37h.371l.556-.74a12.443,12.443,0,0,0,3.335-2.959c1.243.15,1.528.992,2.223,1.665h.185l.185.37H56.3l.741.925h.371l.556.74h.371l.185.37h.185l.185.37h.371V34a1.456,1.456,0,0,0,.741.37v.37a40.315,40.315,0,0,0-6.3-.185,40.127,40.127,0,0,0-6.3.185v-.37a1.474,1.474,0,0,0,.741-.37Z" transform="translate(-9.797 -6.258)" fill="#ce1d05" fill-rule="evenodd"/><path d="M39.6,27.84v.37h.185c-.111-.369.025-.16-.185-.37" transform="translate(-9.032 -6.386)" fill="#ce1d05" fill-rule="evenodd"/><path d="M37.541,29.5l.371-.185a10.344,10.344,0,0,0,.371-1.48c-.37.111-.16-.025-.371.185h-.185v.925h-.185v.185l-.556-.185c-.073,1.445-.5,1.738-.556,2.959-1.741-.774-3.956-.452-6.114-.37-.141.5-.044.421-.556.555v.185c.976.047,1.633.26,1.853-.555l.741-.185v.555h-.185v.185c1.583-.026,1.024-.463,2.038-.74v.555h-.185v.185c.732.012,1.159.009,1.482-.37.249.079.421.072.185.185l.185.37h1.3c.052-.64.339-1.1,0-1.48,0,0,.026-.719.185-.37.258.045-.076.175.185.185l-.185-.925h.185Z" transform="translate(-6.787 -6.386)" fill="#ce1d05" fill-rule="evenodd"/><path d="M19.2,30.52v.37c.2-.1.3-.331.371-.37h.556v-.185h-.185l.185-.555-.371-.185.185-.555H19.2c.21.207,0,.079.371.185,0,0-.026.719-.185.37-.258-.045.076-.175-.185-.185l.185,1.11Z" transform="translate(-4.379 -6.662)" fill="#ce1d05" fill-rule="evenodd"/><path d="M18.316,30.2h-.185c-.12.438-.052.347-.371.555.158.208-.025.029.185.185v.185l.741-.185c-.087-.506-.232-1.057.185-1.48V29.28c-.37.111-.159-.025-.371.185h-.185v.185H18.5v.185l-.371-.185v.185h-.185c-.111.19.312.178.371.37" transform="translate(-4.051 -6.717)" fill="#ce1d05" fill-rule="evenodd"/><path d="M14.585,31.055h.556a2.74,2.74,0,0,1,.185,1.11h.185a2.19,2.19,0,0,0,.185-.925,3.843,3.843,0,0,0,.926-.37v-.185h.185c.084-.24-.383-.23.185-.74V29.76h-.371c-.234.341-.178-.059-.371.185l.185.555h-.185v.185a5.828,5.828,0,0,0-1.853,0v.74h.185Z" transform="translate(-3.284 -6.827)" fill="#ce1d05" fill-rule="evenodd"/><path d="M13.865,31.57v-.185c.209-.158.029.025.185-.185H13.68c.111.369-.025.16.185.37" transform="translate(-3.12 -7.157)" fill="#ce1d05" fill-rule="evenodd"/><path d="M13.524,59.182c.208-.21.079,0,.185-.37-.351-.211-.767-1.017-1.3-.925v.185h-.185v-.74h-.556v-.555h-.185c-.111-.369.025-.16-.185-.37l-.185.925h-.371l.371-1.295c-.5-.321-.58-.808-.926-1.295l-.556-.37V54l-.371-.185v-.37l-.371-.185v-.37l-.371-.185v-.37l-.371-.185L7.966,51.6H7.781v-.37l-.371-.185-.185-.74-.371-.185v-.37l-.371-.185-.185-.74-.371-.185-.185-.74-.371-.185-.185-.74-.371-.185-.185-.555H4.446l-.185-.74-.371-.185-.185-.74-.371-.185v-.37l-.371-.185v-.37c-.266-.457-.609-.64-.741-1.295l.556-.185V41.8h.371v-.185l.741-.185.185-.37.741-.185L5,40.5h.371v-.185h.371c.1-.066.145-.252.371-.37-.36-1.546-1.613-2.76-1.667-4.439l2.223-.74v-.185h.556V34.4l.926-.185v-.185h.371v-.185h.556l.371-.555h.926V33.1l.741-.185c.073-.576.264-.512-.185-.925V31.81l-.556.185V31.44h-.185v.555H10v-.37H9.634v.555c-.344-.223-.04-.274-.185-.37H9.263c-.154.331-.473.321-.926.37l.185.555H7.966V32.55H7.411c.319.3.082.377-.185.555v.185c-.389-.226-.467-.454-1.112-.185v.185l-.741.185v.185H4.817v.185H4.446v.185l-2.223.74,1.112,2.774H3.52c.271.6.083.873.556,1.295-.14,1.148-.588.659-1.3,1.11l-.185.37-.741.185-.185.37H1.3c-.455.264-.639.618-1.3.74a3.7,3.7,0,0,0,.556,1.295l.371.185.185.74.371.185.185.74.371.185.185.74.371.185.185.555h.185l.185.74.371.185.185.74.371.185v.37l.371.185.185.74L5,49.75v.37h.185v.37l.371.185.185.555h.185l.185.74.371.185v.37l.371.185c.5.749.744,1.722,1.482,2.219l-.185.555H7.966v.37H7.781v.37l-.371.185v.37l-.371.185-.185.74-.371.185-.185.555H6.114l-.185.74-.371.185-.185.74L5,60.292v.37H4.817l-.185.555c1.52.36,2.333,1.724,3.891,2.034a8.721,8.721,0,0,1-1.3,3.144l-.185.925H6.855c.258.895.4.415,1.112.74v.185h.371v.185h.371v.185l.926.185v.185h.556v.185h.371v.185h.556v.185h.371v.185h.741v.185c.418.2.414.019.741.37h.185l-.185-.74h.185v-.185H12.6c-.251-.075.076-.175-.185-.185v.185h-.185v-.37L7.966,67.32l1.667-4.254-.556-.185-.185-.37-.741-.185-.185-.37H7.6v-.185H7.225L7.04,61.4H6.669v-.185c-.413-.252-.256.077-.556-.37-.208-.21-.079,0-.185-.37h.185v-.37l.371-.185v-.37h.185v-.37L7.04,59l.185-.74.371-.185.185-.74.371-.185a3.431,3.431,0,0,0,.556-1.295h.185l.556.74h.185v.37l.371.185v.37c.179.191.185-.185.185-.185l.556.185-.185.555.741.555v.185l.741-.185V59h-.371a2.468,2.468,0,0,0,.926.925c.158.208-.025.029.185.185v-.37a.867.867,0,0,0,.741-.555M10,32.55c.37.111.16-.025.371.185h-.185c-.158.208.025.029-.185.185ZM7.04,33.844c.37-.111.16.025.371-.185H7.6l-.185.37H7.04Zm4.817,24.228c-.37-.111-.159.025-.371-.185h.185c.158-.209-.025-.029.185-.185Zm.556.37h.371v.37h-.371Z" transform="translate(0 -7.212)" fill="#ce1d05" fill-rule="evenodd"/><path d="M88.573,57.915h.371l.556-.74h.371l.926-1.11h.371V55.88l.371-.185v-.37l1.112-.925v-.37l.556-.37v-.37l.556-.37v-.37l.371-.185.185-.555H94.5v-.37l.556-.37.185-.74.371-.185v-.37l.371-.185v-.37l.371-.185v-.37h.185V48.3l.371-.185v-.37l.371-.185.185-.74.371-.185.185-.74.371-.185v-.37l.371-.185v-.37c.267-.459.6-.641.741-1.295l-1.112-.37-.185-.37-.741-.185-.185-.37-.741-.185v-.185l-.556-.185c.2-1.567,1.341-2.472,1.482-4.069l-2.038-.74v-.185l-.926-.185v-.185h-.371v-.185h-.556v-.185H93.2v-.185h-.556v-.185l-2.038-.74v.37h-.185V34.8c-.331-.093-1.731-.887-2.038-.74v.185h-.371l.185-.37h-.371v.37h-.556V33.5a12.8,12.8,0,0,1-1.853-.555l-.926.185v-.37h-.741v-.185h-.741l.185.37h-.556v-.37h-.926v-.185c-1.232-.048-1.474-.128-1.853.74H79.68v.185h1.482v-.185l.371.185v-.185l.556-.185v.37h.741v-.185h.185l.185.37h1.3v.185c.321.117.489.086.741.185V33.5h.371c.111.369-.025.16.185.37v.185h.741v.185h.371v.185l1.667.37v.185l.556-.185.371.555,1.112.185v.185h.371v.185h.556v.185h.371v.185h.556v.185l.741.185v.185l.926.185V37.2h.556v.185h.371v.185c.613.273.83.052,1.3.555h.185v.185h-.185v.37h-.185v.37h-.185c-.366.844-.48,2.048-1.112,2.589.616,1.028,2.527,1.323,3.335,2.219h.185v.185h-.185c-.147.653-.475.834-.741,1.295v.37l-.371.185-.185.74-.371.185v.37l-.371.185-.185.74-.371.185v.37l-.371.185-.185.74h-.185l-.185.555-.371.185v.37h-.185l-.185.555-.371.185v.37l-.556.37v.37l-.371.185v.37l-.741.555v.37l-1.112.925-1.3,1.48h-.371l-.556.74H88.2l-.371.555L84.5,59.579l.371,1.11h.185v.555h.185l.185.74h.185l.185,1.11a16.6,16.6,0,0,1,1.3,6.843l.741-.185a15.055,15.055,0,0,0-.371-4.439h-.185v-.74h-.185l-.371-1.849h-.185c-.343-.866-.277-1.642-.926-2.219.159-1.07.377-.7,1.112-1.11v-.185h.371l.185-.37h.371l.185-.37H88.2l.371-.555M80.606,32.947l.185-.37h.185c.166.076-.357.362-.371.37" transform="translate(-18.173 -7.424)" fill="#ce1d05" fill-rule="evenodd"/><path d="M29.124,32.825V32.64c-.784.018-.963.091-1.112.74-.547-.208-.206.029-.185-.555h-.371v.555c-.752.194-.472.474-1.3.185v.555c.514-.19,1.133-.166,1.482-.555h1.3V33.38h-.185c.073-.456.087-.344.371-.555" transform="translate(-5.966 -7.487)" fill="#ce1d05" fill-rule="evenodd"/><path d="M16.661,55.664l1.112,1.295h.371l.741.925h.371l.371.555H20l.371.555,2.408,1.295a7.252,7.252,0,0,1-.556,1.48h-.185l-.185,1.11h-.185v.37h-.185v.74h-.185v.555h-.185v.74h-.185v.74h-.185v.74h-.185v.555h.185l-.185.925h-.185v.925h.185c.052-.121.144-.667.185-.74l.556-.37V67.13h.185v-.74h.185v-.74h.185v-.74h.185v-.74h.185l.185-1.11,1.482-3.144a26.236,26.236,0,0,1-4.632-2.774l-.741-.925h-.371l-.185-.37-1.112-.925v-.37L16.105,54v-.37l-.556-.37v-.37l-.556-.37v-.37l-.371-.185-.185-.555h-.185v-.37l-.371-.185v-.37l-.371-.185v-.37l-.371-.185-.185-.555h-.185l-.185-.74-.371-.185V47.9l-.371-.185-.185-.74-.371-.185-.185-.74-.371-.185a3.554,3.554,0,0,1-.556-1.295c-.208-.21-.079,0-.185-.37.369-.2.755-.539,1.112-.74h.371l.185-.37L12.4,42.9v-.185a2.138,2.138,0,0,1,.926-.37c-.2-1.587-1.341-2.5-1.482-4.069l2.223-.74v-.185l.926-.185v-.185h.371V36.8h.556v-.185l.741-.185v-.185l1.112-.185v-.185l.926-.185V35.5a1.634,1.634,0,0,1,.926-.185l-.185-.555.371.185v.185c.059.018,1.6-.509,2.038-.555v-.555h-.185V33.84h-.556v.555l-.926-.185c-.111.369.025.159-.185.37-.158.208.025.029-.185.185v-.37a2.269,2.269,0,0,0-1.3.555s-1.142.18-.556.185h.185v.185a1.374,1.374,0,0,0-1.112,0V35.5h-.371v.185h-.556v.185h-.556v.185h-.371v.185h-.556v.185h-.371v.185l-3.52,1.295L12.4,41.978c-.71.167-.8.466-1.3.74l-.741.185-.185.37-.741.185v.185l-.556.185c.054.416.017.485.185.74h.185v.37h.185v.37l.371.185.185.74.371.185v.37l.371.185.185.74.371.185.185.74.371.185v.37l.371.185.185.74h.185l.185.555.371.185v.37l.371.185v.37H13.7l.185.555.371.185v.37l.556.37v.37l.556.37v.37l.741.555v.37Zm4.632,9.987.185-.37h.185c.166.076-.357.362-.371.37" transform="translate(-2.025 -7.763)" fill="#ce1d05" fill-rule="evenodd"/><path d="M108.2,42.123l-.185-.37-1.112-.37-.185-.37-.741-.185v-.185a2.084,2.084,0,0,0-.926-.37l.556-1.48h.185c.233-.514-.048-.547.371-.925a1.379,1.379,0,0,0-.556-.37v-.185c.331-.169.58.128.741.185.111-.369-.025-.16.185-.37v-.37l-.556.185.185-.74h.371c.111.369-.025.159.185.37.111-.369-.025-.16.185-.37V35.65h-.185v-.185l-.926-.185-.185.555h-.371c-.059.415-.016.484-.185.74h-.185v.37h-.185v.37H104.5l-.185.74h-.185v.555h-.185v.37h-.185l-.185.925h-.185v.37H103.2l-.185.555,3.891,2.219a2.987,2.987,0,0,1-.556,1.48l-.371.185-.185.74-.371.185v.37h-.185v.37l-.371.185-.185.555H104.5l-.185.74-.371.185-.185.74-.371.185v.37H103.2v.37l-.371.185-.185.555h-.185l-.185.74-.371.185-.185.555h-.185l-.185.74h-.185l-.185.555-.371.185v.37l-.371.185v.37l-.556.37v.37l-.371.185v.37l-.556.37v.37l-.556.37v.37l-.741.555v.37l-1.3,1.11-.185.37H95.6l-.741.925h-.371l-.556.74h-.371l-.185.37-.741.37a14.636,14.636,0,0,0,.926,2.959V65.8a19.006,19.006,0,0,1,.556,5.918,1.959,1.959,0,0,1,.741.185,3.717,3.717,0,0,0,.556-1.295h.371L95.419,65.8a17.023,17.023,0,0,1-.926-3.329,1.99,1.99,0,0,0,.926-.555v-.185h.371v-.185l.556-.37.185-.37H96.9l.371-.555,1.482-1.295v-.37l.741-.555v-.37l.556-.37v-.37l.556-.37v-.37l.371-.185c.339-.5.428-.966.926-1.295.111-.369-.025-.16.185-.37l.185.555h.185v.37l.371.185v.37l.371.185.185.74.371.185v.37l.371.185.185.74.371.185.185.74.371.185c.418.633.551,1.372,1.112,1.849.208.546-.029.206.556.185v.185l-.556.185v.185h-.371l-.185.37-.741.185-.185.37H104.5v.185h-.371v.185a4.428,4.428,0,0,0-1.3.74h-.185l.185.555h.185v.37h.185v.555h.185l.556,1.665.371.185v.74h.185V68.2h-.185c-.141.5-.044.421-.556.555v-.37h-.185c.022.381-.637.244-.926.37v.185l-.741.185v.185h-.556V69.5h-.371c-.62.328-.256.488-1.3.555V70.6h-.185V70.42h-.185V70.6h-.185l.185.37h-.185v.185c1.121-.237,1.9-.9,2.964-1.11v-.37c.175.3.666.022,1.112,0-.21-.207,0-.079-.371-.185V69.31l.741.185V69.31h.556v-.185l.741-.185v-.185h.556V68.57c.091-.084.3.052.185-.185h-.185v-.37h-.185v-.555h-.185v-.37h-.185c-.253-.512-.133-.929-.556-1.295v-.185l-.371.185c.276-.76.117-.84-.185-1.48a7.339,7.339,0,0,0,2.038-1.295h.185v-.555c.732.012,1.159.009,1.482-.37h.185s-.026-.719-.185-.37v.185h-.185l.185-.555h-.185v-.37l-.371-.185-.185-.74-.556-.37v-.37h-.185v-.37h-.185v-.37l-.371-.185-.185-.74-.371-.185V57.1l-.371-.185-.185-.74-.371-.185v-.37l-.371-.185-.926-1.665h-.185l.185-.555h.185v-.37l.371-.185V52.3l.371-.185v-.37l.371-.185v-.37h.185v-.37l.371-.185.185-.74.371-.185.185-.74.371-.185v-.37l.371-.185.185-.74.371-.185v-.37h.185v-.37l.371-.185.185-.555h.185v-.37h.185v-.37l.371-.185v-.37h.185v-.37l.371-.185V43.6h.185c.253-.414-.076-.253.371-.555v-.555c-.114-.209-.717-.234-.926-.37M95.6,69.31c-.37-.111-.16.025-.371-.185.37.111.159-.025.371.185m-.185-.37c-.37-.111-.16.025-.371-.185.37.111.16-.025.371.185m-.556.37c.084.078.465.142.371.37h-.185c-.151-.338-.047.161-.371,0l.185-.37m-.185.74c.208.21.079,0,.185.37h-.185Z" transform="translate(-21.128 -8.093)" fill="#ce1d05" fill-rule="evenodd"/><path d="M48.542,42a3.565,3.565,0,0,1-.556.555V44.4c0,1.433-.181,5.3.185,5.733v.185c.1.116.351-.514.371-.555H49.1a1.426,1.426,0,0,1-.371.555v.185l.556-.185v.185H57.62c1.517,0,3.084.139,4.076-.37.008-2.014.368-6.45-.185-7.953-.37-.111-.16.025-.371-.185H49.654l.185.555c-.6-.482-.069-.547-1.3-.555m.926,1.849h.185v.74h-.185Zm0,2.034c-.37-.111-.16.025-.371-.185.37.111.16-.025.371.185m-.556.37v.185c.348-.02.108-.109.185-.37h.185c-.128.5-.251.418-.371.925-.5-.141-.421-.044-.556-.555l.556-.185m-.371-.555.185-.555h.185c.117.343-.108.263-.185.37V45.7Zm.741-.925c-.37-.111-.16.025-.371-.185h-.185V44.4h.556Zm-.556-1.849v.555h-.185l-.185-.555Zm-.185,1.665c-.37-.111-.16.025-.371-.185.37.111.16-.025.371.185m0,.37c-.37-.111-.16.025-.371-.185.37.111.16-.025.371.185m2.594,4.624h-.371v-.37h.371Zm.371,0v-.37c.208.21.079,0,.185.37Zm-.185-7.213c-.37-.111-.16.025-.371-.185.37.111.16-.025.371.185m-1.3.555c.645.1.347.186.926,0-.279.425-.618.39-.926.74h-.185l.185-.74m-.185.925h10v4.809H53.174a19.07,19.07,0,0,1-2.964,0c-.158.208.025.029-.185.185l-.185.555h.185v.37h-.185V49.4l-.741.185c.141-.5.044-.421.556-.555a4.247,4.247,0,0,1,.185-1.076c-.247,0-.494-.219-.741-.219-.128.5-.251.418-.371.925-.37-.111-.16.025-.371-.185h-.185c-.025-.285.5-.435.556-.555v-.37h.556v-.185l.556-.185Z" transform="translate(-10.934 -9.634)" fill="#ce1d05" fill-rule="evenodd"/><path d="M63.895,71.6c.961-.048.8-.32,1.3-.74-.084-.672-.159-.614-.556-.925v-.185H64.08v-.185h-.371v-.185h-.371V69.2h-.371v-.185H62.6v-.185h-.371v-.185h-.371v-.185h-.371l-.185-.37h-.371l-.185-.37h-.371l-.185-.37h-.371l-.185-.37c-.545-.37-.753-.34-1.112-.925-.208-.158-.029.025-.185-.185A10.581,10.581,0,0,0,61.3,62.538a2.1,2.1,0,0,0-.185-1.849v-.37l-2.594-1.48h-.556v-.185H57.6V58.47l-1.3-.185V58.1c-1.2.076-.976.411-1.482,1.11l-.741.555v.37l-.926.74v.37l-2.223,2.034v.185a2.486,2.486,0,0,1-.556-.925H48.7V57.915h-.185c-.233-.3-.1-.252-.556-.37-.21-.207,0-.079-.371-.185a2.459,2.459,0,0,1-.741.555v4.624H43.7l-.185.555h-.185c-.111.36.079.431.185.555l.185.555h3.149v1.665h-.185l-.185.74-.371.185-.185.74-.371.185v.37h-.185l-.185.555-.371.185v.37l-.556.37v.37l-.741.555v.37l-.556.37v.74h.185l.185.555h1.112l2.223-3.144h.185v6.843c0,1.232-.312,2.119.741,2.4.21.207,0,.079.371.185a2.46,2.46,0,0,1,.741-.555V68.827c.516.305.631.756,1.3.925-.12.438-.052.347-.371.555-.041,2.422,1.339,1.026,2.408.74-.014,2.008-.349,5.087.371,6.473h5.373a10.567,10.567,0,0,0,2.964-.185v.37c.37-.111.16.025.371-.185h.741v-.185h-.371v-.555c.312.211.258.113.371.555h.185v-.925l-.371.185v-.37l.371-.185-.185-.925-.741.185c.12-.438.052-.347.371-.555V74.56c.286-.141.32.369.371.555h.185V71.971h-.371v-.185h.371v-1.11a8.7,8.7,0,0,0,.926.37v.185l.556-.185v.37c.37.111.159-.025.371.185m-3.705-.74h.371v-.555h-.185v-.37l.556.37c-.114.448-.2.407-.371.74h-.371Zm-1.667-2.219.556.185v.185l.556.185s.026.719.185.37a.659.659,0,0,1,.1-.069c-.007-.052-.089-.109.083-.116-.109.143-.059.1-.083.116,0,.027-.013.053-.1.069-.111.369.025.16-.185.37v-.37h-1.3v.185a1.453,1.453,0,0,1-.741.185v-.37h-.926c-.052.019-.065.337-.371.37l-.185-.37H54.632c.268-.969,1.694-1.343,2.223-2.219.8.225.632.582,1.112.925h.371l.185.37M60,70.306c-.158.208.025.029-.185.185-.111.369.025.16-.185.37v.185h-.185l.185-.74Zm-1.667.185v-.555c.015,0,.653-.061.371.185h-.185c.2.328.125.246.556.37-.141.5-.044.421-.556.555l.185-.555Zm-.371.74-.556-.185v-.37a1.244,1.244,0,0,1,.556.555M56.3,71.046h-.371v-.37H56.3Zm0-10.912,2.594.925v.185l.556.37a5.161,5.161,0,0,1-2.223,2.959c-.692.446-1.8-1.8-2.408-2.219.137-1.02,1.041-1.468,1.482-2.219m-2.964,7.953h-.371l-.371.555h-.371l-.185.37c-.333.217-.413.005-.741.37h-.371V69.2c.232,0,.3-.5.185-.74L48.7,66.237V64.388H50c.072.6.168.54.371.925,1.667-.043,1.926-1.053,2.964-1.665.158-.208-.025-.029.185-.185a7.076,7.076,0,0,0,2.038,2.4c-.2.763-.563.714-1.112,1.11l-.556.74H53.52l-.185.37M60,76.779h-.185v-.37H60Zm.741-.555H60.56l-.185-.74c.3.187.73.4.371.74m0-1.295c-.158.208.025.029-.185.185v-.37c.37.111.16-.025.371.185Zm0-.925v.185c-.238-.153-.2-.157-.371-.37h-.185v2.034h-6.3V71.231a21.721,21.721,0,0,0,4.446,0c.316-.054.315.172.371.185a3.077,3.077,0,0,0,1.482-.185v2.034c.449.114.408.195.741.37-.111.369.025.16-.185.37m.185-1.665c-.37-.111-.16.025-.371-.185h-.185c-.06-.051.411-.327.556-.555h.185l-.185.74m.556.37c-.208.158-.029-.025-.185.185h-.185v-.555l.556-.185-.185.555m0-1.48v.185H61.3v-.37c.5.141.421.044.556.555-.233-.154-.107-.252-.371-.37m1.112-.925h-.185v-.185l-.556.185.185-.555c.117.076.642.34.556.555" transform="translate(-9.798 -13.158)" fill="#ce1d05" fill-rule="evenodd"/><path d="M19.709,70.584V70.4h.185v.37h.185l.185-1.295h.185c-.425-.514-1.125-.705-1.482-1.295-.449.114-.408.195-.741.37-.188-.543-.2-.378,0-.925-.208-.158-.029.025-.185-.185a1.046,1.046,0,0,0-.926.925H16.56c.158.209-.025.029.185.185v.185H17.3c.12.463.1.3.371.555v.185h.371c.131.091.12.244.371.37v.74h-.185l.185,1.11a1.959,1.959,0,0,0,.741-.185c.184-.471-.032-.577.556-.925m-.371-1.665h.185v.555h-.185Zm-.926-.185c.37.111.16-.025.371.185-.37-.111-.159.025-.371-.185m.371,1.665v-.37c.208.21.079,0,.185.37Z" transform="translate(-3.777 -15.47)" fill="#ce1d05" fill-rule="evenodd"/><rect width="0.185" height="0.555" transform="translate(15.933 55.299)" fill="#ce1d05"/><path d="M18.152,79.323v.185H17.6a24.588,24.588,0,0,0-.185,3.329l.741.185v-.185h.185v.185c.312.211.258.113.371.555h.371c-.026-.662-.179-1.242,0-1.48v-.185c-.752.207-.4.45-1.3.555l.371-1.48-.371-.185v.185H17.6c.087-.4.118-.524.371-.74v-.185c.331-.169.58.128.741.185l-.185-1.11h.371V78.4h-.371c-.255-.26.329-.179.371-.185l-.185-.37h.185v-.37h.185v-1.11l-.556.185v-.37h.556l.185-1.48h.185a.33.33,0,0,0-.185-.37,1.592,1.592,0,0,1,.556-1.11v-.74c-.333.176-.289.264-.741.37-.114.448-.2.407-.371.74-.438-.119-.347-.052-.556-.37-.4.415-.748,3.149-.741,4.069.37-.111.16.025.371-.185h.185a.737.737,0,0,1-.371.37v.185h.556a.734.734,0,0,1-.371.37v.37H17.6v-.74h-.185v1.295c-.37.111-.16-.025-.371.185h.741l.185-.37h.371v.555Zm.556-4.439c.158.208-.025.029.185.185v.185h-.371c.111-.369-.025-.16.185-.37m-.741-.555v-.185l.556-.185v.37Z" transform="translate(-3.886 -16.626)" fill="#ce1d05" fill-rule="evenodd"/><rect width="0.371" height="0.37" transform="translate(14.265 56.224)" fill="#ce1d05"/><path d="M35.8,93.756v-.185l-5.743,1.295L29.318,90.8a20.25,20.25,0,0,1-4.076.37V90.8h-.185v-2.4h-.185l-.185-5.733h-.371l.185-.74h.185l-.185-.555c-.37-.111-.159.025-.371-.185h-.185v-.185H24.5v-.74h.185L24.5,79.7h.185v-.74c-.209.158-.029-.025-.185.185-.344.222-.4.518-.741.74.008,4.289.346,7.463.741,12.206a12.173,12.173,0,0,0,3.335-.37h.741v.185A17.684,17.684,0,0,1,29.5,95.79L35.432,94.5c.254-.168,0-.494.185-.74Z" transform="translate(-5.419 -18.113)" fill="#ce1d05" fill-rule="evenodd"/><path d="M100.56,80.88c.21.207,0,.079.371.185V80.88Z" transform="translate(-22.935 -18.553)" fill="#ce1d05" fill-rule="evenodd"/><path d="M96.173,82.1c-.094.753-.394.828-.741,1.295h-.185l.185.37h-.185v.37c-.052.086-.258.159-.371.37h-.371v.925H94.32c.21.207,0,.079.371.185v-.37h.556v-.555h.926c-.191-.564-.029-.844,0-1.665a1.767,1.767,0,0,0,.741-.37V82.47l1.667-.185a3.25,3.25,0,0,1-.371-.925,5.717,5.717,0,0,1-2.038.74" transform="translate(-21.512 -18.663)" fill="#ce1d05" fill-rule="evenodd"/><path d="M78.8,82.71a2.165,2.165,0,0,1-.371-.37H78.8V81.6h-.556v.555h-.185v.925l.371-.185a4.408,4.408,0,0,0-.371,2.034h.371v.555l-.371.185v-.185h-.185l.185,1.849a18.647,18.647,0,0,0-.556,4.439,13.845,13.845,0,0,1-4.076-.37L72.5,95.471,64.72,93.621v-.185l-2.408-.555V92.7l-1.667-.37v-.185h-.371v-.185h-.556v-.185h-.371l-.185-.37-.741-.185-.185-.37-.741-.185v-.185l-.556-.185-.185-.37h-.371l-.371-.555a8.743,8.743,0,0,1-2.594-2.219,1.532,1.532,0,0,0-.741.37V87.7h-.371l-.185.37-.741.555L51.2,89h-.371l-.371.555h-.371l-.371.555h-.371l-.185.37h-.371l-.185.37-.741.185-.185.37-.741.185v.185l-.741.185v.185h-.556v.185h-.371v.185h-.556V92.7h-.556v.185H43.6v.185h-.556v.185H42.3v.185l-2.038.37v.74H40.08v.185l3.149-.74v-.185l1.853-.37v-.185l.926-.185v-.185l.741-.185v-.185h.371v-.185l.926-.185v-.185l.556-.185.185-.37.741-.185.185-.37h.371l.371-.555h.371l.371-.555h.371l.926-1.11.556-.185v-.185a3.384,3.384,0,0,1,1.3.925v.185l.556.185.371.555h.371l.185.37H56.2l.371.555.741.185.185.37.556.185v.185l.741.185v.185l1.112.37v.185h.556v.185h.371v.185l8.522,2.4h.741v.185h.926v.185c.6.2,1.06,0,1.482.37h.556v-.185a17.684,17.684,0,0,0,.926-3.884l4.261.37c.022-2.323.6-4.271,0-5.733h.371l-.185-1.11H78.8v-1.11h-.185l.185-.37h-.185c-.052-.4.455-1.058.185-1.665" transform="translate(-9.141 -18.718)" fill="#ce1d05" fill-rule="evenodd"/><rect width="0.556" height="0.185" transform="translate(77.44 63.067)" fill="#ce1d05"/><path d="M94.745,83.65v-.185c.208-.158.029.025.185-.185H94.56c.111.369-.025.16.185.37" transform="translate(-21.566 -19.104)" fill="#ce1d05" fill-rule="evenodd"/><rect width="0.185" height="0.555" transform="translate(73.364 64.361)" fill="#ce1d05"/><path d="M96.131,86.955h.185V86.4h-.185c-.21.207,0,.079-.371.185.143.188.228.182.371.37" transform="translate(-21.84 -19.819)" fill="#ce1d05" fill-rule="evenodd"/><path d="M77.84,87.49c-.111-.369.025-.16-.185-.37l-.185.555c-.37.111-.16-.025-.371.185-.371.415,0,1.2-.185,1.849h-.185v2.219s-.154.013-.185.37v2.034h-.185l-.185,3.329-4.632-.555-.926,4.624-9.448-2.219V99.7a1.9,1.9,0,0,1-.741.37c.12-.438.052-.347.371-.555v-.185c-.784-.163-1.44-.309-1.853.37h-.371l.556-.74c-.6-.207-.465-.119-1.112,0v-.37c-.37-.111-.16.025-.371-.185h-.741a.734.734,0,0,0,.371.37v.185h-.185v.185h-.185v-.555h-.371v-.555a3.944,3.944,0,0,1-.741-.185v.185h-.185l-.185-.37h-.556v-.185c-.518.067-.557-.012-.741.37v.37h-.185V98.4l-.371-.185V98.4H53.2v.37l.371-.185.185.37a11.465,11.465,0,0,0,1.482.37v.185a3.907,3.907,0,0,1,.741-.185v.37l1.112.185v.185l.371-.185L55.608,102.1l-.556.37v.37l-1.112.925v.37l-.741.555v.185h-.185c-.364-.559-.169-.082-.556-.37l-1.112-1.295h-.371l-.926-1.11h-.556l-.185.37h-.371l-1.112,1.295h-.371l-.926,1.11H46.16a4.111,4.111,0,0,0-.741-1.11l-.371-.185v-.37l-.556-.37-.371-.555h-.185v-.37l-.926-.74-.185-.555-.371-.185c-.549-.551-.073-.607-.926-.37l.371-.555-.371-.185v-.185c.506-.377.495.337.741-.555h.371v-.555a1.973,1.973,0,0,0,.741-.185v.37h-.371v.37a1.662,1.662,0,0,0,1.112-.37l.185-.555.556.185.185-.555.556.185v-.185h.371v-.185c-.349-.122-.21.135-.371-.185l.556-.185c.036.008.061.285.371.185v-.185H46.9l.185-.37h.371l.185-.37.741-.185V96h.185v-.185h.371c-.21.207,0,.079-.371.185a1.5,1.5,0,0,0,.926.555v.185h.185v-.37l.741.37c-.21.207,0,.079-.371.185.339.409.947.53,1.3.925.715-.07.971-.3,1.112-.925h.371c-.2.714-.555.581-.741,1.295.4.087.525.118.741.37l.926-1.11c.214-.151.14.145.185.185h.185v-.185c.208-.158.029.025.185-.185l-2.038-.74v-.185H51.9v-.185h-.371l-.185-.37h-.371l-.185-.37-1.112-.37-.371-.555h-.371l-.185-.37-.741-.37c-.317.5-.8.589-1.3.925l-.185.37H46.16l-.185.37-.741.185-.185.37-.741.185-.185.37h-.371a3.7,3.7,0,0,1-1.853.74.737.737,0,0,0,.371.37c-.111.369.025.16-.185.37v.185h-.556c.12-.438.052-.347.371-.555v-.185a9.686,9.686,0,0,0-2.594.925h-.371c-.212.155.185.185.185.185l-.185.555h-.371v-.555h-.556v.185l-.556.185v-.185h-.185l-.185.37-1.853.185c-1.877.646-4.239,1.03-6.114,1.665h-.741v.185h-.926v.185c-.6.2-1.058,0-1.482.37h-.185a16.678,16.678,0,0,0-.556-1.849v-.925H25.04c-.212-.682.052-1.2-.371-1.665-.342-.244-2.9.173-3.891.185v.37c-.449-.114-.408-.195-.741-.37l-.185-4.439h-.185c-.192-.693.207-1.588-.185-2.034V88.785c-.476.391-.418.608-1.112.925l-.185-.555H18l.185,5.548h.185l.185,4.624c1.806-.025,3.423-.484,4.817-.37V98.4h.185l.185.555c-.083.129-.3.106-.185.555a13.249,13.249,0,0,1,.741,3.514h.556l-.185.555,13.339-3.144v-.185h.556v-.185h.556l.185-.37h1.112c.019-.006-.039-.121.371-.185a4.172,4.172,0,0,0,.741,1.11l.371.185.185.555.741.555v.37l1.112.925v.37l.926.74v.37l1.112.925v.37c1.227-.168,2.609-2.148,3.705-2.774v-.185h.185l1.112,1.295h.371l.185.37a3.652,3.652,0,0,0,1.482,1.11c.21.207,0,.079.371.185L54.5,104.5l.556-.37v-.37l.556-.37v-.37l.371-.185-.185-.37.371.185v-.185l.926-.74v-.37l.371-.185-.185-.37h.556c.079-.048.167-.26.371-.37v-.185c.405.274.425.072.926,0v.37c.4-.087.525-.118.741-.37h.371a.737.737,0,0,1-.371.37v.185l1.3.185v.185h.741v.185h.741v.185l1.667.185v.185h.741v.185H65.8v.185h.741v.185h.741v.185h.741v.185h.926v.185h.741v.185c.6.2,1.054,0,1.482.37h.556V103.4h.185v-.925a10.1,10.1,0,0,0,.741-3.329c.208-.158.029.025.185-.185l4.817.37L77.84,96h.185v-2.4h.185c.239-.855-.31-2.2.185-2.774V88.785l-.371.185c.11-.24.063-.463.185-.74.5.417.363-.2.371-.74ZM54.867,98.772v.185H54.5l.556-.925c.37.111.16-.025.371.185-.28.177-.315.361-.556.555m-3.891-2.4c.208.21.079,0,.185.37h-.185Zm-.926-.555.371.185v.185h-.185v.185h-.185Zm-3.149-.37c.425.389.273.324.185.74-.208.158-.029-.025-.185.185h-.185a2.342,2.342,0,0,1,.185-.925m-1.853,1.48c-.37-.111-.16.025-.371-.185.37.111.16-.025.371.185m-1.482.74s-.057.028-.371-.37c.049.045.507.19.371.37m-24.64-7.583v-.185c-.208-.158-.029.025-.185-.185h.371c-.111.369.025.159-.185.37m.926,8.877v-.37c.208.21.079,0,.185.37Zm2.223-.74c-.209.158-.029-.025-.185.185h-.185v-.555l.556-.185-.185.555m2.408,3.514.185-.37h.185c.166.076-.357.362-.371.37M40.6,99.141c-.37.111-.16-.025-.371.185h-.185l.926-1.295h.185c.063.18-.458.913-.556,1.11m17.044.37c.37.111.16-.025.371.185-.37-.111-.16.025-.371-.185m2.408.555v-.185c-.209-.158-.029.025-.185-.185h.371c-.111.369.025.159-.185.37m1.482,0c.37.111.159-.025.371.185-.37-.111-.16.025-.371-.185" transform="translate(-4.105 -19.985)" fill="#ce1d05" fill-rule="evenodd"/><path d="M18.817,88.655c.12-.438.052-.347.371-.555v-.555c-.193.441-1.306-.13-1.667-.185.111.369-.025.16.185.37v1.295c.477-.253.316-.341,1.112-.37" transform="translate(-3.996 -20.04)" fill="#ce1d05" fill-rule="evenodd"/></g></g><path d="M8.781-13.125a1.461,1.461,0,0,1-1.516-.062,2.269,2.269,0,0,1-.7-.969,1.579,1.579,0,0,1-.109-.859q.078-.328.547-.453h.938a26.77,26.77,0,0,1,5.031.375,11.34,11.34,0,0,1,2.688.75,2.254,2.254,0,0,1,.859.8,1.541,1.541,0,0,1,.313.813.953.953,0,0,1-.172.516q-.156.219-.687.156-.719-.187-1.766-.516a14.079,14.079,0,0,0-2.656-.5A13.176,13.176,0,0,0,8.781-13.125ZM7.375-.625a2.129,2.129,0,0,1-1.109-.984A1.627,1.627,0,0,1,6-2.781q.125-.469.938-.344a21.417,21.417,0,0,0,4.578.281A19.165,19.165,0,0,0,15.391-3.3l2.063-.531Q18.125-4,18.5-4.062a.834.834,0,0,1,.25.813,1.937,1.937,0,0,1-.406.688,3.515,3.515,0,0,1-.953.719,11.206,11.206,0,0,1-2.562.875A17.323,17.323,0,0,1,11.2-.437,24.677,24.677,0,0,1,7.375-.625ZM37.406-11.062q1.688-1.219,3.047-2.141t2.453-1.641a1.194,1.194,0,0,1,1.5-.062,2.407,2.407,0,0,1,.7.781,1.667,1.667,0,0,1,.2,1.031,39.272,39.272,0,0,0-.266,4.016,12.35,12.35,0,0,0,.25,3.313,5.8,5.8,0,0,0,.563,1.453,1.088,1.088,0,0,0,.672.5,3.383,3.383,0,0,0,1.625-.266A28.356,28.356,0,0,0,51.016-5.2a12.331,12.331,0,0,1,2.172-.828.768.768,0,0,1,.031.7,7.9,7.9,0,0,1-.531.75,6.433,6.433,0,0,1-1.578,1.234,11.21,11.21,0,0,1-2.7,1.2,3.19,3.19,0,0,1-2.594-.172A5.09,5.09,0,0,1,43.8-5a10.846,10.846,0,0,1-.75-4.281q.047-2.281.016-2.687a1.786,1.786,0,0,0-.156-.656,19.491,19.491,0,0,0-2.344,1.5q-1.281.938-3.437,2.813-.219,2.063-.234,3.422t-.016,2.734q0,1.375.063,2.844a1.591,1.591,0,0,1-.047.734q-.109.359-.875.266a1.018,1.018,0,0,1-.953-.75Q35,.531,34.938-1.3t.156-5.109a20.717,20.717,0,0,0-2.047,2.172Q32.031-3,30.844-1.656A.787.787,0,0,1,29.5-1.5a1.682,1.682,0,0,1-.719-2.062q.5-1.906,1.25-4.375.25-.906-.125-1-.375-.031-.766-.078a1.739,1.739,0,0,1-.734-.266,1.91,1.91,0,0,1-.562-.641,2.9,2.9,0,0,1-.25-.609q-.031-.219.422-.453a2.523,2.523,0,0,1,1.281-.187,3.92,3.92,0,0,1,1.953.859,2.158,2.158,0,0,1,.906,1.859q-.031,1.141-.125,2.3.687-.688,1.547-1.609t1.8-1.984q.281-4.406.484-6.281t.391-3.75q.063-1,.063-1.5,0-.375.281-.406h.063a2.489,2.489,0,0,1,.719.156,1.341,1.341,0,0,1,.781.688,1.482,1.482,0,0,1,.125,1.031q-.406,3.5-.625,5.672T37.406-11.062ZM63.063-2.281a2.227,2.227,0,0,0,1.672-.2,6.1,6.1,0,0,0,1.609-1.531,15.651,15.651,0,0,0,1.75-2.953,17.42,17.42,0,0,0,1-2.359,1.081,1.081,0,0,0-.125-.891A8.479,8.479,0,0,0,66.781-10a21.107,21.107,0,0,0-3.875,1.344q-1.094,2-1.766,3.578a13.423,13.423,0,0,0-.922,3.141.874.874,0,0,1-.672.313,1.245,1.245,0,0,1-.75-.266,1.393,1.393,0,0,1-.5-.656,1.182,1.182,0,0,1,.047-.859q.563-1.375.813-2.094a17.51,17.51,0,0,1,.781-1.812,13.586,13.586,0,0,0-1.344.906,1.006,1.006,0,0,1-1.062.219,1.584,1.584,0,0,1-.562-.641,3.569,3.569,0,0,1-.25-.641q-.031-.219.344-.562a10.141,10.141,0,0,1,1.781-1.078q1.406-.734,2.25-1.078.813-1.625,1.234-2.609t1.3-2.953a.706.706,0,0,1,.578-.266,1.761,1.761,0,0,1,.719.219,1.818,1.818,0,0,1,.609.484.78.78,0,0,1,.125.688,1.734,1.734,0,0,1-.281.656q-.313.594-.766,1.422t-.828,1.484a23.2,23.2,0,0,1,2.938-.859,7.224,7.224,0,0,1,2.469-.047,1.929,1.929,0,0,1,1.188.5,2.643,2.643,0,0,1,.688,1.031,2.347,2.347,0,0,1,.031,1.375,14.748,14.748,0,0,1-1.328,3.484,15.745,15.745,0,0,1-2.172,3.266A7.175,7.175,0,0,1,65.813-.687a2.474,2.474,0,0,1-.719.5,1.067,1.067,0,0,1-.875,0,2.389,2.389,0,0,1-.859-.875A2.165,2.165,0,0,1,63.063-2.281ZM74.156-12.562q2.656,1.75,4.781,3.172a15.39,15.39,0,0,1,2.656,2.047.694.694,0,0,1,.281.406.6.6,0,0,1-.234.547.84.84,0,0,1-.8.2q-1.438-.844-2.984-1.8t-4.172-2.8a2.165,2.165,0,0,1-.672-.641,1.729,1.729,0,0,1-.328-.891q-.031-.469.141-.609a.6.6,0,0,1,.563-.016A3.064,3.064,0,0,1,74.156-12.562ZM76.75-17.25a9.463,9.463,0,0,0,.984,2.516q.7,1.266,1.328,1.359a.963.963,0,0,1,.5.3.992.992,0,0,1,.266.453.664.664,0,0,1-.219.531.932.932,0,0,1-.656.344.934.934,0,0,1-.672-.187q-.594-.5-1.109-.953a4.817,4.817,0,0,1-.969-1.25,12.742,12.742,0,0,1-.859-1.906q-.406-1.109-.906-2.172,0-.656.313-.719a1.611,1.611,0,0,1,.844.141,1.621,1.621,0,0,1,.813.641A2.2,2.2,0,0,1,76.75-17.25Zm2.5-1.875q.125-.375.813-.375h.125a1.2,1.2,0,0,1,1.094.531,4,4,0,0,1,.438,1.3,10.6,10.6,0,0,0,.328,1.344,4.361,4.361,0,0,1,.2,1.172.746.746,0,0,1-.734.141,1.344,1.344,0,0,1-.828-.656,8.553,8.553,0,0,1-.734-1.687A15.022,15.022,0,0,0,79.25-19.125Zm19.781.406q.719.062.844.266t.328.594q.2.391-.234.984A9.548,9.548,0,0,0,98.375-15.7q-1,.859-3.094,2.984a1.984,1.984,0,0,1,.609.7,6.353,6.353,0,0,1,0,2q-.141,1.672-.469,4.234t-.484,4.266A5.4,5.4,0,0,0,95.094.906q.25,1-.406,1.3a1.146,1.146,0,0,1-1.312-.3A6.018,6.018,0,0,1,92.906.375,14.1,14.1,0,0,1,93-2.719q.469-4.188.672-6.031t.3-2.437q-1.75,1.625-2.984,2.922a30.582,30.582,0,0,0-2.109,2.438Q88-4.688,87.656-4.312a2.585,2.585,0,0,0-.391.531,3.846,3.846,0,0,0-.234.813q0,.813-.844.813a1.192,1.192,0,0,1-1.031-.625,1.769,1.769,0,0,1,.016-1.328,11.484,11.484,0,0,1,1.719-2.672q1.453-1.875,3.3-3.828t3.719-3.875q1.875-1.922,3.063-2.922A7.181,7.181,0,0,1,99.031-18.719Zm19.656.594q-1.75,3.469-3,6.016t-2.344,4.719q-1.094,2.172-2.094,4.453a20.468,20.468,0,0,0-1.312,3.75q0,.344-.016.8a.688.688,0,0,1-.391.641,1.378,1.378,0,0,1-.953.047,1.053,1.053,0,0,1-.781-.641,2.4,2.4,0,0,1-.016-1.375q.281-.844.594-1.766t1.219-2.875q.906-1.953,2.422-5.094t2.313-4.625a24.062,24.062,0,0,0,1.281-2.75q.484-1.266.7-1.984a.73.73,0,0,1,.469-.625,1.162,1.162,0,0,1,.281-.031,1.311,1.311,0,0,1,.531.125,1.976,1.976,0,0,1,.672.438A2.24,2.24,0,0,1,118.688-18.125Zm22.875,4.313a9.088,9.088,0,0,0-1.984.406q-1.453.406-3.531,1.219a25.269,25.269,0,0,0-3.172,1.438,12.145,12.145,0,0,0-.594,3.063,9.266,9.266,0,0,0,.156,2.375,6.9,6.9,0,0,0,.5,1.563,1.7,1.7,0,0,0,1.563.938,5.334,5.334,0,0,0,1.5-.219q.75-.219,3.031-1.078t3.094-1.172a.692.692,0,0,1,.969.188,1.551,1.551,0,0,1,.313.781q.063.469-.656.719-1.875.906-3.469,1.516a29.066,29.066,0,0,1-3.031.984,5.046,5.046,0,0,1-2.328-.109A4.861,4.861,0,0,1,132-2.187a3.9,3.9,0,0,1-1.062-1.7A11.4,11.4,0,0,1,130.5-6.75a16.845,16.845,0,0,1,.094-3.156,10.483,10.483,0,0,0-3.062,1.719,2.252,2.252,0,0,1-.656.438.669.669,0,0,1-.734-.062,1.581,1.581,0,0,1-.5-.656,3.414,3.414,0,0,1-.234-.812,20.77,20.77,0,0,1,2.984-1.844q1.547-.781,2.828-1.375.281-.875.547-1.687t.734-2.172q.469-1.359.625-1.672a1.747,1.747,0,0,1,.656-.156,1.162,1.162,0,0,1,.281.031,1,1,0,0,1,.578.516,2.13,2.13,0,0,1,.078,1.234q-.562,1.344-1.187,2.906.906-.281,2.422-.781t3.188-.984A16.941,16.941,0,0,1,142-15.875a1.776,1.776,0,0,1,2,1.406,4.54,4.54,0,0,1-.594,1.8,11.01,11.01,0,0,1-1.906,2.453,23.768,23.768,0,0,1-2.531,2.281A4.841,4.841,0,0,1,137-6.906a.891.891,0,0,1-.594.047.713.713,0,0,1-.469-.359,2.039,2.039,0,0,1-.219-.594,1.574,1.574,0,0,1,.625-.516,9.437,9.437,0,0,0,1.563-1.219,19.714,19.714,0,0,0,2.078-2.109A19.591,19.591,0,0,0,141.563-13.812ZM168.5-10.031q-3.375,1.875-5.953,3.484A37.035,37.035,0,0,0,158.2-3.437q-1.766,1.5-3.484,3.094a1.657,1.657,0,0,1-1.016.5,1.2,1.2,0,0,1-1.016-.375,1.531,1.531,0,0,1-.547-.625.781.781,0,0,1,.031-.8,1.808,1.808,0,0,1,.578-.609q2.187-1.625,4.516-3.3t4.594-2.984a35.721,35.721,0,0,1,3.938-2.016,20.5,20.5,0,0,1,2.516-.922.625.625,0,0,1,.641.156.541.541,0,0,1,.078.625A1.583,1.583,0,0,1,168.5-10.031Zm-17.375-6.312q1.406.563,2.094.922a31.188,31.188,0,0,1,2.813,1.891,1.668,1.668,0,0,1,.484,1.453q-.172.641-.437.578a2.142,2.142,0,0,1-.547-.219,23.043,23.043,0,0,0-2.156-1.344,13.229,13.229,0,0,0-1.656-.719,1.609,1.609,0,0,1-1.234-.922,2.741,2.741,0,0,1-.312-1,.946.946,0,0,1,.2-.516q.094-.156.438-.156A1.59,1.59,0,0,1,151.125-16.344Zm30.063-2.969q-.156,1.438-.422,3.063t-.484,3.234q-.219,1.609-.344,2.391a5.069,5.069,0,0,0,1.281.188q1.812-.031,3.406-.125t3-.062q.906.25.953.641a3.947,3.947,0,0,1-.047,1.016,17.475,17.475,0,0,1-2.937.406l-2.922.2q-1.109.078-1.547.141a3.392,3.392,0,0,1-1.375-.25,8.944,8.944,0,0,0-.453,2.359q-.109,1.422-.156,3.156a36.236,36.236,0,0,0,.094,3.641,24.167,24.167,0,0,0,.422,3.219A2.018,2.018,0,0,1,178,3.781a1.922,1.922,0,0,1-.531-1.141q-.125-.766-.234-2.906a52.457,52.457,0,0,1,.25-6.437q.359-4.3.828-7.359t.625-4.094a18.96,18.96,0,0,0,.188-2.375q.063-.594.469-.594a1.9,1.9,0,0,1,1.031.547A1.361,1.361,0,0,1,181.188-19.312Zm24.156,6a19.176,19.176,0,0,1-1.391,4A19.742,19.742,0,0,1,201.8-5.766a11.042,11.042,0,0,1-3.016,2.7,9.045,9.045,0,0,1-1.719.813A1.7,1.7,0,0,1,196-2.219a3.271,3.271,0,0,1-1.016-.609A3.4,3.4,0,0,1,194.094-4a4.273,4.273,0,0,1-.281-1.781,8.767,8.767,0,0,1,.672-2.7,9.051,9.051,0,0,1,2.031-3.094,12.73,12.73,0,0,1,2.875-2.25,15.775,15.775,0,0,1,4.078-1.422,1.7,1.7,0,0,1,.844-.25h.188a7.1,7.1,0,0,1,.8.188q.3.094.641.219a4.941,4.941,0,0,1,1.563.609,7.685,7.685,0,0,1,1.469,1.234,5.04,5.04,0,0,1,1.188,2.531,10.181,10.181,0,0,1,.016,3.859,20.412,20.412,0,0,1-.766,3.281,13.9,13.9,0,0,1-1.031,2.234,3.133,3.133,0,0,1-.359.563.806.806,0,0,1-.453.219,1.12,1.12,0,0,1-.7-.156,1.562,1.562,0,0,1-.641-.5,1.644,1.644,0,0,1-.25-.625.674.674,0,0,1,.156-.594,6.6,6.6,0,0,0,.7-.859,9.841,9.841,0,0,0,.7-1.828,16.624,16.624,0,0,0,.656-2.906,9.133,9.133,0,0,0,.063-2.344,5.2,5.2,0,0,0-.3-1.422,1.927,1.927,0,0,0-.609-.8,3.044,3.044,0,0,0-.953-.484A5.969,5.969,0,0,0,205.344-13.312Zm-9.687,9.094a2.112,2.112,0,0,0,1.781-.406A12.83,12.83,0,0,0,200.125-7.2a13.964,13.964,0,0,0,1.906-3.234,19.54,19.54,0,0,0,.969-2.75,13.7,13.7,0,0,0-2.781,1.25,9.058,9.058,0,0,0-2.891,2.469,8.244,8.244,0,0,0-1.516,2.859A5.639,5.639,0,0,0,195.656-4.219Z" transform="matrix(0.996, -0.087, 0.087, 0.996, 30.701, 494.581)" fill="#252525"/><path d="M27.125-31.828q-.492.6-3.5,4.047T15.777-18.4q-4.84,5.934-6.371,8.148a31.359,31.359,0,0,0-1.969,3.09A7.652,7.652,0,0,0,7.055-6.07a6.922,6.922,0,0,0-.273.93,2.02,2.02,0,0,1-2.406.6l-.383-.109a2.168,2.168,0,0,1-.656-3.2q1.148-1.777,3.145-4.43t8.148-10.035q6.152-7.383,9.543-11.7,1.477-1.641,3.117-3.828a2.266,2.266,0,0,1,1.039-1.2,1.085,1.085,0,0,1,.492-.109,1.455,1.455,0,0,1,.875.328,2.072,2.072,0,0,1,1.066,1.313,2.226,2.226,0,0,1-.246,1.75,5.449,5.449,0,0,1-.875.957.908.908,0,0,0-.328.684q4.1,3.773,8.641,7.438,1.039.82,2.023,1.641,3.555,2.844,7.273,5.688,4.758,3.609,5.852,4.211a6.525,6.525,0,0,1,1.367,1.477A1.888,1.888,0,0,1,54.3-11.43a1.676,1.676,0,0,1-2.187-.219q-1.75-1.422-3.691-3.035t-5.059-3.965q-2.9-2.3-6.18-4.812l-.328-.219q-3.391-2.68-5.715-4.648T27.125-31.828Zm10.391,14a1.615,1.615,0,0,1-2.187.82,20.687,20.687,0,0,0-4.293,0,36.247,36.247,0,0,0-5.168.766q-1.148.273-2.133.547-1.039.328-1.914.656a2.884,2.884,0,0,1-3.664-1.2q-.984-1.641.984-2.242,6.344-.984,12.633-1.859l1.859-.219a5.153,5.153,0,0,1,1.832,0,1.9,1.9,0,0,1,1.422,1.039A6.238,6.238,0,0,1,37.516-17.828ZM23.461,3.773a1.761,1.761,0,0,1-2.57.273A11.524,11.524,0,0,1,19.031.465,24.475,24.475,0,0,1,17.746-5q-.355-2.926-.574-4.348a2.152,2.152,0,0,1,.383-1.066q.328-.465,1.641-.191t1.5.875a2.837,2.837,0,0,1,.137,1.148,43.4,43.4,0,0,1,8.477-2.625,33.173,33.173,0,0,1,7.6-.82,13.887,13.887,0,0,1,1.668.383,1.679,1.679,0,0,1,1.23,1.066,3.12,3.12,0,0,1,.164,1.5A15.834,15.834,0,0,1,38.609-5.3q-.984,1.969-1.586,3.117a3.822,3.822,0,0,1,.93-.109,3.346,3.346,0,0,1,1.313.383q.82.383.875,2.242Q38.555.82,37.352,1.2q-4.1,1.148-10.062,2.734a2.529,2.529,0,0,1-2.516-.984,7.4,7.4,0,0,1-.492-1.723q-.055-.574.93-.793,4.1-.82,7.6-1.8a10.946,10.946,0,0,0,2.133-3.582,15.019,15.019,0,0,0,1.2-3.746,21.149,21.149,0,0,0-3.5.246,29.689,29.689,0,0,0-5.113,1.23q-2.871.93-4.785,1.7a1.45,1.45,0,0,1-1.914-.437A18.307,18.307,0,0,0,21.9-.246Q22.75,1.8,22.941,2.242A15.4,15.4,0,0,1,23.461,3.773Zm60.32-11.1q-5.031,5.2-6.18,6.07a6.042,6.042,0,0,1-1.148-.492,1.587,1.587,0,0,1-.793-.984,1.453,1.453,0,0,1,.137-1.2,3.376,3.376,0,0,1,.93-.984q4.648-4.375,8.668-8.367t4.949-5.141q-.711-.547-1.367-1.094a11.933,11.933,0,0,1-.875-.984l-.273-.383a3.141,3.141,0,0,1-.41-1.285,1.365,1.365,0,0,1,.465-1.23,1.144,1.144,0,0,1,1.285-.328q.629.273,1.23.6a6.283,6.283,0,0,0,.875.82A16.061,16.061,0,0,0,92.8-21.273,23.268,23.268,0,0,0,96.8-25.1l.656-.766a38.488,38.488,0,0,0,2.625-4.047,22.206,22.206,0,0,0-7.93,1.367,17.94,17.94,0,0,0-4.867,2.488,13.786,13.786,0,0,1-3.172,1.914q-1.148.41-1.613.055a6.483,6.483,0,0,1-.9-.848,7.755,7.755,0,0,1-.41-1.012,1.282,1.282,0,0,1,.109-1.094,2.222,2.222,0,0,1,.738-.793q3.227-3.117,5.469-5.086a19.255,19.255,0,0,0,3.063-3.172,1.329,1.329,0,0,1,2.242-.055,2.508,2.508,0,0,1,1.066,1.066,2.215,2.215,0,0,1,.219,1.449,3.847,3.847,0,0,1-.465,1.313q1.367-.164,3.336-.437t4.484-.82a2.515,2.515,0,0,1,3.008,1.094,2.719,2.719,0,0,1,.328,2.352,3.03,3.03,0,0,1-.437.93,40.381,40.381,0,0,1-3.145,4.074q-1.832,2.105-3.281,3.8a17.158,17.158,0,0,0-1.832,2.406,24.575,24.575,0,0,0,3.883,2.707q3.227,2,5.879,3.664t3.691,2.215a1.883,1.883,0,0,1,.984.93,1.591,1.591,0,0,1-.109,2.3,1.453,1.453,0,0,1-2.078,0q-1.914-1.148-4.922-3.117t-6.07-3.855q-3.062-1.887-3.937-2.434-2.953,2.734-7.164,7a6.437,6.437,0,0,1,1.914,1.367q3.391-.93,6.207-1.449a34.353,34.353,0,0,1,5.551-.574,5.051,5.051,0,0,1,2.16.3,3.781,3.781,0,0,1,1.914,1.34,2.558,2.558,0,0,1,.465,2.078A47.107,47.107,0,0,1,103.059-.82a35.984,35.984,0,0,1-1.449,3.883q.437,2.188-.465,2.543a16.393,16.393,0,0,1-2.379.684,28.052,28.052,0,0,0-5.551.957q-3.965.957-4.539.547t-1.23-.9a12.377,12.377,0,0,1-1.559-2.816A17.025,17.025,0,0,1,84.875-.164q-.328-2.57-.766-5.852A8.637,8.637,0,0,0,83.781-7.328Zm5.086,11.1a18.457,18.457,0,0,0,4.211-.191A28.46,28.46,0,0,0,98,2.461a27.283,27.283,0,0,0,1.5-4.512q.52-2.215.9-4.621a22,22,0,0,0-4.484.328A18.9,18.9,0,0,0,92.23-5.3q-1.613.656-2.3,1.012a2.483,2.483,0,0,1-1.832.027,16.338,16.338,0,0,0-.137,4.1A15.436,15.436,0,0,0,88.867,3.773ZM80.5-12.8q-.109.656-.219,1.285a.937.937,0,0,1-.766.793,4.1,4.1,0,0,1-1.859-.137,26.445,26.445,0,0,1-2.9-.9q-.492-.219-.984-.492a13.8,13.8,0,0,1-1.914-1.094q-.109,1.094-.219,2.3-.164,2.187-.383,4.977Q70.93-1.8,70.711,3.938a2.9,2.9,0,0,1-.41,1.613,1.111,1.111,0,0,1-1.176.52A2.265,2.265,0,0,1,67.1,3.938q.492-5.359.93-10.008.164-1.586.328-3.062.219-2.844.383-5.141A34.868,34.868,0,0,0,65.9-10.992q-1.641,2.078-4.047,5.578l-.766,1.2A5.393,5.393,0,0,1,59.5-3.062a6.969,6.969,0,0,1-.93-.437l-.547-.219a1.625,1.625,0,0,1-.82-1.422q2.406-3.391,5.633-7.848t5.414-8.176a5.088,5.088,0,0,0,1.586-1.7,15.3,15.3,0,0,1,.328-2.734q-2.3.6-4.566,1.285a35.893,35.893,0,0,0-4.129,1.5,2.562,2.562,0,0,1-2.789-.875q-1.531-1.641.766-2.461,3.063-1.094,5.906-1.832t4.867-1.176a22.98,22.98,0,0,0,.328-3.336q.055-1.8-.055-3.719a2.451,2.451,0,0,1,0-1.258,1.032,1.032,0,0,1,.984-.766,2.481,2.481,0,0,1,1.7.766,2.638,2.638,0,0,1,.766,2.242q-.109,2.078-.109,5.031,1.641-.383,3.555-.766a3.343,3.343,0,0,1,1.723-.219,1.508,1.508,0,0,1,1.313,1.066,8.14,8.14,0,0,1,.465,1.941,9.6,9.6,0,0,0-1.477.219q-2.133.383-5.8,1.313-.656,4.32-.875,6.453a24.065,24.065,0,0,0-.164,3.336q1.039.766,2.734,1.859a14.468,14.468,0,0,0,1.7.875A30.144,30.144,0,0,0,80.5-12.8ZM131.2,9.352a3.478,3.478,0,0,1-2.105-.437q-.957-.547-.355-1.969.82-1.586,1.887-3.937t2.926-6.234q-1.7.656-2.9,1.148a20.806,20.806,0,0,0-2.68,1.367,1.692,1.692,0,0,1-1.285.273,2.556,2.556,0,0,1-1.012-.82,3.492,3.492,0,0,1-.656-1.969,14.98,14.98,0,0,1,3.719-1.941q2.461-.957,6.727-2.27,1.367-3.172,1.859-4.484-2.078.6-3.719,1.094a2.707,2.707,0,0,1-1.559.164q-.629-.164-1.012-1.148a3.32,3.32,0,0,1-.273-.984,4.525,4.525,0,0,1-.109-.984q1.2-.328,3.008-.711,1.914-.438,4.922-1.148.383-1.2.6-2.023.219-.93.328-1.258a31.216,31.216,0,0,0-5.961,1.094,3.132,3.132,0,0,1-1.723.3,1.6,1.6,0,0,1-1.039-.984,3.867,3.867,0,0,1-.437-1.449q-.027-.6.711-.848A36.212,36.212,0,0,1,135-21.574q3.2-.52,4.949-.684a7.578,7.578,0,0,0,.219-2.105,2.086,2.086,0,0,1,.438-1.5,2.856,2.856,0,0,1,1.777.137,1.972,1.972,0,0,1,1.2,1.176,4.738,4.738,0,0,1,.3,1.641q.984,0,2.3-.055a5.576,5.576,0,0,1,1.859.164l.219.109a1.314,1.314,0,0,1,1.012,1.23A1.956,1.956,0,0,1,148.8-19.8h-2.461a26.3,26.3,0,0,0-2.844.219q-.383,1.7-.875,3.227a11.186,11.186,0,0,1,1.477-.3q.656-.082,1.34-.137a1.857,1.857,0,0,1,1.066.164,2.527,2.527,0,0,1,.766.766,1.019,1.019,0,0,1,.219,1.094,1.669,1.669,0,0,1-1.039.93,29.167,29.167,0,0,0-2.953.574,8.765,8.765,0,0,1-1.914.3q-1.312,2.734-2.078,4.594.875-.328,3.91-1.039t8.012-1.75A1.822,1.822,0,0,1,153.781-9.9a1.667,1.667,0,0,1-.41,1.285,2.258,2.258,0,0,1-1.285.684q-3.937.656-5.934,1.066a22.944,22.944,0,0,0-3.91,1.176q3.008,3.391,5.934,6.754a43.968,43.968,0,0,0,5.441,5.387,2.817,2.817,0,0,1,.055,1.641,2.035,2.035,0,0,1-1.75.82,4.4,4.4,0,0,1-1.75-.875q-2.953-3.117-5.523-6.152t-3.883-4.676a14.382,14.382,0,0,1-1.531-2.133l-1.312.273q-2.133,4.375-3.363,7.164T132.48,6.863Q131.633,8.422,131.2,9.352Zm-6.453-38.664q2.68-.766,4.074-1.176t11.02-2.324q-.438-3.937-.875-8.2a4.725,4.725,0,0,1,1.477-.273q1.859,0,2.3,2.242.164,2.625.273,6.016,1.367-.219,5.441-.437a50.923,50.923,0,0,1,9.379.492,9.142,9.142,0,0,1,2.188.875,3.867,3.867,0,0,1,1.531,1.531l.164.328a3.549,3.549,0,0,1-.246,2.16,11.018,11.018,0,0,1-1.176,2.051,26.349,26.349,0,0,1-3.582,3.965,10.453,10.453,0,0,1-2.516,1.8,2.518,2.518,0,0,1-1.75-.027q-.957-.328-.957-.984a43.062,43.062,0,0,0,3.773-4.375q.984-1.258,1.586-2.187a8.485,8.485,0,0,0,.82-1.641q-1.148-.766-6.043-1.066a38.527,38.527,0,0,0-9.953.711q-5.059,1.012-8.8,2.023a20.466,20.466,0,0,0-4.84,1.723,5.239,5.239,0,0,1-3.336.492,35.107,35.107,0,0,0,.137,4.129,9.1,9.1,0,0,0,.6,2.926l.848,1.7a1.558,1.558,0,0,1-1.641,1.039,2.462,2.462,0,0,1-1.723-1.066,7.479,7.479,0,0,1-1.012-2.6,20.673,20.673,0,0,1-.437-4.02q-.055-2.324-.082-5.5t.137-5.3q.328-2.789,2.516-1.148a1.914,1.914,0,0,1,.984.848,1.756,1.756,0,0,1,.3,1.176q-.082.547-.191,1.039Q124.852-30.734,124.742-29.312Zm78.914,5.086a24.31,24.31,0,0,1,.328-2.9,21.312,21.312,0,0,0-2.434.793,10.2,10.2,0,0,1-1.941.574,3.23,3.23,0,0,1-1.8-2.9,26.515,26.515,0,0,1,3.309-1.148,16.936,16.936,0,0,0,2.871-1.039q.109-1.75.055-3.445a7.3,7.3,0,0,0-2.461.574q-1.258.52-2.516,1.066a2,2,0,0,1-2.9-.656q-1.258-1.8.93-2.625,3.008-.875,4.758-1.395a8.068,8.068,0,0,0,2.078-.793A3.02,3.02,0,0,0,204.121-40a2.555,2.555,0,0,1,.848-2.215,3.335,3.335,0,0,1,2.844,3.227q2.3-.383,3.719-.656a2.227,2.227,0,0,1,2.734.93,3.231,3.231,0,0,1,.219,1.969,2.419,2.419,0,0,1-1.586.656,41.681,41.681,0,0,0-5.141.93q-.164,1.914-.164,3.609a15.31,15.31,0,0,0,2.516-.219l2.3-.383a2.023,2.023,0,0,1,1.367.164,1.642,1.642,0,0,1,.93,1.066,5.66,5.66,0,0,1,.219,1.613q-3.937.6-7.492,1.313a13.926,13.926,0,0,0-.273,3.281l.383-.055q2.734-.6,5.3-.984,2.789-.437,7.438-1.258a1.931,1.931,0,0,1,2.3,1.367q1.039,1.914-1.258,2.023a40.546,40.546,0,0,0-6.426.766q-2.434.547-6.4,1.148a41.178,41.178,0,0,0-7.41,1.8q-2.953,1.039-5.8,2.188-.492.164-.984.383-1.914-.164-2.461-2.789a49.9,49.9,0,0,1,5.25-2.133Q200.211-23.352,203.656-24.227Zm-.547,8.039q2.406-.82,3.938-1.2t5.8-1.367a3.058,3.058,0,0,1,2.27.465,2.306,2.306,0,0,1,1.121,1.941q-.383,4.43-.82,8.094t-.875,6.617Q214.484.219,212.9.438a3.858,3.858,0,0,1-1.914-.383q-4.484,1.367-8.258,2.406a2.5,2.5,0,0,1-2.625-.984,8.832,8.832,0,0,1-.93-3.336,59.7,59.7,0,0,1-.328-7.355q0-4.949.219-8.23a1.954,1.954,0,0,1,1.777-.6A4.16,4.16,0,0,1,203.109-16.187Zm8.531,11.1q-4.977,1.094-9.461,2.133a1.871,1.871,0,0,0,.191,1.066,7.754,7.754,0,0,1,.41.9,13.518,13.518,0,0,0,2.57-.437q1.859-.438,3.691-.793a5.966,5.966,0,0,0,2.242-.711,1.167,1.167,0,0,0,.355-1.039A5.691,5.691,0,0,1,211.641-5.086ZM212.9-15.75q-2.406.492-4.211.957t-3.227.9a19.079,19.079,0,0,1-3.008.656q-.164,1.258-.273,2.406,6.07-1.258,10.609-2.516A9.264,9.264,0,0,0,212.9-15.75Zm-.656,5.633q-2.625.328-5.387.957t-5.113,1.285q.109.875.219,2.406,2.57-.82,4.676-1.312t5.332-.984Q212.187-9.242,212.242-10.117Zm9.3,18.484q-.383,1.859-1.969,1.148-1.8-1.094-3.227-2.105a23.891,23.891,0,0,0-3.172-1.887,12.353,12.353,0,0,1-1.8-1.859,1.526,1.526,0,0,1,.109-1.5,1.451,1.451,0,0,1,1.148-.6,2.746,2.746,0,0,1,1.422.355q2.68,1.914,4.566,3.2a11.969,11.969,0,0,1,2.652,2.27A2.524,2.524,0,0,1,221.539,8.367Zm-21.82,1.586q2.023-3.281,4.266-6.289a1.535,1.535,0,0,1,1.258-.437,4.441,4.441,0,0,1,1.367.547,1.577,1.577,0,0,1,.383,2.406Q204.914,8.7,202.727,11.1a1.588,1.588,0,0,1-1.777.191A3.135,3.135,0,0,1,199.719,9.953ZM187.469-15.8a16.607,16.607,0,0,0-1.613.984q-.793.547-1.668,1.094-.109,1.313-.164,2.516-.82,12.2-.875,13.289a23.079,23.079,0,0,0,.273,3.719,1.494,1.494,0,0,1-.383.957,1.584,1.584,0,0,1-.93.574,2.227,2.227,0,0,1-1.75-.82,6.388,6.388,0,0,1-.547-2.57q.273-5.742.711-13.18l.055-.492q-.055-1.258-.164-2.461a20.067,20.067,0,0,0-2.242.875q-1.2.547-4.758,1.7a2.336,2.336,0,0,1-3.062-1.258A4.789,4.789,0,0,1,169.914-12a1.468,1.468,0,0,1,.137-1.148,2.788,2.788,0,0,1,.738-.848q3.008-3.172,4.7-4.758a25.628,25.628,0,0,0,2.516-2.625q-2.461-1.094-5.25-2.242a3.147,3.147,0,0,1-1.312-1.859,2.025,2.025,0,0,1,.711-2.352q3.391-3.008,5.961-5.551t4.266-4.457a7.988,7.988,0,0,1,1.641.6q1.8,1.258,1.148,2.516-2.844,2.461-4.785,4.266t-3.008,2.844a11.528,11.528,0,0,0-1.395,1.531,4.088,4.088,0,0,0,1.969,1.23,10.674,10.674,0,0,0,2.789.684q2.406-2.352,4.594-4.156a5.565,5.565,0,0,1,1.012-.793,1.02,1.02,0,0,1,1.23.137,3.659,3.659,0,0,1,1.531,2.078q.219.656-.027.9a3.121,3.121,0,0,1-.793.52,21.76,21.76,0,0,0-3.09,2.379,14.828,14.828,0,0,0-2.105,2.16,3.859,3.859,0,0,1-1.367,1.176,12.62,12.62,0,0,0-2.352,1.887q-1.422,1.367-3.5,3.828,2.133-.656,2.57-.848t1.777-.684q1.34-.492,2.707-1.121t2.57-1.285q.164-.82.383-1.75.383-1.531,1.7-.875a14.449,14.449,0,0,1,2.023,1.969q1.039,1.2,2.023,2.352l.438.438q.766.82,1.367,1.422a1.426,1.426,0,0,1,.164,1.969,1.489,1.489,0,0,1-2.078.273,8.016,8.016,0,0,1-1.859-1.367l-.6-.6Q188.344-14.875,187.469-15.8Zm-9.406,11.32q-1.8,2.352-2.707,3.5a70.242,70.242,0,0,0-3.8,6.234,2.26,2.26,0,0,1-1.668-.492,2.449,2.449,0,0,1-.793-1.477A12.141,12.141,0,0,1,170.242.273a61.863,61.863,0,0,1,3.883-5.8l.219-.328a1.339,1.339,0,0,1,1.313-.82h.438a2.5,2.5,0,0,1,1.313.656Q178.445-5.25,178.063-4.484Zm15.859-.547q-.109,1.148-.684,1.449t-2.215-.355a51.824,51.824,0,0,1-4.922-2.68,3.118,3.118,0,0,1-.3-2.105q.191-1.285,1.34-.957a41.642,41.642,0,0,1,5.2,3.172A7.7,7.7,0,0,1,193.922-5.031Z" transform="matrix(0.996, -0.087, 0.087, 0.996, 41.553, 541.922)" fill="#252525"/></g></svg>