<svg xmlns="http://www.w3.org/2000/svg" width="81.916" height="65.771" viewBox="0 0 81.916 65.771"><defs><clipPath id="a"><path fill="#ed7b27" d="M0 0h81.797v65.651H0z"/></clipPath></defs><g fill="#ed7b27"><path d="M35.55 65.771q-1.118 0-2.232-.01a244.74 244.74 0 01-7.47-.184l-.227-.008a7.069 7.069 0 01-1.885-.242 5.75 5.75 0 00-1.716-.1c-.262.009-.533.019-.792.015l-21.216-.3L0 60.434c0-.686.034-1.366.068-2.024.026-.484.052-.985.062-1.477l.029-1.4.132-6.249.131-6.244.066-3.122a10.486 10.486 0 00-.023-1.227 2.368 2.368 0 01.048-.651c.01-.055.019-.106.024-.15 0-.163-.032-.9-.065-1.61-.073-1.6-.173-3.794-.162-5.067s.226-7.448.434-13.436c.14-4.025.272-7.826.343-10.131l.023-.748.748.021c1.406.039 2.811.072 4.175.1a468.645 468.645 0 0012.466.066c.99-.008 2.01-.02 3.117-.037h.011l.767-.012c.053 0 .114 0 .178-.008a2.827 2.827 0 01.693.022 5.34 5.34 0 00.874.089c1.184.038 2.394.075 3.7.112l.877.026c16.991.513 20.245.468 20.672.4a.729.729 0 00-.546.656l1.5.111-.193 2.545c-.3 3.961-.613 8.056-.8 11.9l-1.499-.083c.191-3.861.5-7.967.806-11.938l.127-1.669a69.44 69.44 0 01-1.86.007 401.836 401.836 0 01-6.187-.105c-4.687-.107-9.853-.263-12.059-.33l-.875-.026a965.782 965.782 0 01-3.707-.112 6.822 6.822 0 01-1.1-.114 1.789 1.789 0 00-.329 0c-.077 0-.156.009-.239.01l-.77.012h-.011a434.43 434.43 0 01-9.38.046 471.841 471.841 0 01-9.694-.153c-.074 2.334-.194 5.772-.32 9.39-.208 5.977-.423 12.158-.433 13.4s.092 3.49.16 4.985c.067 1.47.074 1.692.059 1.825-.01.094-.026.184-.04.264a1.474 1.474 0 00-.032.249 11.861 11.861 0 01.029 1.4l-.066 3.122-.131 6.244-.131 6.245-.029 1.4c-.011.516-.038 1.029-.064 1.525-.035.667-.068 1.3-.066 1.94l.01 3.038 19.741.275c.222 0 .463-.005.718-.014a6.893 6.893 0 012.2.161 5.841 5.841 0 001.506.18l.234.009a243.703 243.703 0 0021.545-.098 562.678 562.678 0 01-.036-26.177l1.5.033c-.2 8.9-.177 17.934.055 26.837l.019.73-.73.038c-4.22.225-8.487.336-12.72.336z"/><path d="M10.337 20.114l23.234.773c.247.008.7-.079.8-.353.093-.259-.082-.428-.351-.437l-23.236-.773c-.247-.008-.7.079-.8.353-.093.259.082.428.351.437m-.591 7.268l22.357.081a1.348 1.348 0 00.861-.231c.116-.134.231-.26-.07-.261l-22.357-.08a1.344 1.344 0 00-.861.231c-.117.134-.231.259.07.26m.595 6.945l19.342.589c.489.015 1.285-.706.463-.731l-19.339-.589c-.489-.015-1.285.706-.463.731m.283 8.072l16.744.876a1.155 1.155 0 00.861-.231c.125-.151.206-.343-.1-.359l-16.743-.879a1.155 1.155 0 00-.861.231c-.125.151-.2.344.1.359M9.75 52.872q14.414.22 28.8 1.251c.264.019 1.388-.455.789-.5q-14.379-1.03-28.8-1.251a1.322 1.322 0 00-.861.231c-.118.137-.229.262.071.267m-.916-42.194a3.072 3.072 0 01-2.267-3.408 2.366 2.366 0 01.389-1.047 1.6 1.6 0 01.285-.317 1.24 1.24 0 01.3-.177.412.412 0 00.021-.009l.124-.032c-.15.03.17-.009.059 0a1.183 1.183 0 01.363.03 1.389 1.389 0 01.748.48c.231.274 1.394-.145 1.139-.448-.957-1.138-3-.7-3.931.237a3.172 3.172 0 00-.054 4 3.1 3.1 0 002.06 1.273 1.224 1.224 0 00.859-.227c.192-.151.15-.318-.1-.354m5.28.043a3.3 3.3 0 01-2.134-2.875 2.466 2.466 0 01.544-1.83c.5-.54 1.322-.054 1.86.211a.92.92 0 00.866-.1c.169-.113.361-.4.093-.528a3.905 3.905 0 00-2.573-.525 2.5 2.5 0 00-1.741 1.442 3.646 3.646 0 00.537 3.665 3.717 3.717 0 001.817 1.255.946.946 0 00.861-.231c.2-.2.121-.405-.13-.486m5.596-.131a3.288 3.288 0 01-1.461-3.222c.009-.044.062-.242.039-.165.03-.1.063-.195.1-.289a2.675 2.675 0 01.199-.404c0-.006.044-.07.013-.021s.021-.031.028-.039c.059-.081.12-.159.186-.235.028-.032.1-.1.025-.032.045-.043.093-.084.143-.122s.077-.055.115-.083c.079-.059-.072.029.053-.028l.134-.064c.083-.041-.107.033-.016.005a2.361 2.361 0 01.28-.074c-.132.026.068 0 .111-.008a1.278 1.278 0 01.368.015 3.909 3.909 0 011.078.332.8.8 0 00.862-.231.373.373 0 00-.164-.611 3.4 3.4 0 00-4 .5 3.435 3.435 0 00-.739 3.155 4.6 4.6 0 001.708 2.336c.446.338 1.5-.289.935-.718m12.528 1.49a4.09 4.09 0 01-2.112-4.252A3.191 3.191 0 0131.4 5.887a1.952 1.952 0 011.865-.238 1.313 1.313 0 00.851-.156c.123-.061.4-.231.149-.317a4.466 4.466 0 00-5.155 2.245 4.13 4.13 0 001.966 5.068 1.081 1.081 0 00.784-.069c.057-.02.55-.243.363-.346"/><path d="M36.977 10.883a5.432 5.432 0 01-1.718-1.617 2.865 2.865 0 01-.516-2.08 2.071 2.071 0 01.994-1.325 3.75 3.75 0 01.175-.075c-.084.032.139-.037.164-.042-.08.016.148-.015.175-.016-.016 0 .127.007.163.011a2.159 2.159 0 011.045.47.8.8 0 00.813.035c.127-.056.545-.349.314-.53a3.131 3.131 0 00-2.29-.717 3.345 3.345 0 00-2.006.965 2.669 2.669 0 00-.814 1.676 3.6 3.6 0 00.634 2.088 5.917 5.917 0 001.907 1.777.905.905 0 00.866-.1c.188-.124.342-.369.095-.521m4.714-.196a2.774 2.774 0 01-1.74-2.883 3.4 3.4 0 01.358-1.151 3.2 3.2 0 01.167-.279 1.239 1.239 0 01.169-.216 2.356 2.356 0 01.175-.167c-.037.033.082-.052.1-.067.078-.059-.066.031.055-.028s-.073.011.071-.026-.051-.007.057-.012c.026 0 .052-.005.078-.007.062 0-.076-.01.033 0 .071.008.1.006.117.009a2.56 2.56 0 01.95.416.9.9 0 00.866-.1c.192-.127.337-.368.093-.524a2.984 2.984 0 00-2.255-.492 2.677 2.677 0 00-1.573 1.034 3.449 3.449 0 00-.429 3.44 3.362 3.362 0 001.97 1.768.944.944 0 00.861-.231c.2-.2.116-.4-.129-.481m3.735.43a2.95 2.95 0 01-.916-3.459 3.007 3.007 0 01.9-1.231.7.7 0 01.111-.074c.006 0 .151-.1.072-.04.071-.026.073-.029.006-.008a1.45 1.45 0 01.113-.031c-.118.026.074 0-.023 0a1.584 1.584 0 01.795.259c.311.182 1.44-.286.978-.557a2.82 2.82 0 00-3.474.725 3.471 3.471 0 00-.846 3.1 3.234 3.234 0 001.148 1.776.875.875 0 00.8-.011c.1-.042.547-.286.335-.449m-19.837-.017a3.184 3.184 0 01-1.441-4 2.776 2.776 0 011.539-1.5.536.536 0 01.658.108 3.251 3.251 0 01.5 1.018c.143.351 1.341-.028 1.218-.326-.263-.646-.482-1.375-1.285-1.448a4.132 4.132 0 00-2.487.753 3.407 3.407 0 00-1.433 3.94 3.444 3.444 0 001.59 1.9.987.987 0 00.794-.033c.066-.026.566-.291.347-.409m24.364-1.201l.62 10.887c.02.348 1.243.11 1.218-.327l-.62-10.887c-.02-.347-1.243-.11-1.218.327m0 26.203c-.056 9.116.312 18.228.256 27.344l.124-.248-2.134 1.731c-.528.429.68.4.969.17l1.36-1.1c.445-.361.9-.554.9-1.152.023-3-.015-5.993-.059-8.989-.088-6.026-.236-12.052-.2-18.08 0-.341-1.216-.125-1.218.327"/></g><g clip-path="url(#a)" fill="#ed7b27" transform="translate(.12)"><path d="M46.012 39.826c9.074-8.401 18.371-16.557 27.716-24.657q4-3.466 8.008-6.925c.211-.182-.19-.176-.281-.174a1.454 1.454 0 00-.817.284c-9.356 8.089-18.72 16.167-27.906 24.444q-3.932 3.543-7.818 7.139c-.2.186.182.176.281.174a1.424 1.424 0 00.817-.284"/><path d="M81.642 7.908L75.111.584c-.306-.343-1.47.109-1.126.495l6.531 7.325c.306.343 1.47-.108 1.126-.495"/><path d="M37.935 32.038c10.235-8.013 19.895-16.749 29.68-25.3C69.971 4.68 72.281 2.571 74.634.51c.218-.19.093-.393-.129-.479a.964.964 0 00-.861.231C64.35 8.407 55.165 16.677 45.718 24.643a304.147 304.147 0 01-8.555 6.975c-.649.508.365.739.772.421"/><path d="M45.387 40.252a21.6 21.6 0 01.943-4.254c.025-.074-.028-.1-.1-.11a23.285 23.285 0 00-4.994-.53l.2.119 1.26-2.561c.194-.393.934-1.343.256-1.592a3.5 3.5 0 00-1.1-.081q-.608-.009-1.216.006-1.368.035-2.729.19c-.211.023-.692.084-.817.282s.108.187.279.167a28.382 28.382 0 012.3-.17q.565-.018 1.129-.013a3.341 3.341 0 011.056.039c.359.148.086.516-.034.759l-.552 1.12-1.024 2.08c-.056.114.141.119.2.119a22.285 22.285 0 014.785.513l-.1-.111a22.075 22.075 0 00-.963 4.353c-.013.112 1.178.02 1.218-.327"/><path d="M44.962 40.024l-13.751 4 .661.119q3.565-6.293 7-12.656c.113-.209-1.029-.127-1.206.2q-3.438 6.363-7 12.656c-.142.25.626.129.661.119l13.75-4c.115-.033.622-.182.551-.381s-.545-.091-.668-.055"/><path d="M36.762 42.378a4.585 4.585 0 00-1.964-2.829.84.84 0 00-.87.087c-.191.146-.334.41-.079.577.114.074.225.154.331.239l.079.065c.057.048-.074-.068.022.02.05.046.1.092.148.141a4.3 4.3 0 01.51.611q.11.161.206.33l.049.09c.016.03-.014-.031.016.033s.058.123.085.185a4.218 4.218 0 01.248.778c.061.279.5.277.711.215.225-.067.571-.252.508-.542m9.409-6.07c8.8-7.632 17.388-15.5 26.029-23.311q3.739-3.379 7.5-6.734c.214-.19-.189-.221-.293-.22a1.351 1.351 0 00-.814.3c-8.698 7.746-17.26 15.645-25.96 23.388q-3.764 3.349-7.569 6.653c-.218.189.191.221.293.22a1.361 1.361 0 00.814-.3m-2.969-4.597c4-3.763 8.3-7.159 12.587-10.584l13.7-10.948 7.7-6.158c.493-.395-.711-.26-.943-.074-9.146 7.312-18.381 14.528-27.438 21.953a130.935 130.935 0 00-6.716 5.874c-.21.2.183.236.3.236a1.288 1.288 0 00.813-.3"/></g></svg>