<svg xmlns="http://www.w3.org/2000/svg" width="159.606" height="26.358" viewBox="0 0 159.606 26.358"><defs><clipPath id="a"><path fill="#fff" d="M0 0h22.795v20.622H0z"/></clipPath></defs><path d="M31.06 20.547q-.157.682-.276 1.312t-.3 1.365q.814-.131 2.834-.315t3.018-.354q1-.171 1.968-.249a1.136 1.136 0 01.958.525q.328.5-.59.682-1.994.5-4.579.918t-4.317.735q-1.732.315-3.805.6a1.7 1.7 0 01-1.681-.832q-.551-.945.525-1.023a12.073 12.073 0 001.535-.057q.879-.079 1.955-.236a6.2 6.2 0 00.787-2.572q-.656.157-1.207.262t-1.181.236a1.2 1.2 0 01-1.024-.21 1.624 1.624 0 01-.63-.892q-.1-.551.472-.63 1-.131 1.929-.328t1.771-.407a7.075 7.075 0 000-1.233.7.7 0 01.131-.42q.131-.184.63-.184a1.25 1.25 0 01.709.433 4.541 4.541 0 01.42.984q.42-.052 1.1-.171t1.811-.433a.9.9 0 01.709-.026.9.9 0 01.446.709.933.933 0 01-.289.682 10.538 10.538 0 01-1.837.656q-1.073.289-1.992.473zm-8.581-3.149a5.534 5.534 0 002.047.341 1.487 1.487 0 00.879-.485 2.782 2.782 0 00.5-.827 2.879 2.879 0 00.2-.814q-.735.262-1.115.394t-2.637.892a1.12 1.12 0 01-.945.052 1.885 1.885 0 01-.551-.367q-.761-1.05.6-1.207 1.389-.343 4.253-1.259l-.5-.341q-1.286-.814-.052-1.575a3.012 3.012 0 001.391-1.076 3.4 3.4 0 00-.958.184 6.566 6.566 0 00-1.246.551q-.656.367-1.155.709a1.3 1.3 0 01-1.063.276 1.112 1.112 0 01-.59-.525 1 1 0 01-.131-.722 8.727 8.727 0 011.745-.984 12.081 12.081 0 012.454-.853 3.933 3.933 0 011.653-.131 1.088 1.088 0 01.827.6 1.5 1.5 0 01.171.945 2.01 2.01 0 01-.472.971 5.426 5.426 0 01-.918.866q.21.184.367.315l.157.157.1.236q1.312-.367 2.152-.63a.652.652 0 01.577.262q.131.236-.367.945a6.93 6.93 0 01-2.2.84 1.916 1.916 0 010 .892 8.981 8.981 0 01-.42 1.312 2.767 2.767 0 01-.814 1.207 4.281 4.281 0 01-.787.525 2.3 2.3 0 01-1.066.16 3.89 3.89 0 01-1.355-.511 1.249 1.249 0 01-.731-1.325zm.052-11.964a19.482 19.482 0 012.112-.63q1.273-.315 2.191-.525a4.052 4.052 0 011.26-.157 1.167 1.167 0 01.892.512 1.068 1.068 0 01.236.958 7.961 7.961 0 01-.892 1.679 1.315 1.315 0 01.066.932 1.137 1.137 0 01-.7.407 13.965 13.965 0 01-1.863.564q-.971.223-2.047.512a1.457 1.457 0 01-.945-.1 1.473 1.473 0 01-.971-.709 6.225 6.225 0 01-.69-1.643 7.475 7.475 0 01-.328-1.588.535.535 0 01.446-.381 1.65 1.65 0 01.59.026l.643.143zm4.829.184q-.761.21-1.679.433a10.587 10.587 0 00-1.732.577q-.814.354-1.417.669a3.334 3.334 0 00.472.971q.787-.131 1.64-.341a17.186 17.186 0 001.9-.6 3.148 3.148 0 00.577-.905 3.748 3.748 0 00.239-.807zm-9.473-1.052a22.187 22.187 0 013.214-1.132q1.666-.446 2.874-.84.026-.761.052-1.338a2.231 2.231 0 010-.682q.052-.525.446-.577h.157a1.273 1.273 0 01.58.137 1.385 1.385 0 01.525 1.26q-.079.446-.131 1.05.341-.026 1.365-.21t1.863-.262a5.529 5.529 0 011.26-.013 2.018 2.018 0 01.787.3.674.674 0 01.354.761.748.748 0 01-.643.682.978.978 0 01-.669-.026 3.007 3.007 0 00-.722-.184 13.275 13.275 0 00-2.375.262 35.228 35.228 0 00-4.317 1 27.933 27.933 0 00-3.2 1.076 1.447 1.447 0 01-.853-.026.846.846 0 01-.381-.446 2.9 2.9 0 01-.186-.792zm16.923.968q.367-1.575.577-2.257a14.864 14.864 0 00.394-1.706 1.828 1.828 0 011.351.367q.407.394.118 1.312-.315.814-.63 1.679a3.316 3.316 0 01.761-.21q.367-.052.761-.131a2.073 2.073 0 011.391.341 1.533 1.533 0 01.394 1.312v.21q-.367 1.889-.656 3.083a24.23 24.23 0 00-.472 2.65 5.318 5.318 0 00.081 2.25.537.537 0 00.709.394 7.445 7.445 0 001.876-1q1.01-.709 1.693-1.233a1.109 1.109 0 01.341.866 2.579 2.579 0 01-.551 1.023 5.6 5.6 0 01-1.351 1.181 3.45 3.45 0 01-1.588.63 1.855 1.855 0 01-1.942-.551 3.54 3.54 0 01-.971-2.729q.315-2.6.551-3.779a18.01 18.01 0 00.315-1.837q.052-.525.1-1.1a4.1 4.1 0 00-1.968.525q-.21.761-.577 1.968t-1.1 2.992a17.444 17.444 0 001.575 2.1.713.713 0 01-.118.709q-.249.315-.512.21a2.1 2.1 0 01-.617-.3 6.226 6.226 0 01-.958-.932q-.472 1.076-1.312 3.149a2.343 2.343 0 01-.879-.066.566.566 0 01-.472-.577 1.3 1.3 0 01.171-.748 21.422 21.422 0 001.26-3.28 3.879 3.879 0 00-.735-.709 3.112 3.112 0 01-.079-.341.847.847 0 01.079-.472.539.539 0 01.525-.341 5.413 5.413 0 01.709.052l.157.026.079-.157q.315-.814.446-1.26.157-.525.341-1.312-.656.394-1.142.656a6.932 6.932 0 00-.958.63 1.527 1.527 0 01-1.05.092 1.622 1.622 0 01-.892-.853.6.6 0 01.2-.512 6.188 6.188 0 01.7-.407q1.385-.607 3.875-1.607zm24.382 14.488q-.551-.446-1.1-.918a3.478 3.478 0 01-.709-1.076 1 1 0 01.157-.892.741.741 0 01.472-.052 2.182 2.182 0 01.5.184 1.987 1.987 0 01.564.472 4.12 4.12 0 001.063.761 8.332 8.332 0 002.545-1.47 37.687 37.687 0 003.1-2.545 1.12 1.12 0 011.023.892.763.763 0 01-.262.971q-1.128.814-2.755 1.824a10.491 10.491 0 01-2.414 1.22 12.132 12.132 0 001.588 1.26q1.22.866 3.162 2.257a3.043 3.043 0 01.859 1.024.741.741 0 01-.075.812.917.917 0 01-.814.184 1.281 1.281 0 01-.709-.472q-1.236-.924-2.928-2.218t-2.27-1.693q-.315.315-2.1 1.666a22.8 22.8 0 01-2.624 1.8 5.74 5.74 0 01-1.312.551 1.725 1.725 0 01-2.073-1.26 11.34 11.34 0 01-.42-2.86q-.052-1.627.026-4.382-.945.315-2.021.787a15.664 15.664 0 00-1.811.918 1.394 1.394 0 01-.682-.079 1.414 1.414 0 01-.577-.525 2.752 2.752 0 01-.236-.866 23.1 23.1 0 013.07-1.378q1.732-.643 3.333-1.168-.131-2.572-.144-6.049t-.013-5.445q.184-.63.512-.643a1.122 1.122 0 01.577.118 6.245 6.245 0 01.853.63q3.963-.761 7.4-1.181.735.052.918.315a1.7 1.7 0 01.236.8.482.482 0 01-.5.59 20.824 20.824 0 00-2.9.276 42.986 42.986 0 00-5.025 1.063 3.414 3.414 0 00-.21 1.01 10.24 10.24 0 000 1.037 16.636 16.636 0 011.916-.525q1.365-.315 3.516-.656a.784.784 0 01.617-.013 1.3 1.3 0 01.407.551 1.1 1.1 0 01.052.879 5.558 5.558 0 01-.866.184 19.487 19.487 0 00-2.834.525 17.163 17.163 0 00-2.939.945 4.682 4.682 0 00.026 1.732q1.286-.367 2.637-.656t2.926-.656a1.262 1.262 0 01.761-.026.644.644 0 01.472.446 4.371 4.371 0 00.184.42l.1.262q-.472.131-1.155.315-1.05.315-2.624.761a16.773 16.773 0 00-3.254 1.1q.026.315.052.722t.079.722q1.365-.236 3.753-.761 2.467-.525 6.692-1.207a.85.85 0 01.8.289 1.334 1.334 0 01.276.866 1.3 1.3 0 01-.551.63 2.26 2.26 0 01-.84.013 17.109 17.109 0 00-3.149.354q-2.545.42-4.553.945t-3.11.84a12.8 12.8 0 00-.459 2.939q-.092 1.706-.052 2.808a3.465 3.465 0 00.464 1.758 9.128 9.128 0 002.834-1.155q1.314-.813 2.548-1.601zM85.67 9.184a2.374 2.374 0 00-1.076-.236 28.793 28.793 0 00-3.018.367 19.028 19.028 0 00-3.661.84 17.75 17.75 0 00-2.165.971 3.064 3.064 0 01-.538.236 1.079 1.079 0 01-.459.052q-.21-.026-.512-.446a2.364 2.364 0 01-.367-.656.8.8 0 01.223-.63 32.159 32.159 0 013.1-1.128 26.935 26.935 0 013.818-.879 30.531 30.531 0 013.241-.381 2.8 2.8 0 011.456.157 6.655 6.655 0 011.351.814 1.684 1.684 0 01.341 1.522 12.257 12.257 0 01-1.273 2.362 27.919 27.919 0 01-2.421 3.255q-1.351 1.575-2.1 2.506t-1.32 1.719a3.155 3.155 0 01-.433.538 1.328 1.328 0 01-.682.341 1.02 1.02 0 01-.774-.118.831.831 0 01-.446-.525 1.091 1.091 0 01.052-.577 1.214 1.214 0 01.341-.5q1.365-1.548 2.126-2.4t1.955-2.309q1.194-1.456 1.929-2.4a10.445 10.445 0 001.023-1.509 2.229 2.229 0 00.289-.986zm3.936-.1q-.079.21-.512.144a.95.95 0 01-.669-.407 7.125 7.125 0 01-.407-1.811q-.118-1.076-.328-2.231a.924.924 0 01.092-.787.876.876 0 01.512-.262h.052a1.172 1.172 0 01.682.315 1.7 1.7 0 01.525 1.076q.1 1.758.092 2.716t-.035 1.242zm2.729-.945q-.184-2.021-.262-2.729t-.157-1.155a.978.978 0 01.6-.5h.131a.627.627 0 01.42.157 4.551 4.551 0 01.551.761 33.358 33.358 0 01.292 3.567q-.079.6-.367.656a1.026 1.026 0 01-.669-.157 1.168 1.168 0 01-.539-.605zm16.875 2.174a21.109 21.109 0 00-2.388.039 9.815 9.815 0 00-2.9.59 8.642 8.642 0 00-1.8.84 2.594 2.594 0 01-.761.276 1.065 1.065 0 01-.722-.131 1.075 1.075 0 01-.5-.59 3.85 3.85 0 01-.2-.735 10.576 10.576 0 013.674-1.4 21.128 21.128 0 015.59-.669 2.44 2.44 0 011.023.289 1.324 1.324 0 01.669.8 3.351 3.351 0 01.171 1.01 14.1 14.1 0 01-.367 3.241q-.367 1.561-.669 2.677t-.485 1.758a3 3 0 01-.682 1.194 1.587 1.587 0 01-.918.354.852.852 0 01-.682-.485 4.534 4.534 0 00.315-.892 12.9 12.9 0 00-2.139.446q-1.588.42-4.186 1.155a2.049 2.049 0 01-1.142-.066 1.974 1.974 0 01-.958-.669q-.262-.394-.7-1.023a5.373 5.373 0 01-.7-1.5 22.68 22.68 0 01-.3-4.553q.092-2.086.171-2.913t.131-1.588a.54.54 0 01.315-.472.582.582 0 01.184-.026 1.884 1.884 0 01.6.131 1.29 1.29 0 01.709.564 1.108 1.108 0 01.1.748q-.236 1.443-.407 3.175a17.032 17.032 0 00-.079 2.913 14.124 14.124 0 00.367 2.3 3.526 3.526 0 00.512 1.351q.787-.236 2.624-.63t3.438-.682q1.6-.289 1.968-.367a40.737 40.737 0 00.984-4.579 6.38 6.38 0 00.14-1.881zm19.026-3.254q-.63.157-1.6.381a10.677 10.677 0 00-1.968.669 4.049 4.049 0 00-1.233.722 3.837 3.837 0 01-.735.617 2.75 2.75 0 00-1.706 1.01 17.079 17.079 0 00-1.181 1.5 6.539 6.539 0 00-.656 1.194.62.62 0 01-.656.039 1.807 1.807 0 01-.446-.407.59.59 0 01-.1-.538l.157-.59a32.784 32.784 0 012.362-3.648q1.68-2.336 2.782-3.648a.65.65 0 01.918-.21 2.811 2.811 0 01.617.577.887.887 0 01.144.918q-.157.367-.262.682 1.522-.5 2.782-.84a2.828 2.828 0 011.3-.013 2.809 2.809 0 011.22 1.089 2.681 2.681 0 010 1.811q-1.286 3.307-2.244 5.393t-2.008 4.041q-1.05 1.955-2.309 4.448a6.012 6.012 0 01-.459 1.076q-.171.262-.59.131a1.3 1.3 0 01-.7-.538 1.333 1.333 0 01-.171-1.01q.682-1.391 1.9-3.674t2.516-4.924a32.79 32.79 0 001.758-4.068 14.165 14.165 0 00.567-2.19zm4.12-1q-.157.446-.446.407a.755.755 0 01-.446-.2 2.694 2.694 0 01-.525-1.181q-.026-1.758 0-3.307a1.478 1.478 0 011.181.131 1.035 1.035 0 01.577.971 26.772 26.772 0 01-.342 3.182zm3.884-3.543q-.026 1.207-.131 2.388a.5.5 0 01-.381.394.5.5 0 01-.525-.157 1.075 1.075 0 01-.276-.6q-.236-1.548-.3-1.929t-.144-.748a.492.492 0 01.21-.42h.131a2.431 2.431 0 01.709.184 1.065 1.065 0 01.705.891z" fill="#fff"/><g clip-path="url(#a)" fill="#fff" transform="translate(136.811 4.391)"><path d="M22.626 4.56q-7.574 6.628-14.849 13.588c-.482.462-1.217-.271-.734-.734q7.273-6.958 14.849-13.587c.5-.438 1.237.293.734.734"/><path d="M21.602 3.665A15.932 15.932 0 0019.545.882h.734q-7.913 7-16.048 13.735c-.51.423-1.248-.307-.734-.734Q11.631 7.145 19.545.148a.527.527 0 01.734 0 17.19 17.19 0 012.219 2.993.52.52 0 01-.9.524"/><path d="M20.771 3.887q-6.777 6.982-14.177 13.315c-.5.432-1.242-.3-.734-.734q7.393-6.327 14.177-13.315c.466-.48 1.2.254.734.734m-.047-1.557Q13.706 9.022 6.101 15.051c-.518.411-1.257-.319-.734-.734q7.6-6.024 14.623-12.721c.483-.461 1.218.272.734.734"/><path d="M7.323 18.316a1.666 1.666 0 01-1.147.424.525.525 0 01-.5-.657c.226-.845-.875-.622-1.287-.967a1.723 1.723 0 01-.351-1.71c.125-.655 1.126-.378 1 .276a1.041 1.041 0 00-.029.53c.082.162.13.11.322.134a1.525 1.525 0 01.834.352 1.619 1.619 0 01.51 1.661l-.5-.657a.489.489 0 00.413-.12c.513-.419 1.251.31.734.734"/><path d="M5.325 19.272a26.919 26.919 0 00-4.658 1.325.521.521 0 01-.638-.638 28.613 28.613 0 012.617-5.015c.365-.555 1.264-.036.9.524a27.272 27.272 0 00-2.517 4.766l-.638-.638a26.937 26.937 0 014.658-1.324c.653-.123.932.876.276 1"/><path d="M1.623 19.555a1.252 1.252 0 00-.05-.053q-.063-.056.022.011a.381.381 0 00-.108-.068c-.114-.06.07.008-.027-.01-.034-.007-.194-.029-.041-.014a.53.53 0 01-.519-.519.524.524 0 01.519-.519 1.4 1.4 0 01.938.438.519.519 0 11-.734.734"/></g><path d="M5.738 20.95c-.585-2.083-1.46-4.077-2.082-6.147a48.163 48.163 0 01-1.604-6.208c-.16-.98-.14-2.887 1.244-2.901a3.092 3.092 0 012.64 1.975 21.99 21.99 0 011.082 3.077c.34 1.007.65 2.03 1.004 3.032s.643 2.032.94 3.05.647 2.034.915 3.067c.289 1.099.667 2.188.873 3.306.106.576.172 1.304-.509 1.555a1.967 1.967 0 01-2.013-.42 9.413 9.413 0 01-1.26-2.78c-.418-.993-.707-2.032-1.092-3.037a59.696 59.696 0 01-1.931-6.269 5.473 5.473 0 01-.309-1.74c.036-.538.229-.987.866-1.01a1.39 1.39 0 011.009.332c.878.745 1.093 2.014 1.438 3.056.793 2.386 1.483 4.789 2.191 7.2.048.147.805-.222.73-.474-.74-2.52-1.444-5.04-2.298-7.527-.352-1.024-.577-2.365-1.622-2.943a2.28 2.28 0 00-2.803.84c-.607.984-.049 2.317.202 3.327a40.305 40.305 0 001.134 3.75c.42 1.176.77 2.373 1.211 3.542a30.826 30.826 0 001.459 3.637 1.907 1.907 0 001.114 1.045 2.515 2.515 0 001.669-.041 2.049 2.049 0 001.58-2.35c-.212-1.231-.635-2.43-.942-3.64s-.71-2.37-1.074-3.549a259.06 259.06 0 00-2.314-7.188C6.81 7.41 6.31 6.039 5.18 5.489a2.639 2.639 0 00-2.956.296A3.664 3.664 0 001.4 9.469c.259 1.322.58 2.61.936 3.908.747 2.73 1.906 5.327 2.672 8.047.04.146.802-.22.73-.475" fill="#fff"/></svg>