<svg xmlns="http://www.w3.org/2000/svg" width="243.979" height="44.997" viewBox="0 0 243.979 44.997"><defs><clipPath id="a"><path fill="#fff" d="M0 0h39.79v35.998H0z"/></clipPath></defs><path d="M40.935 31.582q-.269 1.049-.471 2.017t-.516 2.1q1.39-.2 4.842-.484t5.156-.545q1.7-.262 3.362-.383a2 2 0 011.636.807q.56.766-1.009 1.049-3.407.766-7.823 1.412t-7.373 1.125q-2.959.484-6.5.928a3.024 3.024 0 01-2.869-1.291q-.941-1.452.9-1.573a22.912 22.912 0 002.623-.081q1.5-.121 3.34-.363a8.872 8.872 0 001.345-3.953q-1.121.242-2.062.4t-2.022.367a2.233 2.233 0 01-1.748-.323 2.517 2.517 0 01-1.076-1.371q-.179-.847.807-.968 1.7-.2 3.3-.5t3.026-.625a9.789 9.789 0 000-1.9 1.009 1.009 0 01.224-.645q.224-.282 1.076-.282a2.176 2.176 0 011.21.666 6.64 6.64 0 01.717 1.513q.717-.081 1.883-.262t3.093-.666a1.7 1.7 0 011.21-.04 1.374 1.374 0 01.762 1.089 1.368 1.368 0 01-.493 1.049 19.351 19.351 0 01-3.142 1.007q-1.838.443-3.408.726zm-14.659-4.841a10.421 10.421 0 003.5.524 2.626 2.626 0 001.5-.746 4.218 4.218 0 00.852-1.271 4.062 4.062 0 00.336-1.25q-1.255.4-1.905.605t-4.505 1.372a2.106 2.106 0 01-1.614.081 3.272 3.272 0 01-.941-.565q-1.303-1.613 1.029-1.857 2.376-.524 7.263-1.936l-.852-.524q-2.2-1.25-.09-2.42a5.079 5.079 0 002.376-1.654 6.382 6.382 0 00-1.636.282 11.889 11.889 0 00-2.135.852q-1.121.565-1.973 1.089a2.4 2.4 0 01-1.816.424 1.85 1.85 0 01-1.003-.813 1.411 1.411 0 01-.224-1.109 15.4 15.4 0 012.981-1.513 22.231 22.231 0 014.192-1.311 7.443 7.443 0 012.824-.2 1.854 1.854 0 011.412.928 2.114 2.114 0 01.291 1.452 2.972 2.972 0 01-.807 1.492 8.946 8.946 0 01-1.569 1.331q.359.282.628.484l.269.242.179.363q2.242-.565 3.676-.968a1.162 1.162 0 01.986.4q.224.363-.628 1.452a12.636 12.636 0 01-3.766 1.291 2.658 2.658 0 010 1.371 12.824 12.824 0 01-.717 2.017 4.271 4.271 0 01-1.39 1.855 7.435 7.435 0 01-1.345.812 4.336 4.336 0 01-1.816.242 7.127 7.127 0 01-2.309-.787 1.889 1.889 0 01-1.253-2.037zm.09-18.393a36.117 36.117 0 013.609-.968q2.174-.484 3.743-.807a7.656 7.656 0 012.152-.242 2.052 2.052 0 011.524.787 1.522 1.522 0 01.4 1.472 11.868 11.868 0 01-1.524 2.581q.359 1.049.112 1.432a1.986 1.986 0 01-1.185.631 25.877 25.877 0 01-3.183.867q-1.659.343-3.5.787a2.742 2.742 0 01-1.614-.161 2.52 2.52 0 01-1.655-1.093 9.093 9.093 0 01-1.191-2.522 10.484 10.484 0 01-.56-2.44.9.9 0 01.762-.585 3.127 3.127 0 011.009.04q.473.101 1.101.222zm8.249.282q-1.3.323-2.869.666a19.522 19.522 0 00-2.959.887q-1.39.545-2.421 1.029a4.929 4.929 0 00.807 1.492q1.345-.2 2.8-.524a31.785 31.785 0 003.25-.928 4.8 4.8 0 00.986-1.392 5.331 5.331 0 00.405-1.226zM18.431 7.018a40.8 40.8 0 015.492-1.734q2.847-.686 4.909-1.291.045-1.17.09-2.057a3.089 3.089 0 010-1.049q.09-.807.762-.887h.27a2.376 2.376 0 01.986.2 2.041 2.041 0 01.9 1.936q-.134.686-.224 1.613.583-.04 2.331-.323t3.183-.4a10.492 10.492 0 012.152-.02 3.687 3.687 0 011.345.464 1.009 1.009 0 01.605 1.17 1.208 1.208 0 01-1.1 1.049 1.845 1.845 0 01-1.143-.04 5.606 5.606 0 00-1.235-.285 25.125 25.125 0 00-4.057.4 65.921 65.921 0 00-7.375 1.533 51.459 51.459 0 00-5.468 1.657 2.733 2.733 0 01-1.457-.04 1.351 1.351 0 01-.65-.686 4.09 4.09 0 01-.316-1.21zM47.347 8.51q.628-2.42.986-3.469a20.932 20.932 0 00.672-2.622 3.372 3.372 0 012.309.565q.695.605.2 2.017-.538 1.25-1.076 2.581a6.166 6.166 0 011.3-.323q.628-.081 1.3-.2a3.844 3.844 0 012.376.524q.717.484.672 2.017v.323q-.628 2.9-1.121 4.739a33.881 33.881 0 00-.807 4.074 7.378 7.378 0 00.134 3.449.933.933 0 001.21.605 13.259 13.259 0 003.205-1.533q1.726-1.089 2.892-1.9a1.614 1.614 0 01.583 1.331 3.846 3.846 0 01-.938 1.576 9.336 9.336 0 01-2.309 1.815 6.294 6.294 0 01-2.712.968 3.4 3.4 0 01-3.317-.847 5.131 5.131 0 01-1.659-4.195q.538-3.993.941-5.808a25.164 25.164 0 00.538-2.823q.09-.807.179-1.694a7.617 7.617 0 00-3.362.807q-.359 1.17-.986 3.025t-1.883 4.6a27.321 27.321 0 002.69 3.222 1.01 1.01 0 01-.2 1.089.778.778 0 01-.874.323 3.772 3.772 0 01-1.056-.462 10.241 10.241 0 01-1.636-1.432q-.807 1.654-2.242 4.84a4.435 4.435 0 01-1.5-.1.9.9 0 01-.807-.887 1.841 1.841 0 01.291-1.15 31 31 0 002.152-5.042 6.382 6.382 0 00-1.255-1.089 4.38 4.38 0 01-.134-.524 1.188 1.188 0 01.134-.726.93.93 0 01.9-.524 10.26 10.26 0 011.21.081l.269.04.134-.242q.538-1.25.762-1.936.269-.807.583-2.017-1.121.605-1.95 1.008a12.043 12.043 0 00-1.636.968 2.877 2.877 0 01-1.793.141 2.679 2.679 0 01-1.524-1.311.871.871 0 01.336-.787 10.89 10.89 0 011.188-.625q2.371-.927 6.63-2.46zm41.647 22.265q-.94-.686-1.883-1.412a5.332 5.332 0 01-1.21-1.654 1.421 1.421 0 01.269-1.375 1.4 1.4 0 01.807-.081 4 4 0 01.852.282 3.343 3.343 0 01.964.726 7.057 7.057 0 001.815 1.173 14.741 14.741 0 004.346-2.257 63.457 63.457 0 005.29-3.912 1.863 1.863 0 011.751 1.369 1.106 1.106 0 01-.448 1.492q-1.928 1.25-4.707 2.8a18.8 18.8 0 01-4.125 1.881 20.5 20.5 0 002.712 1.936q2.085 1.331 5.4 3.469a4.844 4.844 0 011.479 1.573 1.047 1.047 0 01-.132 1.249 1.7 1.7 0 01-1.39.282 2.217 2.217 0 01-1.21-.726q-2.107-1.412-5-3.408t-3.878-2.6q-.538.484-3.586 2.561a39.446 39.446 0 01-4.483 2.763 10.445 10.445 0 01-2.242.847 2.978 2.978 0 01-3.542-1.936 15.817 15.817 0 01-.717-4.4q-.09-2.5.045-6.736-1.614.484-3.452 1.21a28 28 0 00-3.093 1.412 2.63 2.63 0 01-1.166-.121 2.34 2.34 0 01-.986-.807 3.9 3.9 0 01-.4-1.331 41.75 41.75 0 015.243-2.11q2.959-.988 5.693-1.795-.224-3.953-.247-9.3t-.022-8.369q.314-.968.874-.988a2.1 2.1 0 01.986.182 10.7 10.7 0 011.453.97q6.769-1.17 12.642-1.815 1.255.081 1.569.484a2.434 2.434 0 01.4 1.23q.09.827-.852.908a39.441 39.441 0 00-4.954.424 80.626 80.626 0 00-8.585 1.634 4.8 4.8 0 00-.359 1.553 14.163 14.163 0 000 1.593 30.938 30.938 0 013.273-.807q2.331-.484 6.007-1.008a1.477 1.477 0 011.054-.02 2.045 2.045 0 01.695.847 1.539 1.539 0 01.09 1.351 10.427 10.427 0 01-1.479.282 36.657 36.657 0 00-4.842.807 31.693 31.693 0 00-5.021 1.452 6.49 6.49 0 00.045 2.662q2.2-.565 4.505-1.008t5-1.008a2.385 2.385 0 011.3-.04 1.058 1.058 0 01.807.686 6.391 6.391 0 00.314.645l.179.4q-.807.2-1.973.484-1.793.484-4.483 1.17a30.85 30.85 0 00-5.551 1.694q.045.484.09 1.109a10.12 10.12 0 00.129 1.106q2.331-.363 6.411-1.17 4.214-.807 11.432-1.855a1.542 1.542 0 011.367.444 1.917 1.917 0 01.471 1.331 2.082 2.082 0 01-.941.968 4.283 4.283 0 01-1.435.02 32.376 32.376 0 00-5.38.545q-4.349.645-7.778 1.452t-5.308 1.29a17.865 17.865 0 00-.785 4.517q-.154 2.623-.089 4.317a4.924 4.924 0 00.785 2.7 16.614 16.614 0 004.841-1.774q2.242-1.249 4.349-2.459zm45.234-16.658a4.436 4.436 0 00-1.838-.363q-1.031 0-5.156.565a35.578 35.578 0 00-6.254 1.291 32.089 32.089 0 00-3.7 1.492 5.553 5.553 0 01-.919.363 2.038 2.038 0 01-.785.081q-.359-.04-.874-.686a3.541 3.541 0 01-.628-1.008q-.112-.363.381-.968 2.286-.887 5.29-1.734a50.392 50.392 0 016.523-1.351q3.519-.5 5.537-.585a5.271 5.271 0 012.488.242 11.694 11.694 0 012.309 1.25 2.4 2.4 0 01.583 2.339 18.276 18.276 0 01-2.174 3.63 43.545 43.545 0 01-4.124 5q-2.309 2.42-3.586 3.852t-2.263 2.643a4.983 4.983 0 01-.74.827 2.369 2.369 0 01-1.166.524 1.911 1.911 0 01-1.323-.182 1.318 1.318 0 01-.761-.805 1.519 1.519 0 01.09-.887 1.872 1.872 0 01.583-.766q2.331-2.38 3.631-3.691t3.34-3.549q2.04-2.239 3.3-3.691a16.061 16.061 0 001.748-2.319 3.173 3.173 0 00.488-1.514zm6.725-.161q-.135.323-.874.222a1.658 1.658 0 01-1.143-.625 10.034 10.034 0 01-.695-2.783q-.2-1.654-.56-3.428-.179-.887.157-1.21a1.559 1.559 0 01.874-.4h.09a2.114 2.114 0 011.166.484 2.531 2.531 0 01.9 1.654q.179 2.7.157 4.175t-.071 1.91zm4.662-1.452q-.314-3.106-.448-4.195t-.269-1.775a1.651 1.651 0 011.031-.766h.224a1.143 1.143 0 01.717.242 7.088 7.088 0 01.941 1.17 46.234 46.234 0 01.493 5.486q-.134.928-.628 1.008a1.912 1.912 0 01-1.143-.242 1.874 1.874 0 01-.918-.929zm28.826 3.348a40.074 40.074 0 00-4.08.061 18.4 18.4 0 00-4.954.908 15.54 15.54 0 00-3.071 1.291 4.761 4.761 0 01-1.3.424 1.992 1.992 0 01-1.233-.2 1.712 1.712 0 01-.852-.908 5.452 5.452 0 01-.336-1.129q1.39-1.049 6.276-2.158a39.924 39.924 0 019.549-1.029 4.528 4.528 0 011.748.444 2.1 2.1 0 011.143 1.23 4.683 4.683 0 01.291 1.553 19.607 19.607 0 01-.628 4.981q-.628 2.4-1.143 4.114t-.829 2.7a4.52 4.52 0 01-1.168 1.834 2.9 2.9 0 01-1.569.545 1.464 1.464 0 01-1.166-.746 6.518 6.518 0 00.538-1.371 24.22 24.22 0 00-3.654.686q-2.712.645-7.15 1.775a3.873 3.873 0 01-1.95-.1 3.4 3.4 0 01-1.636-1.029q-.448-.605-1.188-1.573a7.912 7.912 0 01-1.188-2.3 31.428 31.428 0 01-.516-7q.157-3.207.291-4.477t.224-2.44a.836.836 0 01.538-.726 1.1 1.1 0 01.314-.04 3.529 3.529 0 011.031.2 2.171 2.171 0 011.21.867 1.553 1.553 0 01.179 1.15q-.4 2.218-.695 4.88a23.569 23.569 0 00-.134 4.477 19.712 19.712 0 00.628 3.529 5.126 5.126 0 00.874 2.077q1.345-.363 4.483-.968t5.878-1.05q2.735-.444 3.362-.565a57.2 57.2 0 001.681-7.038 8.841 8.841 0 00.202-2.88zm32.5-5q-1.076.242-2.735.585a19.671 19.671 0 00-3.362 1.029 7.1 7.1 0 00-2.107 1.109 6.43 6.43 0 01-1.255.948 4.829 4.829 0 00-2.914 1.553 26.875 26.875 0 00-2.017 2.3 9.792 9.792 0 00-1.121 1.835 1.16 1.16 0 01-1.121.061 3 3 0 01-.762-.625.836.836 0 01-.179-.827q.135-.464.269-.908a50.1 50.1 0 014.035-5.607q2.869-3.59 4.752-5.607a1.183 1.183 0 011.569-.323 4.647 4.647 0 011.054.887 1.258 1.258 0 01.247 1.412q-.269.565-.448 1.049 2.6-.766 4.752-1.291a5.356 5.356 0 012.219-.02 4.7 4.7 0 012.085 1.674 3.734 3.734 0 010 2.783q-2.2 5.082-3.833 8.289t-3.43 6.212q-1.793 3-3.945 6.837a8.791 8.791 0 01-.785 1.654q-.291.4-1.009.2a2.205 2.205 0 01-1.187-.827 1.878 1.878 0 01-.291-1.553q1.166-2.138 3.25-5.647t4.3-7.563a47.852 47.852 0 003-6.252 20.011 20.011 0 00.971-3.369zm7.038-1.533q-.269.686-.762.625a1.359 1.359 0 01-.762-.3 3.954 3.954 0 01-.9-1.815q-.045-2.7 0-5.082a2.775 2.775 0 012.017.2 1.577 1.577 0 01.986 1.492 37.185 37.185 0 01-.577 4.878zm6.635-5.445q-.045 1.855-.224 3.67a.816.816 0 01-.65.605.921.921 0 01-.9-.242 1.584 1.584 0 01-.471-.928q-.4-2.38-.516-2.965t-.247-1.15a.738.738 0 01.359-.645h.224a4.536 4.536 0 011.21.282 1.681 1.681 0 011.217 1.371z" fill="#fff"/><g clip-path="url(#a)" fill="#fff" transform="translate(204.189 7.236)"><path d="M39.496 7.96Q26.274 19.53 13.574 31.678c-.842.806-2.125-.473-1.281-1.281q12.7-12.145 25.921-23.717c.874-.765 2.16.511 1.281 1.281"/><path d="M37.707 6.398a27.811 27.811 0 00-3.591-4.858h1.281Q21.585 13.753 7.385 25.516c-.891.738-2.179-.536-1.281-1.281Q20.304 12.474 34.116.259a.92.92 0 011.281 0 30.006 30.006 0 013.87 5.225.906.906 0 01-1.564.914"/><path d="M36.257 6.785q-11.83 12.188-24.746 23.243c-.881.754-2.168-.521-1.281-1.281q12.9-11.044 24.746-23.242c.813-.838 2.093.444 1.281 1.281m-.082-2.719Q23.926 15.748 10.652 26.272c-.9.717-2.194-.557-1.281-1.281q13.264-10.515 25.525-22.2c.843-.8 2.126.474 1.281 1.281"/><path d="M12.783 31.971a2.908 2.908 0 01-2 .74.916.916 0 01-.873-1.146c.395-1.474-1.527-1.086-2.247-1.687a3.007 3.007 0 01-.612-2.986c.219-1.143 1.965-.659 1.746.482a1.818 1.818 0 00-.05.926c.143.283.227.192.562.233a2.662 2.662 0 011.456.615 2.825 2.825 0 01.89 2.9l-.873-1.146a.854.854 0 00.722-.21c.895-.732 2.184.542 1.281 1.281"/><path d="M9.295 33.641a46.989 46.989 0 00-8.131 2.312.91.91 0 01-1.114-1.114 49.946 49.946 0 014.569-8.753c.638-.969 2.207-.063 1.564.914A47.6 47.6 0 001.8 35.32L.682 34.206a47.02 47.02 0 018.131-2.311c1.139-.216 1.627 1.529.482 1.746"/><path d="M2.834 34.134a1.261 1.261 0 00-.087-.092q-.111-.1.038.018a.665.665 0 00-.189-.118c-.2-.105.122.014-.048-.017-.059-.011-.339-.05-.071-.025a.925.925 0 01-.906-.906.915.915 0 01.906-.906 2.451 2.451 0 011.638.765.906.906 0 11-1.281 1.281"/></g><path d="M8.539 36.95c-.869-3.1-2.167-6.07-3.098-9.15a71.68 71.68 0 01-2.387-9.235c-.237-1.462-.208-4.3 1.85-4.32 1.874-.02 3.147 1.408 3.934 2.938a32.73 32.73 0 011.61 4.578c.507 1.498.967 3.02 1.495 4.511s.956 3.025 1.398 4.54.963 3.027 1.364 4.566c.426 1.635.986 3.254 1.296 4.923.159.856.257 1.94-.757 2.313a2.928 2.928 0 01-2.998-.624c-.98-1.056-1.328-2.838-1.876-4.138-.623-1.48-1.052-3.022-1.63-4.517a88.849 88.849 0 01-2.877-9.33 8.145 8.145 0 01-.45-2.593c.056-.8.34-1.467 1.288-1.502a2.07 2.07 0 011.502.494c1.307 1.11 1.627 2.997 2.141 4.548 1.18 3.553 2.21 7.126 3.26 10.716.065.22 1.199-.33 1.088-.707-1.101-3.752-2.151-7.501-3.423-11.201-.523-1.524-.858-3.52-2.414-4.381a3.4 3.4 0 00-4.17 1.25c-.905 1.465-.073 3.448.3 4.949a58.835 58.835 0 001.687 5.585c.628 1.75 1.147 3.53 1.804 5.27a45.878 45.878 0 002.17 5.413 2.838 2.838 0 001.662 1.556 3.742 3.742 0 002.483-.062c1.617-.578 2.652-1.734 2.35-3.497-.314-1.834-.944-3.618-1.399-5.417-.451-1.78-1.058-3.529-1.6-5.283-1.107-3.581-2.231-7.153-3.442-10.698-.561-1.646-1.304-3.688-2.986-4.512a3.928 3.928 0 00-4.403.449c-1.618 1.458-1.62 3.498-1.23 5.48s.865 3.89 1.395 5.821c1.116 4.053 2.839 7.923 3.975 11.973.06.216 1.194-.327 1.088-.707" fill="#fff"/></svg>