<svg xmlns="http://www.w3.org/2000/svg" width="173" height="173" viewBox="0 0 173 173"><defs><clipPath id="a"><path fill="none" d="M0 0h173v173H0z"/></clipPath></defs><g opacity=".5" clip-path="url(#a)" fill="#ed7b27"><circle cx="2.5" cy="2.5" r="2.5"/><circle cx="2.5" cy="2.5" r="2.5" transform="translate(21)"/><circle cx="2.5" cy="2.5" r="2.5" transform="translate(42)"/><circle cx="2.5" cy="2.5" r="2.5" transform="translate(63)"/><circle cx="2.5" cy="2.5" r="2.5" transform="translate(84)"/><circle cx="2.5" cy="2.5" r="2.5" transform="translate(105)"/><circle cx="2.5" cy="2.5" r="2.5" transform="translate(126)"/><circle cx="2.5" cy="2.5" r="2.5" transform="translate(147)"/><circle cx="2.5" cy="2.5" r="2.5" transform="translate(168)"/><circle cx="2.5" cy="2.5" r="2.5" transform="translate(0 21)"/><circle cx="2.5" cy="2.5" r="2.5" transform="translate(21 21)"/><circle cx="2.5" cy="2.5" r="2.5" transform="translate(42 21)"/><circle cx="2.5" cy="2.5" r="2.5" transform="translate(63 21)"/><circle cx="2.5" cy="2.5" r="2.5" transform="translate(84 21)"/><circle cx="2.5" cy="2.5" r="2.5" transform="translate(105 21)"/><circle cx="2.5" cy="2.5" r="2.5" transform="translate(126 21)"/><circle cx="2.5" cy="2.5" r="2.5" transform="translate(147 21)"/><circle cx="2.5" cy="2.5" r="2.5" transform="translate(168 21)"/><circle cx="2.5" cy="2.5" r="2.5" transform="translate(0 42)"/><circle cx="2.5" cy="2.5" r="2.5" transform="translate(21 42)"/><circle cx="2.5" cy="2.5" r="2.5" transform="translate(42 42)"/><circle cx="2.5" cy="2.5" r="2.5" transform="translate(63 42)"/><circle cx="2.5" cy="2.5" r="2.5" transform="translate(84 42)"/><circle cx="2.5" cy="2.5" r="2.5" transform="translate(105 42)"/><circle cx="2.5" cy="2.5" r="2.5" transform="translate(126 42)"/><circle cx="2.5" cy="2.5" r="2.5" transform="translate(147 42)"/><circle cx="2.5" cy="2.5" r="2.5" transform="translate(168 42)"/><circle cx="2.5" cy="2.5" r="2.5" transform="translate(0 63)"/><circle cx="2.5" cy="2.5" r="2.5" transform="translate(21 63)"/><circle cx="2.5" cy="2.5" r="2.5" transform="translate(42 63)"/><circle cx="2.5" cy="2.5" r="2.5" transform="translate(63 63)"/><circle cx="2.5" cy="2.5" r="2.5" transform="translate(84 63)"/><circle cx="2.5" cy="2.5" r="2.5" transform="translate(105 63)"/><circle cx="2.5" cy="2.5" r="2.5" transform="translate(126 63)"/><circle cx="2.5" cy="2.5" r="2.5" transform="translate(147 63)"/><circle cx="2.5" cy="2.5" r="2.5" transform="translate(168 63)"/><circle cx="2.5" cy="2.5" r="2.5" transform="translate(0 84)"/><circle cx="2.5" cy="2.5" r="2.5" transform="translate(21 84)"/><circle cx="2.5" cy="2.5" r="2.5" transform="translate(42 84)"/><circle cx="2.5" cy="2.5" r="2.5" transform="translate(63 84)"/><circle cx="2.5" cy="2.5" r="2.5" transform="translate(84 84)"/><circle cx="2.5" cy="2.5" r="2.5" transform="translate(105 84)"/><circle cx="2.5" cy="2.5" r="2.5" transform="translate(126 84)"/><circle cx="2.5" cy="2.5" r="2.5" transform="translate(147 84)"/><circle cx="2.5" cy="2.5" r="2.5" transform="translate(168 84)"/><circle cx="2.5" cy="2.5" r="2.5" transform="translate(0 105)"/><circle cx="2.5" cy="2.5" r="2.5" transform="translate(21 105)"/><circle cx="2.5" cy="2.5" r="2.5" transform="translate(42 105)"/><circle cx="2.5" cy="2.5" r="2.5" transform="translate(63 105)"/><circle cx="2.5" cy="2.5" r="2.5" transform="translate(84 105)"/><circle cx="2.5" cy="2.5" r="2.5" transform="translate(105 105)"/><circle cx="2.5" cy="2.5" r="2.5" transform="translate(126 105)"/><circle cx="2.5" cy="2.5" r="2.5" transform="translate(147 105)"/><circle cx="2.5" cy="2.5" r="2.5" transform="translate(168 105)"/><circle cx="2.5" cy="2.5" r="2.5" transform="translate(0 126)"/><circle cx="2.5" cy="2.5" r="2.5" transform="translate(21 126)"/><circle cx="2.5" cy="2.5" r="2.5" transform="translate(42 126)"/><circle cx="2.5" cy="2.5" r="2.5" transform="translate(63 126)"/><circle cx="2.5" cy="2.5" r="2.5" transform="translate(84 126)"/><circle cx="2.5" cy="2.5" r="2.5" transform="translate(105 126)"/><circle cx="2.5" cy="2.5" r="2.5" transform="translate(126 126)"/><circle cx="2.5" cy="2.5" r="2.5" transform="translate(147 126)"/><circle cx="2.5" cy="2.5" r="2.5" transform="translate(168 126)"/><circle cx="2.5" cy="2.5" r="2.5" transform="translate(0 147)"/><circle cx="2.5" cy="2.5" r="2.5" transform="translate(21 147)"/><circle cx="2.5" cy="2.5" r="2.5" transform="translate(42 147)"/><circle cx="2.5" cy="2.5" r="2.5" transform="translate(63 147)"/><circle cx="2.5" cy="2.5" r="2.5" transform="translate(84 147)"/><circle cx="2.5" cy="2.5" r="2.5" transform="translate(105 147)"/><circle cx="2.5" cy="2.5" r="2.5" transform="translate(126 147)"/><circle cx="2.5" cy="2.5" r="2.5" transform="translate(147 147)"/><circle cx="2.5" cy="2.5" r="2.5" transform="translate(168 147)"/><circle cx="2.5" cy="2.5" r="2.5" transform="translate(0 168)"/><circle cx="2.5" cy="2.5" r="2.5" transform="translate(21 168)"/><circle cx="2.5" cy="2.5" r="2.5" transform="translate(42 168)"/><circle cx="2.5" cy="2.5" r="2.5" transform="translate(63 168)"/><circle cx="2.5" cy="2.5" r="2.5" transform="translate(84 168)"/><circle cx="2.5" cy="2.5" r="2.5" transform="translate(105 168)"/><circle cx="2.5" cy="2.5" r="2.5" transform="translate(126 168)"/><circle cx="2.5" cy="2.5" r="2.5" transform="translate(147 168)"/><circle cx="2.5" cy="2.5" r="2.5" transform="translate(168 168)"/></g></svg>