<svg xmlns="http://www.w3.org/2000/svg" width="257" height="257" viewBox="0 0 257 257"><defs><clipPath id="a"><path fill="none" d="M0 0h257v257H0z"/></clipPath></defs><g opacity=".5" clip-path="url(#a)" fill="#ed7b27"><circle cx="2.5" cy="2.5" r="2.5"/><circle cx="2.5" cy="2.5" r="2.5" transform="translate(21)"/><circle cx="2.5" cy="2.5" r="2.5" transform="translate(42)"/><circle cx="2.5" cy="2.5" r="2.5" transform="translate(63)"/><circle cx="2.5" cy="2.5" r="2.5" transform="translate(84)"/><circle cx="2.5" cy="2.5" r="2.5" transform="translate(105)"/><circle cx="2.5" cy="2.5" r="2.5" transform="translate(126)"/><circle cx="2.5" cy="2.5" r="2.5" transform="translate(147)"/><circle cx="2.5" cy="2.5" r="2.5" transform="translate(168)"/><circle cx="2.5" cy="2.5" r="2.5" transform="translate(189)"/><circle cx="2.5" cy="2.5" r="2.5" transform="translate(210)"/><circle cx="2.5" cy="2.5" r="2.5" transform="translate(231)"/><circle cx="2.5" cy="2.5" r="2.5" transform="translate(252)"/><circle cx="2.5" cy="2.5" r="2.5" transform="translate(0 21)"/><circle cx="2.5" cy="2.5" r="2.5" transform="translate(21 21)"/><circle cx="2.5" cy="2.5" r="2.5" transform="translate(42 21)"/><circle cx="2.5" cy="2.5" r="2.5" transform="translate(63 21)"/><circle cx="2.5" cy="2.5" r="2.5" transform="translate(84 21)"/><circle cx="2.5" cy="2.5" r="2.5" transform="translate(105 21)"/><circle cx="2.5" cy="2.5" r="2.5" transform="translate(126 21)"/><circle cx="2.5" cy="2.5" r="2.5" transform="translate(147 21)"/><circle cx="2.5" cy="2.5" r="2.5" transform="translate(168 21)"/><circle cx="2.5" cy="2.5" r="2.5" transform="translate(189 21)"/><circle cx="2.5" cy="2.5" r="2.5" transform="translate(210 21)"/><circle cx="2.5" cy="2.5" r="2.5" transform="translate(231 21)"/><circle cx="2.5" cy="2.5" r="2.5" transform="translate(252 21)"/><circle cx="2.5" cy="2.5" r="2.5" transform="translate(0 42)"/><circle cx="2.5" cy="2.5" r="2.5" transform="translate(21 42)"/><circle cx="2.5" cy="2.5" r="2.5" transform="translate(42 42)"/><circle cx="2.5" cy="2.5" r="2.5" transform="translate(63 42)"/><circle cx="2.5" cy="2.5" r="2.5" transform="translate(84 42)"/><circle cx="2.5" cy="2.5" r="2.5" transform="translate(105 42)"/><circle cx="2.5" cy="2.5" r="2.5" transform="translate(126 42)"/><circle cx="2.5" cy="2.5" r="2.5" transform="translate(147 42)"/><circle cx="2.5" cy="2.5" r="2.5" transform="translate(168 42)"/><circle cx="2.5" cy="2.5" r="2.5" transform="translate(189 42)"/><circle cx="2.5" cy="2.5" r="2.5" transform="translate(210 42)"/><circle cx="2.5" cy="2.5" r="2.5" transform="translate(231 42)"/><circle cx="2.5" cy="2.5" r="2.5" transform="translate(252 42)"/><circle cx="2.5" cy="2.5" r="2.5" transform="translate(0 63)"/><circle cx="2.5" cy="2.5" r="2.5" transform="translate(21 63)"/><circle cx="2.5" cy="2.5" r="2.5" transform="translate(42 63)"/><circle cx="2.5" cy="2.5" r="2.5" transform="translate(63 63)"/><circle cx="2.5" cy="2.5" r="2.5" transform="translate(84 63)"/><circle cx="2.5" cy="2.5" r="2.5" transform="translate(105 63)"/><circle cx="2.5" cy="2.5" r="2.5" transform="translate(126 63)"/><circle cx="2.5" cy="2.5" r="2.5" transform="translate(147 63)"/><circle cx="2.5" cy="2.5" r="2.5" transform="translate(168 63)"/><circle cx="2.5" cy="2.5" r="2.5" transform="translate(189 63)"/><circle cx="2.5" cy="2.5" r="2.5" transform="translate(210 63)"/><circle cx="2.5" cy="2.5" r="2.5" transform="translate(231 63)"/><circle cx="2.5" cy="2.5" r="2.5" transform="translate(252 63)"/><circle cx="2.5" cy="2.5" r="2.5" transform="translate(0 84)"/><circle cx="2.5" cy="2.5" r="2.5" transform="translate(21 84)"/><circle cx="2.5" cy="2.5" r="2.5" transform="translate(42 84)"/><circle cx="2.5" cy="2.5" r="2.5" transform="translate(63 84)"/><circle cx="2.5" cy="2.5" r="2.5" transform="translate(84 84)"/><circle cx="2.5" cy="2.5" r="2.5" transform="translate(105 84)"/><circle cx="2.5" cy="2.5" r="2.5" transform="translate(126 84)"/><circle cx="2.5" cy="2.5" r="2.5" transform="translate(147 84)"/><circle cx="2.5" cy="2.5" r="2.5" transform="translate(168 84)"/><circle cx="2.5" cy="2.5" r="2.5" transform="translate(189 84)"/><circle cx="2.5" cy="2.5" r="2.5" transform="translate(210 84)"/><circle cx="2.5" cy="2.5" r="2.5" transform="translate(231 84)"/><circle cx="2.5" cy="2.5" r="2.5" transform="translate(252 84)"/><circle cx="2.5" cy="2.5" r="2.5" transform="translate(0 105)"/><circle cx="2.5" cy="2.5" r="2.5" transform="translate(21 105)"/><circle cx="2.5" cy="2.5" r="2.5" transform="translate(42 105)"/><circle cx="2.5" cy="2.5" r="2.5" transform="translate(63 105)"/><circle cx="2.5" cy="2.5" r="2.5" transform="translate(84 105)"/><circle cx="2.5" cy="2.5" r="2.5" transform="translate(105 105)"/><circle cx="2.5" cy="2.5" r="2.5" transform="translate(126 105)"/><circle cx="2.5" cy="2.5" r="2.5" transform="translate(147 105)"/><circle cx="2.5" cy="2.5" r="2.5" transform="translate(168 105)"/><circle cx="2.5" cy="2.5" r="2.5" transform="translate(189 105)"/><circle cx="2.5" cy="2.5" r="2.5" transform="translate(210 105)"/><circle cx="2.5" cy="2.5" r="2.5" transform="translate(231 105)"/><circle cx="2.5" cy="2.5" r="2.5" transform="translate(252 105)"/><circle cx="2.5" cy="2.5" r="2.5" transform="translate(0 126)"/><circle cx="2.5" cy="2.5" r="2.5" transform="translate(21 126)"/><circle cx="2.5" cy="2.5" r="2.5" transform="translate(42 126)"/><circle cx="2.5" cy="2.5" r="2.5" transform="translate(63 126)"/><circle cx="2.5" cy="2.5" r="2.5" transform="translate(84 126)"/><circle cx="2.5" cy="2.5" r="2.5" transform="translate(105 126)"/><circle cx="2.5" cy="2.5" r="2.5" transform="translate(126 126)"/><circle cx="2.5" cy="2.5" r="2.5" transform="translate(147 126)"/><circle cx="2.5" cy="2.5" r="2.5" transform="translate(168 126)"/><circle cx="2.5" cy="2.5" r="2.5" transform="translate(189 126)"/><circle cx="2.5" cy="2.5" r="2.5" transform="translate(210 126)"/><circle cx="2.5" cy="2.5" r="2.5" transform="translate(231 126)"/><circle cx="2.5" cy="2.5" r="2.5" transform="translate(252 126)"/><circle cx="2.5" cy="2.5" r="2.5" transform="translate(0 147)"/><circle cx="2.5" cy="2.5" r="2.5" transform="translate(21 147)"/><circle cx="2.5" cy="2.5" r="2.5" transform="translate(42 147)"/><circle cx="2.5" cy="2.5" r="2.5" transform="translate(63 147)"/><circle cx="2.5" cy="2.5" r="2.5" transform="translate(84 147)"/><circle cx="2.5" cy="2.5" r="2.5" transform="translate(105 147)"/><circle cx="2.5" cy="2.5" r="2.5" transform="translate(126 147)"/><circle cx="2.5" cy="2.5" r="2.5" transform="translate(147 147)"/><circle cx="2.5" cy="2.5" r="2.5" transform="translate(168 147)"/><circle cx="2.5" cy="2.5" r="2.5" transform="translate(189 147)"/><circle cx="2.5" cy="2.5" r="2.5" transform="translate(210 147)"/><circle cx="2.5" cy="2.5" r="2.5" transform="translate(231 147)"/><circle cx="2.5" cy="2.5" r="2.5" transform="translate(252 147)"/><circle cx="2.5" cy="2.5" r="2.5" transform="translate(0 168)"/><circle cx="2.5" cy="2.5" r="2.5" transform="translate(21 168)"/><circle cx="2.5" cy="2.5" r="2.5" transform="translate(42 168)"/><circle cx="2.5" cy="2.5" r="2.5" transform="translate(63 168)"/><circle cx="2.5" cy="2.5" r="2.5" transform="translate(84 168)"/><circle cx="2.5" cy="2.5" r="2.5" transform="translate(105 168)"/><circle cx="2.5" cy="2.5" r="2.5" transform="translate(126 168)"/><circle cx="2.5" cy="2.5" r="2.5" transform="translate(147 168)"/><circle cx="2.5" cy="2.5" r="2.5" transform="translate(168 168)"/><circle cx="2.5" cy="2.5" r="2.5" transform="translate(189 168)"/><circle cx="2.5" cy="2.5" r="2.5" transform="translate(210 168)"/><circle cx="2.5" cy="2.5" r="2.5" transform="translate(231 168)"/><circle cx="2.5" cy="2.5" r="2.5" transform="translate(252 168)"/><circle cx="2.5" cy="2.5" r="2.5" transform="translate(0 189)"/><circle cx="2.5" cy="2.5" r="2.5" transform="translate(21 189)"/><circle cx="2.5" cy="2.5" r="2.5" transform="translate(42 189)"/><circle cx="2.5" cy="2.5" r="2.5" transform="translate(63 189)"/><circle cx="2.5" cy="2.5" r="2.5" transform="translate(84 189)"/><circle cx="2.5" cy="2.5" r="2.5" transform="translate(105 189)"/><circle cx="2.5" cy="2.5" r="2.5" transform="translate(126 189)"/><circle cx="2.5" cy="2.5" r="2.5" transform="translate(147 189)"/><circle cx="2.5" cy="2.5" r="2.5" transform="translate(168 189)"/><circle cx="2.5" cy="2.5" r="2.5" transform="translate(189 189)"/><circle cx="2.5" cy="2.5" r="2.5" transform="translate(210 189)"/><circle cx="2.5" cy="2.5" r="2.5" transform="translate(231 189)"/><circle cx="2.5" cy="2.5" r="2.5" transform="translate(252 189)"/><circle cx="2.5" cy="2.5" r="2.5" transform="translate(0 210)"/><circle cx="2.5" cy="2.5" r="2.5" transform="translate(21 210)"/><circle cx="2.5" cy="2.5" r="2.5" transform="translate(42 210)"/><circle cx="2.5" cy="2.5" r="2.5" transform="translate(63 210)"/><circle cx="2.5" cy="2.5" r="2.5" transform="translate(84 210)"/><circle cx="2.5" cy="2.5" r="2.5" transform="translate(105 210)"/><circle cx="2.5" cy="2.5" r="2.5" transform="translate(126 210)"/><circle cx="2.5" cy="2.5" r="2.5" transform="translate(147 210)"/><circle cx="2.5" cy="2.5" r="2.5" transform="translate(168 210)"/><circle cx="2.5" cy="2.5" r="2.5" transform="translate(189 210)"/><circle cx="2.5" cy="2.5" r="2.5" transform="translate(210 210)"/><circle cx="2.5" cy="2.5" r="2.5" transform="translate(231 210)"/><circle cx="2.5" cy="2.5" r="2.5" transform="translate(252 210)"/><circle cx="2.5" cy="2.5" r="2.5" transform="translate(0 231)"/><circle cx="2.5" cy="2.5" r="2.5" transform="translate(21 231)"/><circle cx="2.5" cy="2.5" r="2.5" transform="translate(42 231)"/><circle cx="2.5" cy="2.5" r="2.5" transform="translate(63 231)"/><circle cx="2.5" cy="2.5" r="2.5" transform="translate(84 231)"/><circle cx="2.5" cy="2.5" r="2.5" transform="translate(105 231)"/><circle cx="2.5" cy="2.5" r="2.5" transform="translate(126 231)"/><circle cx="2.5" cy="2.5" r="2.5" transform="translate(147 231)"/><circle cx="2.5" cy="2.5" r="2.5" transform="translate(168 231)"/><circle cx="2.5" cy="2.5" r="2.5" transform="translate(189 231)"/><circle cx="2.5" cy="2.5" r="2.5" transform="translate(210 231)"/><circle cx="2.5" cy="2.5" r="2.5" transform="translate(231 231)"/><circle cx="2.5" cy="2.5" r="2.5" transform="translate(252 231)"/><circle cx="2.5" cy="2.5" r="2.5" transform="translate(0 252)"/><circle cx="2.5" cy="2.5" r="2.5" transform="translate(21 252)"/><circle cx="2.5" cy="2.5" r="2.5" transform="translate(42 252)"/><circle cx="2.5" cy="2.5" r="2.5" transform="translate(63 252)"/><circle cx="2.5" cy="2.5" r="2.5" transform="translate(84 252)"/><circle cx="2.5" cy="2.5" r="2.5" transform="translate(105 252)"/><circle cx="2.5" cy="2.5" r="2.5" transform="translate(126 252)"/><circle cx="2.5" cy="2.5" r="2.5" transform="translate(147 252)"/><circle cx="2.5" cy="2.5" r="2.5" transform="translate(168 252)"/><circle cx="2.5" cy="2.5" r="2.5" transform="translate(189 252)"/><circle cx="2.5" cy="2.5" r="2.5" transform="translate(210 252)"/><circle cx="2.5" cy="2.5" r="2.5" transform="translate(231 252)"/><circle cx="2.5" cy="2.5" r="2.5" transform="translate(252 252)"/></g></svg>