<svg xmlns="http://www.w3.org/2000/svg" width="168" height="168"><defs><clipPath id="a"><path fill="none" d="M0 0h168v168H0z"/></clipPath></defs><g opacity=".5" clip-path="url(#a)" fill="#ed7b27"><circle cx="1.5" cy="1.5" r="1.5"/><circle cx="1.5" cy="1.5" r="1.5" transform="translate(15)"/><circle cx="1.5" cy="1.5" r="1.5" transform="translate(30)"/><circle cx="1.5" cy="1.5" r="1.5" transform="translate(45)"/><circle cx="1.5" cy="1.5" r="1.5" transform="translate(60)"/><circle cx="1.5" cy="1.5" r="1.5" transform="translate(75)"/><circle cx="1.5" cy="1.5" r="1.5" transform="translate(90)"/><circle cx="1.5" cy="1.5" r="1.5" transform="translate(105)"/><circle cx="1.5" cy="1.5" r="1.5" transform="translate(120)"/><circle cx="1.5" cy="1.5" r="1.5" transform="translate(135)"/><circle cx="1.5" cy="1.5" r="1.5" transform="translate(150)"/><circle cx="1.5" cy="1.5" r="1.5" transform="translate(165)"/><circle cx="1.5" cy="1.5" r="1.5" transform="translate(0 15)"/><circle cx="1.5" cy="1.5" r="1.5" transform="translate(15 15)"/><circle cx="1.5" cy="1.5" r="1.5" transform="translate(30 15)"/><circle cx="1.5" cy="1.5" r="1.5" transform="translate(45 15)"/><circle cx="1.5" cy="1.5" r="1.5" transform="translate(60 15)"/><circle cx="1.5" cy="1.5" r="1.5" transform="translate(75 15)"/><circle cx="1.5" cy="1.5" r="1.5" transform="translate(90 15)"/><circle cx="1.5" cy="1.5" r="1.5" transform="translate(105 15)"/><circle cx="1.5" cy="1.5" r="1.5" transform="translate(120 15)"/><circle cx="1.5" cy="1.5" r="1.5" transform="translate(135 15)"/><circle cx="1.5" cy="1.5" r="1.5" transform="translate(150 15)"/><circle cx="1.5" cy="1.5" r="1.5" transform="translate(165 15)"/><circle cx="1.5" cy="1.5" r="1.5" transform="translate(0 30)"/><circle cx="1.5" cy="1.5" r="1.5" transform="translate(15 30)"/><circle cx="1.5" cy="1.5" r="1.5" transform="translate(30 30)"/><circle cx="1.5" cy="1.5" r="1.5" transform="translate(45 30)"/><circle cx="1.5" cy="1.5" r="1.5" transform="translate(60 30)"/><circle cx="1.5" cy="1.5" r="1.5" transform="translate(75 30)"/><circle cx="1.5" cy="1.5" r="1.5" transform="translate(90 30)"/><circle cx="1.5" cy="1.5" r="1.5" transform="translate(105 30)"/><circle cx="1.5" cy="1.5" r="1.5" transform="translate(120 30)"/><circle cx="1.5" cy="1.5" r="1.5" transform="translate(135 30)"/><circle cx="1.5" cy="1.5" r="1.5" transform="translate(150 30)"/><circle cx="1.5" cy="1.5" r="1.5" transform="translate(165 30)"/><circle cx="1.5" cy="1.5" r="1.5" transform="translate(0 45)"/><circle cx="1.5" cy="1.5" r="1.5" transform="translate(15 45)"/><circle cx="1.5" cy="1.5" r="1.5" transform="translate(30 45)"/><circle cx="1.5" cy="1.5" r="1.5" transform="translate(45 45)"/><circle cx="1.5" cy="1.5" r="1.5" transform="translate(60 45)"/><circle cx="1.5" cy="1.5" r="1.5" transform="translate(75 45)"/><circle cx="1.5" cy="1.5" r="1.5" transform="translate(90 45)"/><circle cx="1.5" cy="1.5" r="1.5" transform="translate(105 45)"/><circle cx="1.5" cy="1.5" r="1.5" transform="translate(120 45)"/><circle cx="1.5" cy="1.5" r="1.5" transform="translate(135 45)"/><circle cx="1.5" cy="1.5" r="1.5" transform="translate(150 45)"/><circle cx="1.5" cy="1.5" r="1.5" transform="translate(165 45)"/><circle cx="1.5" cy="1.5" r="1.5" transform="translate(0 60)"/><circle cx="1.5" cy="1.5" r="1.5" transform="translate(15 60)"/><circle cx="1.5" cy="1.5" r="1.5" transform="translate(30 60)"/><circle cx="1.5" cy="1.5" r="1.5" transform="translate(45 60)"/><circle cx="1.5" cy="1.5" r="1.5" transform="translate(60 60)"/><circle cx="1.5" cy="1.5" r="1.5" transform="translate(75 60)"/><circle cx="1.5" cy="1.5" r="1.5" transform="translate(90 60)"/><circle cx="1.5" cy="1.5" r="1.5" transform="translate(105 60)"/><circle cx="1.5" cy="1.5" r="1.5" transform="translate(120 60)"/><circle cx="1.5" cy="1.5" r="1.5" transform="translate(135 60)"/><circle cx="1.5" cy="1.5" r="1.5" transform="translate(150 60)"/><circle cx="1.5" cy="1.5" r="1.5" transform="translate(165 60)"/><circle cx="1.5" cy="1.5" r="1.5" transform="translate(0 75)"/><circle cx="1.5" cy="1.5" r="1.5" transform="translate(15 75)"/><circle cx="1.5" cy="1.5" r="1.5" transform="translate(30 75)"/><circle cx="1.5" cy="1.5" r="1.5" transform="translate(45 75)"/><circle cx="1.5" cy="1.5" r="1.5" transform="translate(60 75)"/><circle cx="1.5" cy="1.5" r="1.5" transform="translate(75 75)"/><circle cx="1.5" cy="1.5" r="1.5" transform="translate(90 75)"/><circle cx="1.5" cy="1.5" r="1.5" transform="translate(105 75)"/><circle cx="1.5" cy="1.5" r="1.5" transform="translate(120 75)"/><circle cx="1.5" cy="1.5" r="1.5" transform="translate(135 75)"/><circle cx="1.5" cy="1.5" r="1.5" transform="translate(150 75)"/><circle cx="1.5" cy="1.5" r="1.5" transform="translate(165 75)"/><circle cx="1.5" cy="1.5" r="1.5" transform="translate(0 90)"/><circle cx="1.5" cy="1.5" r="1.5" transform="translate(15 90)"/><circle cx="1.5" cy="1.5" r="1.5" transform="translate(30 90)"/><circle cx="1.5" cy="1.5" r="1.5" transform="translate(45 90)"/><circle cx="1.5" cy="1.5" r="1.5" transform="translate(60 90)"/><circle cx="1.5" cy="1.5" r="1.5" transform="translate(75 90)"/><circle cx="1.5" cy="1.5" r="1.5" transform="translate(90 90)"/><circle cx="1.5" cy="1.5" r="1.5" transform="translate(105 90)"/><circle cx="1.5" cy="1.5" r="1.5" transform="translate(120 90)"/><circle cx="1.5" cy="1.5" r="1.5" transform="translate(135 90)"/><circle cx="1.5" cy="1.5" r="1.5" transform="translate(150 90)"/><circle cx="1.5" cy="1.5" r="1.5" transform="translate(165 90)"/><circle cx="1.5" cy="1.5" r="1.5" transform="translate(0 105)"/><circle cx="1.5" cy="1.5" r="1.5" transform="translate(15 105)"/><circle cx="1.5" cy="1.5" r="1.5" transform="translate(30 105)"/><circle cx="1.5" cy="1.5" r="1.5" transform="translate(45 105)"/><circle cx="1.5" cy="1.5" r="1.5" transform="translate(60 105)"/><circle cx="1.5" cy="1.5" r="1.5" transform="translate(75 105)"/><circle cx="1.5" cy="1.5" r="1.5" transform="translate(90 105)"/><circle cx="1.5" cy="1.5" r="1.5" transform="translate(105 105)"/><circle cx="1.5" cy="1.5" r="1.5" transform="translate(120 105)"/><circle cx="1.5" cy="1.5" r="1.5" transform="translate(135 105)"/><circle cx="1.5" cy="1.5" r="1.5" transform="translate(150 105)"/><circle cx="1.5" cy="1.5" r="1.5" transform="translate(165 105)"/><circle cx="1.5" cy="1.5" r="1.5" transform="translate(0 120)"/><circle cx="1.5" cy="1.5" r="1.5" transform="translate(15 120)"/><circle cx="1.5" cy="1.5" r="1.5" transform="translate(30 120)"/><circle cx="1.5" cy="1.5" r="1.5" transform="translate(45 120)"/><circle cx="1.5" cy="1.5" r="1.5" transform="translate(60 120)"/><circle cx="1.5" cy="1.5" r="1.5" transform="translate(75 120)"/><circle cx="1.5" cy="1.5" r="1.5" transform="translate(90 120)"/><circle cx="1.5" cy="1.5" r="1.5" transform="translate(105 120)"/><circle cx="1.5" cy="1.5" r="1.5" transform="translate(120 120)"/><circle cx="1.5" cy="1.5" r="1.5" transform="translate(135 120)"/><circle cx="1.5" cy="1.5" r="1.5" transform="translate(150 120)"/><circle cx="1.5" cy="1.5" r="1.5" transform="translate(165 120)"/><circle cx="1.5" cy="1.5" r="1.5" transform="translate(0 135)"/><circle cx="1.5" cy="1.5" r="1.5" transform="translate(15 135)"/><circle cx="1.5" cy="1.5" r="1.5" transform="translate(30 135)"/><circle cx="1.5" cy="1.5" r="1.5" transform="translate(45 135)"/><circle cx="1.5" cy="1.5" r="1.5" transform="translate(60 135)"/><circle cx="1.5" cy="1.5" r="1.5" transform="translate(75 135)"/><circle cx="1.5" cy="1.5" r="1.5" transform="translate(90 135)"/><circle cx="1.5" cy="1.5" r="1.5" transform="translate(105 135)"/><circle cx="1.5" cy="1.5" r="1.5" transform="translate(120 135)"/><circle cx="1.5" cy="1.5" r="1.5" transform="translate(135 135)"/><circle cx="1.5" cy="1.5" r="1.5" transform="translate(150 135)"/><circle cx="1.5" cy="1.5" r="1.5" transform="translate(165 135)"/><circle cx="1.5" cy="1.5" r="1.5" transform="translate(0 150)"/><circle cx="1.5" cy="1.5" r="1.5" transform="translate(15 150)"/><circle cx="1.5" cy="1.5" r="1.5" transform="translate(30 150)"/><circle cx="1.5" cy="1.5" r="1.5" transform="translate(45 150)"/><circle cx="1.5" cy="1.5" r="1.5" transform="translate(60 150)"/><circle cx="1.5" cy="1.5" r="1.5" transform="translate(75 150)"/><circle cx="1.5" cy="1.5" r="1.5" transform="translate(90 150)"/><circle cx="1.5" cy="1.5" r="1.5" transform="translate(105 150)"/><circle cx="1.5" cy="1.5" r="1.5" transform="translate(120 150)"/><circle cx="1.5" cy="1.5" r="1.5" transform="translate(135 150)"/><circle cx="1.5" cy="1.5" r="1.5" transform="translate(150 150)"/><circle cx="1.5" cy="1.5" r="1.5" transform="translate(165 150)"/><circle cx="1.5" cy="1.5" r="1.5" transform="translate(0 165)"/><circle cx="1.5" cy="1.5" r="1.5" transform="translate(15 165)"/><circle cx="1.5" cy="1.5" r="1.5" transform="translate(30 165)"/><circle cx="1.5" cy="1.5" r="1.5" transform="translate(45 165)"/><circle cx="1.5" cy="1.5" r="1.5" transform="translate(60 165)"/><circle cx="1.5" cy="1.5" r="1.5" transform="translate(75 165)"/><circle cx="1.5" cy="1.5" r="1.5" transform="translate(90 165)"/><circle cx="1.5" cy="1.5" r="1.5" transform="translate(105 165)"/><circle cx="1.5" cy="1.5" r="1.5" transform="translate(120 165)"/><circle cx="1.5" cy="1.5" r="1.5" transform="translate(135 165)"/><circle cx="1.5" cy="1.5" r="1.5" transform="translate(150 165)"/><circle cx="1.5" cy="1.5" r="1.5" transform="translate(165 165)"/></g></svg>