<svg xmlns="http://www.w3.org/2000/svg" width="398.034" height="39.938" viewBox="0 0 398.034 39.938"><path d="M70.569 38.719a1.987 1.987 0 01-1.2-.25q-.547-.313-.2-1.125.469-.906 1.078-2.25t1.672-3.562q-.969.375-1.656.656a11.889 11.889 0 00-1.531.781.967.967 0 01-.734.156 1.46 1.46 0 01-.578-.469 2 2 0 01-.375-1.125 8.56 8.56 0 012.118-1.109q1.406-.547 3.844-1.3.781-1.813 1.063-2.562-1.188.344-2.125.625a1.547 1.547 0 01-.891.094q-.359-.094-.578-.656a1.9 1.9 0 01-.156-.562 2.586 2.586 0 01-.062-.562q.687-.187 1.719-.406 1.094-.25 2.813-.656.219-.687.344-1.156.125-.531.188-.719a17.837 17.837 0 00-3.406.625 1.79 1.79 0 01-.984.172.915.915 0 01-.594-.562 2.21 2.21 0 01-.25-.828q-.016-.344.406-.484a20.693 20.693 0 012.25-.437q1.828-.3 2.828-.391a4.33 4.33 0 00.125-1.2 1.192 1.192 0 01.25-.859 1.632 1.632 0 011.016.078 1.127 1.127 0 01.688.672 2.707 2.707 0 01.172.938q.563 0 1.313-.031a3.186 3.186 0 011.063.094l.125.063a.751.751 0 01.578.7 1.118 1.118 0 01-.266.953h-1.411a15.03 15.03 0 00-1.625.123q-.219.969-.5 1.844a6.392 6.392 0 01.844-.172q.375-.047.766-.078a1.061 1.061 0 01.609.094 1.444 1.444 0 01.438.438.582.582 0 01.125.625.954.954 0 01-.594.531 16.667 16.667 0 00-1.688.327 5.009 5.009 0 01-1.094.172q-.75 1.563-1.187 2.625.5-.187 2.234-.594t4.578-1a1.041 1.041 0 011.344.719.953.953 0 01-.234.734 1.291 1.291 0 01-.734.391q-2.25.375-3.391.609a13.111 13.111 0 00-2.234.672q1.718 1.938 3.39 3.859a25.124 25.124 0 003.109 3.078 1.609 1.609 0 01.031.938 1.163 1.163 0 01-1 .469 2.514 2.514 0 01-1-.5q-1.687-1.781-3.156-3.516t-2.218-2.672a8.219 8.219 0 01-.875-1.219l-.75.156q-1.219 2.5-1.922 4.094T71.3 37.297q-.481.891-.731 1.422zm-3.688-22.094q1.531-.437 2.328-.672t6.3-1.328q-.25-2.25-.5-4.687a2.7 2.7 0 01.844-.156q1.063 0 1.313 1.281.094 1.5.156 3.438.781-.125 3.109-.25a29.1 29.1 0 015.359.281 5.224 5.224 0 011.25.5 2.21 2.21 0 01.875.875l.094.188a2.028 2.028 0 01-.141 1.234 6.3 6.3 0 01-.672 1.172 15.057 15.057 0 01-2.047 2.266 5.973 5.973 0 01-1.437 1.031 1.439 1.439 0 01-1-.016q-.547-.187-.547-.562a24.606 24.606 0 002.156-2.5q.563-.719.906-1.25a4.849 4.849 0 00.469-.937 8.958 8.958 0 00-3.453-.609 22.015 22.015 0 00-5.687.406q-2.891.578-5.031 1.156a11.7 11.7 0 00-2.766.984 2.994 2.994 0 01-1.906.281 20.061 20.061 0 00.078 2.359 5.2 5.2 0 00.344 1.672l.484.969a.89.89 0 01-.937.594 1.407 1.407 0 01-.984-.609 4.274 4.274 0 01-.578-1.484 11.813 11.813 0 01-.25-2.3q-.031-1.328-.047-3.141t.078-3.031q.188-1.594 1.438-.656a1.094 1.094 0 01.563.484 1 1 0 01.172.672q-.047.313-.109.594-.161.939-.224 1.751zm45.094 2.906a13.892 13.892 0 01.188-1.656 12.178 12.178 0 00-1.391.453 5.83 5.83 0 01-1.109.328A1.846 1.846 0 01108.632 17a15.151 15.151 0 011.891-.656 9.677 9.677 0 001.641-.594q.063-1 .031-1.969a4.172 4.172 0 00-1.406.328q-.719.3-1.437.609a1.142 1.142 0 01-1.656-.375q-.719-1.031.531-1.5 1.719-.5 2.719-.8a4.61 4.61 0 001.188-.453 1.726 1.726 0 00.109-1.078 1.46 1.46 0 01.484-1.266 1.906 1.906 0 011.625 1.844q1.313-.219 2.125-.375a1.272 1.272 0 011.563.531 1.846 1.846 0 01.123 1.129 1.382 1.382 0 01-.906.375 23.818 23.818 0 00-2.937.531q-.094 1.094-.094 2.063a8.749 8.749 0 001.438-.125l1.313-.219a1.156 1.156 0 01.781.094.939.939 0 01.531.609 3.234 3.234 0 01.125.922q-2.25.344-4.281.75a7.958 7.958 0 00-.156 1.875l.219-.031q1.563-.344 3.031-.562 1.594-.25 4.25-.719a1.1 1.1 0 011.313.781q.594 1.094-.719 1.156a23.169 23.169 0 00-3.672.438q-1.391.312-3.656.656A23.53 23.53 0 00110.509 22q-1.687.594-3.312 1.25-.281.094-.562.219-1.098-.094-1.41-1.594a28.515 28.515 0 013-1.219q1.781-.625 3.75-1.125zm-.312 4.594q1.375-.469 2.25-.687t3.313-.781a1.747 1.747 0 011.3.266 1.318 1.318 0 01.641 1.109q-.219 2.531-.469 4.625t-.5 3.781q-.035 1.062-.942 1.187a2.2 2.2 0 01-1.093-.219q-2.563.782-4.719 1.375a1.426 1.426 0 01-1.5-.562 5.047 5.047 0 01-.531-1.906 34.112 34.112 0 01-.187-4.2q0-2.828.125-4.7a1.117 1.117 0 011.016-.344 2.377 2.377 0 011.296 1.056zm4.875 6.344q-2.844.625-5.406 1.219a1.069 1.069 0 00.109.609 4.431 4.431 0 01.234.516 7.724 7.724 0 001.469-.25q1.062-.25 2.109-.453a3.409 3.409 0 001.281-.406.667.667 0 00.2-.594 3.252 3.252 0 01.004-.641zm.718-6.094q-1.375.281-2.406.547t-1.844.516a10.9 10.9 0 01-1.719.375q-.094.719-.156 1.375 3.469-.719 6.063-1.438a5.294 5.294 0 00.062-1.375zm-.375 3.219q-1.5.188-3.078.547t-2.922.734q.063.5.125 1.375 1.469-.469 2.672-.75t3.047-.562q.125-.844.156-1.344zm5.313 10.562q-.219 1.063-1.125.656-1.031-.625-1.844-1.2a13.652 13.652 0 00-1.812-1.078 7.059 7.059 0 01-1.031-1.062.872.872 0 01.063-.859.829.829 0 01.655-.347 1.569 1.569 0 01.813.2q1.531 1.094 2.609 1.828a6.839 6.839 0 011.516 1.3 1.442 1.442 0 01.156.562zm-12.469.906q1.156-1.875 2.438-3.594a.877.877 0 01.719-.25 2.538 2.538 0 01.781.313.9.9 0 01.219 1.375q-1.188 1.438-2.437 2.813a.907.907 0 01-1.016.109 1.791 1.791 0 01-.704-.765zm-7-14.719a9.49 9.49 0 00-.922.563q-.453.312-.953.625-.063.75-.094 1.438-.469 6.969-.5 7.594a13.188 13.188 0 00.156 2.125.854.854 0 01-.219.547.905.905 0 01-.531.328 1.273 1.273 0 01-1-.469 3.65 3.65 0 01-.312-1.469q.156-3.281.406-7.531l.031-.281q-.031-.719-.094-1.406a11.467 11.467 0 00-1.281.5q-.687.313-2.719.969a1.335 1.335 0 01-1.75-.719 2.737 2.737 0 01-.25-.641.839.839 0 01.078-.656 1.593 1.593 0 01.423-.485q1.719-1.812 2.688-2.719a14.644 14.644 0 001.438-1.5q-1.406-.625-3-1.281a1.8 1.8 0 01-.75-1.062 1.157 1.157 0 01.406-1.344q1.938-1.719 3.406-3.172t2.438-2.547a4.564 4.564 0 01.938.344q1.031.719.656 1.438-1.625 1.406-2.734 2.438t-1.719 1.625a6.587 6.587 0 00-.8.875 2.336 2.336 0 001.125.7 6.1 6.1 0 001.594.391q1.375-1.344 2.625-2.375a3.18 3.18 0 01.578-.453.583.583 0 01.7.078 2.091 2.091 0 01.875 1.188q.125.375-.016.516a1.784 1.784 0 01-.453.3 12.434 12.434 0 00-1.761 1.36 8.473 8.473 0 00-1.2 1.234 2.205 2.205 0 01-.781.672 7.211 7.211 0 00-1.347 1.075q-.813.781-2 2.188 1.219-.375 1.469-.484t1.016-.391q.766-.281 1.547-.641t1.468-.734q.094-.469.219-1 .219-.875.969-.5a8.257 8.257 0 011.156 1.125q.594.687 1.156 1.344l.25.25q.438.469.781.813a.815.815 0 01.094 1.125.851.851 0 01-1.187.156 4.581 4.581 0 01-1.062-.781l-.344-.344q-.407-.407-.907-.938zm-5.375 6.47q-1.031 1.344-1.547 2a40.138 40.138 0 00-2.172 3.562 1.292 1.292 0 01-.953-.281 1.4 1.4 0 01-.453-.844 6.937 6.937 0 01.656-1.719 35.35 35.35 0 012.219-3.312l.125-.187a.765.765 0 01.75-.469h.25a1.428 1.428 0 01.75.375q.594.437.375.875zm9.063-.312q-.063.656-.391.828t-1.266-.2a29.614 29.614 0 01-2.812-1.531 1.782 1.782 0 01-.172-1.2q.109-.734.766-.547a23.8 23.8 0 012.969 1.813 4.4 4.4 0 01.906.836zm31.562-10.438a19.176 19.176 0 01-1.391 4 19.743 19.743 0 01-2.156 3.547 11.042 11.042 0 01-3.016 2.7 9.045 9.045 0 01-1.719.813 1.7 1.7 0 01-1.062.031 3.271 3.271 0 01-1.016-.609 3.4 3.4 0 01-.89-1.17 4.273 4.273 0 01-.281-1.781 8.767 8.767 0 01.672-2.7 9.051 9.051 0 012.031-3.094 12.73 12.73 0 012.875-2.25 15.775 15.775 0 014.078-1.425 1.7 1.7 0 01.844-.25h.188a7.1 7.1 0 01.8.188q.3.094.641.219a4.941 4.941 0 011.563.609 7.685 7.685 0 011.464 1.234 5.041 5.041 0 011.188 2.531 10.181 10.181 0 01.012 3.86 20.412 20.412 0 01-.766 3.281 13.9 13.9 0 01-1.031 2.234 3.133 3.133 0 01-.359.563.806.806 0 01-.453.219 1.12 1.12 0 01-.7-.156 1.562 1.562 0 01-.641-.5 1.644 1.644 0 01-.25-.626.674.674 0 01.156-.594 6.6 6.6 0 00.7-.859 9.841 9.841 0 00.7-1.828 16.624 16.624 0 00.656-2.906 9.132 9.132 0 00.063-2.344 5.2 5.2 0 00-.3-1.422 1.926 1.926 0 00-.609-.8 3.044 3.044 0 00-.953-.484 5.969 5.969 0 00-1.038-.231zm-9.687 9.093a2.112 2.112 0 001.781-.406 12.829 12.829 0 002.687-2.575 13.964 13.964 0 001.906-3.234 19.54 19.54 0 00.969-2.75 13.7 13.7 0 00-2.781 1.25 9.058 9.058 0 00-2.891 2.469 8.244 8.244 0 00-1.516 2.859 5.639 5.639 0 00-.155 2.387zm26.344-13q-.781.781-2.469 2.5a14.933 14.933 0 01-2.363 2.078 3.338 3.338 0 01-.937.406q-.3.047-.391-.547a2.123 2.123 0 01.719-1.531q1.625-1.75 3.234-3.625t2.438-2.75q.828-.875 1.547-1.687a.972.972 0 01.656-.281.832.832 0 01.375.094 1.419 1.419 0 011 1.219.826.826 0 01-.531.938q-1.125.938-2.156 1.938l.688.375a2.2 2.2 0 01.219 1.625q-.187 2.094-.25 3.094.875-.281 1.25-.422t.906-.3a1.134 1.134 0 011.281.375 2.081 2.081 0 01.219.875q-.031.375-.25.469a1.167 1.167 0 01-.562.063 20.2 20.2 0 00-2.969.938q-.281 2.344-.5 4.344 2.188 1.25 4.125 2.469a.858.858 0 010 .781q-.187.344-.828.234a5.052 5.052 0 01-1.391-.484 11.752 11.752 0 00-2.125-.906q-.219 2.219-.234 3.844t-.014 2.343q0 .719.031 2.156.125.969-.844.875a1.238 1.238 0 01-1.218-1.531q.062-3.313.188-4.781.125-1.438.281-3.656l.031-.219q-.156.156-.437.469-.437.531-1.219 1.594-1.188 1.656-2.344 3.656a.85.85 0 01-1.125.437 1.014 1.014 0 01-.719-1.156 14.1 14.1 0 011.469-2.25q1.313-1.781 3.156-4.875a1.6 1.6 0 011.375-.812 5.691 5.691 0 00.281-1.75 18.811 18.811 0 00-1.844.813 31.971 31.971 0 00-3.219 1.813 1.438 1.438 0 01-1.75 0q-1.063-1 .313-1.656 2.063-1.125 3.719-1.828t3-1.3q.094-2.187.156-2.953a12.313 12.313 0 00.031-1.515zm8.75 13.5a4.2 4.2 0 01-1.937-.906 4.927 4.927 0 01-1.531-2.187 9.213 9.213 0 01-.437-2.156 5.089 5.089 0 01-.031-.562 1.8 1.8 0 011.188-.094 1.727 1.727 0 01.344.156 1.476 1.476 0 01.844 1.344 6.417 6.417 0 00.438 1.531 1.979 1.979 0 001.156 1.156 1.8 1.8 0 01.406.844 1.313 1.313 0 01-.441.874zm8.156-15.906a4.431 4.431 0 011.219.234 1.178 1.178 0 01.781.813 1.554 1.554 0 01-.031 1.109q-.094.25-.187.531-.656 1.656-2.062 4.563-1.658 3.375-2.752 5.219a19.739 19.739 0 002.5 5.781 12.63 12.63 0 002.109 2.7 1.968 1.968 0 001.2.328 5 5 0 001.188-2.031q.406-1.25.563-1.969a1.233 1.233 0 01.8 1.266 10.862 10.862 0 01-.125 2.141 5.047 5.047 0 01-.8 2.063 1.139 1.139 0 01-.844.594 4.586 4.586 0 01-2.281-.5 12.066 12.066 0 01-3.562-4.125 37.9 37.9 0 01-1.937-4.187 39.537 39.537 0 00-2.422 4.5q-1.328 2.813-1.984 4.406a1.168 1.168 0 01-1.111-.111 1.751 1.751 0 01-.641-.891q1.094-2.469 2.344-5.047t1.813-3.672q.563-1.094.813-1.687-.437-1.563-.906-3.125-.156-.562-.344-1.344-.406-1.563-.906-4.125a.53.53 0 01.438-.437 1.939 1.939 0 01.906.031q.531.125.906 1.344.25 1.219.438 2.156.125.594.219 1.094.25 1.219.469 2.188a40.414 40.414 0 002.156-3.844q.406-.844.719-1.5a18.274 18.274 0 00.813-1.937 8.408 8.408 0 00.501-2.529zm1.719 7.094a2.733 2.733 0 011.406.406 1.653 1.653 0 01.813 1.25q.531 1.844 1.125 3.719.062.437.125 1a1.045 1.045 0 01-1.375-.031 1.845 1.845 0 01-.5-.625q-.937-2.625-1.812-5.125a1.161 1.161 0 01.217-.594zm-6.312-5.875q-.844-1.312-1.562-2.656a.768.768 0 01.156-1.219 2.349 2.349 0 012.031 1.563q.5 1.125 1.031 2.531.062.469-.516.547t-1.141-.766zm37.406.625q-.781-.062-2.266-.125a21.968 21.968 0 00-3.391.156 52.948 52.948 0 00-5.609 1.094A27.366 27.366 0 00186.694 19q-1.094.625-1.719.094a9.274 9.274 0 00-.109 2.234 9.849 9.849 0 00.266 1.859 1.075 1.075 0 01-1.312.188 3.393 3.393 0 01-.687-1.906 28.832 28.832 0 01-.141-3.609 17.336 17.336 0 01.422-3.359q.375-.281 1.125.078a1.039 1.039 0 01.688 1.078 3.91 3.91 0 00-.141.766q-.016.3-.047.8 1.344-.5 3.281-1.2a49.881 49.881 0 015-1.453 6.415 6.415 0 00.391-2.031q.016-.969-.031-1.594t-.08-1.039a.709.709 0 01.406-.594.62.62 0 01.281-.062.894.894 0 01.469.156 2.352 2.352 0 01.75 1.688 26.955 26.955 0 01-.062 3.188q2.375-.344 4.688-.469a42.927 42.927 0 014.313-.031 2.827 2.827 0 011.375.438 2.266 2.266 0 01.844 1.25 1.2 1.2 0 01-.281 1.281q-1.188 1.125-2.328 2.156t-1.719 1.484a6.77 6.77 0 01-1.141.734 1.541 1.541 0 01-.562-.422.561.561 0 01-.078-.609 1.262 1.262 0 01.328-.5q.75-.75 1.313-1.375.563-.562.969-1a8.293 8.293 0 001.185-1.625zm-11.438 10.031q-1.969 1.813-4 3.906-.719.75-1.469 1.406a1.256 1.256 0 01-.766.344.91.91 0 01-.75-.312 1.886 1.886 0 01-.453-.75q2.75-2.594 5.156-5.312.219-.25.406-.469a14.725 14.725 0 01-1.406-.7 4.571 4.571 0 01-.937-.672 1.191 1.191 0 01-.219-1.031.983.983 0 01.094-.656.524.524 0 01.594-.219 12.765 12.765 0 011.844.891 11.376 11.376 0 001.594.8l.875-1.062q-1.281-1.625-2.625-3.219-.031-.25.406-.562a1.2 1.2 0 011-.187 1.619 1.619 0 011.094.719 13.557 13.557 0 011.188 1.969q.687-.875 1.406-1.687a1.314 1.314 0 011.344.906 1.175 1.175 0 01-.406 1.344q-.25.25-.469.5-1.188 1.281-2.312 2.563 2.344 1.5 4.469 2.656a34.329 34.329 0 005.529 2.272 4.371 4.371 0 00.156-.922 1.62 1.62 0 01.438-.953 3 3 0 01.828 1.125q.422.844.953 2.031a.855.855 0 01-.219.938.932.932 0 01-1 .094q-2.344-.937-5.094-2.125t-4.578-2.2q-1.828-1.02-2.671-1.426zm6.906 9.188a2.658 2.658 0 01-1.781 1.262q-1.469.484-4.672 1.609a37.994 37.994 0 01-4.984 1.469 1.894 1.894 0 01-2.312-1.094.865.865 0 01.031-.812q1.031-2.563 2.188-5.125a14.911 14.911 0 00.656-1.687 1.884 1.884 0 011.655.878.749.749 0 01.094.688 5.017 5.017 0 01-.312.688 15.628 15.628 0 00-2.062 4.406 12.05 12.05 0 002.2-.391 13.985 13.985 0 002.047-.734.969.969 0 01-.2-.656 2.381 2.381 0 01.141-.719 12.565 12.565 0 00.469-2.672 14.554 14.554 0 000-1.922l-.125-1.437a2.027 2.027 0 011.281.078q.469.234.656 1.266a8.66 8.66 0 01.031 2.2q-.125 1.109-.5 3.359a40.82 40.82 0 004.874-1.717 6.979 6.979 0 01-.484-.969 6.46 6.46 0 01-.359-1.156.7.7 0 01.422-.75.928.928 0 01.859.125 4.524 4.524 0 01.844 1.188q1.406 3.031 2.469 5.219a1.839 1.839 0 01.188.469 1.225 1.225 0 01.016.516.468.468 0 01-.391.359.844.844 0 01-.812-.187 16.156 16.156 0 01-1.312-1.969q-.659-1.47-.815-1.782zm-16.281-9.563a1.519 1.519 0 011.313.594 1.016 1.016 0 01.094 1.313l-.812 1.5q-.656 1.188-1.281 2.438a1.135 1.135 0 00-.281.688.8.8 0 00.281.688.881.881 0 01-1.062.781 1.1 1.1 0 01-1.062-.719 1.587 1.587 0 01-.062-1.437q.156-.281.344-.625.344-.719.813-1.687.683-1.471 1.715-3.534zm20.219 1a1.031 1.031 0 01-1.25-.25q-.937-1-1.844-2.031a4.25 4.25 0 01-.656-1.562q0-.937.875-.594a1.926 1.926 0 01.75.531q.938 1.188 1.813 2.406a1.64 1.64 0 01.311 1.5z" fill="#ed7b27"/><path d="M222.444 26.375a13.135 13.135 0 011.5 1.25 12.128 12.128 0 011 1.125 1.138 1.138 0 01-.344 1.063.882.882 0 01-.891-.031q-.328-.25-1.062-.734a19.438 19.438 0 01-1.609-1.2q-.687.75-1.266 1.422a7.332 7.332 0 00-1.109 1.949q-.375 1.156.406 1.531a5.508 5.508 0 002.516.2 19.173 19.173 0 003.734-.7q.594-.313.938 0a1.385 1.385 0 01.406.922 1.123 1.123 0 01-.407 1.016 3.736 3.736 0 01-1.375.375 19.639 19.639 0 01-2.812.484 6.41 6.41 0 01-3.219-.391 3.635 3.635 0 01-2.25-3.843 6.565 6.565 0 01.875-2.109 12.052 12.052 0 011.781-2.11 4.484 4.484 0 01-1.718-1.625 3.116 3.116 0 01-.375-2.031 18.54 18.54 0 01.906-2.875q-2 .563-2.969.875a15.756 15.756 0 00-1.875.75 1.7 1.7 0 01-1.031-.578 1.32 1.32 0 01-.375-.766.77.77 0 01.375-.594 6.273 6.273 0 011.625-.675q1.25-.391 2.813-.766 1.031-.25 2.281-.531.687-1.844.781-2.187.125-.406.469-1.406a.473.473 0 01.375-.187.859.859 0 01.438.156 1.743 1.743 0 01.625.625q.125.281.25.547a2.978 2.978 0 01-.281 1.484q-.094.25-.187.469 1.281-.25 2.625-.469 2-.313 3.375-.406a1.047 1.047 0 01.906.609 2.458 2.458 0 01.219.953q0 .438-.719.5a10.087 10.087 0 00-2.125-.031q-1.219.094-2.687.344-1 .188-2.531.594-.438.969-1.25 3.188a1.843 1.843 0 00.016 1.2 4.081 4.081 0 001.484 1.172q.625-.531 1.766-1.391a14.728 14.728 0 012.266-1.422.689.689 0 01.625-.062 1.057 1.057 0 01.438.5 2.39 2.39 0 01.219.938.685.685 0 01-.5.75q-.937.469-1.391.7a9.72 9.72 0 00-1.675 1.429zm19.188-3.875q.125-1.469.188-2.672t.125-1.641q.031-.531.328-.516a1.73 1.73 0 01.766.313 1.5 1.5 0 01.641.813 2.283 2.283 0 01.109 1.016q-.063.844-.219 2.313.563-.156.906-.234t1.281-.359q.188-2 .25-2.844a4.053 4.053 0 01.078-.875q.078-.344.5-.328a1.565 1.565 0 01.953.531 1.332 1.332 0 01.375 1.3q-.031.781-.125 1.906 1.094-.187 2.063-.344.125-1.656.281-3.094a1.257 1.257 0 011.688.844 8.83 8.83 0 01.156 2.094q.406-.063.781-.094 1.031-.125 1.844-.187.031-.5.094-.906a2.475 2.475 0 01.031-.406q.063-.531.125-1.031a3.063 3.063 0 01.219-.937 1.034 1.034 0 01.844-.016.988.988 0 01.594.578 1.5 1.5 0 01.313.563 1.8 1.8 0 01.031 1 7.064 7.064 0 00-.062 1.125 12.562 12.562 0 002.341-.037 1.371 1.371 0 011.5 1 1.241 1.241 0 01-.125 1 1.182 1.182 0 01-.719.188 20.593 20.593 0 00-2.094-.312 4.888 4.888 0 00-1.125 0 12.885 12.885 0 01-.968 2.78 11.951 11.951 0 01-1.594 2.438 17.128 17.128 0 012.282-.094 1.3 1.3 0 011.469 1.281q-.031.844-.812.844-.75-.156-1.437-.25a69.089 69.089 0 00-8 .844q-4.594.719-5.719 1.469a1.292 1.292 0 01-1.219.016 1.218 1.218 0 01-.719-1.109.786.786 0 01.625-.875 13.917 13.917 0 012.313-.687 15.538 15.538 0 01-.844-1.969q-.25-1.125-.406-2.187a6.38 6.38 0 00-1.047.406 5.67 5.67 0 00-1.109.656 1.782 1.782 0 01-.687.344 1.159 1.159 0 01-.766-.078 1 1 0 01-.547-.547q-.625-1 .5-1.531 1.281-.531 2.359-.922a9.955 9.955 0 001.389-.58zm-3.75-2.094q.062-.75.2-2.078a23.25 23.25 0 01.563-3.047q.422-1.719 1.016-3.812a2.04 2.04 0 01.719-1.187 4.421 4.421 0 01.781.141 1.516 1.516 0 01.656.344 4 4 0 01.375.391q.094.219-.344 1.188a24.143 24.143 0 00-.906 2.406q4.125-1 6.344-1.312t8.25-.687a11 11 0 012.188.094 2.063 2.063 0 01.875.188 1.811 1.811 0 01.828.8 1.135 1.135 0 01.047.953q-.25.719-.594.75t-.781.063a1.041 1.041 0 01-.781-.266q-.344-.3-.656-.578a6.33 6.33 0 00-2.391-.2 43.508 43.508 0 00-4.75.438q-2.828.391-4.953.859a9.469 9.469 0 00-2.672.844 3.237 3.237 0 01-.828.453 1.477 1.477 0 01-.75-.047 27.911 27.911 0 00-.844 4.719 1.191 1.191 0 01-1-.141 1.545 1.545 0 01-.593-1.276zm1.781 12.157a2.617 2.617 0 01.922.391.931.931 0 01.438.859 1.79 1.79 0 01-.453 1.094q-1.314 1.812-1.97 2.874a1.264 1.264 0 01-.422.641.628.628 0 01-.641.109 1.553 1.553 0 01-1.031-1.375 2.25 2.25 0 01.125-.469q.781-1.469 2.313-3.781a1.779 1.779 0 01.719-.343zm7.469.375a23.227 23.227 0 013 3.25 1.257 1.257 0 01.125 1.469 2.229 2.229 0 01-1.906-.812q-.937-1.063-1.906-2.031a2.9 2.9 0 01-.609-.859.85.85 0 01.25-.953.7.7 0 011.045-.064zm4.844-1.281a2.407 2.407 0 011.156-.031.887.887 0 01.719.781 28.981 28.981 0 011.125 3.281 1.721 1.721 0 01-.062.656.5.5 0 01-.3.375.893.893 0 01-.531-.047 1.033 1.033 0 01-.516-.359q-.813-1.781-1.594-3.656a2.024 2.024 0 01.002-1.001zm7.219-.594a10.739 10.739 0 011.844 3.594q.312.594-.344.969a1.03 1.03 0 01-1.125-.281q-.689-1.251-1.314-2.376a2.522 2.522 0 01-.125-1.219 1.489 1.489 0 01.469-.641.537.537 0 01.594-.046zm-11.657-7.813a2.29 2.29 0 00-.094.438 9.972 9.972 0 00-.156 1.031q-.094.938-.312 2.063a.619.619 0 01-.5.625 1.13 1.13 0 01-.781-.312 4.545 4.545 0 01-.375-1.594q.031-.281.063-.625.094-.594.156-1.406a20.915 20.915 0 00-2.125.75 7.268 7.268 0 00.094 1.75q.031.188.063.406a8.452 8.452 0 00.75 2.219q4-.688 7.438-1.031a26.96 26.96 0 001.766-2.672 6.64 6.64 0 00.8-2.547 13.2 13.2 0 00-2.625.188q-.219.844-.469 2.188t-.344 2a1.115 1.115 0 01-.406.719 1.7 1.7 0 01-.812-.219 1.228 1.228 0 01-.256-.846 6.614 6.614 0 01-.031-1.469q.125-.594.2-1.141a4.436 4.436 0 00.047-.953q-.5.094-.969.188a8.911 8.911 0 00-1.122.25zM290.163 11a1.672 1.672 0 01.625-.125 1.925 1.925 0 01.813.188 1.245 1.245 0 01.75 1.125q-.031.437-.031.875-.126 1.781-.22 3.312-.156 2.75-.25 4.781-.156 3.125-.125 3.406 1.406-.344 2.031-.469.437-.25 1.25.469.688 1-.5 1.313-.906.219-2.844.625l-.375 4.031q-.156 1.719-.266 3.328a12.886 12.886 0 00-.016 2.3.976.976 0 01-1.781.719 1.471 1.471 0 01-.375-1.562 6.135 6.135 0 00.3-1.656q.141-1.375.281-3.047t.17-3.394a17.454 17.454 0 00-2.2.75q-.956.406-2.347 1.156a5.079 5.079 0 00-1.859 1.469 2.392 2.392 0 01-.547.453.736.736 0 01-.734.016 3.548 3.548 0 01-1.125-1.438 1.7 1.7 0 01.438-.781q1.438-.75 3.313-1.609t5.25-2.2q.094-.813.188-3.469.094-1.687.188-4.062.062-1.375.125-2.969-.034-1.754-.127-3.535zm-6.281 5.531a.8.8 0 01.531-.7q.531-.266 1.406.516a5.1 5.1 0 011.25 1.844 6.147 6.147 0 01.313.938 1.546 1.546 0 010 .875 1.21 1.21 0 01-.781.25l-.5-.406q-.25-.219-.594-.562a7.417 7.417 0 01-1.188-1.611 4.18 4.18 0 01-.438-1.144zm-.937 5.625a25.969 25.969 0 012.625 1.344.8.8 0 01.531.656q.188.875-.75.875-1.094-.25-2.187-.562a1.615 1.615 0 01-1.064-1.188q-.375-1.125.844-1.125zm-7.939 3.344a3.693 3.693 0 00.063.719 1.786 1.786 0 00.281.813 18.945 18.945 0 001.813 1.375 3.54 3.54 0 001.531.531.773.773 0 01.719 1.031.861.861 0 01-1.094.719 7.785 7.785 0 01-1.419-.438q-.672-.281-2.109-.969-.094.75-.141 3.078t-.234 4.047a1.448 1.448 0 01-.109.688.671.671 0 01-.578.406 1.335 1.335 0 01-.906-.359 1.142 1.142 0 01-.406-.891q.063-1.438.156-2.172t.188-2.625q.089-1.891.089-3.078-.656.969-1.516 2.2t-2.203 3.144a1.979 1.979 0 01-.609.641.614.614 0 01-.781-.031 2.806 2.806 0 01-.609-.609 5.234 5.234 0 01.702-1.345q.578-.875 1.641-2.5l.438-.687q.781-1.219 1.344-2.187.75-1.25 1.344-2.156a3.229 3.229 0 00.438-1.312 25.639 25.639 0 00-4.531 2.063 2.5 2.5 0 01-.766.375 1.23 1.23 0 01-.892-.096 1.564 1.564 0 01-.75-.812.642.642 0 01.047-.609 1.314 1.314 0 01.484-.391q1.437-.687 2.125-.937t1.719-.594q-2.187-2.469-2.812-3.344a8.74 8.74 0 01-.8-1.328.947.947 0 01.016-.734q.188-.406.953-.406a1.4 1.4 0 011.234.813 7.428 7.428 0 001.034 2.03 17.39 17.39 0 002.031 2.156 6.147 6.147 0 01.938-.312q.5-6.25.75-9.469.125-.469.453-.422a2.9 2.9 0 01.813.281 1.234 1.234 0 01.656.75 2.211 2.211 0 01.078 1.078 30.165 30.165 0 00-.484 3.781q-.172 2.281-.234 3.313.906-.281 1.859-.594a20.378 20.378 0 012.141-.562 1.5 1.5 0 011.125.313q.125.375.25.656a1.282 1.282 0 01.094.641.529.529 0 01-.344.484 13.117 13.117 0 00-2.3.266 22.617 22.617 0 00-2.859.734 9.571 9.571 0 01.594.906.876.876 0 01-.125.984 3.884 3.884 0 00-.53.953zm4.406-12.719a.791.791 0 011.281.063q.844 1.031.469 1.219-1.813 3.031-2.422 3.922t-.922 1.266a.715.715 0 01-.7.156.89.89 0 01-.469-.359q-.141-.234.266-1.359 2.279-4.627 2.498-4.908zm37.594 2.156q1.594-.406 3.281-.812a4.116 4.116 0 011.125.031 1.048 1.048 0 01.656.563 1.309 1.309 0 01.094.844.771.771 0 01-.469.563 1.847 1.847 0 01-.625.125 34.807 34.807 0 00-4.281.875q.031.406-.125 2.781.156.312.313.594a3.073 3.073 0 00.938 1.031 11.591 11.591 0 011.141.891 21.151 21.151 0 002.766 1.75 18.818 18.818 0 004.938 1.922 2.336 2.336 0 01.938.531.862.862 0 01.219 1.188.713.713 0 01-1 .281 30.374 30.374 0 01-3.719-1.391 31.423 31.423 0 01-3.487-1.829q-1.641-1-3.3-2.25a11.925 11.925 0 00-.172 1.7q-.016.766-.156 1.906a16.916 16.916 0 00-.078 2.7q1.375-.219 2.672-.375a17.6 17.6 0 012.547-.125 2.538 2.538 0 011.125.406.7.7 0 01.219.719q-.156.5-.422.563a5.077 5.077 0 01-.984.063 12.572 12.572 0 00-3 .359q-1.219.328-2.469.7-.125 3.25-.312 6.5a.984.984 0 01-1.375.219 1.088 1.088 0 01-.437-1.312q.094-1.938.172-3.047a6.729 6.729 0 00.016-1.391q-.375.125-1.094.344a1.018 1.018 0 01-1.078.063 1.411 1.411 0 01-.641-.969.81.81 0 01.658-1.117q1.156-.469 2.344-.844.219-1.531.313-3.094t.156-3.187a14.574 14.574 0 00-2.375 2.578q-1.344 1.766-3.375 4.609a1.011 1.011 0 01-1.406.313.9.9 0 01-.187-1.5q2.25-3.156 3.969-5.5a8.791 8.791 0 00.563-.75q1.937-2.562 3.063-4a2.645 2.645 0 00.219-1.719q-1.969.594-3.109 1.031A15.392 15.392 0 00309.6 19.5a1.031 1.031 0 01-.937.109 2.084 2.084 0 01-.844-.531 1.5 1.5 0 01-.406-.891.779.779 0 01.687-.812q3.031-.812 4.625-1.3t2.344-.8a7.288 7.288 0 00-.047-1.609q-.109-.7-.234-1.422a1.821 1.821 0 010-.672.853.853 0 01.375-.547 1.485 1.485 0 01.406-.062 1.189 1.189 0 01.906.406 2.18 2.18 0 01.563 1.781q0 .881-.032 1.788zM298.913 28a.7.7 0 01-.906.5.94.94 0 01-.812-.844 2.342 2.342 0 01.219-1.219 29.972 29.972 0 011.578-3.078q.953-1.641 2.563-4.094t3.734-5.672a1.338 1.338 0 01.531-.578.743.743 0 01.813.016 1.237 1.237 0 01.719 1.375 2.476 2.476 0 01-.5 1.031q-.906 1.219-1.578 2.063a10 10 0 00-1.2 1.969 1.475 1.475 0 01.719 1.063q-.562 4.375-.937 7.531-.094.781-.187 1.5a15.088 15.088 0 00.031 5.156 2.039 2.039 0 01.125.844q-.219.594-1.062.438a1.6 1.6 0 01-1.094-1.531 34.313 34.313 0 01.063-5.031q.219-2.844.438-4.625.25-1.812.344-3.375a17.3 17.3 0 00-1.344 2.078q-.531.984-1.266 2.078a6.429 6.429 0 00-.991 2.405zm38.75-7q.719-.187 1.375-.344a.917.917 0 011.094.25q.813.656-.156 1.281-1.125.406-2.469.844a17.724 17.724 0 00-.125 2.219q.406-.125 1.484-.469t2.859-.719a1.061 1.061 0 011 .063l.188.125a1.377 1.377 0 01.5 1.188q-.063.75-.25 2.047t-.563 3.09a21.775 21.775 0 01-.953 3.313 7.383 7.383 0 01-1.578 2.547 1.469 1.469 0 01-1.687.594 2.43 2.43 0 01-.922-.578 4.128 4.128 0 01-.594-.719q-.2-.328.453-.391a1.653 1.653 0 001.969-.937 8.747 8.747 0 001.375-3.125q-1.156-.813-2.031-1.5a2.156 2.156 0 01-.562-.687 1.085 1.085 0 01.063-.875q.281-.5.875-.187a3.179 3.179 0 01.813.781q.438.375 1.188.969a9.318 9.318 0 00.313-3.875 17.891 17.891 0 00-2.469.656q-.5.156-1.094.406a28.814 28.814 0 00-3.781 2.063 2.291 2.291 0 01-1.281.3 3.043 3.043 0 01-1.344-.859 12.541 12.541 0 01-.672-2.7 25.135 25.135 0 01-.016-5.187q.25-3.484.5-5.516a24.647 24.647 0 01.406-2.609 2.889 2.889 0 01.375-.891.444.444 0 01.594-.156 3.2 3.2 0 01.75.453q.375.3.359.531a2.753 2.753 0 01-.078.484q-.094.5-.156.844.5-.062 2.281-.531t4.781-1.25a1.244 1.244 0 011.531.438 1.055 1.055 0 01.313 1 1.146 1.146 0 01-.391.25q-.234.094-.922.281-.687.125-2.844.625-.063 1.313-.031 2.313a11.053 11.053 0 001.25-.25 1.246 1.246 0 011.344.563q.563.781-.344 1.063a10.516 10.516 0 01-1.047.125 5.864 5.864 0 00-1.484.406 5.63 5.63 0 00-.187 1.234zm-1.812-1.656q-.906.563-2.125 1.313a4.891 4.891 0 01-.844-.156q-.25-.187-.531-.375a12.406 12.406 0 000 2.781q1.313-.469 2.781-1.094l.531-.156a5.028 5.028 0 00.187-2.313zm.313-2.062q-.031-.906 0-2.187-1.625.5-3.219 1.031a9.17 9.17 0 00-.5 2.906 31.367 31.367 0 013.718-1.751zm-3.875 6.75q.031.656.094 1.7a3.306 3.306 0 00.406 1.578 22.714 22.714 0 002.531-1.125l.156-2.406a9.607 9.607 0 00-.891.469 2.071 2.071 0 01-.781.281 1.405 1.405 0 01-.781-.094 4.732 4.732 0 01-.735-.404zm19.375-2.719a3.461 3.461 0 01.156 1.375q2.063-.406 2.906-.516t1.5-.172a2.089 2.089 0 011.188 1.125 1.093 1.093 0 01-.312 1.375q-1.219 1.563-1.781 2.25.094 1-1.469 1.406a20.659 20.659 0 00-2.062.719 6.439 6.439 0 001.359 2.594 15.269 15.269 0 002.42 2.64q1.188.984 1.438 1.234a.964.964 0 01.109.859q-.141.516-.734.328a6.9 6.9 0 01-1.859-1.281 16.427 16.427 0 01-2.562-2.8q-1.234-1.672-1.766-2.516a32.36 32.36 0 01-1.564 3.63q-1.125 2.313-1.562 3.219a1.138 1.138 0 01-.469.578.656.656 0 01-.781.016 1.129 1.129 0 01-.437-1.719 25.2 25.2 0 001.672-2.8 12.461 12.461 0 001.2-2.922q-.781.031-1.469.094a1.326 1.326 0 01-.75-.75q-.5-.969-.859-1.875t-.828-2.312a.942.942 0 01-.016-.734.9.9 0 01.5-.547.836.836 0 01.813.141 3.68 3.68 0 00.984.453q.938-.312 1.875-.672a12.32 12.32 0 001.281-.547 11.787 11.787 0 00.25-1.687 17 17 0 00-2.75.906 1.2 1.2 0 01-.969-.25 1.874 1.874 0 01-.406-.844.7.7 0 01.438-.812q.844-.219 2.813-.625.75-.156 1.406-.281 1.033-.218 1.721-.374a6.979 6.979 0 011.938-.187 2.73 2.73 0 01.984.453.719.719 0 01.266.891.828.828 0 01-.781.469 9.324 9.324 0 00-2.094.2q-.595.174-.938.268zm3.405 2.562q-.75.063-1.781.25a8.1 8.1 0 00-1.812.531 12.041 12.041 0 01-.594 2.688 8.552 8.552 0 002.718-.969 10.434 10.434 0 001.469-2.5zm-8.531 2.656q.156.5.625 1.875a6.136 6.136 0 001.781-.625 11.911 11.911 0 00.688-2.687 14.523 14.523 0 00-3.094 1.437zm4.156-12.75q-1.094 1.281-3.125 3.875a33.654 33.654 0 00-2.687 3.781q-.625 1.156-1.094 2.063a1.39 1.39 0 01-1.031-.281.889.889 0 01-.328-.641 6.052 6.052 0 01.547-1.453 39.649 39.649 0 013.422-5.016 56.616 56.616 0 013.984-4.953.972.972 0 01.656-.281 1.18 1.18 0 01.375.063 1.187 1.187 0 01.656.578 1.872 1.872 0 01-.062 1.047q1.656 1.625 4 3.875 2.344 2.219 3.125 3.125a5.092 5.092 0 01.969 1.375.675.675 0 01-.219.969.678.678 0 01-.969-.156q-.281-.312-1.3-1.484a33.526 33.526 0 00-2.734-2.734 3.408 3.408 0 01-.281-.25q-1.5-1.375-2.281-2.031-.811-.721-1.623-1.471zM329.1 34.406a19.493 19.493 0 01.906-2.969l.313-.75a.462.462 0 01.516-.375 2.5 2.5 0 01.766.188.734.734 0 01.375 1.031q-.313.719-.609 1.5a7.912 7.912 0 00-.422 1.563q-.094.344-.2.672a.338.338 0 01-.422.266 1.141 1.141 0 01-.891-.328 1.278 1.278 0 01-.332-.798zm4.906-4.156a12.531 12.531 0 011.25 1.234 9.653 9.653 0 01.969 1.234q.219.344.359.609a.542.542 0 01-.016.547.655.655 0 01-.625.266 1.039 1.039 0 01-.625-.3 16.563 16.563 0 01-2.312-2.437.8.8 0 01.063-.75 1.636 1.636 0 01.937-.403zm4.75 2.531a8.786 8.786 0 01-.969-.187 4.471 4.471 0 01-1.781-1.969.8.8 0 01.188-1.094.846.846 0 01.969-.094 9.78 9.78 0 001.25 1.594 2.062 2.062 0 01.531.8.918.918 0 01-.188.95zm35.938-12.625a1.676 1.676 0 00-1.031-.125q-.594.094-2.5.594a25.225 25.225 0 00-2.719.828 11.346 11.346 0 00-1.2.547 2.061 2.061 0 01-.891.25 1.548 1.548 0 01-1.031-.578 1.921 1.921 0 01-.609-.969.637.637 0 01.359-.641 42.147 42.147 0 014.778-1.187 49.284 49.284 0 015.094-.844 1.516 1.516 0 011.234.375 4.841 4.841 0 01.8 1.016 1.666 1.666 0 01.094 1.391 24.438 24.438 0 01-1.594 2.094 31.558 31.558 0 00-2.312 3.281q-1.344 2.125-1.75 2.906a1.312 1.312 0 00-.094 1.313 3.172 3.172 0 001.328 1.047 6.719 6.719 0 001.234.547 13.315 13.315 0 001.563-.062.921.921 0 01.484.281.9.9 0 01.234.547 1.372 1.372 0 01-.141.7 1.12 1.12 0 01-.609.563 1.368 1.368 0 01-1.281.172 10.793 10.793 0 01-1.675-.527 8.5 8.5 0 01-1.641-.922 5.888 5.888 0 01-1.405-1.378 3.862 3.862 0 01-.625-1.234 2.985 2.985 0 01.406-1.547q1.625-2.656 3.156-4.922t2.344-3.516zm5.5-2.219q-.281.719-.625.828a.553.553 0 01-.625-.234 4.612 4.612 0 01-.906-1.094q-.5-1.094-.906-2.219a.767.767 0 01.125-.969q.594-.469 1.031-.156a1.983 1.983 0 01.594.594q.687 1.813 1.312 3.251zm2.094-1.219a18.934 18.934 0 01-.469-2.375.753.753 0 01.281-.906.62.62 0 01.281-.062 1.823 1.823 0 01.938.375 3.746 3.746 0 01.563 1.484 6.742 6.742 0 01.031 1.953.72.72 0 01-.547.594.714.714 0 01-.7-.187 1.552 1.552 0 01-.378-.875zM22.381 20.25a1.461 1.461 0 01-1.516-.062 2.269 2.269 0 01-.7-.969 1.579 1.579 0 01-.109-.859q.078-.328.547-.453h.938a26.77 26.77 0 015.031.375 11.34 11.34 0 012.688.75 2.254 2.254 0 01.859.8 1.541 1.541 0 01.313.813.953.953 0 01-.172.516q-.156.219-.687.156-.719-.187-1.766-.516a14.079 14.079 0 00-2.656-.5 13.176 13.176 0 00-2.77-.051zm-1.406 12.5a2.129 2.129 0 01-1.109-.984 1.627 1.627 0 01-.266-1.172q.125-.469.938-.344a21.417 21.417 0 004.578.281 19.165 19.165 0 003.875-.456l2.063-.531q.671-.169 1.046-.231a.834.834 0 01.25.813 1.937 1.937 0 01-.406.688 3.515 3.515 0 01-.953.719 11.206 11.206 0 01-2.562.875 17.323 17.323 0 01-3.629.53 24.677 24.677 0 01-3.825-.188zM51.85 20.063a19.176 19.176 0 01-1.391 4 19.743 19.743 0 01-2.159 3.546 11.042 11.042 0 01-3.016 2.7 9.045 9.045 0 01-1.719.813 1.7 1.7 0 01-1.062.031 3.271 3.271 0 01-1.016-.609 3.4 3.4 0 01-.887-1.169 4.273 4.273 0 01-.281-1.781 8.767 8.767 0 01.672-2.7 9.051 9.051 0 012.031-3.094 12.73 12.73 0 012.875-2.25 15.775 15.775 0 014.078-1.422 1.7 1.7 0 01.844-.25h.188a7.1 7.1 0 01.8.188q.3.094.641.219a4.941 4.941 0 011.563.609 7.685 7.685 0 011.469 1.234 5.04 5.04 0 011.188 2.531 10.181 10.181 0 01.016 3.859 20.412 20.412 0 01-.766 3.281 13.9 13.9 0 01-1.031 2.234 3.133 3.133 0 01-.359.563.806.806 0 01-.453.219 1.12 1.12 0 01-.7-.156 1.562 1.562 0 01-.641-.5 1.644 1.644 0 01-.25-.625.674.674 0 01.156-.594 6.6 6.6 0 00.7-.859 9.841 9.841 0 00.7-1.828 16.624 16.624 0 00.656-2.906 9.133 9.133 0 00.063-2.344 5.2 5.2 0 00-.3-1.422 1.927 1.927 0 00-.609-.8 3.044 3.044 0 00-.953-.484 5.969 5.969 0 00-1.047-.234zm-9.687 9.093a2.112 2.112 0 001.781-.406 12.83 12.83 0 002.687-2.575 13.964 13.964 0 001.906-3.234 19.54 19.54 0 00.969-2.75 13.7 13.7 0 00-2.781 1.25 9.058 9.058 0 00-2.891 2.469 8.244 8.244 0 00-1.516 2.859 5.639 5.639 0 00-.155 2.387z" fill="#252525"/><path d="M77.506 4.438a1.915 1.915 0 01-2.5-1.344 4.9 4.9 0 01-.125-2.062 1.241 1.241 0 01.813-.937 2.963 2.963 0 01.719-.094 2.235 2.235 0 011.438.531 2.549 2.549 0 01.969 1.969 5.663 5.663 0 01-.344 1.219 1.118 1.118 0 01-.97.718zm30.531 0a1.915 1.915 0 01-2.5-1.344 4.9 4.9 0 01-.125-2.062 1.241 1.241 0 01.813-.937 2.963 2.963 0 01.719-.094 2.235 2.235 0 011.438.531 2.549 2.549 0 01.969 1.969 5.663 5.663 0 01-.344 1.219 1.118 1.118 0 01-.969.718zm56.469 0a1.915 1.915 0 01-2.5-1.344 4.9 4.9 0 01-.125-2.062 1.241 1.241 0 01.813-.937 2.963 2.963 0 01.719-.094 2.235 2.235 0 011.438.531 2.549 2.549 0 01.969 1.969 5.663 5.663 0 01-.344 1.219 1.118 1.118 0 01-.97.718zm30.531 0a1.915 1.915 0 01-2.5-1.344 4.9 4.9 0 01-.125-2.062 1.241 1.241 0 01.813-.937 2.963 2.963 0 01.719-.094 2.235 2.235 0 011.438.531 2.549 2.549 0 01.969 1.969 5.663 5.663 0 01-.344 1.219 1.118 1.118 0 01-.969.718zm191.581 32.389a1.31 1.31 0 01.055-.656q.629-2.243 1.244-3.893t2.448-5.83q1.83-4.17 2.803-6.264t1.833-3.87a21.012 21.012 0 001.244-3.063 1.092 1.092 0 01.246-.6.492.492 0 01.383-.191.8.8 0 01.191.027 1.118 1.118 0 01.957 1.285 2.288 2.288 0 01-.219.52q-1.038 1.586-3.951 7.629a112.414 112.414 0 00-5.183 12.746 2.624 2.624 0 00-.205 1.231 2.514 2.514 0 01.014.78 1.859 1.859 0 01-.356.7.61.61 0 01-.533.219 1.056 1.056 0 01-.615-.3 1.156 1.156 0 01-.356-.47zm-375.203 0a1.31 1.31 0 00-.055-.656q-.629-2.243-1.244-3.9t-2.448-5.823q-1.832-4.17-2.803-6.264t-1.833-3.87a21.012 21.012 0 01-1.244-3.063 1.092 1.092 0 00-.246-.6.492.492 0 00-.383-.191.8.8 0 00-.191.027 1.118 1.118 0 00-.957 1.285 2.288 2.288 0 00.219.52q1.038 1.586 3.951 7.629a112.414 112.414 0 015.183 12.746 2.624 2.624 0 01.205 1.231 2.514 2.514 0 00-.014.78 1.859 1.859 0 00.356.7.61.61 0 00.533.219 1.056 1.056 0 00.615-.3 1.156 1.156 0 00.356-.47z" fill="#ed7b27"/></svg>