<svg xmlns="http://www.w3.org/2000/svg" width="443.826" height="187.935" viewBox="0 0 443.826 187.935"><defs><clipPath id="a"><path fill="none" d="M0 0h111.638v109.287H0z"/></clipPath></defs><g transform="rotate(14.98 167.413 1275.29)" clip-path="url(#a)" fill="#ce1d05"><path d="M48.65 4.466c.2.264-.031.036.235.235-.087.8 0 .758-.705.94v.235h.705v-.235l.705-.47V4.7l.705-.47c.349-.358.558-.851.94-1.175V2.82c1.273.356 1.688 1.761 3.055 2.115.145.57.248.517.47.94.264.2.036-.031.235.235h.235v-.704h.705a.936.936 0 01-.47.47c.141.469-.032.2.235.47v.235h.47v-.235l.94-.705-.235-.705c.239.181.231.289.47.47.247-.307.449-.233.705-.47.736-.684 1.109-1.427 2.115-1.88.2-.264-.031-.036.235-.235a2.318 2.318 0 00.94.94v.47h.47a2.6 2.6 0 00.705 1.175h.235v.47l1.41 1.175v.47L65.572 8.7v.47l1.41 1.175v.47l1.175.94v.47h.238l.47.705.47.235v.47l.94.705v.47l.47.235v.235l.47.235v.47l.705.47v.47l.705.47v.47l.47.235v.47l.47.235.235.705h.235l.235.94.47.235.235.94h.235l.235.94h.235v.705h.235v.47h.235v.705h.235v.47h.235l.705 2.585 5.641.235v.235l.705-.235v.235h1.175v.23l2.35.47c.141-.469-.032-.2.235-.47l.235.47h-.235v.235c1.147.13 1.67.608 2.82.705l-.235-.705.705-.47c.2.264-.031.036.235.235-.257.485-.393.414-.47 1.175l.94.235.235-.47h.47v.47h-.47v.235a5.018 5.018 0 011.88.705h.235v-.705h.235l.235.47h-.235v.47h.705c.179-.639.056-.535.705-.705v-.47h.47a2.294 2.294 0 00-.235.94 2.29 2.29 0 01-.94.235c.5.585 1.5.678 2.35.94v.235l.94-.235c-.266.263 0 .1-.47.235v.235h.705v.235l.94.235v.235h.705v.235l.94.235v.235h.705v.235h.47v.235h.705v.235h.47v.235h1.41c-.675.509.9.852 1.41.94v-.47h.47c.235-.875.49-.637.94-1.175l-3.525-1.175v.47h-.235l.235-.705-8.7-3.525v.47c-.694-.264-.261.037-.235-.705h-.701v-.235l-.705-.235v-4.23h-.235v-.47h-.235v-.235h.235v-1.642l-.47.235c.224-.422.335-.366.47-.94-.3-.2-.136-.32-.47-.47v.235H92.6v-.47h.47V18.8l-.705.235a2.04 2.04 0 01.235-.94h.235v-.235H92.6c0-.592.24-1.253.235-2.115a10.8 10.8 0 00-2.115.235c-.179.639-.056.535-.705.705v-.705l-1.88.235v.235h-.24l-1.175-.47-.235.705h-.235v-.705h.47v-.94l-.47.235c.2-.265-.031-.036.235-.235v-1.173l-.47.235.235-1.175h-.235l-.235-2.115c-.264-.2-.036.031-.235-.235l-5.406 1.175v.235h-.47v.235l-.705-.235v.235h-.705v.235h-1.171v.235h-.705v.235h-.94v.235h-.94v.238l-1.645.235v.235h-.705l-2.35-3.29-1.175-.94v-.47h-.233l-.47-.705-.705-.47v-.47l-1.175-.94v-.47l-1.41-1.175v-.47l-1.175-.94v-.24l-.47-.235v-.47l-.705-.47V1.88l-.47-.235v-.47c-.3-.412-.848-.6-1.175-1.175-.848.234-1.281.906-1.88 1.41v.235h-.47l-.235.47a8.2 8.2 0 01-2.119 1.645c-.2.264.031.036-.235.235l-1.175-1.41h-.47L52.411.705h-.47L51.47 0H51l-1.175 1.645-.47.235v.47l-.47.235v.235l-.94.705-.235 1.41h-.235v.705c.544-.318.72-.8 1.175-1.175m56.645 30.319c.263.266.1 0 .235.47h-.235zm-8.931-4c.263.266.1 0 .235.47h-.235zm-6.816-1.88c-.264.2-.036-.031-.235.235h-.238l.235-.705a2.173 2.173 0 01-.47-.47l.94.47-.235.47m4.23.94v-.47h.47l-.235.705-.94.235v-.47zM92.6 22.558c.469.141.2-.032.47.235h-.235c-.2.264.031.036-.235.235zm-12.926-9.632h1.175v-.235h.94l.235-.47 3.29-.235a6.872 6.872 0 00-.235 1.645h.47l-.235 1.175h.235v.94h.47v.235c-.285 0-.394.654-.235.94h.235c.141.469-.032.2.235.47v-.235h.235v.235h1.406l-.235-.705h.235v.47h1.18c.141-.469-.032-.2.235-.47v.47a3.938 3.938 0 002.115-.705.936.936 0 00.47.47l.235 6.346h.47c-.323 1.881-.054 2.724 0 5.171l-.705-.238v.47h-.235v-.235s-.888.013-.47-.235h.47v-.235l-1.175-.235v-.23h-.705v-.235h-.705v-.235h-.94a24.984 24.984 0 00-9.4-1.41 5.494 5.494 0 00-.47-1.88h-.235v-.705h-.235v-.47h-.235v-.705h-.235l-.47-1.41h-.235l-.235-.94-.47-.235-.235-.94-.47-.235v-.47l-.47-.235v-.47l-.705-.47v-.47l-.47-.235v-.47c-.1-.149-.313-.171-.47-.47l6.581-1.88M64.867 7.286h.47v-.705h.235v.705h-.235v.235h-.47zm-17.392-2.35v-.235h-.47c.266.263 0 .1.47.235m-.705.94c.02.343-.285.325-.47.47a1.272 1.272 0 00.94.47c-.152.556-.066.441-.47.705v.47c.264-.2.036.031.235-.235a2.15 2.15 0 00.94-1.41c-.088 0-1.286.049-.94-.235h.235l-.235-.705c-.469.141-.2-.032-.47.235H46.3c-.19.381.307.219.47.235" fill-rule="evenodd"/><path d="M43.715 9.876h.705v.235a2.981 2.981 0 001.175-.235l.235-.705h-.47v.47h-.47c-.083-.566-.254-1.144.235-1.645v-.24a3.4 3.4 0 011.175.705h-.47v.47l.705-.235v-1.41h.24v-.235c-.025-.074-.772-.391-.705-.705a.54.54 0 00.23-.47l-.94.705v.705c-.755.2-.83.6-1.41.94-.147.817-.273.649 0 1.41-.264.2-.036-.031-.235.235m10.812 1.41l-1.646-1.88c-.438-.326-.339.1-.705-.47h-.47l-1.175 1.41h-.235v.47l-.94.705v.705c-.469.141-.2-.032-.47.235h-.235v.235h1.175l.235-.47 1.175-.94v-.47h.235c.324-.35.122-.3.705-.47l1.41 1.175.47.705h.47c.412.3.6.848 1.175 1.175.2.264-.031.036.235.235.465-.708.212-.1.705-.47l1.41-1.645c.645-.469.93-.266 1.175-1.175h.47v-.47h.705a.936.936 0 01-.47.47l1.175 1.41h.235v.47h.235l.47.705.705.47v.47l1.175.94v.47l1.175.94v.47l.94.705v.47l.94.705v.47l.705.47v.47l.705.47v.47l.47.235v.47l.47.235.235.705h.235v.47h.235v.47h.235v.47h.235v.47h.235v.47h.235v.47h.235v.705a11.459 11.459 0 011.41 4.466l.47-.235h.235v.235h-.47v.94h.235a4.52 4.52 0 00.235 1.645l4.23-.235v-.705c.469-.141.2.032.47-.235h.235v-.235c-.9.024-.981-.047-1.175.705h-.235v-.705h-.47v.705l-.705.235c.141-.469-.032-.2.235-.47v-.235h-1.172l-.235.47h-.94v.235h-.235c.135-.254.418-.382.47-.47v-.47h.235l-1.175-4.936h-.235v-.47h-.235v-.705h-.235v-.47h-.235v-.705h-.235l-.235-.94h-.235l-.235-.94-.47-.235-.235-.94-.47-.235v-.47l-.705-.47v-.47l-.47-.235v-.47l-.94-.705v-.47l-.705-.47v-.47l-.94-.705v-.47l-1.173-.935v-.47l-1.175-.94v-.47l-1.41-1.175-.235-.705h-.47c-.245-.911-.986-1.375-1.41-2.115h-.705v.235c-.125.1-.373-.068-.235.235h.235v.235h-.705l-.47.705h-.47l-1.65 1.875a2.511 2.511 0 01-1.175-.705v-.235zm-10.342-1.175v.47h.235c-.141-.469.032-.2-.235-.47m-14.102 3.525h-.235a3.12 3.12 0 01.94-.705v-.94h1.645v.235a1.77 1.77 0 00.47-.705c.264-.2.036.031.235-.235a3.49 3.49 0 00-2.35-.235v-.47h-.705v.47h.47v.235h-.235l.235.94c-.239-.181-.231-.289-.47-.47l-.235.705c.165.248.319-.086.235.235h-.235v.47h-.235a2.023 2.023 0 00-.235 1.175h.705z" fill-rule="evenodd"/><path d="M43.48 10.576h.705v.235h-.705z"/><path d="M43.715 11.986c-.152-.556-.067-.441-.47-.705v.94h.24c.2-.265-.031-.036.235-.235m-8.931-.47h-1.18v.94l1.175-.235zm2.345.705v.705h-.235v.235c.966-.087 1.079-.464.235-.94m3.996 0h-.47c-.141.469.032.2-.235.47v1.175h.235a10.745 10.745 0 01.47-1.645m-4.696.235v.235c-.264.2-.036-.031-.235.235h.47c-.141-.469.032-.2-.235-.47m-.71.475v-.24h-.47c.266.263 0 .1.47.235m3.525.47v.47h.705v-.935l-1.175-.24c-.152.556-.067.441-.47.705v.235c.42.214.735-.163.94-.235m2.586-.235v-.235H41.6v.705h.47c-.141-.469.032-.2-.235-.47m0 8.931h.235v.235h.235v-.235c.505-.343.6-.949.705-1.645h.705a1.865 1.865 0 01.47-.94h.235l.235-.705.47-.235v-.47l.47-.235v-.235l.705-.47v-.47l.94-.705v-.47l.94-.705v-.94h.47v-.236l-.705-.47c-.312.649-.757.9-.94 1.645h-.47l-.235.705-.94.705v.47l-.94.705v.47l-.47.235v.235l-.47.235v.47l-.47.235c-.431.636-.545 1.222-1.175 1.645a1.9 1.9 0 01.235.94h-.235z" fill-rule="evenodd"/><path d="M30.318 13.397h.235v.705h-.235z"/><path d="M39.014 14.807h.47v-.705a2.719 2.719 0 00-1.175 1.41h-.235v.235c.679-.17.78-.253.94-.94m.941.94h.235c.2.264-.031.036.235.235l.235-.705h.47c.145-.57.248-.517.47-.94-.264-.2-.036.031-.235-.235h-.705v.235h-.235v.705h-.47zm-10.572-.705h.235v-.235l-.47-.235v.705h.235zm.7-.47v.47h.235c-.141-.469.032-.2-.235-.47m-1.645 2.82h1.41v-.94h.235v-.235h-.235c-.223-.574-.076-.146 0-.705h-.705v.235c-.5.412-.141.467-.94.705v.705c.264.2.036-.031.235.235m-6.816 11.046a3.679 3.679 0 011.41.235v.47h.705c-.141-.469.032-.2-.235-.47v-.235l.705.235.235-.47h.47v-.236h.235l-.235.47h.705l.235-.705h.235c.329-.369-.434-.194-.47-.235v-.23l.705-.235v.235h.235c.22-.13.083-.422.47-.47v.235h.47v-.705h.94a2.843 2.843 0 01-.47.94h-.235l.235.47c-.57-.145-.517-.248-.94-.47-.2.264.031.036-.235.235l.235.47 2.115-.235.235-1.41s-.914-.033-.47-.235c.057-.327.222.1.235-.235l-3.055.235-.235.47-.705-.235s-.016.161-.47.235v.47c-.428-.38-1.053-.1-1.41 0l.71-10.11h1.41v.235a3.263 3.263 0 002.585-.705v-.235h-.94v-.235h-.235l.235.94-.705-.235v-.705h-.235v.235a8.391 8.391 0 00-3.055-.47l-.235 4h-.235v3.29h-.24v3.29c.012.057.319.074.235.47h-.235v.235h.235v.235l.47-.235.235.47c-.036.33-.033-.028-.235.235-.292.368 0-.052-.47 0v.23c-.127-.017-.973.136-.705-.235h.235v-.235l-1.41.235c.181.239.289.231.47.47-.469-.141-.2.032-.47-.235h-.235v.94h-.47v.47a1.731 1.731 0 001.645-.94m3.525-1.645h.235v.94h-.235v-.235h-.235l.235-.705m-1.41.705l.705-.235c.2.264-.031.036.235.235-.2.264.031.036-.235.235v.235h-.705zm11.282-5.874v-.235a4.924 4.924 0 00.94-.705h.235v-.47h.47v.94h.235l.235-.705.47-.235v-.47h.235l-.235-.94.47-.235v-.47h.235l.47-.705h.47v-.47c.57-.145.517-.248.94-.47v-.47a2.294 2.294 0 00-.94-.235c-.1.315-.1.537-.235.235l-.705.235c-.028.79.01.86-.47 1.175v.235c-.514-.349-.54-.092-1.175 0v.47h.94v.235l-.705.235c-.265 1-.54.794-1.175.705a4.97 4.97 0 00.235.94h-.235c-.292.368 0-.052-.47 0v.235a1.428 1.428 0 00-.705 1.175zm3.525-5.171c.263.266.1 0 .235.47h-.235zm51.706-.47v.47h.24c-.141-.469.032-.2-.235-.47" fill-rule="evenodd"/><path d="M36.429 18.567h.235c-.141-.469.032-.2-.235-.47zm-2.115 3.055v.47h.235c-.141-.469.032-.2-.235-.47m-.47 1.645v.47a1.767 1.767 0 00.94-.235v-.235h1.175v-.235h.235l-.235-1.175c-.263.266-.1 0-.235.47h-.235v-.705h-.235v.94c-.819.131-.44.237-1.175 0l-.235.47h.24v.235zm7.756-.94v-.705h-.235c-.152.556-.066.441-.47.705-.141.469.032.2-.235.47.266.263 0 .1.47.235.152-.556.067-.441.47-.705m-1.41 1.411v.705h.235l.47-.94h.47v-.235h-.94c-.141.469.032.2-.235.47m-4.701.47v-.235c.264-.2.036.031.235-.235h-.47c.141.469-.032.2.235.47m-4.231 1.41c-.141.469.032.2-.235.47v-.47h-1.41v.235h.235l-.235.47h.235a1.861 1.861 0 01.47.94c-.263.266-.1 0-.235.47h1.175c.06-.014.076-.3.47-.235v.235h.47l-.235-.94c.935-.253 1.14-.974 1.88-1.41l.235.47h-.235v.705l-.47-.235v.47h-.47c-.152.556-.066.441-.47.705v.235c1.225-.3.735-.472 2.115-.235a5.082 5.082 0 01.47-1.645h-.47v-.47h.705v-.47c-.612.551-.608-.087-.94 0 0 0-.047.178-.47.235.152-.556.067-.441.47-.705a1.272 1.272 0 00-.94-.47 8.621 8.621 0 01-.705 1.88l-1.41-.235m7.991.235v.705h-.235v.47c.422-.224.365-.335.94-.47v-.47h.47l.47-1.41h-.47c-.324 1.2-.78.6-1.175 1.175m8.932 6.816h-.235l-.235.47a52.153 52.153 0 01-5.641 3.526c-.016 1.1.048 1.441.94 1.645.184.125 0 .308.47.235v-.235a11.07 11.07 0 003.76-2.115h.235c-.141.469.032.2-.235.47a2.055 2.055 0 00.47 1.645h11.047c1.97 0 4.113.195 5.406-.47a4.519 4.519 0 00-.235-1.645l4 2.35c.928-.031 1.077-.116 1.41-.705.248-.3.074-.767 0-1.41l-1.41-.47-.235-.47-.94-.235-.235-.47h-.47l-.235-.47h-.47l-.47-.705h-.47l-.47-.705h-.47l-.241-.47a3.868 3.868 0 00-1.645-.94v-.47c-1.39-.4-1.165-1.886-3.055-1.175.017-.127-.136-.973.235-.705.269.195-.1.249.235.235v-.47a2.349 2.349 0 01-.47-.47l-.705.235v-.24h-.235l.235-.705c-.58-.268-1.768-1.3-2.82-.94v.235l-.94.235-1.88 2.115h-.467v.235l-.705.47-.705.94h-.47l-.94 1.175h-.47l-.235.47m.47 2.35h.47l.235-.47h.235l.235-.47h.47l.705-.94c1.342-.965 3.416-2.352 4.23-3.76 1.577.191 1.939 1.26 2.82 2.115h.235l.235.47h.47l.94 1.175h.47l.705.94h.47l.235.47h.235l.235.47h.47v.235a1.846 1.846 0 00.94.47v.47a51.056 51.056 0 00-7.991-.235 50.818 50.818 0 00-7.991.235v-.47a1.869 1.869 0 00.94-.47zm-9.876-7.752v.47h.235c-.141-.469.032-.2-.235-.47" fill-rule="evenodd"/><path d="M39.014 29.378l.47-.235a13.162 13.162 0 00.47-1.88c-.469.141-.2-.032-.47.235h-.235v1.175h-.235v.235l-.705-.235c-.092 1.836-.64 2.208-.705 3.76-2.209-.983-5.019-.574-7.756-.47-.179.639-.056.535-.705.705v.235c1.239.06 2.071.331 2.35-.705l.94-.235v.705h-.235v.235c2.008-.033 1.3-.589 2.585-.94v.705h-.235v.235c.928.015 1.47.012 1.88-.47.316.1.535.091.235.235l.235.47h1.645c.067-.813.43-1.4 0-1.88 0 0 .033-.914.235-.47.327.057-.1.222.235.235l-.23-1.175h.235zm-20.212.94v.47c.253-.133.386-.421.47-.47h.705v-.235h-.235l.235-.705-.47-.235.235-.705h-.94c.266.263 0 .1.47.235 0 0-.033.914-.235.47-.327-.057.1-.222-.235-.235l.235 1.41z" fill-rule="evenodd"/><path d="M18.097 29.848h-.235c-.152.556-.066.441-.47.705.2.264-.031.036.235.235v.235l.94-.235c-.111-.642-.294-1.343.235-1.88v-.235c-.469.141-.2-.032-.47.235h-.235v.235h.235v.235l-.47-.235v.235h-.23c-.141.241.4.226.47.47m-3.765.94h.705a3.487 3.487 0 01.235 1.41h.235a2.787 2.787 0 00.235-1.175 4.87 4.87 0 001.175-.47v-.235h.235c.107-.3-.486-.292.235-.94v-.235h-.47c-.3.434-.226-.075-.47.235l.235.705h-.235v.235a7.381 7.381 0 00-2.35 0v.94h.235zm-.705.235v-.235c.265-.2.036.031.235-.235h-.47c.141.469-.032.2.235.47m3.525 35.02c.263-.266.1 0 .235-.47-.446-.268-.973-1.293-1.645-1.175v.235h-.235v-.94h-.705v-.705h-.235c-.141-.469.032-.2-.235-.47l-.237 1.175h-.47l.47-1.644c-.639-.407-.735-1.026-1.175-1.645l-.705-.47v-.47l-.47-.235v-.47l-.47-.235v-.475l-.47-.235v-.465l-.47-.235-.235-.705h-.234v-.47l-.47-.235-.235-.94-.47-.235v-.47l-.47-.235-.235-.94-.47-.235-.235-.94-.47-.235-.235-.94-.47-.235-.235-.705h-.235l-.235-.94-.47-.235-.235-.94-.47-.235v-.47l-.47-.235v-.47c-.338-.581-.773-.813-.94-1.645l.705-.235v-.24H4v-.235l.94-.235.235-.47.94-.235.235-.47h.47v-.235h.47c.13-.083.184-.32.47-.47-.46-1.963-2.05-3.507-2.119-5.639l2.82-.94v-.235h.705v-.236l1.175-.235v-.235h.47v-.23h.705l.47-.705h1.175v-.235l.94-.235c.093-.732.335-.651-.235-1.175v-.24l-.705.235v-.705h-.235v.705h-.235v-.47h-.47v.705c-.437-.283-.051-.348-.235-.47h-.235c-.195.421-.6.408-1.175.47l.235.705h-.705v-.235H9.4c.4.378.1.479-.235.705v.235c-.494-.287-.592-.577-1.41-.235v.235l-.94.235v.235h-.704v.24h-.47v.235l-2.82.94 1.409 3.525h.235c.344.766.1 1.11.705 1.645-.178 1.459-.746.837-1.645 1.41l-.235.47-.94.235-.235.47h-.47c-.577.336-.811.785-1.645.94a4.709 4.709 0 00.705 1.645l.47.235.235.94.47.235.235.94.47.235.235.94.47.235.235.705h.235l.235.94.47.235.235.94.47.235v.47l.47.235.235.94.47.235v.47h.235v.47l.47.235.235.705h.235l.235.94.47.235v.47l.47.235c.635.952.944 2.188 1.88 2.82l-.235.705h-.235v.47h-.234v.47l-.47.235v.47l-.47.235-.235.94-.47.235-.235.705h-.235l-.235.94-.47.235-.235.94-.47.235v.47h-.235l-.235.705c1.928.457 2.959 2.191 4.936 2.585a11.093 11.093 0 01-1.645 4l-.235 1.175H8.7c.327 1.137.505.527 1.41.94v.235h.47v.235h.47v.235l1.175.235v.235h.705v.235h.47v.235h.7v.235h.47v.235h.94v.235c.531.255.525.024.94.47h.235l-.235-.94h.235v-.24h-.705c-.318-.095.1-.222-.235-.235v.235h-.235v-.47l-5.406-2.115 2.115-5.406-.705-.235-.235-.47-.94-.235-.235-.47h-.47v-.235h-.47l-.235-.47h-.47v-.235c-.524-.32-.324.1-.705-.47-.263-.266-.1 0-.235-.47h.235v-.47l.47-.235v-.47h.235v-.47l.47-.235.235-.94.47-.235.235-.94.47-.235a4.364 4.364 0 00.705-1.645h.235l.705.94h.235v.47l.47.235v.47c.227.243.235-.235.235-.235l.705.235-.235.705.94.705v.235l.94-.235v.47h-.47a3.134 3.134 0 001.175 1.175c.2.264-.031.036.235.235v-.469a1.1 1.1 0 00.94-.705m-4.463-33.845c.469.141.2-.032.47.235h-.235c-.2.264.031.036-.235.235zm-3.76 1.65c.469-.141.2.032.47-.235h.235l-.235.47h-.47zm6.111 30.789c-.469-.141-.2.032-.47-.235h.235c.2-.265-.031-.036.235-.235zm.705.47h.47v.47h-.47zm73.563-.946h.47l.705-.94h.47l1.175-1.41h.47v-.235l.47-.235v-.47l1.41-1.175v-.468l.705-.47v-.47l.705-.47v-.47l.47-.235.235-.705h.235v-.47l.705-.47.235-.94.47-.235v-.47l.47-.235v-.47l.47-.235v-.47h.235v-.47l.47-.235v-.47l.47-.235.235-.94.47-.235.235-.94.47-.235v-.47l.47-.235v-.47c.339-.584.76-.815.94-1.645l-1.41-.47-.235-.47-.94-.235-.235-.47-.94-.235v-.235l-.705-.235c.255-1.991 1.7-3.142 1.88-5.171l-2.585-.94v-.244l-1.175-.235v-.235h-.47v-.23h-.705v-.235h-.47v-.235h-.705v-.235l-2.585-.94v.47h-.235v-.47c-.42-.118-2.2-1.127-2.585-.94v.235h-.47l.235-.47h-.47v.47h-.705v-.94a16.217 16.217 0 01-2.35-.705l-1.175.235v-.47h-.94v-.235h-.94l.235.47h-.706v-.47h-1.175v-.235c-1.563-.061-1.87-.163-2.35.94h-.235v.235h1.88v-.235l.47.235v-.235l.705-.235v.47h.94v-.235h.235l.235.47h1.645v.235c.407.149.62.109.94.235v-.47h.47c.141.469-.032.2.235.47v.235h.94v.235h.47v.235l2.115.47v.235l.705-.235.47.705 1.41.235v.235h.47v.235h.705v.235h.47v.235h.71v.235l.94.235v.235l1.175.235v.235h.705v.235h.47v.235c.778.347 1.053.067 1.645.705h.235v.235h-.235v.47h-.235v.47h-.235c-.464 1.072-.609 2.6-1.41 3.29.781 1.306 3.205 1.681 4.23 2.82h.235v.235h-.235c-.186.829-.6 1.06-.94 1.645v.47l-.47.235-.235.94-.47.235v.47l-.47.235-.235.94-.47.235v.47l-.47.235-.235.94h-.235l-.235.705-.47.235v.47h-.235l-.235.705-.47.235v.47l-.705.47v.47l-.47.235v.47l-.94.705v.47l-1.41 1.175-1.645 1.88h-.47l-.705.94h-.47l-.47.705-4.23 2.35.47 1.41h.235v.705h.235l.235.94h.23l.235 1.41a21.132 21.132 0 011.645 8.7l.94-.235a19.164 19.164 0 00-.47-5.641h-.235v-.94h-.235l-.47-2.35h-.235c-.435-1.1-.352-2.087-1.175-2.82.2-1.359.479-.891 1.41-1.41v-.235h.47l.235-.47h.47l.235-.47h.47l.47-.705M79.204 32.429l.235-.47h.235c.211.1-.452.46-.47.47m-49.826-.23v-.235c-.994.023-1.222.116-1.41.94-.694-.264-.261.037-.235-.705h-.47v.705c-.954.247-.6.6-1.645.235v.705c.652-.241 1.438-.212 1.88-.705h1.645v-.235h-.235c.092-.58.111-.438.47-.705" fill-rule="evenodd"/><path d="M18.567 60.872l1.41 1.645h.47l.94 1.175h.47l.47.705h.47l.47.705 3.055 1.645a9.225 9.225 0 01-.705 1.88h-.235l-.235 1.41h-.231v.47h-.235v.94h-.235v.705h-.235v.94h-.235v.94h-.235v.94h-.235v.705h.235l-.235 1.175h-.235v1.177h.235c.067-.154.183-.848.235-.94l.705-.47v-1.175h.235v-.945h.235v-.94h.235v-.94h.235v-.94h.23l.235-1.41 1.88-4a33.272 33.272 0 01-5.876-3.525l-.94-1.175h-.47l-.235-.47-1.41-1.175v-.47l-.94-.705v-.47l-.705-.47v-.47l-.705-.47v-.47l-.47-.235-.235-.705h-.229v-.46l-.47-.235v-.47l-.47-.235v-.47l-.47-.235-.235-.705h-.235l-.235-.94-.47-.235v-.475l-.47-.235-.235-.94-.47-.235-.235-.94-.47-.235a4.52 4.52 0 01-.705-1.645c-.263-.266-.1 0-.235-.47.468-.26.958-.685 1.41-.94h.47l.235-.47.94-.235v-.235a2.71 2.71 0 011.175-.47c-.255-2.017-1.7-3.177-1.88-5.171l2.82-.94v-.235l1.175-.235v-.235h.47v-.234h.705v-.235l.94-.235v-.23l1.41-.235v-.235l1.175-.235v-.235a2.07 2.07 0 011.175-.235l-.235-.705.47.235v.235c.074.023 2.027-.647 2.585-.705v-.705h-.235v-.24h-.705v.705l-1.175-.235c-.141.469.032.2-.235.47-.2.264.031.036-.235.235v-.47a2.877 2.877 0 00-1.645.705s-1.448.228-.705.235h.235v.235a1.74 1.74 0 00-1.41 0v.235h-.47v.235h-.705v.235h-.705v.235h-.47v.24h-.705v.235h-.47v.235l-4.47 1.641 2.115 5.171c-.9.213-1.017.592-1.645.94l-.94.235-.235.47-.94.235v.238l-.705.235c.069.529.022.617.235.94h.235v.47h.235v.47l.47.235.235.94.47.235v.47l.47.235.235.94.47.235.235.94.47.235v.47l.47.235.235.94h.235l.235.705.47.235v.47l.47.235v.47h.235l.235.705.47.235v.47l.705.47v.47l.705.47v.47l.94.705v.47zm5.876 12.691l.235-.47h.238c.211.1-.452.46-.47.47m86.016-30.318l-.235-.47-1.41-.47-.235-.47-.94-.235v-.231a2.642 2.642 0 00-1.175-.47l.705-1.88h.235c.3-.653-.061-.7.47-1.175a1.75 1.75 0 00-.705-.47v-.235c.42-.214.735.163.94.235.141-.469-.032-.2.235-.47v-.47l-.705.235.235-.94h.47c.141.469-.032.2.235.47.141-.469-.032-.2.235-.47v-.71h-.237v-.235l-1.175-.235-.235.705h-.47c-.075.528-.021.615-.235.94h-.235v.47h-.235v.47h-.235l-.235.94h-.235v.705h-.235v.47h-.235l-.235 1.175h-.235v.47h-.235l-.235.705 4.936 2.82a3.8 3.8 0 01-.705 1.88l-.47.235-.235.94-.47.235v.47h-.235v.47l-.47.235-.235.705h-.235l-.235.94-.47.235-.235.94-.47.235v.47h-.235v.47l-.47.235-.235.705h-.231l-.235.94-.47.235-.235.705h-.235l-.235.94h-.235l-.235.705-.47.235v.47l-.47.235v.47l-.705.47v.47l-.47.235v.47l-.705.47v.47l-.705.47v.47l-.94.705v.47l-1.649 1.415-.235.47h-.471l-.94 1.175h-.47l-.705.94h-.47l-.235.47-.94.47a18.623 18.623 0 001.175 3.76v1.175a24.192 24.192 0 01.705 7.521 2.482 2.482 0 01.94.235 4.728 4.728 0 00.705-1.645h.47l-.47-6.111a21.662 21.662 0 01-1.175-4.23 2.524 2.524 0 001.175-.705v-.235h.47v-.235l.705-.47.235-.47h.47l.47-.705 1.88-1.645v-.47l.94-.705v-.47l.705-.47v-.47l.705-.47v-.47l.47-.235c.43-.634.543-1.227 1.175-1.645.141-.469-.032-.2.235-.47l.235.705h.235v.47l.47.235v.47l.47.235.235.94.47.235v.47l.47.235.235.94.47.235.235.94.47.235c.531.8.7 1.743 1.41 2.35.264.694-.037.261.705.235v.235l-.705.235v.235h-.47l-.235.47-.94.235-.235.47h-.47v.235h-.47v.235a5.615 5.615 0 00-1.645.94h-.235l.235.705h.235v.47h.235v.705h.235l.705 2.115.47.235v.94h.235v.235h-.235c-.179.639-.056.535-.705.705v-.47h-.235c.027.485-.808.31-1.175.47v.235l-.94.235v.235h-.705v.235h-.47c-.786.416-.325.62-1.645.705v.705h-.235v-.235h-.235v.235h-.235l.235.47h-.235v.235c1.422-.3 2.406-1.144 3.76-1.41v-.47c.222.387.845.028 1.41 0-.266-.263 0-.1-.47-.235v-.235l.94.235v-.235h.705v-.235l.94-.235v-.235h.705v-.235c.116-.107.376.066.235-.235h-.235v-.47h-.235v-.705h-.235v-.475h-.235c-.321-.651-.168-1.18-.705-1.645v-.235l-.47.235c.351-.966.148-1.067-.235-1.88a9.308 9.308 0 002.585-1.645h.235v-.705c.928.015 1.47.012 1.88-.47h.235s-.033-.914-.235-.47v.235h-.235l.235-.705h-.235v-.47l-.47-.235-.235-.94-.705-.47v-.47h-.235v-.47h-.235v-.47l-.47-.235-.235-.94-.47-.235v-.47l-.47-.235-.235-.94-.47-.235v-.47l-.47-.235-1.175-2.115h-.23l.235-.705h.235v-.47l.47-.235v-.47l.47-.235v-.465l.47-.235v-.47h.235v-.47l.47-.235.235-.94.47-.235.235-.94.47-.235v-.47l.47-.235.235-.94.47-.235v-.47h.235v-.47l.47-.235.235-.705h.235v-.47h.235v-.47l.47-.235v-.47h.235v-.47l.47-.235v-.47h.235c.321-.526-.1-.321.47-.705v-.705c-.145-.265-.91-.3-1.175-.47M94.48 77.794c-.469-.141-.2.032-.47-.235.469.141.2-.032.47.235m-.235-.47c-.469-.141-.2.032-.47-.235.469.141.2-.032.47.235m-.705.47c.107.1.591.18.47.47h-.23c-.191-.429-.06.2-.47 0l.235-.47m-.235.94c.263.266.1 0 .235.47h-.235zM47.707 41.13a4.527 4.527 0 01-.705.705v2.35c0 1.821-.23 6.741.235 7.286v.235c.132.147.446-.653.47-.705h.705a1.812 1.812 0 01-.47.705v.235l.705-.235v.235h10.58c1.924 0 3.912.177 5.171-.47.011-2.56.467-8.2-.235-10.106-.469-.141-.2.032-.47-.235H49.121l.235.705c-.764-.613-.087-.7-1.645-.705m1.175 2.35h.235v.94h-.235zm0 2.585c-.469-.141-.2.032-.47-.235.469.141.2-.032.47.235m-.705.47v.235c.442-.025.137-.139.235-.47h.235c-.163.64-.318.532-.47 1.175-.639-.179-.535-.056-.705-.705l.705-.235m-.474-.705l.239-.7h.235c.149.436-.137.334-.235.47v.23zm.94-1.175c-.469-.141-.2.032-.47-.235h-.235v-.235h.705zm-.705-2.35v.705h-.235l-.235-.705zm-.235 2.115c-.469-.141-.2.032-.47-.235.469.141.2-.032.47.235m0 .47c-.469-.141-.2.032-.47-.235.469.141.2-.032.47.235m3.29 5.876h-.47v-.47h.47zm.47 0v-.47c.263.266.1 0 .235.47zm-.235-9.166c-.469-.141-.2.032-.47-.235.469.141.2-.032.47.235m-1.645.705c.819.131.44.237 1.175 0-.354.54-.783.5-1.175.94h-.235l.235-.94m-.235 1.175h12.696v6.111h-8.461a24.151 24.151 0 01-3.76 0c-.2.264.031.036-.235.235l-.235.705h.235v.47h-.235v-.471l-.94.235c.179-.639.056-.535.705-.705a5.406 5.406 0 01.235-1.367c-.313 0-.627-.278-.94-.278-.163.64-.318.532-.47 1.175-.469-.141-.2.032-.47-.235h-.235c-.032-.362.63-.552.705-.705v-.47h.705v-.235l.705-.235zm19.276 30.788c1.219-.061 1.017-.406 1.645-.94-.107-.854-.2-.78-.705-1.175v-.235h-.705v-.235h-.47v-.235h-.47v-.237h-.47v-.235h-.47v-.235h-.473v-.23h-.47v-.235h-.47l-.235-.47h-.47l-.235-.47h-.47l-.235-.47h-.47l-.235-.47c-.691-.47-.956-.432-1.41-1.175-.264-.2-.036.031-.235-.235a13.439 13.439 0 003.76-4.23 2.669 2.669 0 00-.235-2.35v-.47l-3.29-1.885h-.7v-.235h-.47v-.235l-1.645-.235v-.235c-1.528.1-1.239.522-1.88 1.41l-.94.705v.47l-1.175.94v.47l-2.82 2.585v.235a3.161 3.161 0 01-.705-1.175h-2.119v-5.875h-.235c-.3-.375-.128-.32-.705-.47-.266-.263 0-.1-.47-.235a3.12 3.12 0 01-.94.705v5.876h-4l-.235.705h-.231c-.141.457.1.547.235.705l.235.705h4v2.115h-.235l-.235.94-.47.235-.235.94-.47.235v.47h-.235l-.235.705-.47.235v.47l-.705.47v.47l-.94.705v.47l-.705.47v.94h.235l.235.705h1.41l2.82-4h.235v8.7c0 1.566-.4 2.693.94 3.055.266.263 0 .1.47.235a3.12 3.12 0 01.94-.705V70.743c.654.388.8.961 1.645 1.175-.152.556-.066.441-.47.705-.052 3.078 1.7 1.3 3.055.94-.018 2.552-.443 6.464.47 8.226h6.816a13.383 13.383 0 003.76-.235v.47c.469-.141.2.032.47-.235h.94v-.235h-.47v-.705c.4.268.327.143.47.705h.235v-1.175l-.47.235v-.47l.47-.235-.235-1.175-.94.235c.152-.556.066-.441.47-.705v-.235c.363-.179.406.469.47.705h.235v-4h-.471v-.235h.47v-1.41a11.022 11.022 0 001.175.47v.235l.705-.235v.47c.469.141.2-.032.47.235m-4.7-.94h.47v-.705h-.235v-.47l.705.47c-.145.57-.248.517-.47.94h-.47zm-2.12-2.813l.705.235v.235l.705.235s.033.914.235.47a.835.835 0 01.13-.087c-.009-.067-.113-.139.1-.148-.138.181-.074.133-.1.148 0 .034-.017.068-.13.087-.141.469.032.2-.235.47v-.47h-1.643v.235a1.841 1.841 0 01-.94.235v-.47h-1.175c-.067.024-.082.428-.47.47l-.235-.47h-1.88c.34-1.231 2.15-1.707 2.82-2.82 1.018.286.8.739 1.41 1.175h.47l.235.47m1.88 2.115c-.2.264.031.036-.235.235-.141.469.032.2-.235.47v.235h-.235l.235-.94zm-2.115.235v-.705c.02.006.828-.077.47.235h-.237c.253.416.159.312.705.47-.179.639-.056.535-.705.705l.235-.705zm-.47.94l-.705-.235v-.47a1.579 1.579 0 01.705.705m-2.115-.235h-.47v-.47h.47zm0-13.867l3.29 1.175v.237l.705.47c-.139 1.367-1.843 3.211-2.82 3.76-.878.567-2.286-2.283-3.055-2.82.173-1.3 1.32-1.866 1.88-2.82m-3.76 10.106h-.47l-.47.705h-.47l-.235.47c-.423.275-.524.007-.94.47h-.47v-.241c.295 0 .38-.639.235-.94l-3.055-2.82v-2.35h1.645c.091.759.213.686.47 1.175 2.115-.055 2.443-1.339 3.76-2.115.2-.264-.031-.036.235-.235a8.988 8.988 0 002.585 3.055c-.256.969-.714.907-1.41 1.41l-.705.94h-.47l-.235.47m8.461 11.046h-.235v-.47h.235zm.94-.705h-.235l-.235-.94c.386.237.926.511.47.94m0-1.645c-.2.264.031.036-.235.235v-.47c.469.141.2-.032.47.235zm0-1.175v.235c-.3-.194-.258-.2-.47-.47h-.235v2.585h-7.991v-5.874c2.464.02 3.506.366 5.641 0 .4-.069.4.218.47.235a3.9 3.9 0 001.88-.235v2.585c.57.145.517.248.94.47-.141.469.032.2-.235.47m.235-2.115c-.469-.141-.2.032-.47-.235h-.235c-.076-.065.522-.415.705-.705h.235l-.235.94m.705.47c-.264.2-.036-.031-.235.235h-.235v-.702l.705-.235-.235.705m0-1.88v.235h-.235v-.47c.639.179.535.056.705.705-.3-.2-.136-.32-.47-.47m1.41-1.175h-.235v-.235l-.705.235.235-.705c.148.1.815.432.705.705" fill-rule="evenodd"/><path d="M20.212 70.038v-.235h.235v.47h.235l.235-1.645h.24c-.539-.653-1.428-.9-1.88-1.645-.57.145-.517.248-.94.47-.239-.689-.253-.481 0-1.175-.264-.2-.036.031-.235-.235a1.328 1.328 0 00-1.175 1.175h-.71c.2.265-.031.036.235.235v.235h.705c.152.589.122.386.47.705v.235h.47c.166.116.152.309.47.47v.94h-.235l.235 1.41a2.482 2.482 0 00.94-.235c.233-.6-.04-.733.705-1.175m-.47-2.115h.235v.705h-.235zm-1.175-.235c.469.141.2-.032.47.235-.469-.141-.2.032-.47-.235m.47 2.115v-.47c.263.266.1 0 .235.47z" fill-rule="evenodd"/><path d="M20.212 70.273h.235v.705h-.235z"/><path d="M18.097 79.674v.235h-.705a31.3 31.3 0 00-.235 4.23l.94.235v-.235h.235v.235c.4.268.327.143.47.705h.47c-.033-.841-.227-1.579 0-1.88v-.235c-.954.263-.51.572-1.645.705l.47-1.88-.47-.235v.235h-.235c.111-.511.15-.666.47-.94v-.235c.42-.214.735.163.94.235l-.235-1.41h.47v-.941h-.47c-.323-.331.417-.227.47-.235l-.235-.47h.235v-.47h.235v-1.41l-.705.235v-.47h.705l.235-1.88h.24a.42.42 0 00-.235-.47 2.024 2.024 0 01.705-1.41v-.94c-.422.224-.366.335-.94.47-.145.57-.248.517-.47.94-.556-.152-.441-.066-.705-.47-.512.528-.949 4-.94 5.171.469-.141.2.032.47-.235h.235a.936.936 0 01-.47.47v.235h.705a.932.932 0 01-.47.47v.469h-.235v-.94h-.24v1.645c-.469.141-.2-.032-.47.235h.94l.235-.47h.47v.705zm.705-5.641c.2.264-.031.036.235.235v.235h-.47c.141-.469-.032-.2.235-.47m-.94-.705v-.23l.705-.235v.47z" fill-rule="evenodd"/><path d="M18.097 71.448h.47v.47h-.47z"/><path d="M38.545 96.126v-.235l-7.286 1.645-.94-5.172a25.647 25.647 0 01-5.171.47v-.47h-.235V89.31h-.235l-.235-7.286h-.47l.235-.94h.235l-.235-.705c-.469-.141-.2.032-.47-.235h-.23v-.235h.7v-.94h.235l-.235-.705h.235v-.94c-.265.2-.036-.031-.235.235-.437.282-.5.658-.94.94.01 5.451.439 9.484.94 15.512.807.007 3.852-.13 4.23-.47h.94v.235a22.5 22.5 0 011.175 4.936l7.522-1.648c.322-.213 0-.628.235-.94zm59.931-16.922c.266.263 0 .1.47.235v-.235zm-3.76 1.41c-.119.957-.5 1.052-.94 1.645h-.23l.235.47h-.235v.47c-.067.11-.327.2-.47.47h-.47v1.175h-.24c.266.263 0 .1.47.235v-.465h.71v-.71h1.17c-.243-.717-.037-1.072 0-2.115a2.24 2.24 0 00.94-.47v-.235l2.115-.235a4.134 4.134 0 01-.47-1.175 7.245 7.245 0 01-2.585.94m-6.347.705a2.749 2.749 0 01-.47-.47h.47v-.94h-.7v.705h-.235v1.175l.47-.235a5.61 5.61 0 00-.47 2.585h.47v.705l-.47.235v-.235h-.235l.235 2.35a23.735 23.735 0 00-.705 5.641 17.535 17.535 0 01-5.171-.47l-1.179 5.171-9.871-2.35v-.235l-3.055-.705v-.237l-2.115-.47v-.23h-.469v-.235h-.705v-.235h-.47l-.235-.47-.94-.235-.235-.47-.94-.235v-.235l-.705-.235-.235-.47h-.47l-.47-.705a11.1 11.1 0 01-3.295-2.824 1.943 1.943 0 00-.94.47v.235h-.47l-.235.47-.94.705-.235.47h-.47l-.47.705h-.47l-.47.705h-.47l-.235.47h-.47l-.235.47-.94.235-.235.47-.94.235v.235l-.94.235v.239h-.705v.235h-.47v.235h-.705v.23h-.705v.235h-.705v.235h-.705v.235h-.94v.235l-2.585.47v.94h-.235v.235l4-.94v-.235l2.35-.47v-.235l1.175-.235v-.235l.94-.235v-.235h.47v-.235l1.171-.23v-.235l.705-.235.235-.47.94-.235.235-.47h.47l.47-.705h.47l.47-.705h.47l1.175-1.41.705-.235v-.235a4.293 4.293 0 011.645 1.175v.235l.705.235.47.705h.47l.235.47h.47l.47.705.94.235.235.47.705.235v.235l.94.235v.235l1.41.47v.235h.705v.235h.47v.235l10.811 3.055h.94v.235h1.175v.235c.765.254 1.345 0 1.88.47h.705v-.235a22.505 22.505 0 001.175-4.936l5.406.47c.027-2.952.757-5.428 0-7.286h.47l-.235-1.41h.47v-1.408h-.235l.235-.47h-.235c-.067-.513.577-1.345.235-2.115" fill-rule="evenodd"/><path d="M98.241 80.144h.705v.235h-.705z"/><path d="M92.841 82.024v-.235c.264-.2.036.031.235-.235h-.47c.141.469-.032.2.235.47" fill-rule="evenodd"/><path d="M93.071 81.789h.235v.705h-.235z"/><path d="M94.246 85.315h.235v-.705h-.235c-.266.263 0 .1-.47.235.181.239.289.231.47.47m-.705.47c-.141-.469.032-.2-.235-.47l-.235.705c-.469.141-.2-.032-.47.235-.471.527 0 1.524-.235 2.35h-.239v2.82s-.2.017-.235.47v2.585h-.235l-.235 4.23-5.876-.705-1.175 5.876-11.986-2.82v.235a2.414 2.414 0 01-.94.47c.152-.556.066-.441.47-.705v-.235c-.994-.208-1.827-.393-2.35.47h-.47l.705-.94c-.762-.262-.59-.151-1.41 0v-.47c-.469-.141-.2.032-.47-.235h-.94a.932.932 0 00.47.47v.235h-.235v.235h-.235v-.705h-.47v-.705a5 5 0 01-.94-.235v.235h-.233l-.235-.47h-.705v-.235c-.657.085-.706-.016-.94.47v.47h-.23v.235l-.47-.235v.235h-.47v.47l.47-.235.235.47a14.525 14.525 0 001.88.47v.235a4.95 4.95 0 01.94-.235v.47l1.41.235v.235l.47-.235-2.35 2.82-.705.47v.47l-1.41 1.175v.47l-.94.705v.235h-.24c-.462-.71-.214-.1-.705-.47l-1.41-1.645h-.47l-1.175-1.41h-.705l-.235.47h-.47l-1.41 1.645h-.47l-1.175 1.41h-.47a5.225 5.225 0 00-.94-1.41l-.47-.235v-.47l-.705-.47-.47-.705h-.24v-.47l-1.175-.94-.235-.705-.47-.235c-.7-.7-.092-.772-1.175-.47l.47-.705-.47-.235v-.231c.641-.479.628.428.94-.705h.47v-.705a2.5 2.5 0 00.94-.235v.47h-.47v.47a2.106 2.106 0 001.41-.47l.235-.705.705.235.235-.705.705.235v-.235h.47v-.235c-.443-.155-.266.171-.47-.235l.705-.235c.046.01.077.362.47.235v-.235h.47l.235-.47h.47l.235-.47.94-.235v.23h.235v-.235h.47c-.266.263 0 .1-.47.235a1.906 1.906 0 001.175.705v.235h.235v-.47l.94.47c-.266.263 0 .1-.47.235.43.52 1.2.674 1.645 1.175.907-.089 1.232-.377 1.41-1.175h.47c-.252.907-.7.738-.94 1.645.511.111.666.15.94.47l1.175-1.41c.271-.192.178.184.235.235h.235v-.235c.264-.2.036.031.235-.235l-2.585-.94v-.235h-.47v-.235h-.47l-.235-.47h-.47l-.23-.465-1.41-.47-.47-.705h-.47l-.235-.47-.94-.47c-.4.638-1.018.748-1.645 1.175l-.235.47h-.47l-.235.47-.94.235-.235.47-.94.235-.235.47h-.47a4.688 4.688 0 01-2.35.94.936.936 0 00.47.47c-.141.469.032.2-.235.47v.235h-.705c.152-.556.067-.441.47-.705v-.235a12.275 12.275 0 00-3.29 1.175h-.47c-.268.2.235.235.235.235l-.235.705h-.47v-.705h-.705v.235l-.705.235v-.235h-.235l-.235.47-2.35.235c-2.381.821-5.377 1.308-7.756 2.115h-.94v.235h-1.178v.235c-.765.255-1.343 0-1.88.47h-.235a21.221 21.221 0 00-.705-2.35v-1.175h-.235c-.269-.867.066-1.524-.47-2.115-.434-.31-3.684.22-4.936.235v.47c-.57-.145-.517-.248-.94-.47l-.235-5.641h-.235c-.244-.88.262-2.018-.235-2.585v-2.82c-.6.5-.53.773-1.41 1.175l-.235-.705h-.235l.235 7.051h.235l.235 5.876c2.292-.032 4.342-.615 6.111-.47v-.705h.235l.235.705c-.106.164-.383.134-.235.705a16.862 16.862 0 01.94 4.466h.709l-.235.705 16.922-4v-.235h.705v-.235h.705l.235-.47h1.41c.024-.008-.049-.154.47-.235a5.3 5.3 0 00.94 1.41l.47.235.235.705.94.705v.47l1.41 1.175v.47l1.175.94v.47l1.41 1.175v.47c1.556-.213 3.31-2.729 4.7-3.525v-.235h.235l1.41 1.645h.47l.235.47a4.634 4.634 0 001.88 1.41c.266.263 0 .1.47.235l1.41-1.88.705-.47v-.47l.705-.47v-.47l.47-.235-.235-.47.47.235v-.235l1.175-.94v-.47l.47-.235-.235-.47h.705c.1-.061.212-.331.47-.47v-.235c.514.349.54.092 1.175 0v.47c.511-.111.666-.15.94-.47h.47a.936.936 0 01-.47.47v.235l1.645.235v.235h.94v.235h.94v.235l2.115.235v.235h.94v.235h.94v.235h.94v.235h.94v.235h.94v.235h1.175v.235h.94v.235c.763.26 1.338 0 1.88.47h.705v-.237h.235v-1.175a12.847 12.847 0 00.94-4.23c.264-.2.036.031.235-.235l6.111.47.235-4.23h.235v-3.054h.235c.3-1.087-.393-2.8.235-3.525V87.43l-.47.235c.139-.3.08-.589.235-.94.638.53.46-.253.47-.94zm-29.144 14.337v.235h-.47l.705-1.175c.469.141.2-.032.47.235-.355.225-.4.459-.705.705m-4.936-3.055c.263.266.1 0 .235.47h-.235zm-1.175-.705l.47.235v.235h-.235v.235h-.234zm-4-.47c.539.495.347.412.235.94-.264.2-.036-.031-.235.235h-.235a2.981 2.981 0 01.235-1.175m-2.35 1.88c-.469-.141-.2.032-.47-.235.469.141.2-.032.47.235m-1.88.94s-.072.035-.47-.47c.063.057.643.242.47.47m-31.254-9.637v-.235c-.264-.2-.036.031-.235-.235h.47c-.141.469.032.2-.235.47m1.175 11.281v-.47c.263.266.1 0 .235.47zm2.82-.94c-.265.2-.036-.031-.235.235h-.235v-.705l.705-.235-.235.705m3.055 4.466l.235-.47h.24c.211.1-.452.46-.47.47m20.447-3.29c-.469.141-.2-.032-.47.235h-.235l1.175-1.645h.235c.079.229-.581 1.16-.705 1.41m21.622.47c.469.141.2-.032.47.235-.469-.141-.2.032-.47-.235m3.055.705v-.235c-.265-.2-.036.031-.235-.235h.47c-.141.469.032.2-.235.47m1.88 0c.469.141.2-.032.47.235-.469-.141-.2.032-.47-.235M18.802 87.195c.152-.556.067-.441.47-.705v-.7c-.245.56-1.657-.166-2.115-.235.141.469-.032.2.235.47v1.645c.605-.321.4-.433 1.41-.47" fill-rule="evenodd"/></g><path d="M5.543 85.884a2.283 2.283 0 01-2.367.107 3.545 3.545 0 01-1.228-1.413 2.467 2.467 0 01-.287-1.322q.077-.522.79-.78l1.457-.127a41.818 41.818 0 017.88-.1 17.714 17.714 0 014.286.802 3.521 3.521 0 011.446 1.123 2.408 2.408 0 01.597 1.222 1.489 1.489 0 01-.198.826q-.214.362-1.049.337-1.144-.194-2.818-.563a21.995 21.995 0 00-4.201-.417 20.583 20.583 0 00-4.308.305zm-.49 19.644a3.325 3.325 0 01-1.86-1.38 2.541 2.541 0 01-.573-1.788q.136-.747 1.413-.663a33.457 33.457 0 007.162-.185 29.94 29.94 0 005.97-1.232q2.115-.748 3.137-1.107t1.598-.507a1.3 1.3 0 01.5 1.231 3.026 3.026 0 01-.54 1.13 5.49 5.49 0 01-1.385 1.247 17.506 17.506 0 01-3.865 1.71 27.06 27.06 0 01-5.57 1.32 38.549 38.549 0 01-5.987.224zM50.37 85.203q2.462-2.122 4.451-3.746t3.595-2.886a1.866 1.866 0 012.326-.303 3.76 3.76 0 011.202 1.12 2.6 2.6 0 01.456 1.577 61.348 61.348 0 00.132 6.285 19.296 19.296 0 00.84 5.121 9.067 9.067 0 001.073 2.186 1.7 1.7 0 001.114.686 5.286 5.286 0 002.492-.634 44.297 44.297 0 004.296-2.137 19.263 19.263 0 013.268-1.585 1.2 1.2 0 01.144 1.092 12.334 12.334 0 01-.725 1.24 10.049 10.049 0 01-2.288 2.135 17.511 17.511 0 01-4.043 2.24 4.984 4.984 0 01-4.06.085 7.951 7.951 0 01-3.502-3.91 16.943 16.943 0 01-1.75-6.559q-.237-3.556-.341-4.185a2.79 2.79 0 00-.332-1 30.448 30.448 0 00-3.444 2.654q-1.864 1.633-4.967 4.844-.06 3.24.1 5.358t.349 4.257q.186 2.14.486 4.416a2.485 2.485 0 01.027 1.149q-.122.575-1.326.532a1.59 1.59 0 01-1.585-1.038q-.154-.623-.503-3.46t-.451-7.971a32.364 32.364 0 00-2.892 3.658q-1.413 2.06-3.078 4.312a1.23 1.23 0 01-2.07.425 2.628 2.628 0 01-1.399-3.112q.519-3.035 1.35-6.979.267-1.444-.335-1.538-.588.002-1.205-.017a2.717 2.717 0 01-1.179-.314 2.983 2.983 0 01-.962-.92 4.528 4.528 0 01-.473-.913q-.078-.337.595-.763a3.941 3.941 0 011.967-.466 6.124 6.124 0 013.156 1.073 3.371 3.371 0 011.663 2.77q.106 1.779.113 3.592.977-1.163 2.189-2.715t2.527-3.332q-.162-6.896-.1-9.841t.098-5.889q-.036-1.564-.104-2.343-.051-.584.382-.67l.1-.01a3.888 3.888 0 011.139.146 2.1 2.1 0 011.31.964 2.315 2.315 0 01.339 1.587q-.157 5.502-.202 8.911t.037 4.821zm41.122 10.179a3.48 3.48 0 002.574-.543 9.528 9.528 0 002.297-2.602 24.45 24.45 0 002.321-4.834 27.213 27.213 0 001.236-3.808 1.689 1.689 0 00-.32-1.37 13.246 13.246 0 00-3.375.639 32.973 32.973 0 00-5.848 2.618q-1.425 3.261-2.256 5.807a20.969 20.969 0 00-1.008 5.013 1.366 1.366 0 01-1.003.578 1.945 1.945 0 01-1.204-.312 2.177 2.177 0 01-.867-.953 1.847 1.847 0 01-.044-1.344q.689-2.216.98-3.368a27.353 27.353 0 01.97-2.927 21.223 21.223 0 00-1.968 1.593 1.572 1.572 0 01-1.624.485 2.474 2.474 0 01-.962-.92 5.575 5.575 0 01-.477-.962q-.078-.336.459-.922a15.843 15.843 0 012.625-1.92q2.091-1.334 3.355-1.984 1.044-2.64 1.567-4.229t1.616-4.772a1.1 1.1 0 01.86-.491 2.751 2.751 0 011.149.243 2.84 2.84 0 011.014.67 1.219 1.219 0 01.293 1.053 2.71 2.71 0 01-.348 1.06q-.406.966-1.002 2.317t-1.087 2.422a36.237 36.237 0 014.454-1.737 11.285 11.285 0 013.836-.408 3.013 3.013 0 011.915.616 4.13 4.13 0 011.21 1.511 3.666 3.666 0 01.236 2.136 23.04 23.04 0 01-1.593 5.602 24.595 24.595 0 01-2.937 5.375 11.209 11.209 0 01-2.551 2.771 3.865 3.865 0 01-1.05.876 1.666 1.666 0 01-1.362.119 3.732 3.732 0 01-1.452-1.242 3.382 3.382 0 01-.63-1.856zm15.867-17.508q4.371 2.362 7.872 4.286a24.042 24.042 0 014.412 2.826 1.084 1.084 0 01.492.595.929.929 0 01-.29.882 1.312 1.312 0 01-1.212.424q-2.352-1.117-4.889-2.391t-6.873-3.785a3.383 3.383 0 01-1.133-.905 2.7 2.7 0 01-.632-1.342q-.112-.725.136-.967a.935.935 0 01.874-.1 4.786 4.786 0 011.243.476zm3.4-7.647a14.783 14.783 0 001.873 3.781q1.268 1.874 2.252 1.935a1.5 1.5 0 01.818.394 1.549 1.549 0 01.475.67 1.038 1.038 0 01-.268.856 1.456 1.456 0 01-.975.624 1.459 1.459 0 01-1.07-.2q-.993-.698-1.857-1.333a7.524 7.524 0 01-1.677-1.813 19.906 19.906 0 01-1.597-2.85q-.783-1.672-1.706-3.258-.089-1.02.389-1.16a2.516 2.516 0 011.331.104 2.532 2.532 0 011.352.885 3.443 3.443 0 01.66 1.364zm3.635-3.259q.148-.6 1.214-.694l.2-.017a1.875 1.875 0 011.773.678 6.243 6.243 0 01.858 1.958 16.556 16.556 0 00.694 2.047 6.813 6.813 0 01.475 1.796 1.166 1.166 0 01-1.124.32 2.1 2.1 0 01-1.378-.909 13.361 13.361 0 01-1.371-2.527 23.467 23.467 0 00-1.341-2.653zm30.84-2.056q1.127.002 1.348.299t.592.88q.369.58-.23 1.563a14.916 14.916 0 00-2.321 2.04q-1.44 1.474-4.41 5.065a3.1 3.1 0 011.045 1.013 9.924 9.924 0 01.271 3.112q.009 2.621-.153 6.654t-.174 6.704a8.44 8.44 0 00.572 3.748q.525 1.522-.456 2.073a1.79 1.79 0 01-2.083-.284 9.398 9.398 0 01-.938-2.32 22.02 22.02 0 01-.275-4.827q.16-6.58.226-9.478t.13-3.834q-2.501 2.767-4.246 4.952a47.77 47.77 0 00-2.956 4.081q-1.206 1.894-1.686 2.524a4.038 4.038 0 00-.535.88 6.008 6.008 0 00-.254 1.297q.11 1.265-1.203 1.38a1.862 1.862 0 01-1.69-.834 2.762 2.762 0 01-.156-2.068 17.94 17.94 0 012.312-4.392q2.007-3.116 4.61-6.406t5.261-6.536q2.657-3.243 4.369-4.963a11.218 11.218 0 013.03-2.324zm30.67-1.748q-2.251 5.636-3.85 9.77t-3.006 7.66q-1.407 3.53-2.653 7.215a31.973 31.973 0 00-1.533 6.014q.047.535.085 1.242a1.074 1.074 0 01-.52 1.05 2.154 2.154 0 01-1.478.202 1.646 1.646 0 01-1.303-.89 3.752 3.752 0 01-.21-2.137q.322-1.351.684-2.83t1.501-4.638q1.145-3.163 3.077-8.257t2.972-7.515a37.592 37.592 0 001.618-4.456q.582-2.036.826-3.184a1.14 1.14 0 01.644-1.036 1.815 1.815 0 01.433-.087 2.048 2.048 0 01.844.127 3.086 3.086 0 011.106.59 3.5 3.5 0 01.763 1.16zm36.186 3.602a14.197 14.197 0 00-3.033.902q-2.206.83-5.33 2.372a39.474 39.474 0 00-4.741 2.669 18.972 18.972 0 00-.508 4.846 14.475 14.475 0 00.566 3.675 10.779 10.779 0 00.99 2.363 2.65 2.65 0 002.559 1.247 8.333 8.333 0 002.305-.544q1.137-.443 4.57-2.09t4.655-2.245a1.08 1.08 0 011.534.16 2.423 2.423 0 01.592 1.174q.163.72-.923 1.207-2.795 1.666-5.192 2.83a45.406 45.406 0 01-4.584 1.944 7.883 7.883 0 01-3.638.147 7.598 7.598 0 01-3.122-1.271 6.092 6.092 0 01-1.885-2.506 17.803 17.803 0 01-1.07-4.39 26.315 26.315 0 01-.283-4.926 16.377 16.377 0 00-4.532 3.092 3.518 3.518 0 01-.962.77 1.045 1.045 0 01-1.15 0 2.47 2.47 0 01-.868-.953 5.334 5.334 0 01-.475-1.233 32.446 32.446 0 014.394-3.275q2.3-1.426 4.214-2.524.318-1.4.621-2.7t.847-3.48q.545-2.18.746-2.687a2.73 2.73 0 011-.332 1.815 1.815 0 01.441.01 1.559 1.559 0 01.967.725 3.327 3.327 0 01.29 1.91q-.693 2.168-1.453 4.685 1.372-.56 3.662-1.546t4.827-1.965a26.465 26.465 0 014.367-1.337 2.774 2.774 0 013.304 1.92 7.093 7.093 0 01-.68 2.877 17.196 17.196 0 01-2.634 4.077 37.13 37.13 0 01-3.629 3.894 7.563 7.563 0 01-2.923 1.872 1.392 1.392 0 01-.918.153 1.114 1.114 0 01-.778-.496 3.185 3.185 0 01-.422-.894 2.458 2.458 0 01.903-.888 14.742 14.742 0 002.266-2.105 30.794 30.794 0 002.947-3.569 30.606 30.606 0 002.166-3.566zm42.435 2.222q-4.997 3.377-8.789 6.232a57.855 57.855 0 00-6.337 5.429q-2.544 2.574-5.002 5.288a2.588 2.588 0 01-1.512.916 1.869 1.869 0 01-1.632-.446 2.393 2.393 0 01-.936-.899 1.22 1.22 0 01-.06-1.244 2.824 2.824 0 01.814-1.026q3.184-2.827 6.58-5.745t6.744-5.268a55.8 55.8 0 015.853-3.672 32.02 32.02 0 013.79-1.776.977.977 0 011.017.156.845.845 0 01.207.962 2.472 2.472 0 01-.737 1.092zm-27.897-7.461q2.268.684 3.383 1.15a48.72 48.72 0 014.634 2.56 2.605 2.605 0 01.952 2.195q-.18 1.02-.603.956a3.345 3.345 0 01-.88-.266 35.993 35.993 0 00-3.539-1.799 20.667 20.667 0 00-2.675-.893 2.513 2.513 0 01-2.046-1.267 4.282 4.282 0 01-.622-1.513 1.478 1.478 0 01.245-.83q.124-.256.66-.303a2.483 2.483 0 01.49.009zm46.381-8.708q-.047 2.259-.24 4.824t-.314 5.1q-.122 2.534-.21 3.766a7.918 7.918 0 002.018.118q2.816-.295 5.283-.662t4.66-.508q1.445.266 1.57.867a6.166 6.166 0 01.066 1.587 27.294 27.294 0 01-4.517 1.032q-2.803.445-4.519.712t-2.388.43a5.299 5.299 0 01-2.173-.203 13.973 13.973 0 00-.385 3.734q.023 2.228.186 4.934a56.608 56.608 0 00.64 5.652 37.753 37.753 0 001.095 4.952q-1.859.554-2.596.026a3 3 0 01-.981-1.703q-.304-1.178-.76-4.491a81.947 81.947 0 01-.486-10.053q-.024-6.736.289-11.566t.416-6.46a29.627 29.627 0 00-.031-3.721q.019-.933.648-.988a2.962 2.962 0 011.68.71 2.127 2.127 0 011.048 1.91zm38.409 6.054a29.956 29.956 0 01-1.62 6.414 30.843 30.843 0 01-2.874 5.813 17.25 17.25 0 01-4.322 4.616 14.13 14.13 0 01-2.564 1.499 2.652 2.652 0 01-1.65.193 5.11 5.11 0 01-1.663-.81 5.306 5.306 0 01-1.546-1.703 6.675 6.675 0 01-.68-2.734 13.697 13.697 0 01.68-4.298 14.14 14.14 0 012.74-5.09 19.887 19.887 0 014.168-3.894 24.644 24.644 0 016.153-2.767 2.657 2.657 0 011.279-.504l.292-.026a11.098 11.098 0 011.265.184q.475.105 1.026.253a7.72 7.72 0 012.514.736 12.006 12.006 0 012.454 1.722 7.874 7.874 0 012.191 3.778 15.904 15.904 0 01.549 6.004 31.887 31.887 0 01-.75 5.21 21.714 21.714 0 01-1.298 3.617 4.899 4.899 0 01-.483.925 1.259 1.259 0 01-.676.402 1.749 1.749 0 01-1.117-.147 2.44 2.44 0 01-1.064-.691 2.568 2.568 0 01-.474-.94 1.053 1.053 0 01.162-.945 10.307 10.307 0 00.98-1.433 15.373 15.373 0 00.846-2.94 25.97 25.97 0 00.626-4.612 14.266 14.266 0 00-.219-3.656 8.12 8.12 0 00-.655-2.173 3.01 3.01 0 00-1.057-1.157 4.755 4.755 0 00-1.549-.625 9.325 9.325 0 00-1.664-.22zm-13.84 15.468a3.3 3.3 0 002.716-.874 20.042 20.042 0 003.833-4.378 21.813 21.813 0 002.527-5.292 30.526 30.526 0 001.134-4.415 21.396 21.396 0 00-4.158 2.323 14.15 14.15 0 00-4.164 4.235 12.878 12.878 0 00-1.97 4.656 8.81 8.81 0 00.082 3.745zM85.035 123.29q-.622.917-4.477 6.194t-10 14.321q-6.15 9.045-8.051 12.386a44.79 44.79 0 00-2.417 4.641 10.93 10.93 0 00-.409 1.605 9.886 9.886 0 00-.274 1.356 2.885 2.885 0 01-3.348 1.155l-.564-.11q-2.744-1.798-1.33-4.47t3.923-6.693q2.513-4.022 10.351-15.292t12.122-17.838q1.897-2.518 3.96-5.834a3.236 3.236 0 011.328-1.842 1.55 1.55 0 01.684-.216 2.078 2.078 0 011.286.359 2.96 2.96 0 011.68 1.735 3.178 3.178 0 01-.134 2.52 7.782 7.782 0 01-1.126 1.47 1.3 1.3 0 00-.382 1.014q6.305 4.86 13.22 9.509 1.58 1.038 3.083 2.083 5.41 3.604 11.056 7.188 7.221 4.544 8.849 5.265a9.32 9.32 0 012.129 1.93 2.7 2.7 0 01.045 3.208 2.394 2.394 0 01-3.14-.038q-2.666-1.806-5.629-3.86t-7.69-5.013q-4.41-2.908-9.392-6.08l-.494-.27q-5.157-3.39-8.709-5.904t-6.15-4.478zm16.525 18.63a2.307 2.307 0 01-3.011 1.435 29.546 29.546 0 00-6.108.534 51.77 51.77 0 00-7.258 1.738q-1.6.532-2.967 1.043-1.437.596-2.642 1.172a4.118 4.118 0 01-5.362-1.257q-1.604-2.212 1.122-3.31 8.904-2.188 17.744-4.215l2.618-.542a7.36 7.36 0 012.606-.227 2.716 2.716 0 012.157 1.294 8.91 8.91 0 011.1 2.334zm-17.313 32.483a2.515 2.515 0 01-3.623.708 16.46 16.46 0 01-3.091-4.866 34.957 34.957 0 01-2.508-7.621q-.87-4.12-1.357-6.115a3.073 3.073 0 01.412-1.564q.41-.702 2.31-.476t2.249 1.058a4.052 4.052 0 01.342 1.617 61.98 61.98 0 0111.734-4.789 47.38 47.38 0 0110.714-2.112 19.835 19.835 0 012.42.338 2.4 2.4 0 011.884 1.364 4.457 4.457 0 01.42 2.119 22.615 22.615 0 01-1.476 5.54q-1.16 2.922-1.873 4.631a5.459 5.459 0 011.309-.27 4.779 4.779 0 011.915.38q1.215.444 1.523 3.08-2.196.894-3.86 1.59-5.693 2.147-13.978 5.145a3.612 3.612 0 01-3.702-1.088 10.572 10.572 0 01-.91-2.39q-.153-.81 1.221-1.244 5.734-1.677 10.592-3.512a15.634 15.634 0 002.59-5.362 21.452 21.452 0 001.246-5.48 30.207 30.207 0 00-4.95.786 42.404 42.404 0 00-7.118 2.386q-3.968 1.679-6.597 3.007a2.07 2.07 0 01-2.778-.385 26.148 26.148 0 002.222 7.998q1.461 2.813 1.787 3.409a21.988 21.988 0 01.931 2.118zm84.448-23.293q-6.514 8.017-8.04 9.401a8.63 8.63 0 01-1.695-.554 2.267 2.267 0 01-1.251-1.302 2.075 2.075 0 01.05-1.73 4.822 4.822 0 011.2-1.515q6.07-6.803 11.293-12.983t6.403-7.93q-1.08-.689-2.08-1.385a17.043 17.043 0 01-1.368-1.292l-.437-.51a4.486 4.486 0 01-.744-1.778 1.95 1.95 0 01.509-1.81 1.634 1.634 0 011.788-.626q.93.311 1.825.703a8.973 8.973 0 001.347 1.058 22.938 22.938 0 002.309 1.288 33.233 33.233 0 005.201-5.943l.84-1.171a54.969 54.969 0 003.231-6.084 31.716 31.716 0 00-11.113 2.93 25.624 25.624 0 00-6.616 4.146 19.69 19.69 0 01-4.275 3.117q-1.583.727-2.284.278a9.26 9.26 0 01-1.389-1.094 11.078 11.078 0 01-.71-1.388 1.83 1.83 0 01.02-1.57 3.173 3.173 0 01.953-1.22q4.2-4.836 7.142-7.915a27.501 27.501 0 003.964-4.893 1.9 1.9 0 013.18-.356 3.582 3.582 0 011.65 1.384 3.163 3.163 0 01.491 2.034 5.499 5.499 0 01-.498 1.926q1.925-.403 4.693-1.037t6.278-1.725a3.592 3.592 0 014.419 1.183 3.884 3.884 0 01.76 3.304 4.328 4.328 0 01-.508 1.377 57.673 57.673 0 01-3.967 6.188q-2.345 3.224-4.196 5.816a24.507 24.507 0 00-2.308 3.652 35.1 35.1 0 005.861 3.369q4.84 2.44 8.822 4.482t5.527 2.693a2.69 2.69 0 011.516 1.2 2.273 2.273 0 01.13 3.282 2.075 2.075 0 01-2.957.258q-2.866-1.397-7.39-3.824t-9.117-4.731q-4.592-2.309-5.905-2.974-3.862 4.258-9.323 10.85a9.198 9.198 0 012.893 1.708q4.71-1.744 8.652-2.833a49.066 49.066 0 017.827-1.507 7.215 7.215 0 013.11.16 5.399 5.399 0 012.89 1.668 3.654 3.654 0 01.92 2.9 67.286 67.286 0 01-1.284 8.188 51.39 51.39 0 01-1.579 5.705q.894 3.058-.345 3.676a23.414 23.414 0 01-3.302 1.269 40.067 40.067 0 00-7.779 2.051q-5.522 1.855-6.39 1.342t-1.863-1.13a17.677 17.677 0 01-2.564-3.815 24.317 24.317 0 01-1.971-5.904q-.787-3.616-1.817-8.23a12.335 12.335 0 00-.63-1.828zm8.616 15.163a26.363 26.363 0 005.968-.795 40.649 40.649 0 006.863-2.207 38.969 38.969 0 001.579-6.606q.463-3.216.71-6.686a31.416 31.416 0 00-6.34 1.025 26.994 26.994 0 00-5.123 1.936q-2.21 1.135-3.142 1.725a3.546 3.546 0 01-2.603.267 23.335 23.335 0 00.31 5.853 22.047 22.047 0 001.777 5.489zm-13.965-22.537q-.074.948-.151 1.856a1.339 1.339 0 01-.992 1.224 5.85 5.85 0 01-2.662.031 37.771 37.771 0 01-4.234-.922q-.724-.251-1.461-.575a19.703 19.703 0 01-2.859-1.318q-.02 1.57-.025 3.295.038 3.133.073 7.128.063 6.11.467 14.31a4.145 4.145 0 01-.384 2.343 1.587 1.587 0 01-1.609.885 3.235 3.235 0 01-3.144-2.784q.03-7.686.078-14.358.036-2.277.087-4.398-.042-4.074-.094-7.362a49.8 49.8 0 00-3.641 5.03q-2.074 3.158-5.066 8.438l-.94 1.806a7.698 7.698 0 01-2.114 1.831 9.954 9.954 0 01-1.377-.506l-.805-.243a2.32 2.32 0 01-1.344-1.921q3.002-5.124 7.04-11.866t6.687-12.307a7.267 7.267 0 002.046-2.609 21.856 21.856 0 01.127-3.931q-3.193 1.14-6.337 2.396a51.266 51.266 0 00-5.69 2.653 3.66 3.66 0 01-4.076-.899q-2.384-2.144.783-3.597 4.222-1.937 8.177-3.34t6.779-2.279a32.822 32.822 0 00.052-4.787q-.146-2.575-.54-5.284a3.5 3.5 0 01-.156-1.793 1.474 1.474 0 011.305-1.212 3.543 3.543 0 012.508.879 3.768 3.768 0 011.368 3.092q.103 2.97.47 7.173 2.287-.75 4.962-1.532a4.775 4.775 0 012.424-.525 2.154 2.154 0 012 1.354 11.627 11.627 0 01.903 2.704 13.711 13.711 0 00-2.073.496q-2.988.81-8.085 2.587-.397 6.23-.443 9.291a34.372 34.372 0 00.181 4.768q1.574.96 4.122 2.305a20.665 20.665 0 002.52 1.04 43.053 43.053 0 005.143 1.433zm74.885 25.214a4.967 4.967 0 01-3.05-.361q-1.43-.659-.751-2.757.97-2.358 2.2-5.837t3.388-9.234q-2.33 1.145-3.982 1.995a29.717 29.717 0 00-3.642 2.278 2.416 2.416 0 01-1.795.55 3.65 3.65 0 01-1.547-1.047 4.987 4.987 0 01-1.178-2.72 21.396 21.396 0 015.05-3.223q3.384-1.668 9.29-4.065 1.55-4.683 2.087-6.612-2.882 1.114-5.154 2.02a3.865 3.865 0 01-2.198.426q-.917-.155-1.582-1.509a4.741 4.741 0 01-.512-1.366 6.464 6.464 0 01-.278-1.387q1.672-.617 4.195-1.386 2.669-.86 6.86-2.246.395-1.76.604-2.954.195-1.35.31-1.834a44.585 44.585 0 00-8.345 2.298 4.473 4.473 0 01-2.414.642 2.288 2.288 0 01-1.6-1.271 5.523 5.523 0 01-.803-2.008q-.114-.852.906-1.294a51.721 51.721 0 015.508-1.58q4.487-1.136 6.957-1.587a10.823 10.823 0 00.05-3.023 2.98 2.98 0 01.435-2.194 4.078 4.078 0 012.546-.022 2.816 2.816 0 011.859 1.524 6.767 6.767 0 01.632 2.297q1.4-.122 3.261-.363a7.964 7.964 0 012.666.002l.325.128a1.877 1.877 0 011.592 1.625 2.8 2.8 0 01-.454 2.431l-3.502.306a37.566 37.566 0 00-4.018.666q-.334 2.46-.844 4.699a15.977 15.977 0 012.063-.612q.924-.198 1.889-.366a2.651 2.651 0 011.537.1 3.61 3.61 0 011.185.995 1.455 1.455 0 01.448 1.53 2.385 2.385 0 01-1.363 1.452 41.658 41.658 0 00-4.13 1.183 12.52 12.52 0 01-2.686.667q-1.528 4.053-2.386 6.795 1.204-.576 5.434-1.964t11.182-3.486a2.6 2.6 0 013.502 1.5 2.382 2.382 0 01-.428 1.885 3.225 3.225 0 01-1.744 1.133q-5.521 1.424-8.31 2.255a32.77 32.77 0 00-5.418 2.159q4.704 4.45 9.282 8.872a62.798 62.798 0 008.412 6.993 4.023 4.023 0 01.282 2.328 2.907 2.907 0 01-2.388 1.385 6.285 6.285 0 01-2.6-1.028q-4.589-4.068-8.623-8.067t-6.106-6.171a20.542 20.542 0 01-2.444-2.845l-1.833.553q-2.491 6.49-3.89 10.61t-2.42 6.431q-1.012 2.328-1.52 3.705zm-13.99-54.212q3.717-1.423 5.65-2.18t15.39-4.676q-1.112-5.548-2.265-11.563a6.748 6.748 0 012.067-.573q2.645-.231 3.546 2.902.56 3.714 1.137 8.525 1.918-.48 7.688-1.298a72.732 72.732 0 0113.407-.47 13.057 13.057 0 013.221.974 5.523 5.523 0 012.37 1.989l.274.447a5.069 5.069 0 01-.082 3.104 15.737 15.737 0 01-1.419 3.064 37.634 37.634 0 01-4.603 6.087 14.93 14.93 0 01-3.356 2.88 3.6 3.6 0 01-2.493.179q-1.403-.348-1.484-1.281a61.503 61.503 0 004.826-6.694q1.243-1.916 1.985-3.31a12.118 12.118 0 00.963-2.437q-1.73-.947-8.73-.766a55.027 55.027 0 00-14.075 2.25q-7.072 2.067-12.276 3.973a29.232 29.232 0 00-6.672 3.053 7.483 7.483 0 01-4.686 1.112 50.143 50.143 0 00.712 5.859 13.003 13.003 0 001.22 4.088l1.417 2.307a2.225 2.225 0 01-2.206 1.682 3.516 3.516 0 01-2.584-1.303 10.682 10.682 0 01-1.762-3.57 29.526 29.526 0 01-1.122-5.665q-.366-3.3-.8-7.81t-.46-7.565q.121-4.01 3.437-1.947a2.734 2.734 0 011.506 1.083 2.508 2.508 0 01.575 1.636q-.05.788-.143 1.502-.192 2.375-.174 4.412zm112.914-2.57a34.729 34.729 0 01.107-4.166 30.44 30.44 0 00-3.364 1.43 14.571 14.571 0 01-2.691 1.059q-2.345-.815-2.928-3.9a37.871 37.871 0 014.565-2.046 24.188 24.188 0 003.955-1.835q-.062-2.503-.35-4.909a10.427 10.427 0 00-3.431 1.123q-1.728.895-3.447 1.83-2.213 1.604-4.206-.574-2.017-2.41.996-3.85 4.174-1.62 6.6-2.576a11.524 11.524 0 002.858-1.387 4.314 4.314 0 00.037-2.712 3.65 3.65 0 01.931-3.257 4.764 4.764 0 014.448 4.237q3.22-.83 5.21-1.396a3.18 3.18 0 014.006.983 4.615 4.615 0 01.556 2.775 3.455 3.455 0 01-2.175 1.131 59.532 59.532 0 00-7.199 1.962q.005 2.743.216 5.156a21.867 21.867 0 003.552-.624l3.22-.83a2.89 2.89 0 011.966.063 2.346 2.346 0 011.455 1.401 8.083 8.083 0 01.512 2.264q-5.528 1.345-10.494 2.798a19.889 19.889 0 00.018 4.704l.538-.126q3.816-1.195 7.426-2.06 3.913-.968 10.426-2.717a2.757 2.757 0 013.437 1.66q1.716 2.594-1.541 3.036a57.911 57.911 0 00-9.048 1.889q-3.395 1.08-8.962 2.43a58.814 58.814 0 00-10.32 3.488q-4.072 1.845-7.975 3.833-.677.294-1.353.667-2.743.005-3.848-3.662a71.272 71.272 0 017.204-3.687q4.304-1.933 9.097-3.606zm.222 11.505q3.32-1.466 5.452-2.201t8.078-2.666a4.367 4.367 0 013.287.38 3.293 3.293 0 011.835 2.622q.006 6.35-.161 11.619t-.423 9.524q.159 2.652-2.07 3.16a5.51 5.51 0 01-2.77-.307q-6.212 2.503-11.453 4.451a3.564 3.564 0 01-3.857-1.074 12.615 12.615 0 01-1.737-4.632 85.262 85.262 0 01-1.382-10.425q-.615-7.041-.71-11.738a2.791 2.791 0 012.453-1.076q1.46.107 3.46 2.363zm13.521 14.735q-6.945 2.178-13.196 4.21a2.671 2.671 0 00.403 1.49 11.075 11.075 0 01.695 1.233 19.307 19.307 0 003.603-.942q2.591-.854 5.154-1.587a8.521 8.521 0 003.099-1.29 1.668 1.668 0 00.376-1.523 8.126 8.126 0 01-.134-1.59zm.468-15.33q-3.362.997-5.873 1.885t-4.479 1.685a27.25 27.25 0 01-4.2 1.309q-.077 1.813-.091 3.458 8.48-2.547 14.783-4.898a13.232 13.232 0 00-.143-3.438zm-.233 8.097q-3.694.793-7.55 2.031t-7.112 2.464q.265 1.231.611 3.397 3.556-1.487 6.49-2.449t7.465-2.063q.123-2.125.089-3.38zm15.525 25.145q-.314 2.693-2.658 1.879-2.704-1.333-4.852-2.595a34.123 34.123 0 00-4.748-2.295 17.642 17.642 0 01-2.799-2.421 2.18 2.18 0 01-.031-2.153 2.073 2.073 0 011.56-.999 3.922 3.922 0 012.066.33q4.051 2.39 6.895 3.984a17.096 17.096 0 014.056 2.9 3.605 3.605 0 01.507 1.37zm-30.85 4.969q2.471-4.92 5.288-9.479a2.193 2.193 0 011.738-.779 6.343 6.343 0 012.013.608q1.983 1.16.844 3.377-2.644 3.838-5.458 7.533a2.269 2.269 0 01-2.505.493 4.477 4.477 0 01-1.923-1.753zm-20.632-35.13a23.721 23.721 0 00-2.168 1.6q-1.06.876-2.238 1.764.008 1.88.08 3.6.348 17.454.406 19.017a32.961 32.961 0 00.852 5.257 2.135 2.135 0 01-.426 1.41 2.263 2.263 0 01-1.251.932 3.181 3.181 0 01-2.592-.95 9.124 9.124 0 01-1.097-3.59q-.324-8.2-.627-18.84l.017-.704q-.234-1.786-.539-3.482a28.66 28.66 0 00-3.078 1.523q-1.644.928-6.562 3.004a3.336 3.336 0 01-4.514-1.412 6.84 6.84 0 01-.762-1.54 2.1 2.1 0 01.056-1.651 3.982 3.982 0 01.931-1.295q3.889-4.887 6.1-7.357a36.603 36.603 0 003.254-4.048q-3.638-1.25-7.748-2.534a4.5 4.5 0 01-2.099-2.483 2.892 2.892 0 01.72-3.434q4.45-4.704 7.792-8.639t5.515-6.871a11.408 11.408 0 012.41.651q2.724 1.569 1.947 3.437-3.741 3.855-6.279 6.664t-3.929 4.421a16.465 16.465 0 00-1.794 2.353 5.839 5.839 0 002.955 1.506 15.245 15.245 0 004.053.627q3.131-3.645 6.02-6.485a7.947 7.947 0 011.341-1.254 1.457 1.457 0 011.768.046 5.226 5.226 0 012.438 2.767q.393.907.073 1.287a4.458 4.458 0 01-1.064.838 31.079 31.079 0 00-4.1 3.77 21.179 21.179 0 00-2.728 3.336 5.512 5.512 0 01-1.799 1.843 18.024 18.024 0 00-3.11 2.981q-1.853 2.122-4.505 5.883 2.954-1.199 3.552-1.526t2.444-1.194q1.846-.864 3.713-1.93t3.496-2.16q.131-1.188.327-2.538.355-2.227 2.304-1.456a20.639 20.639 0 013.124 2.55q1.628 1.584 3.172 3.095l.677.568q1.191 1.072 2.122 1.853a2.038 2.038 0 01.477 2.781 2.128 2.128 0 01-2.923.648 11.449 11.449 0 01-2.815-1.714l-.93-.781q-1.102-.927-2.462-2.141zm-11.98 17.279q-2.275 3.57-3.416 5.316a100.324 100.324 0 00-4.634 9.343 3.228 3.228 0 01-2.434-.49 3.5 3.5 0 01-1.312-2.002 17.34 17.34 0 011.257-4.425 88.357 88.357 0 014.805-8.73l.27-.495a1.912 1.912 0 011.766-1.33l.623-.055a3.568 3.568 0 011.949.772q1.576.959 1.126 2.096zm22.498-2.749q-.013 1.648-.793 2.147t-3.196-.23a74.024 74.024 0 01-7.336-3.202 4.454 4.454 0 01-.69-2.958q.112-1.853 1.788-1.529a59.477 59.477 0 017.787 3.865 10.998 10.998 0 012.44 1.907z" fill="#252525"/></svg>