<svg xmlns="http://www.w3.org/2000/svg" width="311.003" height="131.481" viewBox="0 0 311.003 131.481"><defs><clipPath id="a"><path fill="none" d="M0 0h88v86H0z"/></clipPath></defs><g transform="rotate(14.98 112.608 857.808)" clip-path="url(#a)" fill="#ce1d05"><path d="M38.349 3.514c.158.208-.025.029.185.185-.069.626 0 .6-.556.74v.185h.556v-.185l.556-.37V3.7l.556-.37c.275-.282.44-.67.741-.925v-.186c1 .281 1.331 1.386 2.408 1.665.114.448.2.407.371.74.208.158.029-.025.185.185h.185v-.555h.556a.737.737 0 01-.371.37c.111.369-.025.159.185.37v.185h.371v-.185l.741-.555-.185-.555c.188.143.182.227.371.37.195-.242.354-.183.556-.37.58-.538.874-1.123 1.667-1.48.158-.208-.025-.029.185-.185a1.825 1.825 0 00.741.74v.37h.371a2.048 2.048 0 00.556.925h.185v.37l1.112.925v.37l1.112.925v.37l1.112.925v.37l.926.74v.37h.185l.371.555.371.185v.37l.741.555v.37l.371.185v.185l.371.185v.37l.556.37v.37l.556.37v.37l.371.185v.37l.371.185.185.555h.185l.185.74.371.185.185.74h.185l.185.74h.185v.555h.186v.37h.185v.555h.185v.37h.185l.556 2.034 4.446.185v.185l.556-.185v.185h.926v.185l1.853.37c.111-.369-.025-.16.185-.37l.185.37h-.185v.185c.9.1 1.316.479 2.223.555l-.185-.555.556-.37c.158.208-.025.029.185.185-.2.381-.31.326-.371.925l.741.185.185-.37h.371v.37h-.371v.185a3.96 3.96 0 011.482.555h.185v-.555h.185l.185.37h-.185v.37h.556c.141-.5.044-.421.556-.555v-.37h.371a1.8 1.8 0 00-.185.74 1.807 1.807 0 01-.741.185c.392.46 1.18.533 1.853.74v.185l.741-.185c-.21.207 0 .079-.371.185v.185h.557v.185l.741.185v.185h.556v.185l.741.185v.185h.556V27h.371v.185h.556v.185h.371v.185h1.108c-.532.4.713.67 1.112.74v-.37h.371c.185-.689.386-.5.741-.925l-2.779-.925v.37h-.185l.185-.555-6.855-2.774v.37c-.547-.208-.206.029-.185-.555h-.556v-.185l-.556-.185v-3.327h-.185v-.37h-.185v-.184h.185v-1.295l-.371.185c.177-.332.264-.288.371-.74-.233-.154-.107-.252-.371-.37v.185h-.185v-.37h.371V14.8l-.556.185a1.6 1.6 0 01.185-.74h.185v-.185h-.185c0-.466.189-.986.185-1.665a8.524 8.524 0 00-1.667.185c-.141.5-.044.421-.556.555v-.555l-1.482.185v.185h-.185l-.926-.37-.185.555h-.185v-.555h.371v-.74l-.371.185c.158-.209-.025-.029.185-.185v-.925l-.371.185.185-.925h-.185l-.185-1.665c-.208-.158-.029.025-.185-.185l-4.261.925v.185h-.371v.185l-.556-.185v.185h-.556v.18h-.926v.185h-.556v.185h-.741v.185h-.741v.185l-1.3.185v.185h-.556l-1.851-2.587-.926-.74v-.37h-.185l-.369-.555-.556-.37v-.37l-.926-.74v-.37l-1.118-.924v-.37l-.926-.74v-.185L49.65 2.4v-.37l-.556-.37v-.18l-.371-.185v-.37C48.489.6 48.056.456 47.798 0c-.668.184-1.01.713-1.482 1.11v.185h-.373l-.185.37a6.463 6.463 0 01-1.667 1.295c-.158.208.025.029-.185.185l-.926-1.11h-.371l-1.3-1.48h-.366L40.572 0h-.371l-.926 1.295-.371.185v.37l-.371.185v.185l-.741.555-.185 1.11h-.184v.555c.429-.25.567-.628.926-.925m44.649 23.857c.208.21.079 0 .185.37h-.185zm-7.04-3.144c.208.21.079 0 .185.37h-.185zm-5.373-1.48c-.208.158-.029-.025-.185.185h-.185l.185-.555a1.711 1.711 0 01-.371-.37l.741.37-.185.37m3.335.74v-.37h.371l-.185.555-.741.185v-.37zm-.926-5.733c.37.111.16-.025.371.185h-.185c-.158.208.025.029-.185.185zm-10.19-7.583h.926v-.185h.741l.185-.37 2.594-.185a5.4 5.4 0 00-.185 1.295h.371l-.185.925h.185v.74h.371v.185c-.225 0-.31.515-.185.74h.185c.111.369-.025.159.185.37V13.5h.185v.185h1.112l-.185-.555h.185v.37h.926c.111-.369-.025-.16.185-.37v.37a3.108 3.108 0 001.667-.555.737.737 0 00.371.37l.185 4.994h.371a18.5 18.5 0 000 4.069l-.556-.185v.37h-.185v-.185s-.7.01-.371-.185h.371v-.185l-.926-.185v-.185h-.556v-.185h-.556v-.185h-.741a19.725 19.725 0 00-7.411-1.11 4.318 4.318 0 00-.371-1.48h-.185v-.555h-.185v-.37h-.185V17.2h-.185l-.371-1.11h-.185l-.185-.74-.371-.185-.185-.74-.371-.185v-.37l-.371-.185v-.37l-.556-.37v-.37l-.371-.185v-.37c-.078-.117-.247-.135-.371-.37l5.187-1.48m-11.67-4.437h.371v-.555h.185v.555h-.185v.185h-.371z" fill-rule="evenodd"/><path d="M37.424 3.884v-.185h-.371c.21.207 0 .079.371.185m-.556.74c.015.27-.225.256-.371.37a1 1 0 00.741.37c-.12.438-.052.347-.371.555v.37c.208-.158.029.025.185-.185a1.692 1.692 0 00.741-1.11c-.069 0-1.014.039-.741-.185h.185l-.185-.555c-.37.111-.159-.025-.371.185h-.184c-.15.3.242.173.371.185" fill-rule="evenodd"/><path d="M34.459 7.768h.56v.185a2.353 2.353 0 00.926-.185l.185-.555h-.371v.37h-.371c-.066-.445-.2-.9.185-1.295v-.184a2.681 2.681 0 01.926.555h-.371v.365l.556-.185V5.734h.185v-.185c-.02-.059-.608-.307-.556-.555a.425.425 0 00.184-.37l-.741.555v.555c-.6.16-.655.474-1.112.74-.116.643-.215.511 0 1.11-.208.158-.029-.025-.185.185m8.522 1.108l-1.3-1.48c-.345-.257-.267.082-.556-.37h-.371l-.926 1.11h-.185v.37l-.741.555v.555c-.37.111-.16-.025-.371.185h-.182v.185h.926l.185-.37.926-.74v-.369h.183c.256-.275.1-.239.556-.37l1.112.925.371.555h.371c.325.235.469.667.926.925.158.208-.025.029.185.185.367-.557.167-.082.556-.37l1.112-1.295c.509-.369.733-.21.926-.925h.371v-.37h.556a.737.737 0 01-.371.37l.926 1.11h.185v.37h.185l.371.555.556.37v.365l.926.74v.37l.926.74v.37l.741.555v.37l.741.555v.37l.556.37v.37l.556.37v.37l.371.185v.37l.371.185.185.555h.185v.37h.185v.37h.185v.37h.185v.37h.185v.37h.185v.37h.185v.555a9.007 9.007 0 011.112 3.514l.371-.185h.185v.185h-.371v.74h.185a3.551 3.551 0 00.185 1.295l3.335-.185v-.554c.37-.111.16.025.371-.185h.185v-.185c-.708.018-.773-.037-.926.555h-.185v-.555h-.371v.555l-.556.185c.111-.369-.025-.16.185-.37v-.185h-.926l-.185.37h-.741v.185h-.185c.107-.2.33-.3.371-.37v-.37h.185l-.926-3.884h-.185v-.37h-.185v-.555h-.185v-.37h-.185v-.555h-.185l-.185-.74h-.185l-.185-.74-.371-.185-.185-.74-.371-.185v-.37l-.553-.366v-.37l-.371-.185v-.37l-.741-.555v-.37l-.556-.37v-.37l-.741-.555v-.37l-.926-.74v-.37l-.926-.74v-.37l-1.112-.925-.185-.555h-.371c-.193-.717-.777-1.082-1.112-1.665h-.559v.18c-.1.078-.294-.053-.185.185h.185v.185h-.556l-.371.555h-.371l-1.3 1.48a1.98 1.98 0 01-.926-.555v-.185zm-8.152-.924v.37h.185c-.111-.369.025-.16-.185-.37m-11.115 2.77h-.185a2.459 2.459 0 01.741-.555v-.74h1.3v.185a1.393 1.393 0 00.371-.555c.208-.158.029.025.185-.185a2.756 2.756 0 00-1.853-.185v-.365h-.556v.37h.371v.185h-.185l.185.74c-.188-.143-.182-.227-.371-.37l-.185.555c.13.195.252-.068.185.185h-.185v.37h-.185a1.589 1.589 0 00-.185.925h.556z" fill-rule="evenodd"/><path d="M34.274 8.323h.556v.185h-.556z"/><path d="M34.459 9.432c-.12-.438-.052-.347-.371-.555v.74h.185c.158-.209-.025-.029.185-.185m-7.039-.37h-.926v.74l.926-.185zm1.852.555v.555h-.185v.185c.761-.069.851-.365.185-.74m3.15 0h-.371c-.111.369.025.16-.185.37v.925h.185a8.444 8.444 0 01.371-1.295m-3.705.185v.18c-.208.158-.029-.025-.185.185h.371c-.111-.369.025-.16-.185-.37m-.557.375v-.185h-.371c.21.207 0 .079.371.185m2.779.37v.37h.556v-.74l-.926-.185c-.12.438-.052.347-.371.555v.185c.331.169.58-.128.741-.185m2.038-.185v-.185h-.185v.555h.371c-.111-.369.025-.16-.185-.37m-.001 7.028h.185v.185h.185v-.185c.4-.27.475-.747.556-1.295h.554a1.467 1.467 0 01.371-.74h.185l.185-.555.371-.185v-.37l.371-.185v-.185l.556-.37v-.37l.741-.555v-.37l.741-.555v-.74h.371v-.183l-.556-.37c-.246.511-.6.711-.741 1.295h-.371l-.185.555-.741.555v.37l-.741.555v.37l-.371.185v.185l-.371.185v.37l-.371.185c-.34.5-.43.962-.926 1.295a1.5 1.5 0 01.185.74h-.183z" fill-rule="evenodd"/><path d="M23.899 10.542h.185v.555h-.185z"/><path d="M30.754 11.652h.371v-.555a2.14 2.14 0 00-.926 1.11h-.186v.185c.535-.134.614-.2.741-.74m.741.74h.185c.158.208-.025.029.185.185l.185-.555h.371c.114-.448.2-.407.371-.74-.208-.158-.029.025-.185-.185h-.556v.185h-.185v.555h-.371zm-8.337-.555h.185v-.185l-.371-.185v.555h.185zm.556-.37v.37h.185c-.111-.369.025-.16-.185-.37m-1.297 2.219h1.115v-.74h.185v-.185h-.185c-.176-.452-.06-.115 0-.555h-.556v.185c-.394.324-.111.368-.741.555v.555c.208.158.029-.025.185.185m-5.373 8.692a2.9 2.9 0 011.112.185v.37h.556c-.111-.369.025-.16-.185-.37v-.185l.556.185.185-.37h.371v-.182h.185l-.185.37h.556l.185-.555h.185c.259-.291-.342-.153-.371-.185v-.185l.556-.185v.185h.185c.174-.1.066-.332.371-.37v.185h.371v-.56h.741a2.235 2.235 0 01-.371.74h-.185l.185.37c-.449-.114-.408-.195-.741-.37-.158.208.025.029-.185.185l.185.37 1.667-.185.185-1.11s-.72-.026-.371-.185c.045-.257.175.076.185-.185l-2.408.185-.185.37-.556-.185s-.012.126-.371.185v.37c-.337-.3-.83-.076-1.112 0l.553-7.955h1.112v.185a2.575 2.575 0 002.038-.555v-.18h-.741v-.185h-.185l.185.74-.558-.185v-.555h-.185v.185a6.624 6.624 0 00-2.408-.37l-.185 3.144h-.185v2.589h-.185v2.587c.009.045.252.059.185.37h-.185v.185h.185v.185l.371-.185.185.37c-.029.26-.026-.022-.185.185-.23.29 0-.041-.371 0v.19c-.1-.013-.767.107-.556-.185h.185v-.185l-1.112.185c.143.188.228.182.371.37-.37-.111-.16.025-.371-.185h-.185v.74h-.369v.37a1.365 1.365 0 001.3-.74m2.779-1.295h.185v.74h-.185v-.185h-.185l.185-.555m-1.112.555l.556-.185c.158.208-.025.029.185.185-.158.208.025.029-.185.185v.185h-.556zm8.891-4.63v-.185a3.881 3.881 0 00.741-.555h.185v-.37h.371v.74h.185l.185-.555.371-.185v-.37h.185l-.185-.74.371-.185v-.37h.185l.371-.555h.371v-.37c.449-.114.408-.195.741-.37v-.37a1.811 1.811 0 00-.741-.185c-.08.248-.076.422-.185.185l-.556.185c-.022.622.008.677-.371.925v.185c-.405-.274-.425-.072-.926 0v.37h.741v.185l-.556.185c-.209.785-.425.625-.926.555a3.9 3.9 0 00.185.74h-.185c-.23.29 0-.041-.371 0v.185a1.123 1.123 0 00-.556.925zm2.779-4.069c.208.21.079 0 .185.37h-.185zm40.757-.366v.37h.185c-.111-.369.025-.16-.185-.37" fill-rule="evenodd"/><path d="M28.716 14.611h.185c-.111-.369.025-.16-.185-.37zm-1.668 2.404v.37h.185c-.111-.369.025-.16-.185-.37m-.37 1.295v.37a1.4 1.4 0 00.741-.185v-.185h.926v-.185h.185l-.185-.925c-.208.21-.079 0-.185.37h-.185v-.555h-.185v.74c-.645.1-.347.186-.926 0l-.185.37h.185v.185zm6.114-.74v-.555h-.185c-.12.438-.052.347-.371.555-.111.369.025.159-.185.37.21.207 0 .079.371.185.12-.438.052-.347.371-.555m-1.113 1.11v.555h.185l.371-.74h.371v-.185h-.741c-.111.369.025.16-.185.37m-3.707.37v-.185c.208-.158.029.025.185-.185h-.37c.111.369-.025.16.185.37m-3.334 1.11c-.111.369.025.159-.185.37v-.37h-1.112v.185h.185l-.185.37h.185a1.464 1.464 0 01.371.74c-.208.21-.079 0-.185.37h.926c.047-.011.06-.238.371-.185v.185h.371l-.185-.74c.737-.2.9-.767 1.482-1.11l.185.37h-.185v.555l-.371-.185v.37h-.371c-.12.438-.052.347-.371.555v.185c.966-.237.58-.371 1.667-.185a3.994 3.994 0 01.37-1.295h-.371v-.37h.556v-.37c-.482.434-.479-.069-.741 0 0 0-.037.14-.371.185.12-.438.052-.347.371-.555a1 1 0 00-.741-.37 6.777 6.777 0 01-.556 1.48l-1.112-.185m6.301.184v.555h-.185v.37c.333-.176.288-.264.741-.37v-.37h.371l.371-1.11h-.371c-.256.947-.615.472-.926.925m7.039 5.364h-.185l-.185.37a41.121 41.121 0 01-4.446 2.774c-.012.868.038 1.134.741 1.295.145.1 0 .243.371.185v-.19a8.73 8.73 0 002.964-1.665h.185c-.111.369.025.159-.185.37a1.615 1.615 0 00.371 1.295h8.707c1.553 0 3.242.153 4.261-.37a3.551 3.551 0 00-.185-1.295l3.149 1.849c.732-.025.849-.091 1.112-.555.2-.233.059-.6 0-1.11l-1.112-.37-.185-.37-.742-.179-.185-.37h-.371l-.185-.37h-.371l-.371-.555h-.369l-.371-.555h-.371l-.185-.37a3.05 3.05 0 00-1.3-.74v-.37c-1.1-.317-.919-1.484-2.408-.925.013-.1-.107-.766.185-.555.212.153-.076.2.185.185v-.37a1.85 1.85 0 01-.371-.37l-.556.185v-.185h-.185l.185-.555c-.457-.211-1.393-1.024-2.223-.74v.185l-.741.185-1.482 1.665h-.371v.185l-.556.37-.556.74h-.371l-.741.925h-.371l-.185.37m.371 1.849h.371l.185-.37h.185l.185-.37h.371l.556-.74a12.443 12.443 0 003.335-2.959c1.243.15 1.528.992 2.223 1.665h.185l.185.37h.377l.741.925h.371l.556.74h.371l.185.37h.185l.185.37h.371v.185a1.456 1.456 0 00.741.37v.37a40.315 40.315 0 00-6.3-.185 40.127 40.127 0 00-6.3.185v-.37a1.474 1.474 0 00.741-.37zm-7.777-6.102v.37h.185c-.111-.369.025-.16-.185-.37" fill-rule="evenodd"/><path d="M30.754 23.114l.371-.185a10.344 10.344 0 00.371-1.48c-.37.111-.16-.025-.371.185h-.185v.925h-.185v.185l-.556-.185c-.073 1.445-.5 1.738-.556 2.959-1.741-.774-3.956-.452-6.114-.37-.141.5-.044.421-.556.555v.185c.976.047 1.633.26 1.853-.555l.741-.185v.555h-.185v.185c1.583-.026 1.024-.463 2.038-.74v.555h-.185v.185c.732.012 1.159.009 1.482-.37.249.079.421.072.185.185l.185.37h1.3c.052-.64.339-1.1 0-1.48 0 0 .026-.719.185-.37.258.045-.076.175.185.185l-.185-.925h.185zm-15.933.744v.37c.2-.1.3-.331.371-.37h.556v-.185h-.185l.185-.555-.371-.185.185-.555h-.741c.21.207 0 .079.371.185 0 0-.026.719-.185.37-.258-.045.076-.175-.185-.185l.185 1.11zm-.556-.375h-.185c-.12.438-.052.347-.371.555.158.208-.025.029.185.185v.185l.741-.185c-.087-.506-.232-1.057.185-1.48v-.18c-.37.111-.159-.025-.371.185h-.185v.185h.185v.185l-.371-.185v.185h-.185c-.111.19.312.178.371.37m-2.963.74h.556a2.74 2.74 0 01.185 1.11h.185a2.19 2.19 0 00.185-.925 3.843 3.843 0 00.926-.37v-.185h.185c.084-.24-.383-.23.185-.74v-.185h-.371c-.234.341-.178-.059-.371.185l.185.555h-.185v.185a5.828 5.828 0 00-1.853 0v.74h.185zm-.556.185v-.185c.209-.158.029.025.185-.185h-.37c.111.369-.025.16.185.37m2.779 27.557c.208-.21.079 0 .185-.37-.351-.211-.767-1.017-1.3-.925v.185h-.185v-.74h-.556v-.555h-.185c-.111-.369.025-.16-.185-.37l-.185.925h-.371l.371-1.295c-.5-.321-.58-.808-.926-1.295l-.556-.37v-.372l-.371-.185v-.37l-.371-.185v-.37l-.371-.185v-.37l-.371-.185-.181-.55h-.185v-.37l-.371-.185-.185-.74-.371-.185v-.37l-.371-.185-.185-.74-.371-.185-.185-.74-.371-.185-.185-.74-.371-.185-.185-.555h-.184l-.185-.74-.371-.185-.185-.74-.371-.185v-.37l-.371-.185v-.37c-.266-.457-.609-.64-.741-1.295l.556-.185v-.18h.371v-.185l.741-.185.185-.37.741-.185.184-.375h.371v-.185h.371c.1-.066.145-.252.371-.37-.36-1.546-1.613-2.76-1.667-4.439l2.223-.74v-.185h.556v-.181l.926-.185v-.185h.371v-.185h.556l.371-.555h.926v-.19l.741-.185c.073-.576.264-.512-.185-.925v-.18l-.556.185v-.555h-.185v.555H10v-.37h-.366v.555c-.344-.223-.04-.274-.185-.37h-.186c-.154.331-.473.321-.926.37l.185.555h-.556v-.185h-.555c.319.3.082.377-.185.555v.185c-.389-.226-.467-.454-1.112-.185v.185l-.741.185v.185h-.556v.185h-.371v.185l-2.223.74 1.112 2.774h.185c.271.6.083.873.556 1.295-.14 1.148-.588.659-1.3 1.11l-.185.37-.741.185-.185.37H1.3c-.455.264-.639.618-1.3.74a3.7 3.7 0 00.556 1.295l.371.185.185.74.371.185.185.74.371.185.185.74.371.185.185.555h.185l.185.74.371.185.185.74.371.185v.37l.371.185.185.74.367.181v.37h.185v.37l.371.185.185.555h.185l.185.74.371.185v.37l.371.185c.5.749.744 1.722 1.482 2.219l-.185.555h-.184v.37h-.185v.37l-.371.185v.37l-.371.185-.185.74-.371.185-.185.555h-.184l-.185.74-.371.185-.185.74L5 53.08v.37h-.183l-.185.555c1.52.36 2.333 1.724 3.891 2.034a8.721 8.721 0 01-1.3 3.144l-.185.925h-.183c.258.895.4.415 1.112.74v.185h.371v.185h.371v.185l.926.185v.185h.556v.185h.371v.185h.556v.185h.371v.185h.741v.185c.418.2.414.019.741.37h.185l-.185-.74h.185v-.185H12.6c-.251-.075.076-.175-.185-.185v.185h-.185v-.37l-4.264-1.665 1.667-4.254-.556-.185-.185-.37-.741-.185-.185-.37H7.6v-.185h-.375l-.185-.371h-.371v-.185c-.413-.252-.256.077-.556-.37-.208-.21-.079 0-.185-.37h.185v-.37l.371-.185v-.37h.185v-.37l.371-.18.185-.74.371-.185.185-.74.371-.185a3.431 3.431 0 00.556-1.295h.185l.556.74h.185v.37l.371.185v.37c.179.191.185-.185.185-.185l.556.185-.185.555.741.555v.185l.741-.185v.37h-.371a2.468 2.468 0 00.926.925c.158.208-.025.029.185.185v-.37a.867.867 0 00.741-.555M10 25.338c.37.111.16-.025.371.185h-.185c-.158.208.025.029-.185.185zm-2.96 1.294c.37-.111.16.025.371-.185H7.6l-.185.37H7.04zm4.817 24.228c-.37-.111-.159.025-.371-.185h.185c.158-.209-.025-.029.185-.185zm.556.37h.371v.37h-.371zm57.987-.739h.371l.556-.74h.371l.926-1.11h.371v-.185l.371-.185v-.37l1.112-.925v-.37l.556-.37v-.37l.556-.37v-.37l.371-.185.185-.555h.181v-.37l.556-.37.185-.74.371-.185v-.37l.371-.185v-.37l.371-.185v-.37h.185v-.365l.371-.185v-.37l.371-.185.185-.74.371-.185.185-.74.371-.185v-.37l.371-.185v-.37c.267-.459.6-.641.741-1.295l-1.112-.37-.185-.37-.741-.185-.185-.37-.741-.185v-.185l-.556-.185c.2-1.567 1.341-2.472 1.482-4.069l-2.038-.74v-.185l-.926-.185v-.185h-.371v-.185h-.556v-.185h-.376v-.185h-.556v-.185l-2.038-.74v.37h-.185v-.366c-.331-.093-1.731-.887-2.038-.74v.185h-.371l.185-.37h-.371v.37h-.556v-.745a12.8 12.8 0 01-1.853-.555l-.926.185v-.37h-.741v-.185h-.741l.185.37h-.556v-.37h-.926v-.185c-1.232-.048-1.474-.128-1.853.74h-.179v.185h1.482v-.185l.371.185v-.185l.556-.185v.37h.741v-.185h.185l.185.37h1.3v.185c.321.117.489.086.741.185v-.37h.371c.111.369-.025.16.185.37v.185h.741v.185h.371v.185l1.667.37v.185l.556-.185.371.555 1.112.185v.185h.371v.185h.556v.185h.371v.185h.556v.185l.741.185v.185l.926.185v.185h.556v.185h.371v.185c.613.273.83.052 1.3.555h.185v.185h-.185v.37h-.185v.37h-.185c-.366.844-.48 2.048-1.112 2.589.616 1.028 2.527 1.323 3.335 2.219h.185v.185h-.185c-.147.653-.475.834-.741 1.295v.37l-.371.185-.185.74-.371.185v.37l-.371.185-.185.74-.371.185v.37l-.371.185-.185.74h-.185l-.185.555-.371.185v.37h-.185l-.185.555-.371.185v.37l-.556.37v.37l-.371.185v.37l-.741.555v.37l-1.112.925-1.3 1.48h-.371l-.556.74h-.376l-.371.555-3.329 1.846.371 1.11h.185v.555h.185l.185.74h.185l.185 1.11a16.6 16.6 0 011.3 6.843l.741-.185a15.055 15.055 0 00-.371-4.439h-.185v-.74h-.185l-.371-1.849h-.185c-.343-.866-.277-1.642-.926-2.219.159-1.07.377-.7 1.112-1.11v-.185h.371l.185-.37h.371l.185-.37h.362l.371-.555m-7.965-24.968l.185-.37h.185c.166.076-.357.362-.371.37" fill-rule="evenodd"/><path d="M23.158 25.338v-.185c-.784.018-.963.091-1.112.74-.547-.208-.206.029-.185-.555h-.371v.555c-.752.194-.472.474-1.3.185v.555c.514-.19 1.133-.166 1.482-.555h1.3v-.185h-.185c.073-.456.087-.344.371-.555m-8.522 22.563l1.112 1.295h.371l.741.925h.371l.371.555h.373l.371.555 2.408 1.295a7.252 7.252 0 01-.556 1.48h-.185l-.185 1.11h-.185v.37h-.185v.74h-.185v.555h-.185v.74h-.185v.74h-.185v.74h-.185v.555h.185l-.185.925h-.185v.925h.185c.052-.121.144-.667.185-.74l.556-.37v-.929h.185v-.74h.185v-.74h.185v-.74h.185v-.74h.185l.185-1.11 1.482-3.144a26.236 26.236 0 01-4.632-2.774l-.741-.925h-.371l-.185-.37-1.112-.925v-.37l-.745-.552v-.37l-.556-.37v-.37l-.556-.37v-.37l-.371-.185-.185-.555h-.185v-.37l-.371-.185v-.37l-.371-.185v-.37l-.371-.185-.185-.555h-.185l-.185-.74-.371-.185v-.365l-.371-.185-.185-.74-.371-.185-.185-.74-.371-.185a3.554 3.554 0 01-.556-1.295c-.208-.21-.079 0-.185-.37.369-.2.755-.539 1.112-.74h.371l.185-.37.743-.19v-.185a2.138 2.138 0 01.926-.37c-.2-1.587-1.341-2.5-1.482-4.069l2.223-.74v-.185l.926-.185v-.185h.371v-.181h.556v-.185l.741-.185v-.185l1.112-.185v-.185l.926-.185v-.19a1.634 1.634 0 01.926-.185l-.185-.555.371.185v.185c.059.018 1.6-.509 2.038-.555v-.555h-.185v-.18h-.556v.555l-.926-.185c-.111.369.025.159-.185.37-.158.208.025.029-.185.185v-.37a2.269 2.269 0 00-1.3.555s-1.142.18-.556.185h.185v.185a1.374 1.374 0 00-1.112 0v.18h-.371v.185h-.556v.185h-.556v.185h-.371v.185h-.556v.185h-.371v.185l-3.52 1.295 1.672 4.073c-.71.167-.8.466-1.3.74l-.741.185-.185.37-.741.185v.185l-.556.185c.054.416.017.485.185.74h.185v.37h.185v.37l.371.185.185.74.371.185v.37l.371.185.185.74.371.185.185.74.371.185v.37l.371.185.185.74h.185l.185.555.371.185v.37l.371.185v.37h.19l.185.555.371.185v.37l.556.37v.37l.556.37v.37l.741.555v.37zm4.632 9.987l.185-.37h.185c.166.076-.357.362-.371.37M87.072 34.03l-.185-.37-1.112-.37-.185-.37-.741-.185v-.185a2.084 2.084 0 00-.926-.37l.556-1.48h.185c.233-.514-.048-.547.371-.925a1.379 1.379 0 00-.556-.37v-.185c.331-.169.58.128.741.185.111-.369-.025-.16.185-.37v-.37l-.556.185.185-.74h.371c.111.369-.025.159.185.37.111-.369-.025-.16.185-.37v-.553h-.185v-.185l-.926-.185-.185.555h-.371c-.059.415-.016.484-.185.74h-.185v.37h-.185v.37h-.181l-.185.74h-.185v.555h-.185v.37h-.185l-.185.925h-.185v.37h-.19l-.185.555 3.891 2.219a2.987 2.987 0 01-.556 1.48l-.371.185-.185.74-.371.185v.37h-.185v.37l-.371.185-.185.555h-.182l-.185.74-.371.185-.185.74-.371.185v.37h-.188v.37l-.371.185-.185.555h-.185l-.185.74-.371.185-.185.555h-.185l-.185.74h-.185l-.185.555-.371.185v.37l-.371.185v.37l-.556.37v.37l-.371.185v.37l-.556.37v.37l-.556.37v.37l-.741.555v.37l-1.3 1.11-.185.37h-.371l-.741.925h-.371l-.556.74h-.371l-.185.37-.741.37a14.636 14.636 0 00.926 2.959v.922a19.006 19.006 0 01.556 5.918 1.959 1.959 0 01.741.185 3.717 3.717 0 00.556-1.295h.371l-.366-4.808a17.023 17.023 0 01-.926-3.329 1.99 1.99 0 00.926-.555v-.185h.371v-.185l.556-.37.185-.37h.369l.371-.555 1.482-1.295v-.37l.741-.555v-.37l.556-.37v-.37l.556-.37v-.37l.371-.185c.339-.5.428-.966.926-1.295.111-.369-.025-.16.185-.37l.185.555h.185v.37l.371.185v.37l.371.185.185.74.371.185v.37l.371.185.185.74.371.185.185.74.371.185c.418.633.551 1.372 1.112 1.849.208.546-.029.206.556.185v.185l-.556.185v.185h-.371l-.185.37-.741.185-.185.37h-.369v.185h-.371v.185a4.428 4.428 0 00-1.3.74h-.185l.185.555h.185v.37h.185v.555h.185l.556 1.665.371.185v.74h.185v.18h-.185c-.141.5-.044.421-.556.555v-.37h-.185c.022.381-.637.244-.926.37v.185l-.741.185v.185h-.556v.19h-.371c-.62.328-.256.488-1.3.555v.545h-.185v-.18h-.185v.18h-.185l.185.37h-.185v.185c1.121-.237 1.9-.9 2.964-1.11v-.37c.175.3.666.022 1.112 0-.21-.207 0-.079-.371-.185v-.18l.741.185v-.185h.556v-.185l.741-.185v-.185h.556v-.185c.091-.084.3.052.185-.185h-.185v-.37h-.185v-.555h-.185v-.37h-.185c-.253-.512-.133-.929-.556-1.295v-.185l-.371.185c.276-.76.117-.84-.185-1.48a7.339 7.339 0 002.038-1.295h.185v-.555c.732.012 1.159.009 1.482-.37h.185s-.026-.719-.185-.37v.185h-.185l.185-.555h-.185v-.37l-.371-.185-.185-.74-.556-.37v-.37h-.185v-.37h-.185v-.37l-.371-.185-.185-.74-.371-.185v-.37l-.371-.185-.185-.74-.371-.185v-.37l-.371-.185-.926-1.665h-.185l.185-.555h.185v-.37l.371-.185v-.36l.371-.185v-.37l.371-.185v-.37h.185v-.37l.371-.185.185-.74.371-.185.185-.74.371-.185v-.37l.371-.185.185-.74.371-.185v-.37h.185v-.37l.371-.185.185-.555h.185v-.37h.185v-.37l.371-.185v-.37h.185v-.37l.371-.185v-.375h.185c.253-.414-.076-.253.371-.555v-.555c-.114-.209-.717-.234-.926-.37m-12.601 27.19c-.37-.111-.16.025-.371-.185.37.111.159-.025.371.185m-.185-.37c-.37-.111-.16.025-.371-.185.37.111.16-.025.371.185m-.556.37c.084.078.465.142.371.37h-.185c-.151-.338-.047.161-.371 0l.185-.37m-.185.74c.208.21.079 0 .185.37h-.185zM37.608 32.366a3.565 3.565 0 01-.556.555v1.845c0 1.433-.181 5.3.185 5.733v.185c.1.116.351-.514.371-.555h.558a1.426 1.426 0 01-.371.555v.185l.556-.185v.185h8.335c1.517 0 3.084.139 4.076-.37.008-2.014.368-6.45-.185-7.953-.37-.111-.16.025-.371-.185H38.72l.185.555c-.6-.482-.069-.547-1.3-.555m.926 1.849h.185v.74h-.185zm0 2.034c-.37-.111-.16.025-.371-.185.37.111.16-.025.371.185m-.556.37v.185c.348-.02.108-.109.185-.37h.185c-.128.5-.251.418-.371.925-.5-.141-.421-.044-.556-.555l.556-.185m-.371-.555l.185-.555h.185c.117.343-.108.263-.185.37v.192zm.741-.925c-.37-.111-.16.025-.371-.185h-.185v-.183h.556zm-.556-1.849v.555h-.185l-.185-.555zm-.185 1.665c-.37-.111-.16.025-.371-.185.37.111.16-.025.371.185m0 .37c-.37-.111-.16.025-.371-.185.37.111.16-.025.371.185m2.594 4.624h-.371v-.37h.371zm.371 0v-.37c.208.21.079 0 .185.37zm-.185-7.213c-.37-.111-.16.025-.371-.185.37.111.16-.025.371.185m-1.3.555c.645.1.347.186.926 0-.279.425-.618.39-.926.74h-.185l.185-.74m-.185.925h10v4.809H42.24a19.07 19.07 0 01-2.964 0c-.158.208.025.029-.185.185l-.185.555h.185v.37h-.185v-.364l-.741.185c.141-.5.044-.421.556-.555a4.247 4.247 0 01.185-1.076c-.247 0-.494-.219-.741-.219-.128.5-.251.418-.371.925-.37-.111-.16.025-.371-.185h-.185c-.025-.285.5-.435.556-.555v-.37h.556v-.185l.556-.185zm15.199 24.231c.961-.048.8-.32 1.3-.74-.084-.672-.159-.614-.556-.925v-.185h-.559v-.185h-.371v-.185h-.371v-.18h-.371v-.185h-.367v-.185h-.371v-.185h-.371v-.185h-.371l-.185-.37h-.371l-.185-.37h-.371l-.185-.37h-.371l-.185-.37c-.545-.37-.753-.34-1.112-.925-.208-.158-.029.025-.185-.185a10.581 10.581 0 002.963-3.332 2.1 2.1 0 00-.185-1.849v-.37l-2.594-1.48h-.556v-.185h-.365v-.184l-1.3-.185v-.185c-1.2.076-.976.411-1.482 1.11l-.741.555v.37l-.926.74v.37l-2.223 2.034v.185a2.486 2.486 0 01-.556-.925h-1.672v-4.624h-.185c-.233-.3-.1-.252-.556-.37-.21-.207 0-.079-.371-.185a2.459 2.459 0 01-.741.555v4.624h-3.147l-.185.555h-.185c-.111.36.079.431.185.555l.185.555h3.149v1.665h-.185l-.185.74-.371.185-.185.74-.371.185v.37h-.185l-.185.555-.371.185v.37l-.556.37v.37l-.741.555v.37l-.556.37v.74h.185l.185.555h1.112l2.223-3.144h.185v6.843c0 1.232-.312 2.119.741 2.4.21.207 0 .079.371.185a2.46 2.46 0 01.741-.555v-9.431c.516.305.631.756 1.3.925-.12.438-.052.347-.371.555-.041 2.422 1.339 1.026 2.408.74-.014 2.008-.349 5.087.371 6.473h5.373a10.567 10.567 0 002.964-.185v.37c.37-.111.16.025.371-.185h.741v-.185h-.371v-.555c.312.211.258.113.371.555h.185v-.925l-.371.185v-.37l.371-.185-.185-.925-.741.185c.12-.438.052-.347.371-.555v-.185c.286-.141.32.369.371.555h.185v-3.144h-.371v-.185h.371v-1.11a8.7 8.7 0 00.926.37v.185l.556-.185v.37c.37.111.159-.025.371.185m-3.705-.74h.371v-.555h-.185v-.37l.556.37c-.114.448-.2.407-.371.74h-.371zm-1.667-2.219l.556.185v.185l.556.185s.026.719.185.37a.659.659 0 01.1-.069c-.007-.052-.089-.109.083-.116-.109.143-.059.1-.083.116 0 .027-.013.053-.1.069-.111.369.025.16-.185.37v-.37h-1.3v.185a1.453 1.453 0 01-.741.185v-.37h-.926c-.052.019-.065.337-.371.37l-.185-.37h-1.482c.268-.969 1.694-1.343 2.223-2.219.8.225.632.582 1.112.925h.371l.185.37m1.477 1.663c-.158.208.025.029-.185.185-.111.369.025.16-.185.37v.185h-.185l.185-.74zm-1.667.185v-.555c.015 0 .653-.061.371.185h-.185c.2.328.125.246.556.37-.141.5-.044.421-.556.555l.185-.555zm-.371.74l-.556-.185v-.37a1.244 1.244 0 01.556.555m-1.662-.185h-.371v-.37h.371zm0-10.912l2.594.925v.185l.556.37a5.161 5.161 0 01-2.223 2.959c-.692.446-1.8-1.8-2.408-2.219.137-1.02 1.041-1.468 1.482-2.219m-2.964 7.953h-.371l-.371.555h-.371l-.185.37c-.333.217-.413.005-.741.37h-.371v-.183c.232 0 .3-.5.185-.74l-2.412-2.223V51.23h1.3c.072.6.168.54.371.925 1.667-.043 1.926-1.053 2.964-1.665.158-.208-.025-.029.185-.185a7.076 7.076 0 002.038 2.4c-.2.763-.563.714-1.112 1.11l-.556.74h-.37l-.185.37m6.665 8.696h-.185v-.37h.185zm.741-.555h-.181l-.185-.74c.3.187.73.4.371.74m0-1.295c-.158.208.025.029-.185.185v-.37c.37.111.16-.025.371.185zm0-.925v.185c-.238-.153-.2-.157-.371-.37h-.185v2.034h-6.3v-4.622a21.721 21.721 0 004.446 0c.316-.054.315.172.371.185a3.077 3.077 0 001.482-.185v2.034c.449.114.408.195.741.37-.111.369.025.16-.185.37m.185-1.665c-.37-.111-.16.025-.371-.185h-.185c-.06-.051.411-.327.556-.555h.185l-.185.74m.556.37c-.208.158-.029-.025-.185.185h-.185v-.555l.556-.185-.185.555m0-1.48v.185h-.187v-.37c.5.141.421.044.556.555-.233-.154-.107-.252-.371-.37m1.112-.925h-.185v-.185l-.556.185.185-.555c.117.076.642.34.556.555" fill-rule="evenodd"/><path d="M15.932 55.114v-.184h.185v.37h.185l.185-1.295h.185c-.425-.514-1.125-.705-1.482-1.295-.449.114-.408.195-.741.37-.188-.543-.2-.378 0-.925-.208-.158-.029.025-.185-.185a1.046 1.046 0 00-.926.925h-.555c.158.209-.025.029.185.185v.185h.555c.12.463.1.3.371.555v.185h.371c.131.091.12.244.371.37v.74h-.185l.185 1.11a1.959 1.959 0 00.741-.185c.184-.471-.032-.577.556-.925m-.371-1.665h.185v.555h-.185zm-.926-.185c.37.111.16-.025.371.185-.37-.111-.159.025-.371-.185m.371 1.665v-.37c.208.21.079 0 .185.37z" fill-rule="evenodd"/><path d="M15.933 55.299h.185v.555h-.185z"/><path d="M14.266 62.697v.185h-.552a24.588 24.588 0 00-.185 3.329l.741.185v-.185h.185v.185c.312.211.258.113.371.555h.371c-.026-.662-.179-1.242 0-1.48v-.185c-.752.207-.4.45-1.3.555l.371-1.48-.371-.185v.185h-.183c.087-.4.118-.524.371-.74v-.185c.331-.169.58.128.741.185l-.185-1.11h.371v-.737h-.371c-.255-.26.329-.179.371-.185l-.185-.37h.185v-.37h.185v-1.11l-.556.185v-.37h.556l.185-1.48h.185a.33.33 0 00-.185-.37 1.592 1.592 0 01.556-1.11v-.74c-.333.176-.289.264-.741.37-.114.448-.2.407-.371.74-.438-.119-.347-.052-.556-.37-.4.415-.748 3.149-.741 4.069.37-.111.16.025.371-.185h.185a.737.737 0 01-.371.37v.185h.556a.734.734 0 01-.371.37v.37h-.185v-.74h-.185v1.295c-.37.111-.16-.025-.371.185h.741l.185-.37h.371v.555zm.556-4.439c.158.208-.025.029.185.185v.185h-.371c.111-.369-.025-.16.185-.37m-.741-.555v-.185l.556-.185v.37z" fill-rule="evenodd"/><path d="M14.265 56.224h.371v.37h-.371z"/><path d="M30.381 75.643v-.185l-5.743 1.295-.739-4.066a20.25 20.25 0 01-4.076.37v-.37h-.185v-2.4h-.185l-.185-5.733h-.371l.185-.74h.185l-.185-.555c-.37-.111-.159.025-.371-.185h-.185v-.185h.555v-.74h.185l-.185-.562h.185v-.74c-.209.158-.029-.025-.185.185-.344.222-.4.518-.741.74.008 4.289.346 7.463.741 12.206a12.173 12.173 0 003.335-.37h.741v.185a17.684 17.684 0 01.924 3.884l5.932-1.29c.254-.168 0-.494.185-.74zm47.244-13.316c.21.207 0 .079.371.185v-.185zm-2.964 1.11c-.094.753-.394.828-.741 1.295h-.185l.185.37h-.185v.37c-.052.086-.258.159-.371.37h-.371v.925h-.185c.21.207 0 .079.371.185v-.37h.556v-.555h.926c-.191-.564-.029-.844 0-1.665a1.767 1.767 0 00.741-.37v-.185l1.667-.185a3.25 3.25 0 01-.371-.925 5.717 5.717 0 01-2.038.74m-5.001.555a2.165 2.165 0 01-.371-.37h.371v-.74h-.556v.555h-.185v.925l.371-.185a4.408 4.408 0 00-.371 2.034h.371v.555l-.371.185v-.185h-.185l.185 1.849a18.647 18.647 0 00-.556 4.439 13.845 13.845 0 01-4.076-.37l-.927 4.069-7.78-1.85v-.185l-2.408-.555v-.181l-1.667-.37v-.185h-.371v-.185h-.556v-.185h-.371l-.185-.37-.741-.185-.185-.37-.741-.185v-.185l-.556-.185-.185-.37h-.371l-.371-.555a8.743 8.743 0 01-2.594-2.219 1.532 1.532 0 00-.741.37v.179h-.371l-.185.37-.741.555-.18.375h-.371l-.371.555h-.371l-.371.555h-.371l-.185.37h-.371l-.185.37-.741.185-.185.37-.741.185v.185l-.741.185v.185h-.556v.185h-.371v.185h-.556v.185h-.556v.185h-.557v.185h-.556v.185h-.744v.185l-2.038.37v.74h-.182v.185l3.149-.74v-.185l1.853-.37v-.185l.926-.185v-.185l.741-.185v-.185h.371v-.185l.926-.185v-.185l.556-.185.185-.37.741-.185.185-.37h.371l.371-.555h.371l.371-.555h.371l.926-1.11.556-.185v-.185a3.384 3.384 0 011.3.925v.185l.556.185.371.555h.371l.185.37h.367l.371.555.741.185.185.37.556.185v.185l.741.185v.185l1.112.37v.185h.556v.185h.371v.185l8.522 2.4h.741v.185h.926v.185c.6.2 1.06 0 1.482.37h.556v-.185a17.684 17.684 0 00.926-3.884l4.261.37c.022-2.323.6-4.271 0-5.733h.371l-.185-1.11h.367v-1.11h-.185l.185-.37h-.185c-.052-.4.455-1.058.185-1.665" fill-rule="evenodd"/><path d="M77.44 63.067h.556v.185h-.556z"/><path d="M73.179 64.546v-.185c.208-.158.029.025.185-.185h-.37c.111.369-.025.16.185.37" fill-rule="evenodd"/><path d="M73.364 64.361h.185v.555h-.185z"/><path d="M74.291 67.136h.185v-.555h-.185c-.21.207 0 .079-.371.185.143.188.228.182.371.37m-.556.369c-.111-.369.025-.16-.185-.37l-.185.555c-.37.111-.16-.025-.371.185-.371.415 0 1.2-.185 1.849h-.185v2.219s-.154.013-.185.37v2.034h-.185l-.185 3.329-4.632-.555-.926 4.624-9.448-2.219v.189a1.9 1.9 0 01-.741.37c.12-.438.052-.347.371-.555v-.185c-.784-.163-1.44-.309-1.853.37h-.371l.556-.74c-.6-.207-.465-.119-1.112 0v-.37c-.37-.111-.16.025-.371-.185h-.741a.734.734 0 00.371.37v.185h-.185v.185h-.185v-.555h-.371v-.555a3.944 3.944 0 01-.741-.185v.185h-.185l-.185-.37h-.556v-.185c-.518.067-.557-.012-.741.37v.37h-.185v.18l-.371-.185v.185h-.372v.37l.371-.185.185.37a11.465 11.465 0 001.482.37v.185a3.907 3.907 0 01.741-.185v.37l1.112.185v.185l.371-.185-1.854 2.22-.556.37v.37l-1.112.925v.37l-.741.555v.185h-.185c-.364-.559-.169-.082-.556-.37l-1.112-1.295h-.371l-.926-1.11h-.556l-.185.37h-.371L43.72 83.78h-.371l-.926 1.11h-.368a4.111 4.111 0 00-.741-1.11l-.371-.185v-.37l-.556-.37-.371-.555h-.185v-.37l-.926-.74-.185-.555-.371-.185c-.549-.551-.073-.607-.926-.37l.371-.555-.371-.185v-.185c.506-.377.495.337.741-.555h.371v-.555a1.973 1.973 0 00.741-.185v.37h-.371v.37a1.662 1.662 0 001.112-.37l.185-.555.556.185.185-.555.556.185v-.185h.371v-.185c-.349-.122-.21.135-.371-.185l.556-.185c.036.008.061.285.371.185v-.185h.369l.185-.37h.371l.185-.37.741-.185v.19h.185v-.185h.371c-.21.207 0 .079-.371.185a1.5 1.5 0 00.926.555v.185h.185v-.37l.741.37c-.21.207 0 .079-.371.185.339.409.947.53 1.3.925.715-.07.971-.3 1.112-.925h.371c-.2.714-.555.581-.741 1.295.4.087.525.118.741.37l.926-1.11c.214-.151.14.145.185.185h.185v-.185c.208-.158.029.025.185-.185l-2.038-.74v-.185h-.374V76.2h-.371l-.185-.37h-.371l-.185-.37-1.112-.37-.371-.555h-.371l-.185-.37-.741-.37c-.317.5-.8.589-1.3.925l-.185.37h-.363l-.185.37-.741.185-.185.37-.741.185-.185.37h-.371a3.7 3.7 0 01-1.853.74.737.737 0 00.371.37c-.111.369.025.16-.185.37v.185h-.556c.12-.438.052-.347.371-.555v-.185a9.686 9.686 0 00-2.594.925h-.371c-.212.155.185.185.185.185l-.185.555h-.371v-.555h-.556v.185l-.556.185v-.185h-.185l-.185.37-1.853.185c-1.877.646-4.239 1.03-6.114 1.665h-.741v.185h-.926v.185c-.6.2-1.058 0-1.482.37h-.185a16.678 16.678 0 00-.556-1.849v-.925h-.185c-.212-.682.052-1.2-.371-1.665-.342-.244-2.9.173-3.891.185v.37c-.449-.114-.408-.195-.741-.37l-.185-4.439h-.185c-.192-.693.207-1.588-.185-2.034V68.8c-.476.391-.418.608-1.112.925l-.185-.555h-.185l.185 5.548h.185l.185 4.624c1.806-.025 3.423-.484 4.817-.37v-.557h.185l.185.555c-.083.129-.3.106-.185.555a13.249 13.249 0 01.741 3.514h.556l-.185.555 13.339-3.144v-.185h.556v-.185h.556l.185-.37h1.112c.019-.006-.039-.121.371-.185a4.172 4.172 0 00.741 1.11l.371.185.185.555.741.555v.37l1.112.925v.37l.926.74v.37l1.112.925V86c1.227-.168 2.609-2.148 3.705-2.774v-.185h.185l1.112 1.295h.371l.185.37a3.652 3.652 0 001.482 1.11c.21.207 0 .079.371.185l1.113-1.486.556-.37v-.37l.556-.37v-.37l.371-.185-.185-.37.371.185v-.185l.926-.74v-.37l.371-.185-.185-.37h.556c.079-.048.167-.26.371-.37v-.185c.405.274.425.072.926 0v.37c.4-.087.525-.118.741-.37h.371a.737.737 0 01-.371.37v.185l1.3.185v.185h.741v.185h.741v.185l1.667.185v.185h.741v.185h.735v.185h.741v.185h.741v.185h.741v.185h.926v.185h.741v.185c.6.2 1.054 0 1.482.37h.556v-.175h.185v-.925a10.1 10.1 0 00.741-3.329c.208-.158.029.025.185-.185l4.817.37.184-3.331h.185v-2.4h.185c.239-.855-.31-2.2.185-2.774V68.8l-.371.185c.11-.24.063-.463.185-.74.5.417.363-.2.371-.74zM50.762 78.787v.185h-.367l.556-.925c.37.111.16-.025.371.185-.28.177-.315.361-.556.555m-3.891-2.4c.208.21.079 0 .185.37h-.185zm-.926-.555l.371.185v.185h-.185v.185h-.185zm-3.149-.37c.425.389.273.324.185.74-.208.158-.029-.025-.185.185h-.185a2.342 2.342 0 01.185-.925m-1.853 1.48c-.37-.111-.16.025-.371-.185.37.111.16-.025.371.185m-1.482.74s-.057.028-.371-.37c.049.045.507.19.371.37m-24.64-7.583v-.185c-.208-.158-.029.025-.185-.185h.371c-.111.369.025.159-.185.37m.926 8.877v-.37c.208.21.079 0 .185.37zm2.223-.74c-.209.158-.029-.025-.185.185h-.185v-.555l.556-.185-.185.555m2.408 3.514l.185-.37h.185c.166.076-.357.362-.371.37m16.112-2.594c-.37.111-.16-.025-.371.185h-.185l.926-1.295h.185c.063.18-.458.913-.556 1.11m17.044.37c.37.111.16-.025.371.185-.37-.111-.16.025-.371-.185m2.408.555v-.185c-.209-.158-.029.025-.185-.185h.371c-.111.369.025.159-.185.37m1.482 0c.37.111.159-.025.371.185-.37-.111-.16.025-.371-.185M14.821 68.615c.12-.438.052-.347.371-.555v-.555c-.193.441-1.306-.13-1.667-.185.111.369-.025.16.185.37v1.295c.477-.253.316-.341 1.112-.37" fill-rule="evenodd"/></g><path d="M3.547 59.114a1.46 1.46 0 01-1.515.07 2.269 2.269 0 01-.782-.905 1.579 1.579 0 01-.183-.846q.049-.333.505-.498l.935-.082a26.764 26.764 0 015.043-.064 11.338 11.338 0 012.743.513 2.254 2.254 0 01.925.722 1.54 1.54 0 01.382.783.953.953 0 01-.126.528q-.137.232-.67.216-.733-.124-1.805-.36a14.076 14.076 0 00-2.689-.268 13.173 13.173 0 00-2.763.19zm-.313 12.572a2.129 2.129 0 01-1.19-.884 1.627 1.627 0 01-.367-1.144q.084-.478.904-.424a21.413 21.413 0 004.585-.119 19.161 19.161 0 003.82-.79l2.008-.71q.654-.226 1.022-.32a.834.834 0 01.32.788 1.937 1.937 0 01-.345.72 3.514 3.514 0 01-.887.8 11.204 11.204 0 01-2.475 1.094 17.32 17.32 0 01-3.569.843 24.672 24.672 0 01-3.826.146zm29.003-13.008q1.575-1.361 2.849-2.398t2.3-1.847a1.194 1.194 0 011.489-.193 2.407 2.407 0 01.765.717 1.667 1.667 0 01.289 1.01 39.264 39.264 0 00.084 4.023 12.347 12.347 0 00.537 3.278 5.799 5.799 0 00.687 1.398 1.088 1.088 0 00.713.44 3.382 3.382 0 001.596-.407 28.35 28.35 0 002.757-1.367 12.328 12.328 0 012.09-1.013.768.768 0 01.093.694 7.898 7.898 0 01-.464.793 6.432 6.432 0 01-1.464 1.367 11.208 11.208 0 01-2.585 1.43 3.19 3.19 0 01-2.599.054 5.089 5.089 0 01-2.241-2.498 10.844 10.844 0 01-1.12-4.198q-.151-2.276-.217-2.678a1.786 1.786 0 00-.213-.64 19.487 19.487 0 00-2.204 1.698q-1.194 1.046-3.179 3.101-.038 2.074.065 3.429t.222 2.724q.12 1.37.31 2.827a1.59 1.59 0 01.017.735q-.077.367-.848.342a1.018 1.018 0 01-1.015-.665q-.102-.4-.323-2.218t-.289-5.103a20.713 20.713 0 00-1.85 2.342q-.904 1.32-1.97 2.762a.787.787 0 01-1.324.273 1.682 1.682 0 01-.896-1.992q.332-1.942.864-4.466.17-.924-.211-.985-.376.002-.77-.011a1.739 1.739 0 01-.754-.201 1.91 1.91 0 01-.616-.59 2.9 2.9 0 01-.302-.585q-.05-.215.381-.487a2.522 2.522 0 011.26-.298 3.92 3.92 0 012.02.685 2.158 2.158 0 011.064 1.773q.068 1.14.076 2.302.624-.745 1.4-1.737t1.62-2.133q-.103-4.413-.064-6.298t.063-3.769q-.024-1.001-.067-1.5-.033-.373.244-.428l.063-.006a2.488 2.488 0 01.73.093 1.34 1.34 0 01.837.617 1.482 1.482 0 01.215 1.016q-.1 3.522-.13 5.704t.015 3.084zm26.318 6.514a2.227 2.227 0 001.648-.345 6.099 6.099 0 001.47-1.665 15.648 15.648 0 001.486-3.093 17.416 17.416 0 00.79-2.437 1.08 1.08 0 00-.202-.876 8.477 8.477 0 00-2.16.404 21.103 21.103 0 00-3.743 1.676q-.915 2.087-1.447 3.717a13.42 13.42 0 00-.645 3.209.874.874 0 01-.642.37 1.245 1.245 0 01-.77-.2 1.393 1.393 0 01-.556-.61 1.182 1.182 0 01-.028-.86q.442-1.418.628-2.156a17.506 17.506 0 01.62-1.872 13.583 13.583 0 00-1.26 1.019 1.006 1.006 0 01-1.038.31 1.584 1.584 0 01-.616-.589 3.568 3.568 0 01-.305-.617q-.05-.215.294-.59a10.139 10.139 0 011.68-1.228q1.337-.853 2.147-1.27.669-1.689 1.003-2.705t1.037-3.055a.706.706 0 01.553-.315 1.76 1.76 0 01.735.156 1.818 1.818 0 01.649.429.78.78 0 01.184.674 1.734 1.734 0 01-.223.678q-.26.619-.639 1.483t-.695 1.55a23.195 23.195 0 012.851-1.111 7.223 7.223 0 012.455-.262 1.929 1.929 0 011.227.395 2.642 2.642 0 01.775.967 2.347 2.347 0 01.15 1.367 14.745 14.745 0 01-1.02 3.585 15.742 15.742 0 01-1.878 3.442 7.174 7.174 0 01-1.637 1.773 2.473 2.473 0 01-.673.56 1.067 1.067 0 01-.871.077 2.389 2.389 0 01-.932-.797 2.165 2.165 0 01-.402-1.188zM68.71 53.987q2.798 1.512 5.038 2.743a15.387 15.387 0 012.824 1.808.694.694 0 01.315.38.6.6 0 01-.185.565.84.84 0 01-.78.269q-1.506-.716-3.129-1.534t-4.398-2.425a2.165 2.165 0 01-.726-.58 1.729 1.729 0 01-.404-.86q-.071-.464.088-.618a.6.6 0 01.56-.065 3.063 3.063 0 01.797.317zm2.176-4.895a9.461 9.461 0 001.2 2.42q.807 1.2 1.44 1.238a.963.963 0 01.524.255.992.992 0 01.305.428.664.664 0 01-.172.548.932.932 0 01-.624.4.934.934 0 01-.685-.128q-.636-.446-1.188-.852a4.816 4.816 0 01-1.074-1.161 12.74 12.74 0 01-1.021-1.824q-.501-1.069-1.091-2.084-.058-.654.249-.744a1.61 1.61 0 01.853.067 1.62 1.62 0 01.865.568 2.2 2.2 0 01.42.869zm2.327-2.085q.092-.385.777-.444l.125-.011a1.2 1.2 0 011.136.433 4 4 0 01.549 1.257 10.598 10.598 0 00.444 1.31 4.36 4.36 0 01.3 1.15.746.746 0 01-.718.204 1.344 1.344 0 01-.882-.581 8.551 8.551 0 01-.878-1.616 15.019 15.019 0 00-.853-1.702zM92.95 45.69q.722 0 .864.192t.378.563q.234.372-.147 1a9.546 9.546 0 00-1.485 1.31q-.922.942-2.822 3.24a1.984 1.984 0 01.667.645 6.352 6.352 0 01.174 1.992q.005 1.677-.099 4.258t-.11 4.29a5.399 5.399 0 00.366 2.4q.336.973-.29 1.33a1.146 1.146 0 01-1.334-.185 6.017 6.017 0 01-.601-1.484 14.097 14.097 0 01-.176-3.09q.103-4.212.145-6.065t.087-2.454q-1.602 1.77-2.718 3.17a30.576 30.576 0 00-1.888 2.612q-.777 1.21-1.087 1.615a2.584 2.584 0 00-.343.563 3.845 3.845 0 00-.162.83q.07.81-.77.883a1.192 1.192 0 01-1.081-.532 1.769 1.769 0 01-.1-1.325 11.482 11.482 0 011.48-2.81q1.284-1.994 2.953-4.1t3.367-4.183q1.7-2.078 2.797-3.177a7.18 7.18 0 011.935-1.488zm19.63-1.118q-1.442 3.607-2.465 6.253t-1.924 4.904q-.901 2.258-1.699 4.617a20.464 20.464 0 00-.98 3.85q.03.342.054.797a.688.688 0 01-.334.673 1.378 1.378 0 01-.945.13 1.053 1.053 0 01-.834-.57 2.4 2.4 0 01-.135-1.369q.206-.865.438-1.81t.964-2.97q.732-2.024 1.969-5.285t1.901-4.807a24.057 24.057 0 001.037-2.85q.372-1.304.524-2.038a.73.73 0 01.413-.663 1.162 1.162 0 01.277-.055 1.31 1.31 0 01.54.078 1.976 1.976 0 01.707.378 2.24 2.24 0 01.492.737zm23.158 2.305a9.086 9.086 0 00-1.94.577q-1.413.531-3.411 1.522a25.264 25.264 0 00-3.035 1.708 12.142 12.142 0 00-.325 3.102 9.264 9.264 0 00.362 2.352 6.899 6.899 0 00.634 1.513 1.7 1.7 0 001.639.799 5.333 5.333 0 001.474-.349q.728-.283 2.926-1.337t2.98-1.437a.692.692 0 01.98.103 1.55 1.55 0 01.38.75q.104.462-.59.774-1.79 1.066-3.324 1.812a29.06 29.06 0 01-2.933 1.244 5.045 5.045 0 01-2.328.093 4.86 4.86 0 01-2.001-.815 3.9 3.9 0 01-1.206-1.601 11.398 11.398 0 01-.685-2.813 16.842 16.842 0 01-.181-3.152 10.48 10.48 0 00-2.9 1.978 2.252 2.252 0 01-.616.494.669.669 0 01-.736.002 1.58 1.58 0 01-.555-.61 3.413 3.413 0 01-.304-.788 20.766 20.766 0 012.812-2.097q1.473-.912 2.697-1.615.204-.896.398-1.728t.542-2.227q.349-1.395.477-1.72a1.747 1.747 0 01.64-.212 1.162 1.162 0 01.282.006 1 1 0 01.62.464 2.13 2.13 0 01.186 1.222q-.443 1.388-.93 2.998.878-.359 2.345-.989t3.09-1.257a16.937 16.937 0 012.793-.858 1.776 1.776 0 012.114 1.226 4.54 4.54 0 01-.435 1.844 11.008 11.008 0 01-1.685 2.61 23.763 23.763 0 01-2.322 2.491 4.84 4.84 0 01-1.872 1.197.89.89 0 01-.587.098.713.713 0 01-.499-.317 2.039 2.039 0 01-.27-.572 1.574 1.574 0 01.578-.569 9.435 9.435 0 001.45-1.35 19.71 19.71 0 001.887-2.281 19.587 19.587 0 001.385-2.285zm27.16 1.423q-3.2 2.16-5.627 3.988a37.027 37.027 0 00-4.059 3.475q-1.628 1.648-3.2 3.385a1.657 1.657 0 01-.97.586 1.2 1.2 0 01-1.044-.285 1.53 1.53 0 01-.599-.575.78.78 0 01-.039-.799 1.808 1.808 0 01.523-.657q2.037-1.809 4.21-3.68t4.317-3.371a35.714 35.714 0 013.747-2.35 20.496 20.496 0 012.426-1.138.625.625 0 01.652.1.54.54 0 01.132.615 1.583 1.583 0 01-.47.706zm-17.855-4.776q1.449.439 2.165.737a31.182 31.182 0 012.967 1.638 1.668 1.668 0 01.608 1.405q-.115.654-.385.614a2.142 2.142 0 01-.564-.17 23.038 23.038 0 00-2.264-1.151 13.226 13.226 0 00-1.712-.573 1.609 1.609 0 01-1.31-.81 2.74 2.74 0 01-.397-.97.946.946 0 01.154-.53q.08-.164.423-.194a1.59 1.59 0 01.315.004zm29.684-5.572q-.03 1.446-.154 3.087t-.2 3.264q-.079 1.621-.135 2.41a5.068 5.068 0 001.292.077q1.802-.189 3.382-.421t2.982-.323q.924.17 1.005.556a3.946 3.946 0 01.042 1.016 17.471 17.471 0 01-2.89.66l-2.893.453q-1.098.174-1.529.275a3.391 3.391 0 01-1.39-.13 8.942 8.942 0 00-.247 2.39q.015 1.425.12 3.157a36.228 36.228 0 00.41 3.618 24.162 24.162 0 00.7 3.17 2.018 2.018 0 01-1.661.019 1.922 1.922 0 01-.628-1.09q-.191-.752-.486-2.874a52.446 52.446 0 01-.311-6.433q-.017-4.314.184-7.402t.267-4.132a18.956 18.956 0 00-.02-2.382q.011-.597.416-.632a1.9 1.9 0 011.074.455 1.36 1.36 0 01.67 1.212zm24.581 3.874a19.172 19.172 0 01-1.037 4.105 19.738 19.738 0 01-1.836 3.72 11.04 11.04 0 01-2.769 2.951 9.043 9.043 0 01-1.641.96 1.7 1.7 0 01-1.058.126 3.27 3.27 0 01-1.065-.518 3.4 3.4 0 01-.988-1.09 4.272 4.272 0 01-.435-1.75 8.765 8.765 0 01.434-2.747 9.05 9.05 0 011.754-3.259 12.727 12.727 0 012.668-2.49 15.772 15.772 0 013.938-1.772 1.7 1.7 0 01.819-.322l.187-.017a7.099 7.099 0 01.813.118q.307.068.657.162a4.94 4.94 0 011.61.471 7.683 7.683 0 011.57 1.101 5.039 5.039 0 011.404 2.418 10.179 10.179 0 01.352 3.842 20.408 20.408 0 01-.478 3.334 13.897 13.897 0 01-.832 2.315 3.132 3.132 0 01-.309.592.806.806 0 01-.432.258 1.12 1.12 0 01-.71-.095 1.562 1.562 0 01-.683-.442 1.644 1.644 0 01-.303-.6.674.674 0 01.104-.606 6.599 6.599 0 00.622-.916 9.839 9.839 0 00.538-1.882 16.62 16.62 0 00.4-2.951 9.131 9.131 0 00-.14-2.34 5.199 5.199 0 00-.423-1.39 1.927 1.927 0 00-.676-.745 3.043 3.043 0 00-.991-.399 5.968 5.968 0 00-1.064-.142zm-8.857 9.9a2.112 2.112 0 001.739-.559 12.827 12.827 0 002.452-2.8 13.961 13.961 0 001.617-3.386 19.536 19.536 0 00.726-2.823 13.697 13.697 0 00-2.661 1.487 9.056 9.056 0 00-2.665 2.71 8.242 8.242 0 00-1.261 2.98 5.638 5.638 0 00.052 2.39zM31.042 86.23q-.437.64-3.133 4.336t-7 10.026q-4.305 6.331-5.638 8.67a31.352 31.352 0 00-1.692 3.249 7.65 7.65 0 00-.285 1.12 6.92 6.92 0 00-.191.95 2.02 2.02 0 01-2.344.807l-.391-.075a2.168 2.168 0 01-.932-3.13q.989-1.87 2.747-4.686t7.242-10.704q5.485-7.888 8.487-12.483 1.328-1.763 2.772-4.084a2.266 2.266 0 01.93-1.285 1.085 1.085 0 01.48-.152 1.455 1.455 0 01.9.25 2.072 2.072 0 011.177 1.216 2.226 2.226 0 01-.093 1.764 5.448 5.448 0 01-.788 1.03.908.908 0 00-.268.71q4.412 3.4 9.254 6.656 1.106.726 2.158 1.458 3.788 2.524 7.738 5.033 5.053 3.18 6.195 3.685a6.524 6.524 0 011.49 1.352 1.888 1.888 0 01.026 2.24 1.676 1.676 0 01-2.197-.028q-1.867-1.264-3.94-2.702t-5.384-3.509q-3.088-2.038-6.574-4.255l-.346-.19q-3.61-2.374-6.096-4.132t-4.304-3.137zM42.61 99.27a1.615 1.615 0 01-2.107 1.007 20.683 20.683 0 00-4.276.374 36.24 36.24 0 00-5.08 1.212q-1.12.372-2.077.73-1.007.418-1.85.82a2.883 2.883 0 01-3.753-.876q-1.123-1.549.785-2.318 6.233-1.532 12.42-2.951l1.833-.38a5.152 5.152 0 011.825-.16 1.9 1.9 0 011.506.912 6.237 6.237 0 01.774 1.63zm-12.12 22.738a1.76 1.76 0 01-2.536.495 11.522 11.522 0 01-2.164-3.405 24.47 24.47 0 01-1.755-5.33q-.608-2.884-.95-4.282a2.152 2.152 0 01.289-1.095q.286-.491 1.618-.333t1.57.741a2.836 2.836 0 01.236 1.132 43.391 43.391 0 018.215-3.352 33.166 33.166 0 017.498-1.478 13.884 13.884 0 011.695.236 1.679 1.679 0 011.317.955 3.12 3.12 0 01.294 1.48 15.83 15.83 0 01-1.029 3.881q-.808 2.047-1.308 3.243a3.821 3.821 0 01.917-.19 3.345 3.345 0 011.34.267q.85.31 1.067 2.157-1.537.623-2.702 1.107-3.984 1.5-9.784 3.598a2.528 2.528 0 01-2.591-.761 7.398 7.398 0 01-.64-1.673q-.105-.567.857-.871 4.012-1.174 7.413-2.454a10.944 10.944 0 001.813-3.753 15.016 15.016 0 00.869-3.836 21.145 21.145 0 00-3.465.55 29.683 29.683 0 00-4.985 1.67q-2.779 1.176-4.618 2.11a1.45 1.45 0 01-1.944-.27 18.303 18.303 0 001.559 5.594q1.025 1.964 1.253 2.387a15.397 15.397 0 01.651 1.48zm59.113-16.304q-4.558 5.617-5.627 6.584a6.04 6.04 0 01-1.186-.39 1.587 1.587 0 01-.875-.911 1.453 1.453 0 01.032-1.208 3.375 3.375 0 01.84-1.06q4.25-4.762 7.906-9.088t4.482-5.551q-.756-.483-1.457-.97a11.93 11.93 0 01-.957-.905l-.305-.358a3.14 3.14 0 01-.52-1.244 1.365 1.365 0 01.356-1.265 1.144 1.144 0 011.25-.439q.651.217 1.278.49a6.282 6.282 0 00.943.741 16.058 16.058 0 001.61.9 23.263 23.263 0 003.651-4.16l.587-.82a38.48 38.48 0 002.262-4.26 22.201 22.201 0 00-7.78 2.052 17.936 17.936 0 00-4.63 2.902 13.783 13.783 0 01-2.993 2.182q-1.108.508-1.602.195a6.482 6.482 0 01-.97-.766 7.753 7.753 0 01-.496-.973 1.282 1.282 0 01.013-1.099 2.222 2.222 0 01.666-.854q2.943-3.385 5.005-5.541a19.251 19.251 0 002.775-3.426 1.329 1.329 0 012.228-.25 2.507 2.507 0 011.154.97 2.215 2.215 0 01.344 1.423 3.846 3.846 0 01-.348 1.348q1.347-.282 3.284-.725t4.395-1.207a2.514 2.514 0 013.091.828 2.718 2.718 0 01.531 2.314 3.03 3.03 0 01-.354.964 40.373 40.373 0 01-2.778 4.332q-1.641 2.256-2.937 4.07a17.154 17.154 0 00-1.616 2.556 24.57 24.57 0 004.103 2.358q3.388 1.711 6.175 3.138t3.869 1.885a1.883 1.883 0 011.06.84 1.59 1.59 0 01.092 2.301 1.453 1.453 0 01-2.07.18q-2.006-.976-5.173-2.676T102.53 97.8q-3.214-1.613-4.133-2.082-2.704 2.98-6.527 7.595a6.436 6.436 0 012.026 1.195q3.296-1.22 6.056-1.983a34.346 34.346 0 015.479-1.054 5.05 5.05 0 012.177.11 3.78 3.78 0 012.023 1.169 2.557 2.557 0 01.644 2.029 47.097 47.097 0 01-.905 5.73 35.977 35.977 0 01-1.105 3.993q.626 2.14-.242 2.573a16.39 16.39 0 01-2.31.888 28.046 28.046 0 00-5.445 1.436q-3.866 1.298-4.474.94t-1.303-.79a12.374 12.374 0 01-1.798-2.668 17.021 17.021 0 01-1.377-4.137q-.55-2.532-1.272-5.762a8.635 8.635 0 00-.44-1.279zm6.032 10.613a18.453 18.453 0 004.177-.556 28.454 28.454 0 004.805-1.545 27.277 27.277 0 001.102-4.624q.325-2.252.494-4.681a21.995 21.995 0 00-4.438.717 18.896 18.896 0 00-3.58 1.36q-1.55.794-2.203 1.208a2.482 2.482 0 01-1.822.187 16.335 16.335 0 00.22 4.095 15.433 15.433 0 001.245 3.84zm-9.776-15.778q-.051.663-.106 1.299a.937.937 0 01-.694.856 4.1 4.1 0 01-1.863.025 26.44 26.44 0 01-2.967-.644q-.51-.175-1.023-.404a13.797 13.797 0 01-2.001-.923q-.014 1.099-.018 2.31.026 2.192.051 4.99.047 4.28.328 10.013a2.9 2.9 0 01-.268 1.643 1.11 1.11 0 01-1.126.62 2.265 2.265 0 01-2.203-1.948q.024-5.38.056-10.05.025-1.593.06-3.078-.03-2.851-.066-5.153a34.86 34.86 0 00-2.544 3.515q-1.454 2.212-3.545 5.907l-.659 1.262a5.392 5.392 0 01-1.48 1.286 6.968 6.968 0 01-.965-.355l-.564-.17a1.625 1.625 0 01-.94-1.345q2.101-3.587 4.928-8.307t4.68-8.614a5.087 5.087 0 001.432-1.831 15.297 15.297 0 01.09-2.752q-2.24.798-4.437 1.677a35.886 35.886 0 00-3.982 1.853 2.561 2.561 0 01-2.854-.628q-1.667-1.502.55-2.518 2.955-1.356 5.722-2.339t4.745-1.594a22.975 22.975 0 00.037-3.352q-.102-1.797-.378-3.699a2.45 2.45 0 01-.11-1.253 1.032 1.032 0 01.914-.848 2.48 2.48 0 011.76.615 2.637 2.637 0 01.957 2.166q.073 2.08.33 5.02 1.6-.524 3.474-1.072a3.342 3.342 0 011.697-.368 1.508 1.508 0 011.4.948 8.138 8.138 0 01.632 1.892 9.598 9.598 0 00-1.452.347q-2.091.567-5.662 1.812-.278 4.36-.31 6.504a24.06 24.06 0 00.126 3.337q1.102.672 2.885 1.613a14.465 14.465 0 001.77.724 30.138 30.138 0 003.593 1.01zm52.425 17.652a3.477 3.477 0 01-2.135-.252q-1-.461-.525-1.93.68-1.651 1.537-4.086t2.372-6.463q-1.636.801-2.788 1.395a20.802 20.802 0 00-2.55 1.595 1.692 1.692 0 01-1.257.384 2.555 2.555 0 01-1.08-.729 3.491 3.491 0 01-.824-1.904 14.977 14.977 0 013.536-2.257q2.367-1.167 6.502-2.846 1.086-3.278 1.462-4.628-2.018.779-3.61 1.414a2.706 2.706 0 01-1.538.299q-.64-.11-1.108-1.056a3.32 3.32 0 01-.357-.956 4.524 4.524 0 01-.194-.97q1.166-.432 2.934-.97 1.868-.603 4.802-1.572.277-1.229.422-2.067.137-.946.217-1.282a31.21 31.21 0 00-5.842 1.608 3.131 3.131 0 01-1.69.45 1.6 1.6 0 01-1.12-.89 3.866 3.866 0 01-.562-1.406q-.079-.595.635-.906a36.204 36.204 0 013.855-1.108q3.142-.796 4.87-1.112a7.576 7.576 0 00.035-2.115 2.086 2.086 0 01.305-1.532 2.855 2.855 0 011.782-.018 1.972 1.972 0 011.298 1.066 4.737 4.737 0 01.441 1.609q.98-.086 2.286-.255a5.575 5.575 0 011.866.002l.228.09a1.314 1.314 0 011.115 1.136 1.956 1.956 0 01-.327 1.696l-2.451.214a26.295 26.295 0 00-2.814.465q-.233 1.727-.59 3.29a11.184 11.184 0 011.445-.427q.646-.139 1.322-.253a1.857 1.857 0 011.076.07 2.526 2.526 0 01.83.697 1.019 1.019 0 01.313 1.07 1.669 1.669 0 01-.954 1.017 29.16 29.16 0 00-2.89.829 8.763 8.763 0 01-1.881.465q-1.069 2.837-1.67 4.757.843-.403 3.804-1.375t7.828-2.44a1.822 1.822 0 012.455 1.048 1.667 1.667 0 01-.297 1.315 2.258 2.258 0 01-1.22.793q-3.865.996-5.818 1.578a22.94 22.94 0 00-3.792 1.512q3.291 3.115 6.498 6.21a43.959 43.959 0 005.888 4.893 2.816 2.816 0 01.197 1.63 2.035 2.035 0 01-1.671.968 4.4 4.4 0 01-1.82-.72q-3.212-2.847-6.036-5.646t-4.274-4.32a14.379 14.379 0 01-1.71-1.99l-1.283.385q-1.744 4.543-2.727 7.428t-1.693 4.513q-.708 1.626-1.058 2.59zm-9.791-37.948q2.603-.996 3.955-1.525t10.774-3.274q-.779-3.883-1.585-8.091a4.724 4.724 0 011.447-.4q1.852-.162 2.486 2.033.392 2.6.796 5.968 1.342-.337 5.38-.909a50.912 50.912 0 019.385-.326 9.14 9.14 0 012.255.681 3.866 3.866 0 011.659 1.392l.191.312a3.548 3.548 0 01-.057 2.173 11.016 11.016 0 01-.993 2.145 26.344 26.344 0 01-3.222 4.261 10.45 10.45 0 01-2.35 2.012 2.517 2.517 0 01-1.745.125q-.982-.243-1.039-.897a43.053 43.053 0 003.378-4.685q.87-1.339 1.389-2.317a8.483 8.483 0 00.674-1.705q-1.21-.664-6.112-.536a38.519 38.519 0 00-9.851 1.574q-4.95 1.448-8.589 2.78a20.462 20.462 0 00-4.67 2.137 5.238 5.238 0 01-3.28.78 35.1 35.1 0 00.495 4.101 9.098 9.098 0 00.852 2.862l.993 1.62a1.558 1.558 0 01-1.544 1.177 2.461 2.461 0 01-1.809-.912 7.477 7.477 0 01-1.234-2.501 20.669 20.669 0 01-.785-3.966q-.257-2.31-.56-5.47t-.325-5.292q.084-2.806 2.406-1.362a1.914 1.914 0 011.054.76 1.756 1.756 0 01.401 1.144q-.034.552-.1 1.052-.14 1.654-.125 3.08zm79.04-1.8a24.305 24.305 0 01.075-2.917 21.308 21.308 0 00-2.355 1.002 10.198 10.198 0 01-1.883.74 3.23 3.23 0 01-2.046-2.731 26.51 26.51 0 013.196-1.431 16.932 16.932 0 002.77-1.285q-.044-1.753-.246-3.436a7.298 7.298 0 00-2.4.786q-1.208.627-2.414 1.28a2 2 0 01-2.945-.4q-1.41-1.684.698-2.696 2.92-1.133 4.617-1.804a8.066 8.066 0 002-.97 3.02 3.02 0 00.02-1.889 2.554 2.554 0 01.651-2.28 3.334 3.334 0 013.114 2.967q2.257-.581 3.647-.977a2.227 2.227 0 012.804.689 3.23 3.23 0 01.39 1.942 2.418 2.418 0 01-1.523.791 41.672 41.672 0 00-5.04 1.374q.003 1.92.15 3.609a15.307 15.307 0 002.488-.437l2.257-.582a2.023 2.023 0 011.376.044 1.642 1.642 0 011.019.981 5.659 5.659 0 01.358 1.588q-3.869.94-7.347 1.96a13.923 13.923 0 00.013 3.29l.377-.087q2.67-.836 5.193-1.441 2.74-.678 7.299-1.9a1.93 1.93 0 012.41 1.16q1.2 1.817-1.077 2.125a40.538 40.538 0 00-6.334 1.322q-2.377.757-6.275 1.7a41.17 41.17 0 00-7.223 2.438q-2.851 1.292-5.587 2.684-.476.206-.947.467-1.92.003-2.693-2.564a49.89 49.89 0 015.043-2.581q3.01-1.36 6.366-2.531zm.155 8.055q2.325-1.026 3.818-1.538t5.658-1.866a3.057 3.057 0 012.301.266 2.306 2.306 0 011.286 1.835q.004 4.446-.113 8.133t-.296 6.667q.098 1.854-1.46 2.21a3.857 3.857 0 01-1.94-.215q-4.347 1.752-8.016 3.115a2.5 2.5 0 01-2.7-.752 8.83 8.83 0 01-1.216-3.242 59.688 59.688 0 01-.967-7.297q-.43-4.929-.498-8.216a1.954 1.954 0 011.718-.752 4.16 4.16 0 012.42 1.652zm9.463 10.313q-4.862 1.523-9.238 2.948a1.87 1.87 0 00.283 1.045 7.752 7.752 0 01.487.86 13.515 13.515 0 002.522-.658q1.813-.598 3.607-1.111a5.965 5.965 0 002.171-.903 1.167 1.167 0 00.263-1.066 5.69 5.69 0 01-.099-1.113zm.322-10.73q-2.353.7-4.11 1.32t-3.137 1.177a19.075 19.075 0 01-2.938.915q-.054 1.268-.063 2.42 5.936-1.78 10.348-3.428a9.262 9.262 0 00-.1-2.403zm-.163 5.668q-2.586.555-5.282 1.422t-4.981 1.725q.185.862.427 2.377 2.489-1.04 4.543-1.713t5.226-1.444q.086-1.49.065-2.367zm10.87 17.601q-.219 1.885-1.86 1.315-1.888-.933-3.398-1.816a23.886 23.886 0 00-3.323-1.603 12.35 12.35 0 01-1.955-1.695 1.526 1.526 0 01-.022-1.504 1.45 1.45 0 011.092-.697 2.745 2.745 0 011.447.23q2.836 1.673 4.826 2.79a11.967 11.967 0 012.839 2.03 2.523 2.523 0 01.35.95zm-21.594 3.478q1.73-3.444 3.702-6.635a1.535 1.535 0 011.215-.544 4.44 4.44 0 011.409.425 1.577 1.577 0 01.59 2.363q-1.856 2.692-3.825 5.272a1.588 1.588 0 01-1.753.345 3.134 3.134 0 01-1.343-1.225zM192.14 88.244a16.604 16.604 0 00-1.521 1.12q-.743.615-1.567 1.236.006 1.317.056 2.52.245 12.222.285 13.312a23.074 23.074 0 00.595 3.68 1.494 1.494 0 01-.298.987 1.584 1.584 0 01-.876.652 2.227 2.227 0 01-1.815-.664 6.387 6.387 0 01-.768-2.512q-.228-5.743-.439-13.19l.012-.494q-.164-1.249-.377-2.437a20.063 20.063 0 00-2.157 1.066q-1.148.65-4.591 2.107a2.336 2.336 0 01-3.16-.986 4.788 4.788 0 01-.534-1.085 1.468 1.468 0 01.037-1.155 2.787 2.787 0 01.661-.909q2.72-3.42 4.267-5.148a25.623 25.623 0 002.278-2.833q-2.546-.875-5.424-1.776a3.146 3.146 0 01-1.469-1.738 2.025 2.025 0 01.504-2.404q3.116-3.291 5.454-6.047t3.861-4.81a7.986 7.986 0 011.687.454q1.902 1.096 1.362 2.406-2.618 2.699-4.394 4.665t-2.749 3.095a11.526 11.526 0 00-1.256 1.646 4.087 4.087 0 002.068 1.054 10.672 10.672 0 002.837.438q2.192-2.552 4.214-4.539a5.564 5.564 0 01.94-.878 1.02 1.02 0 011.236.03 3.658 3.658 0 011.706 1.936q.275.635.051.9a3.12 3.12 0 01-.744.586 21.755 21.755 0 00-2.87 2.638 14.825 14.825 0 00-1.91 2.335 3.858 3.858 0 01-1.259 1.29 12.617 12.617 0 00-2.178 2.084q-1.298 1.485-3.153 4.117 2.067-.839 2.486-1.068t1.71-.836q1.292-.606 2.599-1.352t2.448-1.503q.092-.831.229-1.777.248-1.558 1.617-1.019a14.446 14.446 0 012.186 1.785q1.14 1.105 2.22 2.167l.474.398q.834.75 1.485 1.297a1.426 1.426 0 01.335 1.947 1.489 1.489 0 01-2.046.453 8.014 8.014 0 01-1.97-1.2l-.65-.545q-.774-.65-1.725-1.496zm-8.384 12.093q-1.588 2.5-2.392 3.722a70.227 70.227 0 00-3.242 6.54 2.26 2.26 0 01-1.704-.345 2.448 2.448 0 01-.919-1.402 12.138 12.138 0 01.88-3.1 61.85 61.85 0 013.364-6.115l.19-.346a1.339 1.339 0 011.236-.93l.436-.039a2.5 2.5 0 011.365.54q1.1.675.786 1.471zm15.748-1.924q-.009 1.153-.555 1.503t-2.237-.161a51.813 51.813 0 01-5.136-2.241 3.117 3.117 0 01-.482-2.07q.079-1.297 1.252-1.07a41.633 41.633 0 015.455 2.706 7.698 7.698 0 011.703 1.329z" fill="#252525"/></svg>