<svg xmlns="http://www.w3.org/2000/svg" width="131" height="131" viewBox="0 0 131 131"><defs><clipPath id="a"><path fill="none" d="M0 0h131v131H0z"/></clipPath></defs><g opacity=".5" clip-path="url(#a)" fill="#ed7b27"><circle cx="2.5" cy="2.5" r="2.5"/><circle cx="2.5" cy="2.5" r="2.5" transform="translate(21)"/><circle cx="2.5" cy="2.5" r="2.5" transform="translate(42)"/><circle cx="2.5" cy="2.5" r="2.5" transform="translate(63)"/><circle cx="2.5" cy="2.5" r="2.5" transform="translate(84)"/><circle cx="2.5" cy="2.5" r="2.5" transform="translate(105)"/><circle cx="2.5" cy="2.5" r="2.5" transform="translate(126)"/><circle cx="2.5" cy="2.5" r="2.5" transform="translate(0 21)"/><circle cx="2.5" cy="2.5" r="2.5" transform="translate(21 21)"/><circle cx="2.5" cy="2.5" r="2.5" transform="translate(42 21)"/><circle cx="2.5" cy="2.5" r="2.5" transform="translate(63 21)"/><circle cx="2.5" cy="2.5" r="2.5" transform="translate(84 21)"/><circle cx="2.5" cy="2.5" r="2.5" transform="translate(105 21)"/><circle cx="2.5" cy="2.5" r="2.5" transform="translate(126 21)"/><circle cx="2.5" cy="2.5" r="2.5" transform="translate(0 42)"/><circle cx="2.5" cy="2.5" r="2.5" transform="translate(21 42)"/><circle cx="2.5" cy="2.5" r="2.5" transform="translate(42 42)"/><circle cx="2.5" cy="2.5" r="2.5" transform="translate(63 42)"/><circle cx="2.5" cy="2.5" r="2.5" transform="translate(84 42)"/><circle cx="2.5" cy="2.5" r="2.5" transform="translate(105 42)"/><circle cx="2.5" cy="2.5" r="2.5" transform="translate(126 42)"/><circle cx="2.5" cy="2.5" r="2.5" transform="translate(0 63)"/><circle cx="2.5" cy="2.5" r="2.5" transform="translate(21 63)"/><circle cx="2.5" cy="2.5" r="2.5" transform="translate(42 63)"/><circle cx="2.5" cy="2.5" r="2.5" transform="translate(63 63)"/><circle cx="2.5" cy="2.5" r="2.5" transform="translate(84 63)"/><circle cx="2.5" cy="2.5" r="2.5" transform="translate(105 63)"/><circle cx="2.5" cy="2.5" r="2.5" transform="translate(126 63)"/><circle cx="2.5" cy="2.5" r="2.5" transform="translate(0 84)"/><circle cx="2.5" cy="2.5" r="2.5" transform="translate(21 84)"/><circle cx="2.5" cy="2.5" r="2.5" transform="translate(42 84)"/><circle cx="2.5" cy="2.5" r="2.5" transform="translate(63 84)"/><circle cx="2.5" cy="2.5" r="2.5" transform="translate(84 84)"/><circle cx="2.5" cy="2.5" r="2.5" transform="translate(105 84)"/><circle cx="2.5" cy="2.5" r="2.5" transform="translate(126 84)"/><circle cx="2.5" cy="2.5" r="2.5" transform="translate(0 105)"/><circle cx="2.5" cy="2.5" r="2.5" transform="translate(21 105)"/><circle cx="2.5" cy="2.5" r="2.5" transform="translate(42 105)"/><circle cx="2.5" cy="2.5" r="2.5" transform="translate(63 105)"/><circle cx="2.5" cy="2.5" r="2.5" transform="translate(84 105)"/><circle cx="2.5" cy="2.5" r="2.5" transform="translate(105 105)"/><circle cx="2.5" cy="2.5" r="2.5" transform="translate(126 105)"/><circle cx="2.5" cy="2.5" r="2.5" transform="translate(0 126)"/><circle cx="2.5" cy="2.5" r="2.5" transform="translate(21 126)"/><circle cx="2.5" cy="2.5" r="2.5" transform="translate(42 126)"/><circle cx="2.5" cy="2.5" r="2.5" transform="translate(63 126)"/><circle cx="2.5" cy="2.5" r="2.5" transform="translate(84 126)"/><circle cx="2.5" cy="2.5" r="2.5" transform="translate(105 126)"/><circle cx="2.5" cy="2.5" r="2.5" transform="translate(126 126)"/></g></svg>