<svg xmlns="http://www.w3.org/2000/svg" xmlns:xlink="http://www.w3.org/1999/xlink" width="21" height="37" viewBox="0 0 21 37"><defs><clipPath id="a"><rect width="21" height="37" transform="translate(903 4419)" fill="#5727db" opacity="0.558"/></clipPath></defs><g transform="translate(-903 -4419)" clip-path="url(#a)"><path d="M22.038-11.924l-1.1-17.66L20.774-35.9h6.451l-.161,6.321-1.1,17.66ZM24,.322a3.524,3.524,0,0,1-2.556-1,3.5,3.5,0,0,1-1.03-2.627,3.526,3.526,0,0,1,1.044-2.643A3.508,3.508,0,0,1,24-6.966a3.508,3.508,0,0,1,2.543,1.017,3.526,3.526,0,0,1,1.044,2.643A3.475,3.475,0,0,1,26.543-.679,3.536,3.536,0,0,1,24,.322Z" transform="translate(883.864 4448.571) rotate(16)" fill="#fff"/></g></svg>