<svg xmlns="http://www.w3.org/2000/svg" width="21" height="37" viewBox="0 0 21 37"><defs><clipPath id="a"><path transform="translate(903 4419)" fill="#5727db" opacity=".558" d="M0 0h21v37H0z"/></clipPath></defs><g transform="translate(-903 -4419)" clip-path="url(#a)"><path d="M908.335 4443.183l3.81-17.279 1.584-6.116 6.2 1.778-1.896 6.032-5.925 16.672zm-1.49 12.313a3.524 3.524 0 01-2.18-1.666 3.5 3.5 0 01-.267-2.81 3.526 3.526 0 011.732-2.252 3.508 3.508 0 012.724-.278 3.508 3.508 0 012.165 1.679 3.526 3.526 0 01.275 2.828 3.475 3.475 0 01-1.728 2.238 3.536 3.536 0 01-2.72.26z" fill="#fff"/></g></svg>